G04 #@! TF.GenerationSoftware,KiCad,Pcbnew,5.0.2+dfsg1-1~bpo9+1*
G04 #@! TF.CreationDate,2019-07-30T16:59:57+07:00*
G04 #@! TF.ProjectId,edukate,6564756b-6174-4652-9e6b-696361645f70,rev?*
G04 #@! TF.SameCoordinates,Original*
G04 #@! TF.FileFunction,Legend,Top*
G04 #@! TF.FilePolarity,Positive*
%FSLAX46Y46*%
G04 Gerber Fmt 4.6, Leading zero omitted, Abs format (unit mm)*
G04 Created by KiCad (PCBNEW 5.0.2+dfsg1-1~bpo9+1) date Tue 30 Jul 2019 04:59:57 PM +07*
%MOMM*%
%LPD*%
G01*
G04 APERTURE LIST*
%ADD10C,0.300000*%
%ADD11C,0.150000*%
%ADD12C,0.200000*%
%ADD13C,0.250000*%
%ADD14C,0.120000*%
%ADD15C,0.100000*%
%ADD16C,0.010000*%
G04 APERTURE END LIST*
D10*
X64852857Y-158030000D02*
X64852857Y-157530000D01*
X65638571Y-157315714D02*
X65638571Y-158030000D01*
X64138571Y-158030000D01*
X64138571Y-157315714D01*
X65638571Y-156672857D02*
X64138571Y-156672857D01*
X64138571Y-156315714D01*
X64210000Y-156101428D01*
X64352857Y-155958571D01*
X64495714Y-155887142D01*
X64781428Y-155815714D01*
X64995714Y-155815714D01*
X65281428Y-155887142D01*
X65424285Y-155958571D01*
X65567142Y-156101428D01*
X65638571Y-156315714D01*
X65638571Y-156672857D01*
X64138571Y-155172857D02*
X65352857Y-155172857D01*
X65495714Y-155101428D01*
X65567142Y-155030000D01*
X65638571Y-154887142D01*
X65638571Y-154601428D01*
X65567142Y-154458571D01*
X65495714Y-154387142D01*
X65352857Y-154315714D01*
X64138571Y-154315714D01*
X65638571Y-153601428D02*
X64138571Y-153601428D01*
X65638571Y-152744285D02*
X64781428Y-153387142D01*
X64138571Y-152744285D02*
X64995714Y-153601428D01*
X65210000Y-152172857D02*
X65210000Y-151458571D01*
X65638571Y-152315714D02*
X64138571Y-151815714D01*
X65638571Y-151315714D01*
X64138571Y-151030000D02*
X64138571Y-150172857D01*
X65638571Y-150601428D02*
X64138571Y-150601428D01*
X64852857Y-149672857D02*
X64852857Y-149172857D01*
X65638571Y-148958571D02*
X65638571Y-149672857D01*
X64138571Y-149672857D01*
X64138571Y-148958571D01*
X65067142Y-147172857D02*
X65067142Y-146030000D01*
X65495714Y-143315714D02*
X65567142Y-143387142D01*
X65638571Y-143601428D01*
X65638571Y-143744285D01*
X65567142Y-143958571D01*
X65424285Y-144101428D01*
X65281428Y-144172857D01*
X64995714Y-144244285D01*
X64781428Y-144244285D01*
X64495714Y-144172857D01*
X64352857Y-144101428D01*
X64210000Y-143958571D01*
X64138571Y-143744285D01*
X64138571Y-143601428D01*
X64210000Y-143387142D01*
X64281428Y-143315714D01*
X65638571Y-142672857D02*
X64138571Y-142672857D01*
X64852857Y-142672857D02*
X64852857Y-141815714D01*
X65638571Y-141815714D02*
X64138571Y-141815714D01*
X65638571Y-141101428D02*
X64138571Y-141101428D01*
X65638571Y-140387142D02*
X64138571Y-140387142D01*
X64138571Y-139815714D01*
X64210000Y-139672857D01*
X64281428Y-139601428D01*
X64424285Y-139530000D01*
X64638571Y-139530000D01*
X64781428Y-139601428D01*
X64852857Y-139672857D01*
X64924285Y-139815714D01*
X64924285Y-140387142D01*
X64781428Y-137530000D02*
X64710000Y-137672857D01*
X64638571Y-137744285D01*
X64495714Y-137815714D01*
X64424285Y-137815714D01*
X64281428Y-137744285D01*
X64210000Y-137672857D01*
X64138571Y-137530000D01*
X64138571Y-137244285D01*
X64210000Y-137101428D01*
X64281428Y-137030000D01*
X64424285Y-136958571D01*
X64495714Y-136958571D01*
X64638571Y-137030000D01*
X64710000Y-137101428D01*
X64781428Y-137244285D01*
X64781428Y-137530000D01*
X64852857Y-137672857D01*
X64924285Y-137744285D01*
X65067142Y-137815714D01*
X65352857Y-137815714D01*
X65495714Y-137744285D01*
X65567142Y-137672857D01*
X65638571Y-137530000D01*
X65638571Y-137244285D01*
X65567142Y-137101428D01*
X65495714Y-137030000D01*
X65352857Y-136958571D01*
X65067142Y-136958571D01*
X64924285Y-137030000D01*
X64852857Y-137101428D01*
X64781428Y-137244285D01*
X64852857Y-135172857D02*
X64852857Y-134672857D01*
X65638571Y-134458571D02*
X65638571Y-135172857D01*
X64138571Y-135172857D01*
X64138571Y-134458571D01*
X65638571Y-133815714D02*
X64138571Y-133815714D01*
X65210000Y-133315714D01*
X64138571Y-132815714D01*
X65638571Y-132815714D01*
X64138571Y-132101428D02*
X65352857Y-132101428D01*
X65495714Y-132030000D01*
X65567142Y-131958571D01*
X65638571Y-131815714D01*
X65638571Y-131530000D01*
X65567142Y-131387142D01*
X65495714Y-131315714D01*
X65352857Y-131244285D01*
X64138571Y-131244285D01*
X65638571Y-129815714D02*
X65638571Y-130530000D01*
X64138571Y-130530000D01*
X65210000Y-129387142D02*
X65210000Y-128672857D01*
X65638571Y-129530000D02*
X64138571Y-129030000D01*
X65638571Y-128530000D01*
X64138571Y-128244285D02*
X64138571Y-127387142D01*
X65638571Y-127815714D02*
X64138571Y-127815714D01*
X64138571Y-126601428D02*
X64138571Y-126315714D01*
X64210000Y-126172857D01*
X64352857Y-126030000D01*
X64638571Y-125958571D01*
X65138571Y-125958571D01*
X65424285Y-126030000D01*
X65567142Y-126172857D01*
X65638571Y-126315714D01*
X65638571Y-126601428D01*
X65567142Y-126744285D01*
X65424285Y-126887142D01*
X65138571Y-126958571D01*
X64638571Y-126958571D01*
X64352857Y-126887142D01*
X64210000Y-126744285D01*
X64138571Y-126601428D01*
X65638571Y-124458571D02*
X64924285Y-124958571D01*
X65638571Y-125315714D02*
X64138571Y-125315714D01*
X64138571Y-124744285D01*
X64210000Y-124601428D01*
X64281428Y-124530000D01*
X64424285Y-124458571D01*
X64638571Y-124458571D01*
X64781428Y-124530000D01*
X64852857Y-124601428D01*
X64924285Y-124744285D01*
X64924285Y-125315714D01*
X72802857Y-170700000D02*
X73517142Y-170700000D01*
X72660000Y-171128571D02*
X73160000Y-169628571D01*
X73660000Y-171128571D01*
X91678571Y-169628571D02*
X91821428Y-169628571D01*
X91964285Y-169700000D01*
X92035714Y-169771428D01*
X92107142Y-169914285D01*
X92178571Y-170200000D01*
X92178571Y-170557142D01*
X92107142Y-170842857D01*
X92035714Y-170985714D01*
X91964285Y-171057142D01*
X91821428Y-171128571D01*
X91678571Y-171128571D01*
X91535714Y-171057142D01*
X91464285Y-170985714D01*
X91392857Y-170842857D01*
X91321428Y-170557142D01*
X91321428Y-170200000D01*
X91392857Y-169914285D01*
X91464285Y-169771428D01*
X91535714Y-169700000D01*
X91678571Y-169628571D01*
X110301428Y-170342857D02*
X110515714Y-170414285D01*
X110587143Y-170485714D01*
X110658571Y-170628571D01*
X110658571Y-170842857D01*
X110587143Y-170985714D01*
X110515714Y-171057142D01*
X110372857Y-171128571D01*
X109801428Y-171128571D01*
X109801428Y-169628571D01*
X110301428Y-169628571D01*
X110444286Y-169700000D01*
X110515714Y-169771428D01*
X110587143Y-169914285D01*
X110587143Y-170057142D01*
X110515714Y-170200000D01*
X110444286Y-170271428D01*
X110301428Y-170342857D01*
X109801428Y-170342857D01*
X129041428Y-170342857D02*
X128541428Y-170342857D01*
X128541428Y-171128571D02*
X128541428Y-169628571D01*
X129255714Y-169628571D01*
X128469999Y-151792857D02*
X128969999Y-151792857D01*
X129184285Y-152578571D02*
X128469999Y-152578571D01*
X128469999Y-151078571D01*
X129184285Y-151078571D01*
X109944285Y-152578571D02*
X110230000Y-152578571D01*
X110372857Y-152507142D01*
X110444285Y-152435714D01*
X110587142Y-152221428D01*
X110658571Y-151935714D01*
X110658571Y-151364285D01*
X110587142Y-151221428D01*
X110515714Y-151150000D01*
X110372857Y-151078571D01*
X110087142Y-151078571D01*
X109944285Y-151150000D01*
X109872857Y-151221428D01*
X109801428Y-151364285D01*
X109801428Y-151721428D01*
X109872857Y-151864285D01*
X109944285Y-151935714D01*
X110087142Y-152007142D01*
X110372857Y-152007142D01*
X110515714Y-151935714D01*
X110587142Y-151864285D01*
X110658571Y-151721428D01*
X91607142Y-151721428D02*
X91464285Y-151650000D01*
X91392857Y-151578571D01*
X91321428Y-151435714D01*
X91321428Y-151364285D01*
X91392857Y-151221428D01*
X91464285Y-151150000D01*
X91607142Y-151078571D01*
X91892857Y-151078571D01*
X92035714Y-151150000D01*
X92107142Y-151221428D01*
X92178571Y-151364285D01*
X92178571Y-151435714D01*
X92107142Y-151578571D01*
X92035714Y-151650000D01*
X91892857Y-151721428D01*
X91607142Y-151721428D01*
X91464285Y-151792857D01*
X91392857Y-151864285D01*
X91321428Y-152007142D01*
X91321428Y-152292857D01*
X91392857Y-152435714D01*
X91464285Y-152507142D01*
X91607142Y-152578571D01*
X91892857Y-152578571D01*
X92035714Y-152507142D01*
X92107142Y-152435714D01*
X92178571Y-152292857D01*
X92178571Y-152007142D01*
X92107142Y-151864285D01*
X92035714Y-151792857D01*
X91892857Y-151721428D01*
X72560000Y-151078571D02*
X73560000Y-151078571D01*
X72917142Y-152578571D01*
X128327142Y-133998571D02*
X128327142Y-132498571D01*
X128684285Y-132498571D01*
X128898571Y-132570000D01*
X129041428Y-132712857D01*
X129112857Y-132855714D01*
X129184285Y-133141428D01*
X129184285Y-133355714D01*
X129112857Y-133641428D01*
X129041428Y-133784285D01*
X128898571Y-133927142D01*
X128684285Y-133998571D01*
X128327142Y-133998571D01*
X110515714Y-132498571D02*
X110230000Y-132498571D01*
X110087142Y-132570000D01*
X110015714Y-132641428D01*
X109872857Y-132855714D01*
X109801428Y-133141428D01*
X109801428Y-133712857D01*
X109872857Y-133855714D01*
X109944285Y-133927142D01*
X110087142Y-133998571D01*
X110372857Y-133998571D01*
X110515714Y-133927142D01*
X110587142Y-133855714D01*
X110658571Y-133712857D01*
X110658571Y-133355714D01*
X110587142Y-133212857D01*
X110515714Y-133141428D01*
X110372857Y-133070000D01*
X110087142Y-133070000D01*
X109944285Y-133141428D01*
X109872857Y-133212857D01*
X109801428Y-133355714D01*
X92107142Y-132498571D02*
X91392857Y-132498571D01*
X91321428Y-133212857D01*
X91392857Y-133141428D01*
X91535714Y-133070000D01*
X91892857Y-133070000D01*
X92035714Y-133141428D01*
X92107142Y-133212857D01*
X92178571Y-133355714D01*
X92178571Y-133712857D01*
X92107142Y-133855714D01*
X92035714Y-133927142D01*
X91892857Y-133998571D01*
X91535714Y-133998571D01*
X91392857Y-133927142D01*
X91321428Y-133855714D01*
X73355714Y-132998571D02*
X73355714Y-133998571D01*
X72998571Y-132427142D02*
X72641428Y-133498571D01*
X73570000Y-133498571D01*
X129184285Y-115185714D02*
X129112857Y-115257142D01*
X128898571Y-115328571D01*
X128755714Y-115328571D01*
X128541428Y-115257142D01*
X128398571Y-115114285D01*
X128327142Y-114971428D01*
X128255714Y-114685714D01*
X128255714Y-114471428D01*
X128327142Y-114185714D01*
X128398571Y-114042857D01*
X128541428Y-113900000D01*
X128755714Y-113828571D01*
X128898571Y-113828571D01*
X129112857Y-113900000D01*
X129184285Y-113971428D01*
X109730000Y-113828571D02*
X110658571Y-113828571D01*
X110158571Y-114400000D01*
X110372857Y-114400000D01*
X110515714Y-114471428D01*
X110587142Y-114542857D01*
X110658571Y-114685714D01*
X110658571Y-115042857D01*
X110587142Y-115185714D01*
X110515714Y-115257142D01*
X110372857Y-115328571D01*
X109944285Y-115328571D01*
X109801428Y-115257142D01*
X109730000Y-115185714D01*
X73498571Y-115328571D02*
X72641428Y-115328571D01*
X73070000Y-115328571D02*
X73070000Y-113828571D01*
X72927142Y-114042857D01*
X72784285Y-114185714D01*
X72641428Y-114257142D01*
X91321428Y-113971428D02*
X91392857Y-113900000D01*
X91535714Y-113828571D01*
X91892857Y-113828571D01*
X92035714Y-113900000D01*
X92107142Y-113971428D01*
X92178571Y-114114285D01*
X92178571Y-114257142D01*
X92107142Y-114471428D01*
X91250000Y-115328571D01*
X92178571Y-115328571D01*
D11*
X144880000Y-104950000D02*
X145330000Y-104500000D01*
X141500000Y-104950000D02*
X144880000Y-104950000D01*
X144820000Y-99630000D02*
X145270000Y-99180000D01*
X141400000Y-99630000D02*
X144780000Y-99630000D01*
X140460000Y-100280000D02*
X141400000Y-99630000D01*
X140560000Y-105600000D02*
X141500000Y-104950000D01*
D12*
X136670000Y-100380000D02*
X136450000Y-100630000D01*
X136680000Y-100340000D02*
X136920000Y-100630000D01*
X136690000Y-100360000D02*
X136690000Y-101720000D01*
X137570000Y-101720000D02*
X136690000Y-101720000D01*
X134030000Y-100340000D02*
X134270000Y-100630000D01*
X134020000Y-100380000D02*
X133800000Y-100630000D01*
X134040000Y-101720000D02*
X133160000Y-101720000D01*
X134040000Y-100360000D02*
X134040000Y-101720000D01*
D11*
X137830476Y-101993809D02*
X137944761Y-102031904D01*
X138135238Y-102031904D01*
X138211428Y-101993809D01*
X138249523Y-101955714D01*
X138287619Y-101879523D01*
X138287619Y-101803333D01*
X138249523Y-101727142D01*
X138211428Y-101689047D01*
X138135238Y-101650952D01*
X137982857Y-101612857D01*
X137906666Y-101574761D01*
X137868571Y-101536666D01*
X137830476Y-101460476D01*
X137830476Y-101384285D01*
X137868571Y-101308095D01*
X137906666Y-101270000D01*
X137982857Y-101231904D01*
X138173333Y-101231904D01*
X138287619Y-101270000D01*
X138554285Y-101231904D02*
X138744761Y-102031904D01*
X138897142Y-101460476D01*
X139049523Y-102031904D01*
X139240000Y-101231904D01*
X139544761Y-102031904D02*
X139544761Y-101231904D01*
X139735238Y-101231904D01*
X139849523Y-101270000D01*
X139925714Y-101346190D01*
X139963809Y-101422380D01*
X140001904Y-101574761D01*
X140001904Y-101689047D01*
X139963809Y-101841428D01*
X139925714Y-101917619D01*
X139849523Y-101993809D01*
X139735238Y-102031904D01*
X139544761Y-102031904D01*
X140801904Y-101955714D02*
X140763809Y-101993809D01*
X140649523Y-102031904D01*
X140573333Y-102031904D01*
X140459047Y-101993809D01*
X140382857Y-101917619D01*
X140344761Y-101841428D01*
X140306666Y-101689047D01*
X140306666Y-101574761D01*
X140344761Y-101422380D01*
X140382857Y-101346190D01*
X140459047Y-101270000D01*
X140573333Y-101231904D01*
X140649523Y-101231904D01*
X140763809Y-101270000D01*
X140801904Y-101308095D01*
X141525714Y-102031904D02*
X141144761Y-102031904D01*
X141144761Y-101231904D01*
X141792380Y-102031904D02*
X141792380Y-101231904D01*
X142249523Y-102031904D02*
X141906666Y-101574761D01*
X142249523Y-101231904D02*
X141792380Y-101689047D01*
X129424761Y-101993809D02*
X129539047Y-102031904D01*
X129729523Y-102031904D01*
X129805714Y-101993809D01*
X129843809Y-101955714D01*
X129881904Y-101879523D01*
X129881904Y-101803333D01*
X129843809Y-101727142D01*
X129805714Y-101689047D01*
X129729523Y-101650952D01*
X129577142Y-101612857D01*
X129500952Y-101574761D01*
X129462857Y-101536666D01*
X129424761Y-101460476D01*
X129424761Y-101384285D01*
X129462857Y-101308095D01*
X129500952Y-101270000D01*
X129577142Y-101231904D01*
X129767619Y-101231904D01*
X129881904Y-101270000D01*
X130148571Y-101231904D02*
X130339047Y-102031904D01*
X130491428Y-101460476D01*
X130643809Y-102031904D01*
X130834285Y-101231904D01*
X131139047Y-102031904D02*
X131139047Y-101231904D01*
X131329523Y-101231904D01*
X131443809Y-101270000D01*
X131520000Y-101346190D01*
X131558095Y-101422380D01*
X131596190Y-101574761D01*
X131596190Y-101689047D01*
X131558095Y-101841428D01*
X131520000Y-101917619D01*
X131443809Y-101993809D01*
X131329523Y-102031904D01*
X131139047Y-102031904D01*
X131939047Y-102031904D02*
X131939047Y-101231904D01*
X132472380Y-101231904D02*
X132624761Y-101231904D01*
X132700952Y-101270000D01*
X132777142Y-101346190D01*
X132815238Y-101498571D01*
X132815238Y-101765238D01*
X132777142Y-101917619D01*
X132700952Y-101993809D01*
X132624761Y-102031904D01*
X132472380Y-102031904D01*
X132396190Y-101993809D01*
X132320000Y-101917619D01*
X132281904Y-101765238D01*
X132281904Y-101498571D01*
X132320000Y-101346190D01*
X132396190Y-101270000D01*
X132472380Y-101231904D01*
X138660476Y-96470000D02*
X138584285Y-96431904D01*
X138470000Y-96431904D01*
X138355714Y-96470000D01*
X138279523Y-96546190D01*
X138241428Y-96622380D01*
X138203333Y-96774761D01*
X138203333Y-96889047D01*
X138241428Y-97041428D01*
X138279523Y-97117619D01*
X138355714Y-97193809D01*
X138470000Y-97231904D01*
X138546190Y-97231904D01*
X138660476Y-97193809D01*
X138698571Y-97155714D01*
X138698571Y-96889047D01*
X138546190Y-96889047D01*
X139041428Y-97231904D02*
X139041428Y-96431904D01*
X139498571Y-97231904D01*
X139498571Y-96431904D01*
X139879523Y-97231904D02*
X139879523Y-96431904D01*
X140070000Y-96431904D01*
X140184285Y-96470000D01*
X140260476Y-96546190D01*
X140298571Y-96622380D01*
X140336666Y-96774761D01*
X140336666Y-96889047D01*
X140298571Y-97041428D01*
X140260476Y-97117619D01*
X140184285Y-97193809D01*
X140070000Y-97231904D01*
X139879523Y-97231904D01*
X130040476Y-96927142D02*
X130650000Y-96927142D01*
X130345238Y-97231904D02*
X130345238Y-96622380D01*
X130954761Y-96431904D02*
X131450000Y-96431904D01*
X131183333Y-96736666D01*
X131297619Y-96736666D01*
X131373809Y-96774761D01*
X131411904Y-96812857D01*
X131450000Y-96889047D01*
X131450000Y-97079523D01*
X131411904Y-97155714D01*
X131373809Y-97193809D01*
X131297619Y-97231904D01*
X131069047Y-97231904D01*
X130992857Y-97193809D01*
X130954761Y-97155714D01*
X131678571Y-96431904D02*
X131945238Y-97231904D01*
X132211904Y-96431904D01*
X132402380Y-96431904D02*
X132897619Y-96431904D01*
X132630952Y-96736666D01*
X132745238Y-96736666D01*
X132821428Y-96774761D01*
X132859523Y-96812857D01*
X132897619Y-96889047D01*
X132897619Y-97079523D01*
X132859523Y-97155714D01*
X132821428Y-97193809D01*
X132745238Y-97231904D01*
X132516666Y-97231904D01*
X132440476Y-97193809D01*
X132402380Y-97155714D01*
X138890476Y-106380000D02*
X138814285Y-106341904D01*
X138700000Y-106341904D01*
X138585714Y-106380000D01*
X138509523Y-106456190D01*
X138471428Y-106532380D01*
X138433333Y-106684761D01*
X138433333Y-106799047D01*
X138471428Y-106951428D01*
X138509523Y-107027619D01*
X138585714Y-107103809D01*
X138700000Y-107141904D01*
X138776190Y-107141904D01*
X138890476Y-107103809D01*
X138928571Y-107065714D01*
X138928571Y-106799047D01*
X138776190Y-106799047D01*
X139271428Y-107141904D02*
X139271428Y-106341904D01*
X139728571Y-107141904D01*
X139728571Y-106341904D01*
X140109523Y-107141904D02*
X140109523Y-106341904D01*
X140300000Y-106341904D01*
X140414285Y-106380000D01*
X140490476Y-106456190D01*
X140528571Y-106532380D01*
X140566666Y-106684761D01*
X140566666Y-106799047D01*
X140528571Y-106951428D01*
X140490476Y-107027619D01*
X140414285Y-107103809D01*
X140300000Y-107141904D01*
X140109523Y-107141904D01*
X133440476Y-106341904D02*
X133897619Y-106341904D01*
X133669047Y-107141904D02*
X133669047Y-106341904D01*
X134088095Y-106341904D02*
X134621428Y-107141904D01*
X134621428Y-106341904D02*
X134088095Y-107141904D01*
X136686666Y-107141904D02*
X136420000Y-106760952D01*
X136229523Y-107141904D02*
X136229523Y-106341904D01*
X136534285Y-106341904D01*
X136610476Y-106380000D01*
X136648571Y-106418095D01*
X136686666Y-106494285D01*
X136686666Y-106608571D01*
X136648571Y-106684761D01*
X136610476Y-106722857D01*
X136534285Y-106760952D01*
X136229523Y-106760952D01*
X136953333Y-106341904D02*
X137486666Y-107141904D01*
X137486666Y-106341904D02*
X136953333Y-107141904D01*
X130171428Y-106837142D02*
X130780952Y-106837142D01*
X130476190Y-107141904D02*
X130476190Y-106532380D01*
X131542857Y-106341904D02*
X131161904Y-106341904D01*
X131123809Y-106722857D01*
X131161904Y-106684761D01*
X131238095Y-106646666D01*
X131428571Y-106646666D01*
X131504761Y-106684761D01*
X131542857Y-106722857D01*
X131580952Y-106799047D01*
X131580952Y-106989523D01*
X131542857Y-107065714D01*
X131504761Y-107103809D01*
X131428571Y-107141904D01*
X131238095Y-107141904D01*
X131161904Y-107103809D01*
X131123809Y-107065714D01*
X131809523Y-106341904D02*
X132076190Y-107141904D01*
X132342857Y-106341904D01*
D13*
X105989047Y-48301428D02*
X106750952Y-48301428D01*
X102779047Y-48221428D02*
X103540952Y-48221428D01*
X103160000Y-48602380D02*
X103160000Y-47840476D01*
D10*
X112198571Y-76198571D02*
X111341428Y-76198571D01*
X111770000Y-76198571D02*
X111770000Y-74698571D01*
X111627142Y-74912857D01*
X111484285Y-75055714D01*
X111341428Y-75127142D01*
X112770000Y-76127142D02*
X112984285Y-76198571D01*
X113341428Y-76198571D01*
X113484285Y-76127142D01*
X113555714Y-76055714D01*
X113627142Y-75912857D01*
X113627142Y-75770000D01*
X113555714Y-75627142D01*
X113484285Y-75555714D01*
X113341428Y-75484285D01*
X113055714Y-75412857D01*
X112912857Y-75341428D01*
X112841428Y-75270000D01*
X112770000Y-75127142D01*
X112770000Y-74984285D01*
X112841428Y-74841428D01*
X112912857Y-74770000D01*
X113055714Y-74698571D01*
X113412857Y-74698571D01*
X113627142Y-74770000D01*
X114270000Y-75627142D02*
X115412857Y-75627142D01*
X115984285Y-74698571D02*
X116912857Y-74698571D01*
X116412857Y-75270000D01*
X116627142Y-75270000D01*
X116770000Y-75341428D01*
X116841428Y-75412857D01*
X116912857Y-75555714D01*
X116912857Y-75912857D01*
X116841428Y-76055714D01*
X116770000Y-76127142D01*
X116627142Y-76198571D01*
X116198571Y-76198571D01*
X116055714Y-76127142D01*
X115984285Y-76055714D01*
X117555714Y-76055714D02*
X117627142Y-76127142D01*
X117555714Y-76198571D01*
X117484285Y-76127142D01*
X117555714Y-76055714D01*
X117555714Y-76198571D01*
X118127142Y-74698571D02*
X119127142Y-74698571D01*
X118484285Y-76198571D01*
X119484285Y-74698571D02*
X119984285Y-76198571D01*
X120484285Y-74698571D01*
X120984285Y-75627142D02*
X122127142Y-75627142D01*
X123627142Y-76198571D02*
X122770000Y-76198571D01*
X123198571Y-76198571D02*
X123198571Y-74698571D01*
X123055714Y-74912857D01*
X122912857Y-75055714D01*
X122770000Y-75127142D01*
X124555714Y-74698571D02*
X124698571Y-74698571D01*
X124841428Y-74770000D01*
X124912857Y-74841428D01*
X124984285Y-74984285D01*
X125055714Y-75270000D01*
X125055714Y-75627142D01*
X124984285Y-75912857D01*
X124912857Y-76055714D01*
X124841428Y-76127142D01*
X124698571Y-76198571D01*
X124555714Y-76198571D01*
X124412857Y-76127142D01*
X124341428Y-76055714D01*
X124270000Y-75912857D01*
X124198571Y-75627142D01*
X124198571Y-75270000D01*
X124270000Y-74984285D01*
X124341428Y-74841428D01*
X124412857Y-74770000D01*
X124555714Y-74698571D01*
X125984285Y-74698571D02*
X126127142Y-74698571D01*
X126270000Y-74770000D01*
X126341428Y-74841428D01*
X126412857Y-74984285D01*
X126484285Y-75270000D01*
X126484285Y-75627142D01*
X126412857Y-75912857D01*
X126341428Y-76055714D01*
X126270000Y-76127142D01*
X126127142Y-76198571D01*
X125984285Y-76198571D01*
X125841428Y-76127142D01*
X125770000Y-76055714D01*
X125698571Y-75912857D01*
X125627142Y-75627142D01*
X125627142Y-75270000D01*
X125698571Y-74984285D01*
X125770000Y-74841428D01*
X125841428Y-74770000D01*
X125984285Y-74698571D01*
X127412857Y-74698571D02*
X127555714Y-74698571D01*
X127698571Y-74770000D01*
X127770000Y-74841428D01*
X127841428Y-74984285D01*
X127912857Y-75270000D01*
X127912857Y-75627142D01*
X127841428Y-75912857D01*
X127770000Y-76055714D01*
X127698571Y-76127142D01*
X127555714Y-76198571D01*
X127412857Y-76198571D01*
X127270000Y-76127142D01*
X127198571Y-76055714D01*
X127127142Y-75912857D01*
X127055714Y-75627142D01*
X127055714Y-75270000D01*
X127127142Y-74984285D01*
X127198571Y-74841428D01*
X127270000Y-74770000D01*
X127412857Y-74698571D01*
X128555714Y-76198571D02*
X128555714Y-75198571D01*
X128555714Y-75341428D02*
X128627142Y-75270000D01*
X128770000Y-75198571D01*
X128984285Y-75198571D01*
X129127142Y-75270000D01*
X129198571Y-75412857D01*
X129198571Y-76198571D01*
X129198571Y-75412857D02*
X129270000Y-75270000D01*
X129412857Y-75198571D01*
X129627142Y-75198571D01*
X129770000Y-75270000D01*
X129841428Y-75412857D01*
X129841428Y-76198571D01*
X130484285Y-75770000D02*
X131198571Y-75770000D01*
X130341428Y-76198571D02*
X130841428Y-74698571D01*
X131341428Y-76198571D01*
D11*
G36*
X152070000Y-48630000D02*
X111070000Y-48630000D01*
X111070000Y-73630000D01*
X152070000Y-73630000D01*
X152070000Y-48630000D01*
G37*
X152070000Y-48630000D02*
X111070000Y-48630000D01*
X111070000Y-73630000D01*
X152070000Y-73630000D01*
X152070000Y-48630000D01*
D12*
X152080000Y-73630000D02*
X111080000Y-73630000D01*
X152080000Y-73630000D02*
X152080000Y-48630000D01*
X152080000Y-48630000D02*
X111080000Y-48630000D01*
X111080000Y-73630000D02*
X111080000Y-48630000D01*
D14*
X135640000Y-96100000D02*
X154240000Y-96100000D01*
X135640000Y-96100000D02*
X117040000Y-96100000D01*
X98440000Y-96100000D02*
X117040000Y-96100000D01*
X98440000Y-96100000D02*
X79840000Y-96100000D01*
G04 #@! TO.C,J1*
X61240000Y-26100000D02*
X154240000Y-26100000D01*
X61240000Y-26100000D02*
X61240000Y-96100000D01*
X154240000Y-26100000D02*
X154240000Y-96100000D01*
X61240000Y-96100000D02*
X154240000Y-96100000D01*
G04 #@! TO.C,BOOT0*
X108310000Y-100690000D02*
X108310000Y-101340000D01*
X108310000Y-104390000D02*
X108310000Y-103740000D01*
X102110000Y-103740000D02*
X102110000Y-104390000D01*
X102110000Y-100690000D02*
X102110000Y-101340000D01*
X108310000Y-100690000D02*
X102110000Y-100690000D01*
X102110000Y-104390000D02*
X108310000Y-104390000D01*
G04 #@! TO.C,BZ1*
X149030000Y-81160000D02*
X144330000Y-81160000D01*
X150330000Y-82460000D02*
X150330000Y-87160000D01*
X149030000Y-88160000D02*
X144330000Y-88160000D01*
X143030000Y-87160000D02*
X143030000Y-82460000D01*
G04 #@! TO.C,C1*
X85040000Y-98770000D02*
X85780000Y-98770000D01*
X86740000Y-98770000D02*
X87490000Y-98770000D01*
X86730000Y-97410000D02*
X87470000Y-97410000D01*
X87880370Y-97799779D02*
G75*
G03X87460000Y-97410000I-400370J-10221D01*
G01*
X85040000Y-97409999D02*
G75*
G03X84650221Y-97830369I10221J-400370D01*
G01*
X84649630Y-98380221D02*
G75*
G03X85070000Y-98770000I400370J10221D01*
G01*
X85030000Y-97410000D02*
X85770000Y-97410000D01*
X84650000Y-98410000D02*
X84650000Y-97790000D01*
X87880000Y-98400000D02*
X87880000Y-97760000D01*
X87490221Y-98770370D02*
G75*
G03X87880000Y-98350000I-10221J400370D01*
G01*
G04 #@! TO.C,C2*
X85099870Y-44669910D02*
G75*
G03X84679500Y-44280131I-400370J-10221D01*
G01*
X84729500Y-44280131D02*
X84089500Y-44280131D01*
X84739500Y-47510131D02*
X84119500Y-47510131D01*
X83739500Y-47130131D02*
X83739500Y-46390131D01*
X84709721Y-47510501D02*
G75*
G03X85099500Y-47090131I-10221J400370D01*
G01*
X83739499Y-47120131D02*
G75*
G03X84159869Y-47509910I400370J10221D01*
G01*
X84129279Y-44279761D02*
G75*
G03X83739500Y-44700131I10221J-400370D01*
G01*
X83739500Y-45430131D02*
X83739500Y-44690131D01*
X85099500Y-45420131D02*
X85099500Y-44670131D01*
X85099500Y-47120131D02*
X85099500Y-46380131D01*
G04 #@! TO.C,C3*
X79610131Y-47120221D02*
G75*
G03X80030501Y-47510000I400370J10221D01*
G01*
X79980501Y-47510000D02*
X80620501Y-47510000D01*
X79970501Y-44280000D02*
X80590501Y-44280000D01*
X80970501Y-44660000D02*
X80970501Y-45400000D01*
X80000280Y-44279630D02*
G75*
G03X79610501Y-44700000I10221J-400370D01*
G01*
X80970502Y-44670000D02*
G75*
G03X80550132Y-44280221I-400370J-10221D01*
G01*
X80580722Y-47510370D02*
G75*
G03X80970501Y-47090000I-10221J400370D01*
G01*
X80970501Y-46360000D02*
X80970501Y-47100000D01*
X79610501Y-46370000D02*
X79610501Y-47120000D01*
X79610501Y-44670000D02*
X79610501Y-45410000D01*
G04 #@! TO.C,C4*
X74289630Y-45900221D02*
G75*
G03X74710000Y-46290000I400370J10221D01*
G01*
X74660000Y-46290000D02*
X75300000Y-46290000D01*
X74650000Y-43060000D02*
X75270000Y-43060000D01*
X75650000Y-43440000D02*
X75650000Y-44180000D01*
X74679779Y-43059630D02*
G75*
G03X74290000Y-43480000I10221J-400370D01*
G01*
X75650001Y-43450000D02*
G75*
G03X75229631Y-43060221I-400370J-10221D01*
G01*
X75260221Y-46290370D02*
G75*
G03X75650000Y-45870000I-10221J400370D01*
G01*
X75650000Y-45140000D02*
X75650000Y-45880000D01*
X74290000Y-45150000D02*
X74290000Y-45900000D01*
X74290000Y-43450000D02*
X74290000Y-44190000D01*
G04 #@! TO.C,C5*
X85720000Y-51950000D02*
X85720000Y-52690000D01*
X85720000Y-53650000D02*
X85720000Y-54400000D01*
X87080000Y-53640000D02*
X87080000Y-54380000D01*
X86690221Y-54790370D02*
G75*
G03X87080000Y-54370000I-10221J400370D01*
G01*
X87080001Y-51950000D02*
G75*
G03X86659631Y-51560221I-400370J-10221D01*
G01*
X86109779Y-51559630D02*
G75*
G03X85720000Y-51980000I10221J-400370D01*
G01*
X87080000Y-51940000D02*
X87080000Y-52680000D01*
X86080000Y-51560000D02*
X86700000Y-51560000D01*
X86090000Y-54790000D02*
X86730000Y-54790000D01*
X85719630Y-54400221D02*
G75*
G03X86140000Y-54790000I400370J10221D01*
G01*
G04 #@! TO.C,C6*
X80240000Y-51960000D02*
X80240000Y-52700000D01*
X80240000Y-53660000D02*
X80240000Y-54410000D01*
X81600000Y-53650000D02*
X81600000Y-54390000D01*
X81210221Y-54800370D02*
G75*
G03X81600000Y-54380000I-10221J400370D01*
G01*
X81600001Y-51960000D02*
G75*
G03X81179631Y-51570221I-400370J-10221D01*
G01*
X80629779Y-51569630D02*
G75*
G03X80240000Y-51990000I10221J-400370D01*
G01*
X81600000Y-51950000D02*
X81600000Y-52690000D01*
X80600000Y-51570000D02*
X81220000Y-51570000D01*
X80610000Y-54800000D02*
X81250000Y-54800000D01*
X80239630Y-54410221D02*
G75*
G03X80660000Y-54800000I400370J10221D01*
G01*
G04 #@! TO.C,C7*
X77320000Y-50690000D02*
X76580000Y-50690000D01*
X75620000Y-50690000D02*
X74870000Y-50690000D01*
X75630000Y-52050000D02*
X74890000Y-52050000D01*
X74479630Y-51660221D02*
G75*
G03X74900000Y-52050000I400370J10221D01*
G01*
X77320000Y-52050001D02*
G75*
G03X77709779Y-51629631I-10221J400370D01*
G01*
X77710370Y-51079779D02*
G75*
G03X77290000Y-50690000I-400370J-10221D01*
G01*
X77330000Y-52050000D02*
X76590000Y-52050000D01*
X77710000Y-51050000D02*
X77710000Y-51670000D01*
X74480000Y-51060000D02*
X74480000Y-51700000D01*
X74869779Y-50689630D02*
G75*
G03X74480000Y-51110000I10221J-400370D01*
G01*
G04 #@! TO.C,C8*
X66240000Y-50690000D02*
X65500000Y-50690000D01*
X64540000Y-50690000D02*
X63790000Y-50690000D01*
X64550000Y-52050000D02*
X63810000Y-52050000D01*
X63399630Y-51660221D02*
G75*
G03X63820000Y-52050000I400370J10221D01*
G01*
X66240000Y-52050001D02*
G75*
G03X66629779Y-51629631I-10221J400370D01*
G01*
X66630370Y-51079779D02*
G75*
G03X66210000Y-50690000I-400370J-10221D01*
G01*
X66250000Y-52050000D02*
X65510000Y-52050000D01*
X66630000Y-51050000D02*
X66630000Y-51670000D01*
X63400000Y-51060000D02*
X63400000Y-51700000D01*
X63789779Y-50689630D02*
G75*
G03X63400000Y-51110000I10221J-400370D01*
G01*
G04 #@! TO.C,C9*
X92670221Y-76700370D02*
G75*
G03X93060000Y-76280000I-10221J400370D01*
G01*
X93060000Y-76330000D02*
X93060000Y-75690000D01*
X89830000Y-76340000D02*
X89830000Y-75720000D01*
X90210000Y-75340000D02*
X90950000Y-75340000D01*
X89829630Y-76310221D02*
G75*
G03X90250000Y-76700000I400370J10221D01*
G01*
X90220000Y-75339999D02*
G75*
G03X89830221Y-75760369I10221J-400370D01*
G01*
X93060370Y-75729779D02*
G75*
G03X92640000Y-75340000I-400370J-10221D01*
G01*
X91910000Y-75340000D02*
X92650000Y-75340000D01*
X91920000Y-76700000D02*
X92670000Y-76700000D01*
X90220000Y-76700000D02*
X90960000Y-76700000D01*
G04 #@! TO.C,C10*
X95239779Y-57359630D02*
G75*
G03X94850000Y-57780000I10221J-400370D01*
G01*
X94850000Y-57730000D02*
X94850000Y-58370000D01*
X98080000Y-57720000D02*
X98080000Y-58340000D01*
X97700000Y-58720000D02*
X96960000Y-58720000D01*
X98080370Y-57749779D02*
G75*
G03X97660000Y-57360000I-400370J-10221D01*
G01*
X97690000Y-58720001D02*
G75*
G03X98079779Y-58299631I-10221J400370D01*
G01*
X94849630Y-58330221D02*
G75*
G03X95270000Y-58720000I400370J10221D01*
G01*
X96000000Y-58720000D02*
X95260000Y-58720000D01*
X95990000Y-57360000D02*
X95240000Y-57360000D01*
X97690000Y-57360000D02*
X96950000Y-57360000D01*
G04 #@! TO.C,C11*
X88500000Y-51960000D02*
X88500000Y-52700000D01*
X88500000Y-53660000D02*
X88500000Y-54410000D01*
X89860000Y-53650000D02*
X89860000Y-54390000D01*
X89470221Y-54800370D02*
G75*
G03X89860000Y-54380000I-10221J400370D01*
G01*
X89860001Y-51960000D02*
G75*
G03X89439631Y-51570221I-400370J-10221D01*
G01*
X88889779Y-51569630D02*
G75*
G03X88500000Y-51990000I10221J-400370D01*
G01*
X89860000Y-51950000D02*
X89860000Y-52690000D01*
X88860000Y-51570000D02*
X89480000Y-51570000D01*
X88870000Y-54800000D02*
X89510000Y-54800000D01*
X88499630Y-54410221D02*
G75*
G03X88920000Y-54800000I400370J10221D01*
G01*
G04 #@! TO.C,C12*
X87989630Y-47260221D02*
G75*
G03X88410000Y-47650000I400370J10221D01*
G01*
X88360000Y-47650000D02*
X89000000Y-47650000D01*
X88350000Y-44420000D02*
X88970000Y-44420000D01*
X89350000Y-44800000D02*
X89350000Y-45540000D01*
X88379779Y-44419630D02*
G75*
G03X87990000Y-44840000I10221J-400370D01*
G01*
X89350001Y-44810000D02*
G75*
G03X88929631Y-44420221I-400370J-10221D01*
G01*
X88960221Y-47650370D02*
G75*
G03X89350000Y-47230000I-10221J400370D01*
G01*
X89350000Y-46500000D02*
X89350000Y-47240000D01*
X87990000Y-46510000D02*
X87990000Y-47260000D01*
X87990000Y-44810000D02*
X87990000Y-45550000D01*
G04 #@! TO.C,C13*
X87011000Y-47260131D02*
X87011000Y-46520131D01*
X87011000Y-45560131D02*
X87011000Y-44810131D01*
X85651000Y-45570131D02*
X85651000Y-44830131D01*
X86040779Y-44419761D02*
G75*
G03X85651000Y-44840131I10221J-400370D01*
G01*
X85650999Y-47260131D02*
G75*
G03X86071369Y-47649910I400370J10221D01*
G01*
X86621221Y-47650501D02*
G75*
G03X87011000Y-47230131I-10221J400370D01*
G01*
X85651000Y-47270131D02*
X85651000Y-46530131D01*
X86651000Y-47650131D02*
X86031000Y-47650131D01*
X86641000Y-44420131D02*
X86001000Y-44420131D01*
X87011370Y-44809910D02*
G75*
G03X86591000Y-44420131I-400370J-10221D01*
G01*
G04 #@! TO.C,C14*
X127600000Y-37090000D02*
G75*
G03X128030000Y-37520000I430000J0D01*
G01*
X129310000Y-37520000D02*
G75*
G03X129740000Y-37090000I0J430000D01*
G01*
X128030000Y-31050000D02*
G75*
G03X127600000Y-31480000I0J-430000D01*
G01*
X127600000Y-35290000D02*
X127600000Y-37120000D01*
X127600000Y-33280000D02*
X127600000Y-31460000D01*
X129740000Y-33280000D02*
X129740000Y-31470000D01*
X129740000Y-35280000D02*
X129740000Y-37100000D01*
X127990000Y-37520000D02*
X129340000Y-37520000D01*
X127990000Y-31050000D02*
X129340000Y-31050000D01*
X129740000Y-31480000D02*
G75*
G03X129310000Y-31050000I-430000J0D01*
G01*
G04 #@! TO.C,C15*
X123560000Y-41940000D02*
G75*
G03X123130000Y-42370000I0J-430000D01*
G01*
X123130000Y-43690000D02*
X123130000Y-42340000D01*
X129600000Y-43690000D02*
X129600000Y-42340000D01*
X127360000Y-41940000D02*
X129180000Y-41940000D01*
X125360000Y-41940000D02*
X123550000Y-41940000D01*
X125360000Y-44080000D02*
X123540000Y-44080000D01*
X127370000Y-44080000D02*
X129200000Y-44080000D01*
X123130000Y-43650000D02*
G75*
G03X123560000Y-44080000I430000J0D01*
G01*
X129600000Y-42370000D02*
G75*
G03X129170000Y-41940000I-430000J0D01*
G01*
X129170000Y-44080000D02*
G75*
G03X129600000Y-43650000I0J430000D01*
G01*
G04 #@! TO.C,C16*
X104860000Y-37870000D02*
G75*
G03X105290000Y-38300000I430000J0D01*
G01*
X106610000Y-38300000D02*
X105260000Y-38300000D01*
X106610000Y-31830000D02*
X105260000Y-31830000D01*
X104860000Y-34070000D02*
X104860000Y-32250000D01*
X104860000Y-36070000D02*
X104860000Y-37880000D01*
X107000000Y-36070000D02*
X107000000Y-37890000D01*
X107000000Y-34060000D02*
X107000000Y-32230000D01*
X106570000Y-38300000D02*
G75*
G03X107000000Y-37870000I0J430000D01*
G01*
X105290000Y-31830000D02*
G75*
G03X104860000Y-32260000I0J-430000D01*
G01*
X107000000Y-32260000D02*
G75*
G03X106570000Y-31830000I-430000J0D01*
G01*
G04 #@! TO.C,C19*
X137770370Y-44539779D02*
G75*
G03X137350000Y-44150000I-400370J-10221D01*
G01*
X137400000Y-44150000D02*
X136760000Y-44150000D01*
X137410000Y-47380000D02*
X136790000Y-47380000D01*
X136410000Y-47000000D02*
X136410000Y-46260000D01*
X137380221Y-47380370D02*
G75*
G03X137770000Y-46960000I-10221J400370D01*
G01*
X136409999Y-46990000D02*
G75*
G03X136830369Y-47379779I400370J10221D01*
G01*
X136799779Y-44149630D02*
G75*
G03X136410000Y-44570000I10221J-400370D01*
G01*
X136410000Y-45300000D02*
X136410000Y-44560000D01*
X137770000Y-45290000D02*
X137770000Y-44540000D01*
X137770000Y-46990000D02*
X137770000Y-46250000D01*
G04 #@! TO.C,C20*
X145180000Y-40770000D02*
X145920000Y-40770000D01*
X146880000Y-40770000D02*
X147630000Y-40770000D01*
X146870000Y-39410000D02*
X147610000Y-39410000D01*
X148020370Y-39799779D02*
G75*
G03X147600000Y-39410000I-400370J-10221D01*
G01*
X145180000Y-39409999D02*
G75*
G03X144790221Y-39830369I10221J-400370D01*
G01*
X144789630Y-40380221D02*
G75*
G03X145210000Y-40770000I400370J10221D01*
G01*
X145170000Y-39410000D02*
X145910000Y-39410000D01*
X144790000Y-40410000D02*
X144790000Y-39790000D01*
X148020000Y-40400000D02*
X148020000Y-39760000D01*
X147630221Y-40770370D02*
G75*
G03X148020000Y-40350000I-10221J400370D01*
G01*
G04 #@! TO.C,C21*
X147620221Y-39410370D02*
G75*
G03X148010000Y-38990000I-10221J400370D01*
G01*
X148010000Y-39040000D02*
X148010000Y-38400000D01*
X144780000Y-39050000D02*
X144780000Y-38430000D01*
X145160000Y-38050000D02*
X145900000Y-38050000D01*
X144779630Y-39020221D02*
G75*
G03X145200000Y-39410000I400370J10221D01*
G01*
X145170000Y-38049999D02*
G75*
G03X144780221Y-38470369I10221J-400370D01*
G01*
X148010370Y-38439779D02*
G75*
G03X147590000Y-38050000I-400370J-10221D01*
G01*
X146860000Y-38050000D02*
X147600000Y-38050000D01*
X146870000Y-39410000D02*
X147620000Y-39410000D01*
X145170000Y-39410000D02*
X145910000Y-39410000D01*
G04 #@! TO.C,C22*
X145160000Y-38050000D02*
X145900000Y-38050000D01*
X146860000Y-38050000D02*
X147610000Y-38050000D01*
X146850000Y-36690000D02*
X147590000Y-36690000D01*
X148000370Y-37079779D02*
G75*
G03X147580000Y-36690000I-400370J-10221D01*
G01*
X145160000Y-36689999D02*
G75*
G03X144770221Y-37110369I10221J-400370D01*
G01*
X144769630Y-37660221D02*
G75*
G03X145190000Y-38050000I400370J10221D01*
G01*
X145150000Y-36690000D02*
X145890000Y-36690000D01*
X144770000Y-37690000D02*
X144770000Y-37070000D01*
X148000000Y-37680000D02*
X148000000Y-37040000D01*
X147610221Y-38050370D02*
G75*
G03X148000000Y-37630000I-10221J400370D01*
G01*
G04 #@! TO.C,C23*
X77880370Y-32989779D02*
G75*
G03X77460000Y-32600000I-400370J-10221D01*
G01*
X77510000Y-32600000D02*
X76870000Y-32600000D01*
X77520000Y-35830000D02*
X76900000Y-35830000D01*
X76520000Y-35450000D02*
X76520000Y-34710000D01*
X77490221Y-35830370D02*
G75*
G03X77880000Y-35410000I-10221J400370D01*
G01*
X76519999Y-35440000D02*
G75*
G03X76940369Y-35829779I400370J10221D01*
G01*
X76909779Y-32599630D02*
G75*
G03X76520000Y-33020000I10221J-400370D01*
G01*
X76520000Y-33750000D02*
X76520000Y-33010000D01*
X77880000Y-33740000D02*
X77880000Y-32990000D01*
X77880000Y-35440000D02*
X77880000Y-34700000D01*
G04 #@! TO.C,D1*
X118800000Y-44020000D02*
X122100000Y-44020000D01*
X122100000Y-44020000D02*
X122100000Y-37120000D01*
X118800000Y-44020000D02*
X118800000Y-37120000D01*
D15*
G04 #@! TO.C,J2*
X79140000Y-25295000D02*
X79140000Y-24695000D01*
X79140000Y-24695000D02*
X79140000Y-24595000D01*
X79140000Y-24595000D02*
X78340000Y-24595000D01*
X71640000Y-24595000D02*
X71140000Y-24595000D01*
X71140000Y-24595000D02*
X71140000Y-25595000D01*
X71540000Y-30495000D02*
X71140000Y-30495000D01*
X71140000Y-30495000D02*
X71140000Y-29695000D01*
X78240000Y-30495000D02*
X78540000Y-30495000D01*
X78540000Y-30495000D02*
X79140000Y-29895000D01*
X79140000Y-29895000D02*
X79140000Y-29595000D01*
X79140000Y-29595000D02*
X79240000Y-29595000D01*
D14*
G04 #@! TO.C,JLINK*
X130180000Y-98970000D02*
X130180000Y-97640000D01*
X130180000Y-97640000D02*
X131510000Y-97640000D01*
X132780000Y-97640000D02*
X140460000Y-97640000D01*
X140460000Y-100300000D02*
X140460000Y-97640000D01*
X132780000Y-100300000D02*
X140460000Y-100300000D01*
X132780000Y-100300000D02*
X132780000Y-97640000D01*
G04 #@! TO.C,L1*
X126724999Y-27150000D02*
X118624999Y-27150000D01*
X118624999Y-33550000D02*
X118624999Y-27150000D01*
X126724999Y-33550000D02*
X118624999Y-33550000D01*
X126724999Y-27150000D02*
X126724999Y-33550000D01*
G04 #@! TO.C,L2*
X107760000Y-35800000D02*
X114160000Y-35800000D01*
X114160000Y-35800000D02*
X114160000Y-43900000D01*
X114160000Y-43900000D02*
X107760000Y-43900000D01*
X107760000Y-35800000D02*
X107760000Y-43900000D01*
G04 #@! TO.C,R1*
X75650000Y-46290000D02*
X75650000Y-49500000D01*
X74290000Y-49500000D02*
X74290000Y-46290000D01*
X75650000Y-49510000D02*
X74290000Y-49510000D01*
X75650000Y-46280000D02*
X74300000Y-46280000D01*
G04 #@! TO.C,R2*
X145610000Y-79330000D02*
X145610000Y-76120000D01*
X146970000Y-76120000D02*
X146970000Y-79330000D01*
X145610000Y-76110000D02*
X146970000Y-76110000D01*
X145610000Y-79340000D02*
X146960000Y-79340000D01*
G04 #@! TO.C,R3*
X70160000Y-52060000D02*
X70160000Y-50710000D01*
X66930000Y-52060000D02*
X66930000Y-50700000D01*
X66940000Y-50700000D02*
X70150000Y-50700000D01*
X70150000Y-52060000D02*
X66940000Y-52060000D01*
G04 #@! TO.C,R4*
X82970000Y-44289631D02*
X82970000Y-47499631D01*
X81610000Y-47499631D02*
X81610000Y-44289631D01*
X82970000Y-47509631D02*
X81610000Y-47509631D01*
X82970000Y-44279631D02*
X81620000Y-44279631D01*
G04 #@! TO.C,R5*
X130370000Y-37920000D02*
X129020000Y-37920000D01*
X130370000Y-41150000D02*
X129010000Y-41150000D01*
X129010000Y-41140000D02*
X129010000Y-37930000D01*
X130370000Y-37930000D02*
X130370000Y-41140000D01*
G04 #@! TO.C,R6*
X127650000Y-41150000D02*
X129000000Y-41150000D01*
X127650000Y-37920000D02*
X129010000Y-37920000D01*
X129010000Y-37930000D02*
X129010000Y-41140000D01*
X127650000Y-41140000D02*
X127650000Y-37930000D01*
G04 #@! TO.C,R7*
X88650000Y-84230000D02*
X88650000Y-87440000D01*
X87290000Y-87440000D02*
X87290000Y-84230000D01*
X88650000Y-87450000D02*
X87290000Y-87450000D01*
X88650000Y-84220000D02*
X87300000Y-84220000D01*
G04 #@! TO.C,R8*
X90050000Y-84230000D02*
X90050000Y-87440000D01*
X88690000Y-87440000D02*
X88690000Y-84230000D01*
X90050000Y-87450000D02*
X88690000Y-87450000D01*
X90050000Y-84220000D02*
X88700000Y-84220000D01*
G04 #@! TO.C,R9*
X94360000Y-87430000D02*
X95710000Y-87430000D01*
X94360000Y-84200000D02*
X95720000Y-84200000D01*
X95720000Y-84210000D02*
X95720000Y-87420000D01*
X94360000Y-87420000D02*
X94360000Y-84210000D01*
G04 #@! TO.C,R10*
X111100000Y-30240000D02*
X111100000Y-27030000D01*
X112460000Y-27030000D02*
X112460000Y-30240000D01*
X111100000Y-27020000D02*
X112460000Y-27020000D01*
X111100000Y-30250000D02*
X112450000Y-30250000D01*
G04 #@! TO.C,R11*
X144740000Y-44890000D02*
X144740000Y-41680000D01*
X146100000Y-41680000D02*
X146100000Y-44890000D01*
X144740000Y-41670000D02*
X146100000Y-41670000D01*
X144740000Y-44900000D02*
X146090000Y-44900000D01*
G04 #@! TO.C,R12*
X136410000Y-44160000D02*
X137760000Y-44160000D01*
X136410000Y-40930000D02*
X137770000Y-40930000D01*
X137770000Y-40940000D02*
X137770000Y-44150000D01*
X136410000Y-44150000D02*
X136410000Y-40940000D01*
G04 #@! TO.C,R13*
X75120000Y-35820000D02*
X76470000Y-35820000D01*
X75120000Y-32590000D02*
X76480000Y-32590000D01*
X76480000Y-32600000D02*
X76480000Y-35810000D01*
X75120000Y-35810000D02*
X75120000Y-32600000D01*
G04 #@! TO.C,R14*
X113820000Y-27020000D02*
X112470000Y-27020000D01*
X113820000Y-30250000D02*
X112460000Y-30250000D01*
X112460000Y-30240000D02*
X112460000Y-27030000D01*
X113820000Y-27030000D02*
X113820000Y-30240000D01*
G04 #@! TO.C,RESET*
X83150000Y-104390000D02*
X83150000Y-103740000D01*
X83150000Y-100690000D02*
X83150000Y-101340000D01*
X89350000Y-101340000D02*
X89350000Y-100690000D01*
X89350000Y-104390000D02*
X89350000Y-103740000D01*
X83150000Y-104390000D02*
X89350000Y-104390000D01*
X89350000Y-100690000D02*
X83150000Y-100690000D01*
G04 #@! TO.C,RN1*
X79310000Y-101920000D02*
X79310000Y-102920000D01*
X75950000Y-101920000D02*
X75950000Y-102920000D01*
G04 #@! TO.C,RV1*
X116980000Y-98350000D02*
X116980000Y-104950000D01*
X116980000Y-98350000D02*
X123980000Y-98350000D01*
X116980000Y-104950000D02*
X123980000Y-104950000D01*
X123980000Y-98350000D02*
X123980000Y-104950000D01*
G04 #@! TO.C,SW1*
X83405545Y-114600000D02*
G75*
G03X83405545Y-114600000I-3465545J0D01*
G01*
X73940000Y-120600000D02*
X80040000Y-120600000D01*
X73940000Y-108600000D02*
X73940000Y-120600000D01*
X85940000Y-108600000D02*
X73940000Y-108600000D01*
X85940000Y-120600000D02*
X85940000Y-108600000D01*
X79940000Y-120600000D02*
X85940000Y-120600000D01*
G04 #@! TO.C,SW2*
X83405545Y-133200000D02*
G75*
G03X83405545Y-133200000I-3465545J0D01*
G01*
X73940000Y-139200000D02*
X80040000Y-139200000D01*
X73940000Y-127200000D02*
X73940000Y-139200000D01*
X85940000Y-127200000D02*
X73940000Y-127200000D01*
X85940000Y-139200000D02*
X85940000Y-127200000D01*
X79940000Y-139200000D02*
X85940000Y-139200000D01*
G04 #@! TO.C,SW3*
X83405545Y-151800000D02*
G75*
G03X83405545Y-151800000I-3465545J0D01*
G01*
X73940000Y-157800000D02*
X80040000Y-157800000D01*
X73940000Y-145800000D02*
X73940000Y-157800000D01*
X85940000Y-145800000D02*
X73940000Y-145800000D01*
X85940000Y-157800000D02*
X85940000Y-145800000D01*
X79940000Y-157800000D02*
X85940000Y-157800000D01*
G04 #@! TO.C,SW4*
X83405545Y-170400000D02*
G75*
G03X83405545Y-170400000I-3465545J0D01*
G01*
X73940000Y-176400000D02*
X80040000Y-176400000D01*
X73940000Y-164400000D02*
X73940000Y-176400000D01*
X85940000Y-164400000D02*
X73940000Y-164400000D01*
X85940000Y-176400000D02*
X85940000Y-164400000D01*
X79940000Y-176400000D02*
X85940000Y-176400000D01*
G04 #@! TO.C,SW5*
X98530000Y-120600000D02*
X104530000Y-120600000D01*
X104530000Y-120600000D02*
X104530000Y-108600000D01*
X104530000Y-108600000D02*
X92530000Y-108600000D01*
X92530000Y-108600000D02*
X92530000Y-120600000D01*
X92530000Y-120600000D02*
X98630000Y-120600000D01*
X101995545Y-114600000D02*
G75*
G03X101995545Y-114600000I-3465545J0D01*
G01*
G04 #@! TO.C,SW6*
X98530000Y-139200000D02*
X104530000Y-139200000D01*
X104530000Y-139200000D02*
X104530000Y-127200000D01*
X104530000Y-127200000D02*
X92530000Y-127200000D01*
X92530000Y-127200000D02*
X92530000Y-139200000D01*
X92530000Y-139200000D02*
X98630000Y-139200000D01*
X101995545Y-133200000D02*
G75*
G03X101995545Y-133200000I-3465545J0D01*
G01*
G04 #@! TO.C,SW7*
X98530000Y-157800000D02*
X104530000Y-157800000D01*
X104530000Y-157800000D02*
X104530000Y-145800000D01*
X104530000Y-145800000D02*
X92530000Y-145800000D01*
X92530000Y-145800000D02*
X92530000Y-157800000D01*
X92530000Y-157800000D02*
X98630000Y-157800000D01*
X101995545Y-151800000D02*
G75*
G03X101995545Y-151800000I-3465545J0D01*
G01*
G04 #@! TO.C,SW8*
X98530000Y-176400000D02*
X104530000Y-176400000D01*
X104530000Y-176400000D02*
X104530000Y-164400000D01*
X104530000Y-164400000D02*
X92530000Y-164400000D01*
X92530000Y-164400000D02*
X92530000Y-176400000D01*
X92530000Y-176400000D02*
X98630000Y-176400000D01*
X101995545Y-170400000D02*
G75*
G03X101995545Y-170400000I-3465545J0D01*
G01*
G04 #@! TO.C,SW9*
X120605545Y-114600000D02*
G75*
G03X120605545Y-114600000I-3465545J0D01*
G01*
X111140000Y-120600000D02*
X117240000Y-120600000D01*
X111140000Y-108600000D02*
X111140000Y-120600000D01*
X123140000Y-108600000D02*
X111140000Y-108600000D01*
X123140000Y-120600000D02*
X123140000Y-108600000D01*
X117140000Y-120600000D02*
X123140000Y-120600000D01*
G04 #@! TO.C,SW10*
X117140000Y-139200000D02*
X123140000Y-139200000D01*
X123140000Y-139200000D02*
X123140000Y-127200000D01*
X123140000Y-127200000D02*
X111140000Y-127200000D01*
X111140000Y-127200000D02*
X111140000Y-139200000D01*
X111140000Y-139200000D02*
X117240000Y-139200000D01*
X120605545Y-133200000D02*
G75*
G03X120605545Y-133200000I-3465545J0D01*
G01*
G04 #@! TO.C,SW11*
X120605545Y-151800000D02*
G75*
G03X120605545Y-151800000I-3465545J0D01*
G01*
X111140000Y-157800000D02*
X117240000Y-157800000D01*
X111140000Y-145800000D02*
X111140000Y-157800000D01*
X123140000Y-145800000D02*
X111140000Y-145800000D01*
X123140000Y-157800000D02*
X123140000Y-145800000D01*
X117140000Y-157800000D02*
X123140000Y-157800000D01*
G04 #@! TO.C,SW12*
X120605545Y-170400000D02*
G75*
G03X120605545Y-170400000I-3465545J0D01*
G01*
X111140000Y-176400000D02*
X117240000Y-176400000D01*
X111140000Y-164400000D02*
X111140000Y-176400000D01*
X123140000Y-164400000D02*
X111140000Y-164400000D01*
X123140000Y-176400000D02*
X123140000Y-164400000D01*
X117140000Y-176400000D02*
X123140000Y-176400000D01*
G04 #@! TO.C,SW13*
X135740000Y-120600000D02*
X141740000Y-120600000D01*
X141740000Y-120600000D02*
X141740000Y-108600000D01*
X141740000Y-108600000D02*
X129740000Y-108600000D01*
X129740000Y-108600000D02*
X129740000Y-120600000D01*
X129740000Y-120600000D02*
X135840000Y-120600000D01*
X139205545Y-114600000D02*
G75*
G03X139205545Y-114600000I-3465545J0D01*
G01*
G04 #@! TO.C,SW14*
X139205545Y-133200000D02*
G75*
G03X139205545Y-133200000I-3465545J0D01*
G01*
X129740000Y-139200000D02*
X135840000Y-139200000D01*
X129740000Y-127200000D02*
X129740000Y-139200000D01*
X141740000Y-127200000D02*
X129740000Y-127200000D01*
X141740000Y-139200000D02*
X141740000Y-127200000D01*
X135740000Y-139200000D02*
X141740000Y-139200000D01*
G04 #@! TO.C,SW15*
X135740000Y-157800000D02*
X141740000Y-157800000D01*
X141740000Y-157800000D02*
X141740000Y-145800000D01*
X141740000Y-145800000D02*
X129740000Y-145800000D01*
X129740000Y-145800000D02*
X129740000Y-157800000D01*
X129740000Y-157800000D02*
X135840000Y-157800000D01*
X139205545Y-151800000D02*
G75*
G03X139205545Y-151800000I-3465545J0D01*
G01*
G04 #@! TO.C,SW16*
X135740000Y-176400000D02*
X141740000Y-176400000D01*
X141740000Y-176400000D02*
X141740000Y-164400000D01*
X141740000Y-164400000D02*
X129740000Y-164400000D01*
X129740000Y-164400000D02*
X129740000Y-176400000D01*
X129740000Y-176400000D02*
X135840000Y-176400000D01*
X139205545Y-170400000D02*
G75*
G03X139205545Y-170400000I-3465545J0D01*
G01*
G04 #@! TO.C,SW_MNU*
X92610000Y-104390000D02*
X98810000Y-104390000D01*
X98810000Y-100690000D02*
X92610000Y-100690000D01*
X92610000Y-100690000D02*
X92610000Y-101340000D01*
X92610000Y-103740000D02*
X92610000Y-104390000D01*
X98810000Y-104390000D02*
X98810000Y-103740000D01*
X98810000Y-100690000D02*
X98810000Y-101340000D01*
G04 #@! TO.C,U1*
X68800000Y-43475000D02*
X66075000Y-43475000D01*
X66075000Y-43475000D02*
X66075000Y-43735000D01*
X68800000Y-43475000D02*
X71525000Y-43475000D01*
X71525000Y-43475000D02*
X71525000Y-43735000D01*
X68800000Y-48925000D02*
X66075000Y-48925000D01*
X66075000Y-48925000D02*
X66075000Y-48665000D01*
X68800000Y-48925000D02*
X71525000Y-48925000D01*
X71525000Y-48925000D02*
X71525000Y-48665000D01*
X71525000Y-48665000D02*
X73200000Y-48665000D01*
G04 #@! TO.C,U2*
X78320000Y-70870000D02*
X78320000Y-71570000D01*
X78320000Y-71570000D02*
X79020000Y-71570000D01*
X78320000Y-58050000D02*
X78320000Y-57350000D01*
X78320000Y-57350000D02*
X79020000Y-57350000D01*
X92540000Y-70870000D02*
X92540000Y-71570000D01*
X92540000Y-71570000D02*
X91840000Y-71570000D01*
X92540000Y-58050000D02*
X92540000Y-57350000D01*
X92540000Y-57350000D02*
X91840000Y-57350000D01*
X91840000Y-57350000D02*
X91840000Y-55985000D01*
G04 #@! TO.C,U3*
X123360000Y-36570000D02*
X123360000Y-39520000D01*
X126580000Y-38370000D02*
X126580000Y-36570000D01*
G04 #@! TO.C,U4*
X110050000Y-34630000D02*
X111810000Y-34630000D01*
X111810000Y-31560000D02*
X109380000Y-31560000D01*
G04 #@! TO.C,U5*
X142120000Y-41850000D02*
X140320000Y-41850000D01*
X140320000Y-45070000D02*
X143270000Y-45070000D01*
D11*
G04 #@! TO.C,U6*
X137665000Y-36905000D02*
X137665000Y-37005000D01*
X142315000Y-36905000D02*
X142315000Y-37105000D01*
X142315000Y-40155000D02*
X142315000Y-39955000D01*
X137665000Y-40155000D02*
X137665000Y-39955000D01*
X137665000Y-36905000D02*
X142315000Y-36905000D01*
X137665000Y-40155000D02*
X142315000Y-40155000D01*
X137665000Y-37005000D02*
X136315000Y-37005000D01*
D14*
G04 #@! TO.C,UART*
X132880000Y-105620000D02*
X132880000Y-102960000D01*
X132880000Y-105620000D02*
X140560000Y-105620000D01*
X140560000Y-105620000D02*
X140560000Y-102960000D01*
X132880000Y-102960000D02*
X140560000Y-102960000D01*
X130280000Y-102960000D02*
X131610000Y-102960000D01*
X130280000Y-104290000D02*
X130280000Y-102960000D01*
G04 #@! TO.C,Y1*
X85100000Y-50710000D02*
X79400000Y-50710000D01*
X79400000Y-50710000D02*
X79400000Y-48110000D01*
X79400000Y-48110000D02*
X85100000Y-48110000D01*
X85100000Y-48110000D02*
X85100000Y-50710000D01*
G04 #@! TO.C,Y2*
X85650500Y-48450000D02*
X89350500Y-48450000D01*
X89350500Y-48450000D02*
X89350500Y-50450000D01*
X89350500Y-50450000D02*
X85650500Y-50450000D01*
X85650500Y-50450000D02*
X85650500Y-48450000D01*
G04 #@! TO.C,Q1*
X142080000Y-78540000D02*
X143010000Y-78540000D01*
X145240000Y-78540000D02*
X144310000Y-78540000D01*
X145240000Y-78540000D02*
X145240000Y-76380000D01*
X142080000Y-78540000D02*
X142080000Y-77080000D01*
G04 #@! TO.C,Q2*
X90640000Y-86510000D02*
X91570000Y-86510000D01*
X93800000Y-86510000D02*
X92870000Y-86510000D01*
X93800000Y-86510000D02*
X93800000Y-84350000D01*
X90640000Y-86510000D02*
X90640000Y-85050000D01*
G04 #@! TO.C,BATT*
X102020000Y-51200000D02*
X102020000Y-50090000D01*
X102020000Y-50090000D02*
X103350000Y-50090000D01*
X102020000Y-61290000D02*
X107220000Y-61290000D01*
X107220000Y-61290000D02*
X107220000Y-52660000D01*
X102020000Y-52660000D02*
X107220000Y-52660000D01*
X102020000Y-61290000D02*
X102020000Y-52660000D01*
X104620000Y-61290000D02*
X104620000Y-52660000D01*
X106250000Y-52660000D02*
X106250000Y-52250000D01*
X105530000Y-52660000D02*
X105530000Y-52250000D01*
X103710000Y-52660000D02*
X103710000Y-52310000D01*
X102990000Y-52660000D02*
X102990000Y-52310000D01*
X104501900Y-61290000D02*
X104501900Y-52660000D01*
X104383805Y-61290000D02*
X104383805Y-52660000D01*
X104265710Y-61290000D02*
X104265710Y-52660000D01*
X104147615Y-61290000D02*
X104147615Y-52660000D01*
X104029520Y-61290000D02*
X104029520Y-52660000D01*
X103911425Y-61290000D02*
X103911425Y-52660000D01*
X103793330Y-61290000D02*
X103793330Y-52660000D01*
X103675235Y-61290000D02*
X103675235Y-52660000D01*
X103557140Y-61290000D02*
X103557140Y-52660000D01*
X103439045Y-61290000D02*
X103439045Y-52660000D01*
X103320950Y-61290000D02*
X103320950Y-52660000D01*
X103202855Y-61290000D02*
X103202855Y-52660000D01*
X103084760Y-61290000D02*
X103084760Y-52660000D01*
X102966665Y-61290000D02*
X102966665Y-52660000D01*
X102848570Y-61290000D02*
X102848570Y-52660000D01*
X102730475Y-61290000D02*
X102730475Y-52660000D01*
X102612380Y-61290000D02*
X102612380Y-52660000D01*
X102494285Y-61290000D02*
X102494285Y-52660000D01*
X102376190Y-61290000D02*
X102376190Y-52660000D01*
X102258095Y-61290000D02*
X102258095Y-52660000D01*
X102140000Y-61290000D02*
X102140000Y-52660000D01*
G04 #@! TO.C,BTN_POWER*
X135680000Y-29370000D02*
X144310000Y-29370000D01*
X135680000Y-29488095D02*
X144310000Y-29488095D01*
X135680000Y-29606190D02*
X144310000Y-29606190D01*
X135680000Y-29724285D02*
X144310000Y-29724285D01*
X135680000Y-29842380D02*
X144310000Y-29842380D01*
X135680000Y-29960475D02*
X144310000Y-29960475D01*
X135680000Y-30078570D02*
X144310000Y-30078570D01*
X135680000Y-30196665D02*
X144310000Y-30196665D01*
X135680000Y-30314760D02*
X144310000Y-30314760D01*
X135680000Y-30432855D02*
X144310000Y-30432855D01*
X135680000Y-30550950D02*
X144310000Y-30550950D01*
X135680000Y-30669045D02*
X144310000Y-30669045D01*
X135680000Y-30787140D02*
X144310000Y-30787140D01*
X135680000Y-30905235D02*
X144310000Y-30905235D01*
X135680000Y-31023330D02*
X144310000Y-31023330D01*
X135680000Y-31141425D02*
X144310000Y-31141425D01*
X135680000Y-31259520D02*
X144310000Y-31259520D01*
X135680000Y-31377615D02*
X144310000Y-31377615D01*
X135680000Y-31495710D02*
X144310000Y-31495710D01*
X135680000Y-31613805D02*
X144310000Y-31613805D01*
X135680000Y-31731900D02*
X144310000Y-31731900D01*
X144310000Y-30220000D02*
X144660000Y-30220000D01*
X144310000Y-30940000D02*
X144660000Y-30940000D01*
X144310000Y-32760000D02*
X144720000Y-32760000D01*
X144310000Y-33480000D02*
X144720000Y-33480000D01*
X135680000Y-31850000D02*
X144310000Y-31850000D01*
X135680000Y-29250000D02*
X144310000Y-29250000D01*
X144310000Y-29250000D02*
X144310000Y-34450000D01*
X135680000Y-34450000D02*
X144310000Y-34450000D01*
X135680000Y-29250000D02*
X135680000Y-34450000D01*
X146880000Y-29250000D02*
X146880000Y-30580000D01*
X145770000Y-29250000D02*
X146880000Y-29250000D01*
D16*
G04 #@! TO.C,REF\002A\002A*
G36*
X101630878Y-70536166D02*
X101661876Y-70586538D01*
X101709634Y-70666341D01*
X101772194Y-70772180D01*
X101847597Y-70900659D01*
X101933885Y-71048384D01*
X102029101Y-71211958D01*
X102131285Y-71387987D01*
X102238481Y-71573075D01*
X102348729Y-71763827D01*
X102460071Y-71956847D01*
X102570550Y-72148741D01*
X102678207Y-72336111D01*
X102781084Y-72515565D01*
X102877223Y-72683705D01*
X102964665Y-72837137D01*
X103041453Y-72972465D01*
X103105628Y-73086294D01*
X103155233Y-73175229D01*
X103188309Y-73235874D01*
X103202897Y-73264833D01*
X103203431Y-73266644D01*
X103185321Y-73291217D01*
X103134980Y-73328807D01*
X103058395Y-73375722D01*
X102961552Y-73428274D01*
X102860167Y-73478213D01*
X102722215Y-73538769D01*
X102577142Y-73593179D01*
X102419950Y-73642651D01*
X102245643Y-73688395D01*
X102049222Y-73731620D01*
X101825689Y-73773534D01*
X101570048Y-73815347D01*
X101305606Y-73854284D01*
X101075852Y-73888828D01*
X100882917Y-73923026D01*
X100721964Y-73958577D01*
X100588155Y-73997182D01*
X100476650Y-74040539D01*
X100382614Y-74090348D01*
X100301206Y-74148309D01*
X100227590Y-74216120D01*
X100203851Y-74241312D01*
X100152397Y-74299958D01*
X100114334Y-74347815D01*
X100096677Y-74375958D01*
X100096206Y-74378265D01*
X100090028Y-74392416D01*
X100068590Y-74392575D01*
X100027533Y-74376861D01*
X99962501Y-74343391D01*
X99869137Y-74290281D01*
X99804252Y-74252088D01*
X99707501Y-74192385D01*
X99632312Y-74141263D01*
X99583739Y-74102399D01*
X99566835Y-74079472D01*
X99566845Y-74079305D01*
X99577328Y-74057456D01*
X99606931Y-74002739D01*
X99653938Y-73918136D01*
X99716629Y-73806629D01*
X99793286Y-73671201D01*
X99882191Y-73514833D01*
X99981626Y-73340507D01*
X100089872Y-73151206D01*
X100205211Y-72949911D01*
X100325924Y-72739605D01*
X100450294Y-72523271D01*
X100576601Y-72303889D01*
X100703127Y-72084442D01*
X100828155Y-71867912D01*
X100949965Y-71657281D01*
X101066839Y-71455532D01*
X101177060Y-71265647D01*
X101278908Y-71090606D01*
X101370665Y-70933394D01*
X101450613Y-70796991D01*
X101517034Y-70684380D01*
X101568209Y-70598543D01*
X101602420Y-70542462D01*
X101617948Y-70519119D01*
X101618598Y-70518621D01*
X101630878Y-70536166D01*
X101630878Y-70536166D01*
G37*
X101630878Y-70536166D02*
X101661876Y-70586538D01*
X101709634Y-70666341D01*
X101772194Y-70772180D01*
X101847597Y-70900659D01*
X101933885Y-71048384D01*
X102029101Y-71211958D01*
X102131285Y-71387987D01*
X102238481Y-71573075D01*
X102348729Y-71763827D01*
X102460071Y-71956847D01*
X102570550Y-72148741D01*
X102678207Y-72336111D01*
X102781084Y-72515565D01*
X102877223Y-72683705D01*
X102964665Y-72837137D01*
X103041453Y-72972465D01*
X103105628Y-73086294D01*
X103155233Y-73175229D01*
X103188309Y-73235874D01*
X103202897Y-73264833D01*
X103203431Y-73266644D01*
X103185321Y-73291217D01*
X103134980Y-73328807D01*
X103058395Y-73375722D01*
X102961552Y-73428274D01*
X102860167Y-73478213D01*
X102722215Y-73538769D01*
X102577142Y-73593179D01*
X102419950Y-73642651D01*
X102245643Y-73688395D01*
X102049222Y-73731620D01*
X101825689Y-73773534D01*
X101570048Y-73815347D01*
X101305606Y-73854284D01*
X101075852Y-73888828D01*
X100882917Y-73923026D01*
X100721964Y-73958577D01*
X100588155Y-73997182D01*
X100476650Y-74040539D01*
X100382614Y-74090348D01*
X100301206Y-74148309D01*
X100227590Y-74216120D01*
X100203851Y-74241312D01*
X100152397Y-74299958D01*
X100114334Y-74347815D01*
X100096677Y-74375958D01*
X100096206Y-74378265D01*
X100090028Y-74392416D01*
X100068590Y-74392575D01*
X100027533Y-74376861D01*
X99962501Y-74343391D01*
X99869137Y-74290281D01*
X99804252Y-74252088D01*
X99707501Y-74192385D01*
X99632312Y-74141263D01*
X99583739Y-74102399D01*
X99566835Y-74079472D01*
X99566845Y-74079305D01*
X99577328Y-74057456D01*
X99606931Y-74002739D01*
X99653938Y-73918136D01*
X99716629Y-73806629D01*
X99793286Y-73671201D01*
X99882191Y-73514833D01*
X99981626Y-73340507D01*
X100089872Y-73151206D01*
X100205211Y-72949911D01*
X100325924Y-72739605D01*
X100450294Y-72523271D01*
X100576601Y-72303889D01*
X100703127Y-72084442D01*
X100828155Y-71867912D01*
X100949965Y-71657281D01*
X101066839Y-71455532D01*
X101177060Y-71265647D01*
X101278908Y-71090606D01*
X101370665Y-70933394D01*
X101450613Y-70796991D01*
X101517034Y-70684380D01*
X101568209Y-70598543D01*
X101602420Y-70542462D01*
X101617948Y-70519119D01*
X101618598Y-70518621D01*
X101630878Y-70536166D01*
G36*
X104086146Y-74775908D02*
X104101469Y-74801590D01*
X104135911Y-74860469D01*
X104187769Y-74949602D01*
X104255340Y-75066049D01*
X104336921Y-75206867D01*
X104430809Y-75369114D01*
X104535299Y-75549849D01*
X104648690Y-75746130D01*
X104769278Y-75955016D01*
X104893313Y-76170017D01*
X105019987Y-76389649D01*
X105141608Y-76600495D01*
X105256412Y-76799499D01*
X105362638Y-76983607D01*
X105458523Y-77149765D01*
X105542302Y-77294917D01*
X105612214Y-77416009D01*
X105666496Y-77509988D01*
X105703385Y-77573797D01*
X105720731Y-77603719D01*
X105749007Y-77654271D01*
X105764382Y-77685914D01*
X105765224Y-77691420D01*
X105746488Y-77681082D01*
X105694386Y-77651407D01*
X105611640Y-77603968D01*
X105500975Y-77540333D01*
X105365114Y-77462074D01*
X105206781Y-77370759D01*
X105028698Y-77267960D01*
X104833590Y-77155247D01*
X104624180Y-77034189D01*
X104403191Y-76906357D01*
X104319113Y-76857702D01*
X104094170Y-76727567D01*
X103879524Y-76603497D01*
X103677932Y-76487077D01*
X103492148Y-76379893D01*
X103324928Y-76283531D01*
X103179027Y-76199578D01*
X103057201Y-76129620D01*
X102962204Y-76075243D01*
X102896792Y-76038034D01*
X102863720Y-76019578D01*
X102860262Y-76017830D01*
X102870339Y-76002005D01*
X102905407Y-75959692D01*
X102961885Y-75894790D01*
X103036193Y-75811196D01*
X103124752Y-75712809D01*
X103223980Y-75603525D01*
X103330298Y-75487244D01*
X103440125Y-75367862D01*
X103549882Y-75249277D01*
X103655988Y-75135388D01*
X103754862Y-75030092D01*
X103842926Y-74937287D01*
X103916599Y-74860870D01*
X103972300Y-74804740D01*
X103991403Y-74786335D01*
X104054708Y-74726872D01*
X104086146Y-74775908D01*
X104086146Y-74775908D01*
G37*
X104086146Y-74775908D02*
X104101469Y-74801590D01*
X104135911Y-74860469D01*
X104187769Y-74949602D01*
X104255340Y-75066049D01*
X104336921Y-75206867D01*
X104430809Y-75369114D01*
X104535299Y-75549849D01*
X104648690Y-75746130D01*
X104769278Y-75955016D01*
X104893313Y-76170017D01*
X105019987Y-76389649D01*
X105141608Y-76600495D01*
X105256412Y-76799499D01*
X105362638Y-76983607D01*
X105458523Y-77149765D01*
X105542302Y-77294917D01*
X105612214Y-77416009D01*
X105666496Y-77509988D01*
X105703385Y-77573797D01*
X105720731Y-77603719D01*
X105749007Y-77654271D01*
X105764382Y-77685914D01*
X105765224Y-77691420D01*
X105746488Y-77681082D01*
X105694386Y-77651407D01*
X105611640Y-77603968D01*
X105500975Y-77540333D01*
X105365114Y-77462074D01*
X105206781Y-77370759D01*
X105028698Y-77267960D01*
X104833590Y-77155247D01*
X104624180Y-77034189D01*
X104403191Y-76906357D01*
X104319113Y-76857702D01*
X104094170Y-76727567D01*
X103879524Y-76603497D01*
X103677932Y-76487077D01*
X103492148Y-76379893D01*
X103324928Y-76283531D01*
X103179027Y-76199578D01*
X103057201Y-76129620D01*
X102962204Y-76075243D01*
X102896792Y-76038034D01*
X102863720Y-76019578D01*
X102860262Y-76017830D01*
X102870339Y-76002005D01*
X102905407Y-75959692D01*
X102961885Y-75894790D01*
X103036193Y-75811196D01*
X103124752Y-75712809D01*
X103223980Y-75603525D01*
X103330298Y-75487244D01*
X103440125Y-75367862D01*
X103549882Y-75249277D01*
X103655988Y-75135388D01*
X103754862Y-75030092D01*
X103842926Y-74937287D01*
X103916599Y-74860870D01*
X103972300Y-74804740D01*
X103991403Y-74786335D01*
X104054708Y-74726872D01*
X104086146Y-74775908D01*
G36*
X99150749Y-74852036D02*
X99194544Y-74868972D01*
X99261293Y-74902601D01*
X99357137Y-74955334D01*
X99364599Y-74959525D01*
X99452871Y-75010001D01*
X99527363Y-75054223D01*
X99580760Y-75087731D01*
X99605746Y-75106064D01*
X99606445Y-75106962D01*
X99600409Y-75132414D01*
X99572723Y-75189255D01*
X99525188Y-75274389D01*
X99459611Y-75384717D01*
X99377797Y-75517144D01*
X99281548Y-75668571D01*
X99257594Y-75705707D01*
X99195183Y-75808757D01*
X99149737Y-75897432D01*
X99125246Y-75963714D01*
X99122733Y-75976807D01*
X99123848Y-76034443D01*
X99136343Y-76125865D01*
X99158660Y-76245208D01*
X99189240Y-76386609D01*
X99226528Y-76544203D01*
X99268965Y-76712126D01*
X99314994Y-76884514D01*
X99363057Y-77055501D01*
X99411597Y-77219224D01*
X99459057Y-77369818D01*
X99503878Y-77501420D01*
X99544503Y-77608163D01*
X99572823Y-77671494D01*
X99606183Y-77738957D01*
X99637682Y-77803511D01*
X99639387Y-77807045D01*
X99691498Y-77872250D01*
X99767554Y-77916156D01*
X99856092Y-77937197D01*
X99945648Y-77933807D01*
X100024758Y-77904423D01*
X100069264Y-77865736D01*
X100133356Y-77759636D01*
X100180322Y-77627405D01*
X100206090Y-77482527D01*
X100209741Y-77400394D01*
X100195039Y-77247105D01*
X100151890Y-77120166D01*
X100077972Y-77013418D01*
X100054921Y-76989657D01*
X99986325Y-76923009D01*
X99981614Y-76451916D01*
X99976903Y-75980822D01*
X100096946Y-75799106D01*
X100153277Y-75716856D01*
X100207528Y-75642865D01*
X100251959Y-75587448D01*
X100271056Y-75567056D01*
X100325124Y-75516723D01*
X100398350Y-75556158D01*
X100444633Y-75584415D01*
X100469957Y-75606354D01*
X100471576Y-75610299D01*
X100488884Y-75627023D01*
X100518497Y-75639476D01*
X100547114Y-75650700D01*
X100590934Y-75672024D01*
X100653718Y-75705529D01*
X100739228Y-75753296D01*
X100851226Y-75817407D01*
X100993473Y-75899944D01*
X101070773Y-75945065D01*
X101161702Y-75999111D01*
X101221339Y-76037604D01*
X101254961Y-76065044D01*
X101267844Y-76085934D01*
X101265265Y-76104775D01*
X101263115Y-76109152D01*
X101242197Y-76136714D01*
X101197440Y-76188416D01*
X101134057Y-76258475D01*
X101057262Y-76341107D01*
X100990844Y-76411156D01*
X100837790Y-76577414D01*
X100718056Y-76721519D01*
X100630573Y-76844921D01*
X100574274Y-76949068D01*
X100555284Y-77001954D01*
X100547440Y-77048250D01*
X100539338Y-77127221D01*
X100531691Y-77229846D01*
X100525212Y-77347103D01*
X100522163Y-77421248D01*
X100517908Y-77549427D01*
X100516036Y-77643138D01*
X100517099Y-77709583D01*
X100521646Y-77755961D01*
X100530227Y-77789474D01*
X100543394Y-77817321D01*
X100553735Y-77834324D01*
X100613456Y-77899862D01*
X100690411Y-77945532D01*
X100771380Y-77965450D01*
X100832058Y-77958244D01*
X100886999Y-77927066D01*
X100955867Y-77871230D01*
X101029005Y-77800474D01*
X101096752Y-77724537D01*
X101149450Y-77653159D01*
X101168853Y-77618668D01*
X101197919Y-77571441D01*
X101250783Y-77499506D01*
X101322616Y-77408485D01*
X101408588Y-77304000D01*
X101503868Y-77191675D01*
X101603627Y-77077130D01*
X101703034Y-76965990D01*
X101797259Y-76863875D01*
X101881473Y-76776408D01*
X101947591Y-76712198D01*
X102020999Y-76648057D01*
X102082753Y-76600763D01*
X102126066Y-76575235D01*
X102140445Y-76572429D01*
X102162479Y-76583752D01*
X102217438Y-76614144D01*
X102302152Y-76661780D01*
X102413448Y-76724835D01*
X102548156Y-76801485D01*
X102703103Y-76889905D01*
X102875119Y-76988270D01*
X103061032Y-77094756D01*
X103257670Y-77207537D01*
X103461863Y-77324789D01*
X103670439Y-77444687D01*
X103880225Y-77565407D01*
X104088052Y-77685123D01*
X104290747Y-77802011D01*
X104485140Y-77914246D01*
X104668058Y-78020004D01*
X104836330Y-78117460D01*
X104986785Y-78204788D01*
X105116251Y-78280165D01*
X105221557Y-78341765D01*
X105299532Y-78387764D01*
X105347004Y-78416337D01*
X105360763Y-78425304D01*
X105342231Y-78427076D01*
X105283933Y-78428799D01*
X105187809Y-78430464D01*
X105055799Y-78432063D01*
X104889846Y-78433587D01*
X104691889Y-78435029D01*
X104463870Y-78436380D01*
X104207729Y-78437632D01*
X103925408Y-78438776D01*
X103618847Y-78439804D01*
X103289987Y-78440708D01*
X102940769Y-78441479D01*
X102573135Y-78442109D01*
X102189024Y-78442590D01*
X101790377Y-78442914D01*
X101379137Y-78443072D01*
X101206580Y-78443087D01*
X97032586Y-78443087D01*
X97330268Y-77926954D01*
X97393286Y-77817665D01*
X97474406Y-77676940D01*
X97570916Y-77509486D01*
X97680103Y-77320012D01*
X97799255Y-77113223D01*
X97925660Y-76893828D01*
X98056605Y-76666533D01*
X98189379Y-76436046D01*
X98321269Y-76207073D01*
X98354624Y-76149163D01*
X98476247Y-75938232D01*
X98592228Y-75737535D01*
X98700825Y-75550059D01*
X98800294Y-75378792D01*
X98888892Y-75226723D01*
X98964878Y-75096838D01*
X99026507Y-74992125D01*
X99072037Y-74915573D01*
X99099725Y-74870169D01*
X99107472Y-74858609D01*
X99123772Y-74849385D01*
X99150749Y-74852036D01*
X99150749Y-74852036D01*
G37*
X99150749Y-74852036D02*
X99194544Y-74868972D01*
X99261293Y-74902601D01*
X99357137Y-74955334D01*
X99364599Y-74959525D01*
X99452871Y-75010001D01*
X99527363Y-75054223D01*
X99580760Y-75087731D01*
X99605746Y-75106064D01*
X99606445Y-75106962D01*
X99600409Y-75132414D01*
X99572723Y-75189255D01*
X99525188Y-75274389D01*
X99459611Y-75384717D01*
X99377797Y-75517144D01*
X99281548Y-75668571D01*
X99257594Y-75705707D01*
X99195183Y-75808757D01*
X99149737Y-75897432D01*
X99125246Y-75963714D01*
X99122733Y-75976807D01*
X99123848Y-76034443D01*
X99136343Y-76125865D01*
X99158660Y-76245208D01*
X99189240Y-76386609D01*
X99226528Y-76544203D01*
X99268965Y-76712126D01*
X99314994Y-76884514D01*
X99363057Y-77055501D01*
X99411597Y-77219224D01*
X99459057Y-77369818D01*
X99503878Y-77501420D01*
X99544503Y-77608163D01*
X99572823Y-77671494D01*
X99606183Y-77738957D01*
X99637682Y-77803511D01*
X99639387Y-77807045D01*
X99691498Y-77872250D01*
X99767554Y-77916156D01*
X99856092Y-77937197D01*
X99945648Y-77933807D01*
X100024758Y-77904423D01*
X100069264Y-77865736D01*
X100133356Y-77759636D01*
X100180322Y-77627405D01*
X100206090Y-77482527D01*
X100209741Y-77400394D01*
X100195039Y-77247105D01*
X100151890Y-77120166D01*
X100077972Y-77013418D01*
X100054921Y-76989657D01*
X99986325Y-76923009D01*
X99981614Y-76451916D01*
X99976903Y-75980822D01*
X100096946Y-75799106D01*
X100153277Y-75716856D01*
X100207528Y-75642865D01*
X100251959Y-75587448D01*
X100271056Y-75567056D01*
X100325124Y-75516723D01*
X100398350Y-75556158D01*
X100444633Y-75584415D01*
X100469957Y-75606354D01*
X100471576Y-75610299D01*
X100488884Y-75627023D01*
X100518497Y-75639476D01*
X100547114Y-75650700D01*
X100590934Y-75672024D01*
X100653718Y-75705529D01*
X100739228Y-75753296D01*
X100851226Y-75817407D01*
X100993473Y-75899944D01*
X101070773Y-75945065D01*
X101161702Y-75999111D01*
X101221339Y-76037604D01*
X101254961Y-76065044D01*
X101267844Y-76085934D01*
X101265265Y-76104775D01*
X101263115Y-76109152D01*
X101242197Y-76136714D01*
X101197440Y-76188416D01*
X101134057Y-76258475D01*
X101057262Y-76341107D01*
X100990844Y-76411156D01*
X100837790Y-76577414D01*
X100718056Y-76721519D01*
X100630573Y-76844921D01*
X100574274Y-76949068D01*
X100555284Y-77001954D01*
X100547440Y-77048250D01*
X100539338Y-77127221D01*
X100531691Y-77229846D01*
X100525212Y-77347103D01*
X100522163Y-77421248D01*
X100517908Y-77549427D01*
X100516036Y-77643138D01*
X100517099Y-77709583D01*
X100521646Y-77755961D01*
X100530227Y-77789474D01*
X100543394Y-77817321D01*
X100553735Y-77834324D01*
X100613456Y-77899862D01*
X100690411Y-77945532D01*
X100771380Y-77965450D01*
X100832058Y-77958244D01*
X100886999Y-77927066D01*
X100955867Y-77871230D01*
X101029005Y-77800474D01*
X101096752Y-77724537D01*
X101149450Y-77653159D01*
X101168853Y-77618668D01*
X101197919Y-77571441D01*
X101250783Y-77499506D01*
X101322616Y-77408485D01*
X101408588Y-77304000D01*
X101503868Y-77191675D01*
X101603627Y-77077130D01*
X101703034Y-76965990D01*
X101797259Y-76863875D01*
X101881473Y-76776408D01*
X101947591Y-76712198D01*
X102020999Y-76648057D01*
X102082753Y-76600763D01*
X102126066Y-76575235D01*
X102140445Y-76572429D01*
X102162479Y-76583752D01*
X102217438Y-76614144D01*
X102302152Y-76661780D01*
X102413448Y-76724835D01*
X102548156Y-76801485D01*
X102703103Y-76889905D01*
X102875119Y-76988270D01*
X103061032Y-77094756D01*
X103257670Y-77207537D01*
X103461863Y-77324789D01*
X103670439Y-77444687D01*
X103880225Y-77565407D01*
X104088052Y-77685123D01*
X104290747Y-77802011D01*
X104485140Y-77914246D01*
X104668058Y-78020004D01*
X104836330Y-78117460D01*
X104986785Y-78204788D01*
X105116251Y-78280165D01*
X105221557Y-78341765D01*
X105299532Y-78387764D01*
X105347004Y-78416337D01*
X105360763Y-78425304D01*
X105342231Y-78427076D01*
X105283933Y-78428799D01*
X105187809Y-78430464D01*
X105055799Y-78432063D01*
X104889846Y-78433587D01*
X104691889Y-78435029D01*
X104463870Y-78436380D01*
X104207729Y-78437632D01*
X103925408Y-78438776D01*
X103618847Y-78439804D01*
X103289987Y-78440708D01*
X102940769Y-78441479D01*
X102573135Y-78442109D01*
X102189024Y-78442590D01*
X101790377Y-78442914D01*
X101379137Y-78443072D01*
X101206580Y-78443087D01*
X97032586Y-78443087D01*
X97330268Y-77926954D01*
X97393286Y-77817665D01*
X97474406Y-77676940D01*
X97570916Y-77509486D01*
X97680103Y-77320012D01*
X97799255Y-77113223D01*
X97925660Y-76893828D01*
X98056605Y-76666533D01*
X98189379Y-76436046D01*
X98321269Y-76207073D01*
X98354624Y-76149163D01*
X98476247Y-75938232D01*
X98592228Y-75737535D01*
X98700825Y-75550059D01*
X98800294Y-75378792D01*
X98888892Y-75226723D01*
X98964878Y-75096838D01*
X99026507Y-74992125D01*
X99072037Y-74915573D01*
X99099725Y-74870169D01*
X99107472Y-74858609D01*
X99123772Y-74849385D01*
X99150749Y-74852036D01*
G04 #@! TO.C,G\002A\002A\002A*
G36*
X96835912Y-33447754D02*
X96881087Y-33484666D01*
X96908921Y-33532933D01*
X96910295Y-33583501D01*
X96896216Y-33609319D01*
X96848853Y-33637098D01*
X96787520Y-33638548D01*
X96730756Y-33614453D01*
X96716830Y-33601746D01*
X96689712Y-33546597D01*
X96694485Y-33488548D01*
X96729746Y-33444390D01*
X96730008Y-33444225D01*
X96782513Y-33431255D01*
X96835912Y-33447754D01*
X96835912Y-33447754D01*
G37*
X96835912Y-33447754D02*
X96881087Y-33484666D01*
X96908921Y-33532933D01*
X96910295Y-33583501D01*
X96896216Y-33609319D01*
X96848853Y-33637098D01*
X96787520Y-33638548D01*
X96730756Y-33614453D01*
X96716830Y-33601746D01*
X96689712Y-33546597D01*
X96694485Y-33488548D01*
X96729746Y-33444390D01*
X96730008Y-33444225D01*
X96782513Y-33431255D01*
X96835912Y-33447754D01*
G36*
X90427857Y-29673338D02*
X90522616Y-29685418D01*
X90743146Y-29738165D01*
X90979624Y-29826566D01*
X91228430Y-29948733D01*
X91485945Y-30102781D01*
X91748549Y-30286824D01*
X91893682Y-30400021D01*
X92083911Y-30553792D01*
X92420497Y-30562195D01*
X92794318Y-30579709D01*
X93168071Y-30614278D01*
X93551400Y-30667181D01*
X93953947Y-30739700D01*
X94281083Y-30809264D01*
X94739102Y-30920752D01*
X95160222Y-31041445D01*
X95549304Y-31173586D01*
X95911205Y-31319421D01*
X96250786Y-31481194D01*
X96572905Y-31661150D01*
X96882420Y-31861534D01*
X97184193Y-32084590D01*
X97371417Y-32236838D01*
X97552709Y-32396559D01*
X97733314Y-32569230D01*
X97908394Y-32749325D01*
X98073112Y-32931319D01*
X98222630Y-33109686D01*
X98352112Y-33278902D01*
X98456720Y-33433439D01*
X98525388Y-33554974D01*
X98591072Y-33714088D01*
X98643902Y-33895296D01*
X98682288Y-34087581D01*
X98704640Y-34279924D01*
X98709365Y-34461306D01*
X98694874Y-34620710D01*
X98685782Y-34665861D01*
X98669275Y-34750612D01*
X98665189Y-34824703D01*
X98675768Y-34897442D01*
X98703257Y-34978140D01*
X98749900Y-35076105D01*
X98812328Y-35190678D01*
X98869806Y-35299787D01*
X98908710Y-35388580D01*
X98926379Y-35450778D01*
X98927167Y-35461604D01*
X98918863Y-35520888D01*
X98898111Y-35581825D01*
X98871150Y-35630476D01*
X98844218Y-35652900D01*
X98841432Y-35653167D01*
X98818869Y-35670637D01*
X98800955Y-35704009D01*
X98760618Y-35754500D01*
X98691509Y-35784923D01*
X98603536Y-35792411D01*
X98532583Y-35781619D01*
X98459279Y-35758086D01*
X98386858Y-35722591D01*
X98307703Y-35670166D01*
X98214195Y-35595844D01*
X98114978Y-35509270D01*
X97976754Y-35394579D01*
X97848079Y-35309782D01*
X97716724Y-35248471D01*
X97570459Y-35204238D01*
X97505623Y-35190009D01*
X97409991Y-35167298D01*
X97306848Y-35135431D01*
X97191769Y-35092474D01*
X97060329Y-35036491D01*
X96908101Y-34965548D01*
X96730662Y-34877709D01*
X96523585Y-34771038D01*
X96405258Y-34708825D01*
X96283471Y-34644974D01*
X96173664Y-34588414D01*
X96081533Y-34541995D01*
X96012771Y-34508568D01*
X95973072Y-34490984D01*
X95966203Y-34489000D01*
X95942072Y-34502587D01*
X95894520Y-34539409D01*
X95830833Y-34593554D01*
X95770549Y-34647773D01*
X95555779Y-34827222D01*
X95330523Y-34977007D01*
X95106070Y-35095182D01*
X94962131Y-35158585D01*
X94831466Y-35203903D01*
X94701457Y-35233761D01*
X94559485Y-35250787D01*
X94392932Y-35257605D01*
X94323417Y-35258067D01*
X94081652Y-35250363D01*
X93848352Y-35228145D01*
X93628590Y-35192730D01*
X93427442Y-35145438D01*
X93249982Y-35087587D01*
X93101285Y-35020495D01*
X92986425Y-34945482D01*
X92936223Y-34897632D01*
X92896932Y-34849845D01*
X92883924Y-34821596D01*
X92893665Y-34802370D01*
X92901953Y-34795710D01*
X92933483Y-34784059D01*
X92999009Y-34767669D01*
X93090685Y-34748240D01*
X93200667Y-34727476D01*
X93278947Y-34713953D01*
X93402994Y-34691670D01*
X93519906Y-34667709D01*
X93619911Y-34644287D01*
X93693240Y-34623620D01*
X93718865Y-34614141D01*
X93787599Y-34576726D01*
X93855046Y-34528520D01*
X93911258Y-34478053D01*
X93946285Y-34433854D01*
X93953000Y-34413410D01*
X93957722Y-34400179D01*
X93974994Y-34389080D01*
X94009481Y-34379443D01*
X94065842Y-34370598D01*
X94148741Y-34361874D01*
X94262839Y-34352602D01*
X94412798Y-34342111D01*
X94479541Y-34337705D01*
X94656605Y-34327504D01*
X94805078Y-34322465D01*
X94938383Y-34322572D01*
X95069942Y-34327806D01*
X95196654Y-34336782D01*
X95333894Y-34346512D01*
X95481517Y-34354507D01*
X95622447Y-34359981D01*
X95739609Y-34362147D01*
X95746999Y-34362154D01*
X95985249Y-34362000D01*
X96678333Y-34708005D01*
X96877025Y-34806603D01*
X97042049Y-34887079D01*
X97177153Y-34951107D01*
X97286087Y-35000364D01*
X97372599Y-35036528D01*
X97440439Y-35061276D01*
X97493355Y-35076283D01*
X97509000Y-35079537D01*
X97631778Y-35106403D01*
X97741825Y-35140910D01*
X97846363Y-35187143D01*
X97952612Y-35249189D01*
X98067793Y-35331133D01*
X98199128Y-35437061D01*
X98311071Y-35533388D01*
X98433822Y-35629346D01*
X98539995Y-35687703D01*
X98629047Y-35708225D01*
X98689665Y-35696313D01*
X98747250Y-35669733D01*
X98694612Y-35634991D01*
X98643105Y-35599121D01*
X98568695Y-35544917D01*
X98479409Y-35478483D01*
X98383280Y-35405923D01*
X98288337Y-35333341D01*
X98202611Y-35266841D01*
X98134131Y-35212527D01*
X98090928Y-35176504D01*
X98088211Y-35174054D01*
X98053835Y-35138780D01*
X97998113Y-35077112D01*
X97926572Y-34995367D01*
X97844740Y-34899862D01*
X97758145Y-34796913D01*
X97757315Y-34795917D01*
X97644720Y-34661710D01*
X97554141Y-34556387D01*
X97481285Y-34475665D01*
X97421857Y-34415265D01*
X97371562Y-34370904D01*
X97326107Y-34338303D01*
X97281197Y-34313180D01*
X97265583Y-34305718D01*
X97209556Y-34269392D01*
X97176951Y-34227736D01*
X97172186Y-34189844D01*
X97197536Y-34165591D01*
X97250399Y-34166317D01*
X97322915Y-34201828D01*
X97415446Y-34272442D01*
X97528352Y-34378476D01*
X97661996Y-34520247D01*
X97816737Y-34698073D01*
X97854427Y-34743000D01*
X97999323Y-34909477D01*
X98138730Y-35052951D01*
X98287007Y-35187814D01*
X98356489Y-35246264D01*
X98482714Y-35349390D01*
X98581216Y-35427302D01*
X98656068Y-35482738D01*
X98711342Y-35518434D01*
X98751111Y-35537125D01*
X98779448Y-35541548D01*
X98791905Y-35538788D01*
X98801389Y-35533020D01*
X98804341Y-35522770D01*
X98798368Y-35504853D01*
X98781081Y-35476087D01*
X98750088Y-35433290D01*
X98702998Y-35373279D01*
X98637421Y-35292869D01*
X98550966Y-35188880D01*
X98441241Y-35058127D01*
X98345189Y-34944084D01*
X98210736Y-34783960D01*
X98101072Y-34651661D01*
X98013196Y-34543078D01*
X97944105Y-34454101D01*
X97890798Y-34380622D01*
X97850273Y-34318532D01*
X97819529Y-34263721D01*
X97795564Y-34212080D01*
X97778569Y-34168402D01*
X97701431Y-34005544D01*
X97590815Y-33841655D01*
X97454396Y-33685634D01*
X97299851Y-33546377D01*
X97153712Y-33444011D01*
X96991239Y-33356245D01*
X96804755Y-33273607D01*
X96612495Y-33203956D01*
X96557190Y-33186993D01*
X96399131Y-33140727D01*
X96236733Y-33275082D01*
X96034423Y-33428464D01*
X95812571Y-33568834D01*
X95564664Y-33699789D01*
X95284187Y-33824928D01*
X95130154Y-33886265D01*
X94897335Y-33970384D01*
X94647411Y-34051069D01*
X94391936Y-34125113D01*
X94142464Y-34189307D01*
X93910551Y-34240447D01*
X93751917Y-34268800D01*
X93611982Y-34285717D01*
X93451039Y-34297279D01*
X93280773Y-34303337D01*
X93112870Y-34303743D01*
X92959018Y-34298347D01*
X92830903Y-34286999D01*
X92791241Y-34281069D01*
X92740684Y-34274070D01*
X92684197Y-34270508D01*
X92615548Y-34270656D01*
X92528506Y-34274786D01*
X92416839Y-34283171D01*
X92274316Y-34296082D01*
X92135074Y-34309734D01*
X91804116Y-34343653D01*
X91511261Y-34375575D01*
X91252370Y-34406252D01*
X91023302Y-34436437D01*
X90819916Y-34466882D01*
X90638074Y-34498340D01*
X90473634Y-34531563D01*
X90322456Y-34567304D01*
X90180400Y-34606316D01*
X90043325Y-34649351D01*
X89907093Y-34697161D01*
X89817438Y-34730998D01*
X89457338Y-34885524D01*
X89114682Y-35064912D01*
X88785833Y-35271920D01*
X88467151Y-35509305D01*
X88154995Y-35779827D01*
X87845728Y-36086243D01*
X87535710Y-36431312D01*
X87467498Y-36512145D01*
X87324357Y-36684683D01*
X87204822Y-36832168D01*
X87104527Y-36961323D01*
X87019103Y-37078870D01*
X86944182Y-37191529D01*
X86875397Y-37306022D01*
X86808381Y-37429071D01*
X86738764Y-37567398D01*
X86662181Y-37727723D01*
X86622733Y-37812167D01*
X86534192Y-38002965D01*
X86462251Y-38159226D01*
X86405424Y-38284691D01*
X86362223Y-38383097D01*
X86331163Y-38458183D01*
X86310754Y-38513688D01*
X86299512Y-38553351D01*
X86295947Y-38580910D01*
X86298575Y-38600105D01*
X86304443Y-38612441D01*
X86330439Y-38640303D01*
X86344229Y-38644618D01*
X86357271Y-38625167D01*
X86385188Y-38572301D01*
X86425512Y-38491221D01*
X86475774Y-38387131D01*
X86533505Y-38265230D01*
X86596235Y-38130722D01*
X86661496Y-37988809D01*
X86726819Y-37844692D01*
X86774000Y-37739114D01*
X86811122Y-37655477D01*
X86929728Y-37802614D01*
X87035983Y-37940140D01*
X87138069Y-38082871D01*
X87231279Y-38223411D01*
X87310909Y-38354363D01*
X87372254Y-38468330D01*
X87410610Y-38557916D01*
X87411132Y-38559475D01*
X87462558Y-38743683D01*
X87496329Y-38938451D01*
X87513994Y-39154828D01*
X87517595Y-39318760D01*
X87515139Y-39477686D01*
X87507467Y-39628943D01*
X87495347Y-39766976D01*
X87479551Y-39886232D01*
X87460851Y-39981155D01*
X87440016Y-40046192D01*
X87417819Y-40075788D01*
X87412360Y-40077000D01*
X87397526Y-40058347D01*
X87377292Y-40009917D01*
X87359912Y-39955292D01*
X87310365Y-39832078D01*
X87232530Y-39700261D01*
X87134386Y-39569305D01*
X87023915Y-39448676D01*
X86909097Y-39347839D01*
X86797914Y-39276259D01*
X86780254Y-39267819D01*
X86698500Y-39241772D01*
X86582290Y-39220482D01*
X86462754Y-39207276D01*
X86364828Y-39198442D01*
X86278844Y-39189525D01*
X86215986Y-39181748D01*
X86191605Y-39177607D01*
X86124702Y-39144506D01*
X86087776Y-39082670D01*
X86079000Y-39012332D01*
X86079000Y-38924355D01*
X86013959Y-39003261D01*
X85974551Y-39045607D01*
X85934745Y-39070934D01*
X85885677Y-39080134D01*
X85818482Y-39074100D01*
X85724296Y-39053723D01*
X85664344Y-39038443D01*
X85540239Y-39012925D01*
X85395876Y-38994135D01*
X85244045Y-38982767D01*
X85097535Y-38979515D01*
X84969134Y-38985074D01*
X84888109Y-38996318D01*
X84741551Y-39041772D01*
X84583349Y-39117060D01*
X84424691Y-39216369D01*
X84336623Y-39282884D01*
X84252530Y-39346760D01*
X84187850Y-39387262D01*
X84146318Y-39402433D01*
X84131667Y-39390345D01*
X84139587Y-39357868D01*
X84160732Y-39296568D01*
X84191182Y-39216324D01*
X84227014Y-39127017D01*
X84264307Y-39038529D01*
X84299138Y-38960741D01*
X84316312Y-38925128D01*
X84372151Y-38817871D01*
X84426550Y-38723794D01*
X84487269Y-38630845D01*
X84562067Y-38526970D01*
X84632254Y-38434408D01*
X84731074Y-38312914D01*
X84830303Y-38207564D01*
X84939446Y-38109846D01*
X85068005Y-38011249D01*
X85224661Y-37903804D01*
X85298340Y-37856953D01*
X85391885Y-37800126D01*
X85499021Y-37736855D01*
X85613475Y-37670669D01*
X85728973Y-37605100D01*
X85839241Y-37543676D01*
X85938006Y-37489928D01*
X86018994Y-37447387D01*
X86075932Y-37419582D01*
X86102177Y-37410030D01*
X86107809Y-37390165D01*
X86114392Y-37335777D01*
X86121188Y-37254643D01*
X86127461Y-37154540D01*
X86128758Y-37129542D01*
X86175409Y-36610937D01*
X86181673Y-36574588D01*
X87090901Y-36574588D01*
X87105771Y-36672197D01*
X87108394Y-36679442D01*
X87115557Y-36696104D01*
X87124101Y-36701599D01*
X87138394Y-36691175D01*
X87162800Y-36660079D01*
X87201689Y-36603560D01*
X87259425Y-36516864D01*
X87263705Y-36510417D01*
X87510792Y-36176046D01*
X87795846Y-35860015D01*
X88118557Y-35562581D01*
X88478612Y-35284003D01*
X88875702Y-35024539D01*
X89309517Y-34784446D01*
X89391583Y-34743255D01*
X89634036Y-34629110D01*
X89865273Y-34533242D01*
X90093739Y-34453353D01*
X90327874Y-34387142D01*
X90576123Y-34332312D01*
X90846926Y-34286564D01*
X91148727Y-34247599D01*
X91254250Y-34236080D01*
X91331851Y-34228283D01*
X91435990Y-34218333D01*
X91559969Y-34206820D01*
X91697093Y-34194335D01*
X91840664Y-34181467D01*
X91983987Y-34168808D01*
X92120366Y-34156947D01*
X92243103Y-34146474D01*
X92345504Y-34137982D01*
X92420870Y-34132058D01*
X92462506Y-34129295D01*
X92466955Y-34129167D01*
X92488949Y-34122804D01*
X92479122Y-34107858D01*
X92445318Y-34090542D01*
X92402982Y-34078480D01*
X92329559Y-34055823D01*
X92234007Y-34015385D01*
X92128549Y-33963555D01*
X92025405Y-33906722D01*
X91936797Y-33851275D01*
X91874948Y-33803604D01*
X91872233Y-33801012D01*
X91817352Y-33736648D01*
X91801521Y-33687795D01*
X91824678Y-33653766D01*
X91857611Y-33640080D01*
X91894349Y-33635500D01*
X91966105Y-33631275D01*
X92065564Y-33627660D01*
X92185411Y-33624909D01*
X92318330Y-33623278D01*
X92344333Y-33623117D01*
X92572690Y-33619756D01*
X92764967Y-33610769D01*
X92927281Y-33593905D01*
X93065753Y-33566908D01*
X93186501Y-33527526D01*
X93295642Y-33473506D01*
X93399296Y-33402594D01*
X93503581Y-33312537D01*
X93614616Y-33201082D01*
X93679267Y-33131498D01*
X93757250Y-33043692D01*
X93806554Y-32981842D01*
X93829337Y-32942902D01*
X93827757Y-32923825D01*
X93826802Y-32923163D01*
X93773152Y-32903885D01*
X93682751Y-32887460D01*
X93561094Y-32873993D01*
X93413672Y-32863590D01*
X93245981Y-32856357D01*
X93063514Y-32852398D01*
X92871764Y-32851819D01*
X92676225Y-32854725D01*
X92482390Y-32861223D01*
X92295753Y-32871416D01*
X92121808Y-32885412D01*
X92079750Y-32889643D01*
X91812470Y-32918622D01*
X91582026Y-32945700D01*
X91383022Y-32971895D01*
X91210061Y-32998223D01*
X91057747Y-33025702D01*
X90920683Y-33055350D01*
X90793474Y-33088184D01*
X90670723Y-33125220D01*
X90547032Y-33167477D01*
X90484540Y-33190362D01*
X90111215Y-33348733D01*
X89735567Y-33544768D01*
X89362597Y-33774439D01*
X88997304Y-34033715D01*
X88644690Y-34318565D01*
X88309757Y-34624961D01*
X87997505Y-34948872D01*
X87712934Y-35286268D01*
X87470247Y-35619390D01*
X87360359Y-35795870D01*
X87266705Y-35972562D01*
X87191108Y-36144122D01*
X87135393Y-36305208D01*
X87101383Y-36450478D01*
X87090901Y-36574588D01*
X86181673Y-36574588D01*
X86262973Y-36102878D01*
X86391219Y-35605949D01*
X86559915Y-35120735D01*
X86768829Y-34647820D01*
X87017730Y-34187788D01*
X87306386Y-33741224D01*
X87634565Y-33308712D01*
X87650741Y-33289004D01*
X87755313Y-33167963D01*
X87885815Y-33026300D01*
X88035656Y-32870495D01*
X88198248Y-32707031D01*
X88367000Y-32542388D01*
X88535323Y-32383049D01*
X88696628Y-32235494D01*
X88844324Y-32106205D01*
X88904750Y-32055581D01*
X89023203Y-31955050D01*
X89152701Y-31840008D01*
X89288106Y-31715485D01*
X89424284Y-31586512D01*
X89556098Y-31458119D01*
X89678413Y-31335336D01*
X89786093Y-31223194D01*
X89874002Y-31126723D01*
X89937004Y-31050953D01*
X89953612Y-31028250D01*
X89994815Y-30963299D01*
X90016810Y-30908484D01*
X90025413Y-30844367D01*
X90026583Y-30784388D01*
X90005990Y-30626306D01*
X89946040Y-30476107D01*
X89849475Y-30337234D01*
X89719037Y-30213129D01*
X89557469Y-30107232D01*
X89443358Y-30052439D01*
X89359924Y-30015513D01*
X89292599Y-29982539D01*
X89250087Y-29957964D01*
X89239847Y-29948491D01*
X89252011Y-29923521D01*
X89294202Y-29887222D01*
X89357618Y-29845129D01*
X89433454Y-29802774D01*
X89512909Y-29765694D01*
X89557821Y-29748566D01*
X89701424Y-29710672D01*
X89873229Y-29683351D01*
X90060236Y-29667455D01*
X90249445Y-29663833D01*
X90427857Y-29673338D01*
X90427857Y-29673338D01*
G37*
X90427857Y-29673338D02*
X90522616Y-29685418D01*
X90743146Y-29738165D01*
X90979624Y-29826566D01*
X91228430Y-29948733D01*
X91485945Y-30102781D01*
X91748549Y-30286824D01*
X91893682Y-30400021D01*
X92083911Y-30553792D01*
X92420497Y-30562195D01*
X92794318Y-30579709D01*
X93168071Y-30614278D01*
X93551400Y-30667181D01*
X93953947Y-30739700D01*
X94281083Y-30809264D01*
X94739102Y-30920752D01*
X95160222Y-31041445D01*
X95549304Y-31173586D01*
X95911205Y-31319421D01*
X96250786Y-31481194D01*
X96572905Y-31661150D01*
X96882420Y-31861534D01*
X97184193Y-32084590D01*
X97371417Y-32236838D01*
X97552709Y-32396559D01*
X97733314Y-32569230D01*
X97908394Y-32749325D01*
X98073112Y-32931319D01*
X98222630Y-33109686D01*
X98352112Y-33278902D01*
X98456720Y-33433439D01*
X98525388Y-33554974D01*
X98591072Y-33714088D01*
X98643902Y-33895296D01*
X98682288Y-34087581D01*
X98704640Y-34279924D01*
X98709365Y-34461306D01*
X98694874Y-34620710D01*
X98685782Y-34665861D01*
X98669275Y-34750612D01*
X98665189Y-34824703D01*
X98675768Y-34897442D01*
X98703257Y-34978140D01*
X98749900Y-35076105D01*
X98812328Y-35190678D01*
X98869806Y-35299787D01*
X98908710Y-35388580D01*
X98926379Y-35450778D01*
X98927167Y-35461604D01*
X98918863Y-35520888D01*
X98898111Y-35581825D01*
X98871150Y-35630476D01*
X98844218Y-35652900D01*
X98841432Y-35653167D01*
X98818869Y-35670637D01*
X98800955Y-35704009D01*
X98760618Y-35754500D01*
X98691509Y-35784923D01*
X98603536Y-35792411D01*
X98532583Y-35781619D01*
X98459279Y-35758086D01*
X98386858Y-35722591D01*
X98307703Y-35670166D01*
X98214195Y-35595844D01*
X98114978Y-35509270D01*
X97976754Y-35394579D01*
X97848079Y-35309782D01*
X97716724Y-35248471D01*
X97570459Y-35204238D01*
X97505623Y-35190009D01*
X97409991Y-35167298D01*
X97306848Y-35135431D01*
X97191769Y-35092474D01*
X97060329Y-35036491D01*
X96908101Y-34965548D01*
X96730662Y-34877709D01*
X96523585Y-34771038D01*
X96405258Y-34708825D01*
X96283471Y-34644974D01*
X96173664Y-34588414D01*
X96081533Y-34541995D01*
X96012771Y-34508568D01*
X95973072Y-34490984D01*
X95966203Y-34489000D01*
X95942072Y-34502587D01*
X95894520Y-34539409D01*
X95830833Y-34593554D01*
X95770549Y-34647773D01*
X95555779Y-34827222D01*
X95330523Y-34977007D01*
X95106070Y-35095182D01*
X94962131Y-35158585D01*
X94831466Y-35203903D01*
X94701457Y-35233761D01*
X94559485Y-35250787D01*
X94392932Y-35257605D01*
X94323417Y-35258067D01*
X94081652Y-35250363D01*
X93848352Y-35228145D01*
X93628590Y-35192730D01*
X93427442Y-35145438D01*
X93249982Y-35087587D01*
X93101285Y-35020495D01*
X92986425Y-34945482D01*
X92936223Y-34897632D01*
X92896932Y-34849845D01*
X92883924Y-34821596D01*
X92893665Y-34802370D01*
X92901953Y-34795710D01*
X92933483Y-34784059D01*
X92999009Y-34767669D01*
X93090685Y-34748240D01*
X93200667Y-34727476D01*
X93278947Y-34713953D01*
X93402994Y-34691670D01*
X93519906Y-34667709D01*
X93619911Y-34644287D01*
X93693240Y-34623620D01*
X93718865Y-34614141D01*
X93787599Y-34576726D01*
X93855046Y-34528520D01*
X93911258Y-34478053D01*
X93946285Y-34433854D01*
X93953000Y-34413410D01*
X93957722Y-34400179D01*
X93974994Y-34389080D01*
X94009481Y-34379443D01*
X94065842Y-34370598D01*
X94148741Y-34361874D01*
X94262839Y-34352602D01*
X94412798Y-34342111D01*
X94479541Y-34337705D01*
X94656605Y-34327504D01*
X94805078Y-34322465D01*
X94938383Y-34322572D01*
X95069942Y-34327806D01*
X95196654Y-34336782D01*
X95333894Y-34346512D01*
X95481517Y-34354507D01*
X95622447Y-34359981D01*
X95739609Y-34362147D01*
X95746999Y-34362154D01*
X95985249Y-34362000D01*
X96678333Y-34708005D01*
X96877025Y-34806603D01*
X97042049Y-34887079D01*
X97177153Y-34951107D01*
X97286087Y-35000364D01*
X97372599Y-35036528D01*
X97440439Y-35061276D01*
X97493355Y-35076283D01*
X97509000Y-35079537D01*
X97631778Y-35106403D01*
X97741825Y-35140910D01*
X97846363Y-35187143D01*
X97952612Y-35249189D01*
X98067793Y-35331133D01*
X98199128Y-35437061D01*
X98311071Y-35533388D01*
X98433822Y-35629346D01*
X98539995Y-35687703D01*
X98629047Y-35708225D01*
X98689665Y-35696313D01*
X98747250Y-35669733D01*
X98694612Y-35634991D01*
X98643105Y-35599121D01*
X98568695Y-35544917D01*
X98479409Y-35478483D01*
X98383280Y-35405923D01*
X98288337Y-35333341D01*
X98202611Y-35266841D01*
X98134131Y-35212527D01*
X98090928Y-35176504D01*
X98088211Y-35174054D01*
X98053835Y-35138780D01*
X97998113Y-35077112D01*
X97926572Y-34995367D01*
X97844740Y-34899862D01*
X97758145Y-34796913D01*
X97757315Y-34795917D01*
X97644720Y-34661710D01*
X97554141Y-34556387D01*
X97481285Y-34475665D01*
X97421857Y-34415265D01*
X97371562Y-34370904D01*
X97326107Y-34338303D01*
X97281197Y-34313180D01*
X97265583Y-34305718D01*
X97209556Y-34269392D01*
X97176951Y-34227736D01*
X97172186Y-34189844D01*
X97197536Y-34165591D01*
X97250399Y-34166317D01*
X97322915Y-34201828D01*
X97415446Y-34272442D01*
X97528352Y-34378476D01*
X97661996Y-34520247D01*
X97816737Y-34698073D01*
X97854427Y-34743000D01*
X97999323Y-34909477D01*
X98138730Y-35052951D01*
X98287007Y-35187814D01*
X98356489Y-35246264D01*
X98482714Y-35349390D01*
X98581216Y-35427302D01*
X98656068Y-35482738D01*
X98711342Y-35518434D01*
X98751111Y-35537125D01*
X98779448Y-35541548D01*
X98791905Y-35538788D01*
X98801389Y-35533020D01*
X98804341Y-35522770D01*
X98798368Y-35504853D01*
X98781081Y-35476087D01*
X98750088Y-35433290D01*
X98702998Y-35373279D01*
X98637421Y-35292869D01*
X98550966Y-35188880D01*
X98441241Y-35058127D01*
X98345189Y-34944084D01*
X98210736Y-34783960D01*
X98101072Y-34651661D01*
X98013196Y-34543078D01*
X97944105Y-34454101D01*
X97890798Y-34380622D01*
X97850273Y-34318532D01*
X97819529Y-34263721D01*
X97795564Y-34212080D01*
X97778569Y-34168402D01*
X97701431Y-34005544D01*
X97590815Y-33841655D01*
X97454396Y-33685634D01*
X97299851Y-33546377D01*
X97153712Y-33444011D01*
X96991239Y-33356245D01*
X96804755Y-33273607D01*
X96612495Y-33203956D01*
X96557190Y-33186993D01*
X96399131Y-33140727D01*
X96236733Y-33275082D01*
X96034423Y-33428464D01*
X95812571Y-33568834D01*
X95564664Y-33699789D01*
X95284187Y-33824928D01*
X95130154Y-33886265D01*
X94897335Y-33970384D01*
X94647411Y-34051069D01*
X94391936Y-34125113D01*
X94142464Y-34189307D01*
X93910551Y-34240447D01*
X93751917Y-34268800D01*
X93611982Y-34285717D01*
X93451039Y-34297279D01*
X93280773Y-34303337D01*
X93112870Y-34303743D01*
X92959018Y-34298347D01*
X92830903Y-34286999D01*
X92791241Y-34281069D01*
X92740684Y-34274070D01*
X92684197Y-34270508D01*
X92615548Y-34270656D01*
X92528506Y-34274786D01*
X92416839Y-34283171D01*
X92274316Y-34296082D01*
X92135074Y-34309734D01*
X91804116Y-34343653D01*
X91511261Y-34375575D01*
X91252370Y-34406252D01*
X91023302Y-34436437D01*
X90819916Y-34466882D01*
X90638074Y-34498340D01*
X90473634Y-34531563D01*
X90322456Y-34567304D01*
X90180400Y-34606316D01*
X90043325Y-34649351D01*
X89907093Y-34697161D01*
X89817438Y-34730998D01*
X89457338Y-34885524D01*
X89114682Y-35064912D01*
X88785833Y-35271920D01*
X88467151Y-35509305D01*
X88154995Y-35779827D01*
X87845728Y-36086243D01*
X87535710Y-36431312D01*
X87467498Y-36512145D01*
X87324357Y-36684683D01*
X87204822Y-36832168D01*
X87104527Y-36961323D01*
X87019103Y-37078870D01*
X86944182Y-37191529D01*
X86875397Y-37306022D01*
X86808381Y-37429071D01*
X86738764Y-37567398D01*
X86662181Y-37727723D01*
X86622733Y-37812167D01*
X86534192Y-38002965D01*
X86462251Y-38159226D01*
X86405424Y-38284691D01*
X86362223Y-38383097D01*
X86331163Y-38458183D01*
X86310754Y-38513688D01*
X86299512Y-38553351D01*
X86295947Y-38580910D01*
X86298575Y-38600105D01*
X86304443Y-38612441D01*
X86330439Y-38640303D01*
X86344229Y-38644618D01*
X86357271Y-38625167D01*
X86385188Y-38572301D01*
X86425512Y-38491221D01*
X86475774Y-38387131D01*
X86533505Y-38265230D01*
X86596235Y-38130722D01*
X86661496Y-37988809D01*
X86726819Y-37844692D01*
X86774000Y-37739114D01*
X86811122Y-37655477D01*
X86929728Y-37802614D01*
X87035983Y-37940140D01*
X87138069Y-38082871D01*
X87231279Y-38223411D01*
X87310909Y-38354363D01*
X87372254Y-38468330D01*
X87410610Y-38557916D01*
X87411132Y-38559475D01*
X87462558Y-38743683D01*
X87496329Y-38938451D01*
X87513994Y-39154828D01*
X87517595Y-39318760D01*
X87515139Y-39477686D01*
X87507467Y-39628943D01*
X87495347Y-39766976D01*
X87479551Y-39886232D01*
X87460851Y-39981155D01*
X87440016Y-40046192D01*
X87417819Y-40075788D01*
X87412360Y-40077000D01*
X87397526Y-40058347D01*
X87377292Y-40009917D01*
X87359912Y-39955292D01*
X87310365Y-39832078D01*
X87232530Y-39700261D01*
X87134386Y-39569305D01*
X87023915Y-39448676D01*
X86909097Y-39347839D01*
X86797914Y-39276259D01*
X86780254Y-39267819D01*
X86698500Y-39241772D01*
X86582290Y-39220482D01*
X86462754Y-39207276D01*
X86364828Y-39198442D01*
X86278844Y-39189525D01*
X86215986Y-39181748D01*
X86191605Y-39177607D01*
X86124702Y-39144506D01*
X86087776Y-39082670D01*
X86079000Y-39012332D01*
X86079000Y-38924355D01*
X86013959Y-39003261D01*
X85974551Y-39045607D01*
X85934745Y-39070934D01*
X85885677Y-39080134D01*
X85818482Y-39074100D01*
X85724296Y-39053723D01*
X85664344Y-39038443D01*
X85540239Y-39012925D01*
X85395876Y-38994135D01*
X85244045Y-38982767D01*
X85097535Y-38979515D01*
X84969134Y-38985074D01*
X84888109Y-38996318D01*
X84741551Y-39041772D01*
X84583349Y-39117060D01*
X84424691Y-39216369D01*
X84336623Y-39282884D01*
X84252530Y-39346760D01*
X84187850Y-39387262D01*
X84146318Y-39402433D01*
X84131667Y-39390345D01*
X84139587Y-39357868D01*
X84160732Y-39296568D01*
X84191182Y-39216324D01*
X84227014Y-39127017D01*
X84264307Y-39038529D01*
X84299138Y-38960741D01*
X84316312Y-38925128D01*
X84372151Y-38817871D01*
X84426550Y-38723794D01*
X84487269Y-38630845D01*
X84562067Y-38526970D01*
X84632254Y-38434408D01*
X84731074Y-38312914D01*
X84830303Y-38207564D01*
X84939446Y-38109846D01*
X85068005Y-38011249D01*
X85224661Y-37903804D01*
X85298340Y-37856953D01*
X85391885Y-37800126D01*
X85499021Y-37736855D01*
X85613475Y-37670669D01*
X85728973Y-37605100D01*
X85839241Y-37543676D01*
X85938006Y-37489928D01*
X86018994Y-37447387D01*
X86075932Y-37419582D01*
X86102177Y-37410030D01*
X86107809Y-37390165D01*
X86114392Y-37335777D01*
X86121188Y-37254643D01*
X86127461Y-37154540D01*
X86128758Y-37129542D01*
X86175409Y-36610937D01*
X86181673Y-36574588D01*
X87090901Y-36574588D01*
X87105771Y-36672197D01*
X87108394Y-36679442D01*
X87115557Y-36696104D01*
X87124101Y-36701599D01*
X87138394Y-36691175D01*
X87162800Y-36660079D01*
X87201689Y-36603560D01*
X87259425Y-36516864D01*
X87263705Y-36510417D01*
X87510792Y-36176046D01*
X87795846Y-35860015D01*
X88118557Y-35562581D01*
X88478612Y-35284003D01*
X88875702Y-35024539D01*
X89309517Y-34784446D01*
X89391583Y-34743255D01*
X89634036Y-34629110D01*
X89865273Y-34533242D01*
X90093739Y-34453353D01*
X90327874Y-34387142D01*
X90576123Y-34332312D01*
X90846926Y-34286564D01*
X91148727Y-34247599D01*
X91254250Y-34236080D01*
X91331851Y-34228283D01*
X91435990Y-34218333D01*
X91559969Y-34206820D01*
X91697093Y-34194335D01*
X91840664Y-34181467D01*
X91983987Y-34168808D01*
X92120366Y-34156947D01*
X92243103Y-34146474D01*
X92345504Y-34137982D01*
X92420870Y-34132058D01*
X92462506Y-34129295D01*
X92466955Y-34129167D01*
X92488949Y-34122804D01*
X92479122Y-34107858D01*
X92445318Y-34090542D01*
X92402982Y-34078480D01*
X92329559Y-34055823D01*
X92234007Y-34015385D01*
X92128549Y-33963555D01*
X92025405Y-33906722D01*
X91936797Y-33851275D01*
X91874948Y-33803604D01*
X91872233Y-33801012D01*
X91817352Y-33736648D01*
X91801521Y-33687795D01*
X91824678Y-33653766D01*
X91857611Y-33640080D01*
X91894349Y-33635500D01*
X91966105Y-33631275D01*
X92065564Y-33627660D01*
X92185411Y-33624909D01*
X92318330Y-33623278D01*
X92344333Y-33623117D01*
X92572690Y-33619756D01*
X92764967Y-33610769D01*
X92927281Y-33593905D01*
X93065753Y-33566908D01*
X93186501Y-33527526D01*
X93295642Y-33473506D01*
X93399296Y-33402594D01*
X93503581Y-33312537D01*
X93614616Y-33201082D01*
X93679267Y-33131498D01*
X93757250Y-33043692D01*
X93806554Y-32981842D01*
X93829337Y-32942902D01*
X93827757Y-32923825D01*
X93826802Y-32923163D01*
X93773152Y-32903885D01*
X93682751Y-32887460D01*
X93561094Y-32873993D01*
X93413672Y-32863590D01*
X93245981Y-32856357D01*
X93063514Y-32852398D01*
X92871764Y-32851819D01*
X92676225Y-32854725D01*
X92482390Y-32861223D01*
X92295753Y-32871416D01*
X92121808Y-32885412D01*
X92079750Y-32889643D01*
X91812470Y-32918622D01*
X91582026Y-32945700D01*
X91383022Y-32971895D01*
X91210061Y-32998223D01*
X91057747Y-33025702D01*
X90920683Y-33055350D01*
X90793474Y-33088184D01*
X90670723Y-33125220D01*
X90547032Y-33167477D01*
X90484540Y-33190362D01*
X90111215Y-33348733D01*
X89735567Y-33544768D01*
X89362597Y-33774439D01*
X88997304Y-34033715D01*
X88644690Y-34318565D01*
X88309757Y-34624961D01*
X87997505Y-34948872D01*
X87712934Y-35286268D01*
X87470247Y-35619390D01*
X87360359Y-35795870D01*
X87266705Y-35972562D01*
X87191108Y-36144122D01*
X87135393Y-36305208D01*
X87101383Y-36450478D01*
X87090901Y-36574588D01*
X86181673Y-36574588D01*
X86262973Y-36102878D01*
X86391219Y-35605949D01*
X86559915Y-35120735D01*
X86768829Y-34647820D01*
X87017730Y-34187788D01*
X87306386Y-33741224D01*
X87634565Y-33308712D01*
X87650741Y-33289004D01*
X87755313Y-33167963D01*
X87885815Y-33026300D01*
X88035656Y-32870495D01*
X88198248Y-32707031D01*
X88367000Y-32542388D01*
X88535323Y-32383049D01*
X88696628Y-32235494D01*
X88844324Y-32106205D01*
X88904750Y-32055581D01*
X89023203Y-31955050D01*
X89152701Y-31840008D01*
X89288106Y-31715485D01*
X89424284Y-31586512D01*
X89556098Y-31458119D01*
X89678413Y-31335336D01*
X89786093Y-31223194D01*
X89874002Y-31126723D01*
X89937004Y-31050953D01*
X89953612Y-31028250D01*
X89994815Y-30963299D01*
X90016810Y-30908484D01*
X90025413Y-30844367D01*
X90026583Y-30784388D01*
X90005990Y-30626306D01*
X89946040Y-30476107D01*
X89849475Y-30337234D01*
X89719037Y-30213129D01*
X89557469Y-30107232D01*
X89443358Y-30052439D01*
X89359924Y-30015513D01*
X89292599Y-29982539D01*
X89250087Y-29957964D01*
X89239847Y-29948491D01*
X89252011Y-29923521D01*
X89294202Y-29887222D01*
X89357618Y-29845129D01*
X89433454Y-29802774D01*
X89512909Y-29765694D01*
X89557821Y-29748566D01*
X89701424Y-29710672D01*
X89873229Y-29683351D01*
X90060236Y-29667455D01*
X90249445Y-29663833D01*
X90427857Y-29673338D01*
G04 #@! TO.C,J1*
D11*
X118403333Y-89461904D02*
X118403333Y-90033333D01*
X118365238Y-90147619D01*
X118289047Y-90223809D01*
X118174761Y-90261904D01*
X118098571Y-90261904D01*
X119203333Y-90261904D02*
X118746190Y-90261904D01*
X118974761Y-90261904D02*
X118974761Y-89461904D01*
X118898571Y-89576190D01*
X118822380Y-89652380D01*
X118746190Y-89690476D01*
X123825714Y-91752380D02*
X123254285Y-91752380D01*
X123540000Y-91752380D02*
X123540000Y-90752380D01*
X123444761Y-90895238D01*
X123349523Y-90990476D01*
X123254285Y-91038095D01*
X74578095Y-90847619D02*
X74625714Y-90800000D01*
X74720952Y-90752380D01*
X74959047Y-90752380D01*
X75054285Y-90800000D01*
X75101904Y-90847619D01*
X75149523Y-90942857D01*
X75149523Y-91038095D01*
X75101904Y-91180952D01*
X74530476Y-91752380D01*
X75149523Y-91752380D01*
X75768571Y-90752380D02*
X75863809Y-90752380D01*
X75959047Y-90800000D01*
X76006666Y-90847619D01*
X76054285Y-90942857D01*
X76101904Y-91133333D01*
X76101904Y-91371428D01*
X76054285Y-91561904D01*
X76006666Y-91657142D01*
X75959047Y-91704761D01*
X75863809Y-91752380D01*
X75768571Y-91752380D01*
X75673333Y-91704761D01*
X75625714Y-91657142D01*
X75578095Y-91561904D01*
X75530476Y-91371428D01*
X75530476Y-91133333D01*
X75578095Y-90942857D01*
X75625714Y-90847619D01*
X75673333Y-90800000D01*
X75768571Y-90752380D01*
G04 #@! TO.C,BOOT0*
X103773333Y-105392857D02*
X103887619Y-105430952D01*
X103925714Y-105469047D01*
X103963809Y-105545238D01*
X103963809Y-105659523D01*
X103925714Y-105735714D01*
X103887619Y-105773809D01*
X103811428Y-105811904D01*
X103506666Y-105811904D01*
X103506666Y-105011904D01*
X103773333Y-105011904D01*
X103849523Y-105050000D01*
X103887619Y-105088095D01*
X103925714Y-105164285D01*
X103925714Y-105240476D01*
X103887619Y-105316666D01*
X103849523Y-105354761D01*
X103773333Y-105392857D01*
X103506666Y-105392857D01*
X104459047Y-105011904D02*
X104611428Y-105011904D01*
X104687619Y-105050000D01*
X104763809Y-105126190D01*
X104801904Y-105278571D01*
X104801904Y-105545238D01*
X104763809Y-105697619D01*
X104687619Y-105773809D01*
X104611428Y-105811904D01*
X104459047Y-105811904D01*
X104382857Y-105773809D01*
X104306666Y-105697619D01*
X104268571Y-105545238D01*
X104268571Y-105278571D01*
X104306666Y-105126190D01*
X104382857Y-105050000D01*
X104459047Y-105011904D01*
X105297142Y-105011904D02*
X105449523Y-105011904D01*
X105525714Y-105050000D01*
X105601904Y-105126190D01*
X105640000Y-105278571D01*
X105640000Y-105545238D01*
X105601904Y-105697619D01*
X105525714Y-105773809D01*
X105449523Y-105811904D01*
X105297142Y-105811904D01*
X105220952Y-105773809D01*
X105144761Y-105697619D01*
X105106666Y-105545238D01*
X105106666Y-105278571D01*
X105144761Y-105126190D01*
X105220952Y-105050000D01*
X105297142Y-105011904D01*
X105868571Y-105011904D02*
X106325714Y-105011904D01*
X106097142Y-105811904D02*
X106097142Y-105011904D01*
X106744761Y-105011904D02*
X106820952Y-105011904D01*
X106897142Y-105050000D01*
X106935238Y-105088095D01*
X106973333Y-105164285D01*
X107011428Y-105316666D01*
X107011428Y-105507142D01*
X106973333Y-105659523D01*
X106935238Y-105735714D01*
X106897142Y-105773809D01*
X106820952Y-105811904D01*
X106744761Y-105811904D01*
X106668571Y-105773809D01*
X106630476Y-105735714D01*
X106592380Y-105659523D01*
X106554285Y-105507142D01*
X106554285Y-105316666D01*
X106592380Y-105164285D01*
X106630476Y-105088095D01*
X106668571Y-105050000D01*
X106744761Y-105011904D01*
G04 #@! TO.C,BZ1*
X138595238Y-84792857D02*
X138709523Y-84830952D01*
X138747619Y-84869047D01*
X138785714Y-84945238D01*
X138785714Y-85059523D01*
X138747619Y-85135714D01*
X138709523Y-85173809D01*
X138633333Y-85211904D01*
X138328571Y-85211904D01*
X138328571Y-84411904D01*
X138595238Y-84411904D01*
X138671428Y-84450000D01*
X138709523Y-84488095D01*
X138747619Y-84564285D01*
X138747619Y-84640476D01*
X138709523Y-84716666D01*
X138671428Y-84754761D01*
X138595238Y-84792857D01*
X138328571Y-84792857D01*
X139052380Y-84411904D02*
X139585714Y-84411904D01*
X139052380Y-85211904D01*
X139585714Y-85211904D01*
X140309523Y-85211904D02*
X139852380Y-85211904D01*
X140080952Y-85211904D02*
X140080952Y-84411904D01*
X140004761Y-84526190D01*
X139928571Y-84602380D01*
X139852380Y-84640476D01*
X149601428Y-83740952D02*
X149601428Y-82979047D01*
X149982380Y-83360000D02*
X149220476Y-83360000D01*
G04 #@! TO.C,C1*
X89066666Y-98385714D02*
X89028571Y-98423809D01*
X88914285Y-98461904D01*
X88838095Y-98461904D01*
X88723809Y-98423809D01*
X88647619Y-98347619D01*
X88609523Y-98271428D01*
X88571428Y-98119047D01*
X88571428Y-98004761D01*
X88609523Y-97852380D01*
X88647619Y-97776190D01*
X88723809Y-97700000D01*
X88838095Y-97661904D01*
X88914285Y-97661904D01*
X89028571Y-97700000D01*
X89066666Y-97738095D01*
X89828571Y-98461904D02*
X89371428Y-98461904D01*
X89600000Y-98461904D02*
X89600000Y-97661904D01*
X89523809Y-97776190D01*
X89447619Y-97852380D01*
X89371428Y-97890476D01*
G04 #@! TO.C,C2*
X84695714Y-43163333D02*
X84733809Y-43201428D01*
X84771904Y-43315714D01*
X84771904Y-43391904D01*
X84733809Y-43506190D01*
X84657619Y-43582380D01*
X84581428Y-43620476D01*
X84429047Y-43658571D01*
X84314761Y-43658571D01*
X84162380Y-43620476D01*
X84086190Y-43582380D01*
X84010000Y-43506190D01*
X83971904Y-43391904D01*
X83971904Y-43315714D01*
X84010000Y-43201428D01*
X84048095Y-43163333D01*
X84048095Y-42858571D02*
X84010000Y-42820476D01*
X83971904Y-42744285D01*
X83971904Y-42553809D01*
X84010000Y-42477619D01*
X84048095Y-42439523D01*
X84124285Y-42401428D01*
X84200476Y-42401428D01*
X84314761Y-42439523D01*
X84771904Y-42896666D01*
X84771904Y-42401428D01*
G04 #@! TO.C,C3*
X80575714Y-43163333D02*
X80613809Y-43201428D01*
X80651904Y-43315714D01*
X80651904Y-43391904D01*
X80613809Y-43506190D01*
X80537619Y-43582380D01*
X80461428Y-43620476D01*
X80309047Y-43658571D01*
X80194761Y-43658571D01*
X80042380Y-43620476D01*
X79966190Y-43582380D01*
X79890000Y-43506190D01*
X79851904Y-43391904D01*
X79851904Y-43315714D01*
X79890000Y-43201428D01*
X79928095Y-43163333D01*
X79851904Y-42896666D02*
X79851904Y-42401428D01*
X80156666Y-42668095D01*
X80156666Y-42553809D01*
X80194761Y-42477619D01*
X80232857Y-42439523D01*
X80309047Y-42401428D01*
X80499523Y-42401428D01*
X80575714Y-42439523D01*
X80613809Y-42477619D01*
X80651904Y-42553809D01*
X80651904Y-42782380D01*
X80613809Y-42858571D01*
X80575714Y-42896666D01*
G04 #@! TO.C,C4*
X76946666Y-44995714D02*
X76908571Y-45033809D01*
X76794285Y-45071904D01*
X76718095Y-45071904D01*
X76603809Y-45033809D01*
X76527619Y-44957619D01*
X76489523Y-44881428D01*
X76451428Y-44729047D01*
X76451428Y-44614761D01*
X76489523Y-44462380D01*
X76527619Y-44386190D01*
X76603809Y-44310000D01*
X76718095Y-44271904D01*
X76794285Y-44271904D01*
X76908571Y-44310000D01*
X76946666Y-44348095D01*
X77632380Y-44538571D02*
X77632380Y-45071904D01*
X77441904Y-44233809D02*
X77251428Y-44805238D01*
X77746666Y-44805238D01*
G04 #@! TO.C,C5*
X85265714Y-53333333D02*
X85303809Y-53371428D01*
X85341904Y-53485714D01*
X85341904Y-53561904D01*
X85303809Y-53676190D01*
X85227619Y-53752380D01*
X85151428Y-53790476D01*
X84999047Y-53828571D01*
X84884761Y-53828571D01*
X84732380Y-53790476D01*
X84656190Y-53752380D01*
X84580000Y-53676190D01*
X84541904Y-53561904D01*
X84541904Y-53485714D01*
X84580000Y-53371428D01*
X84618095Y-53333333D01*
X84541904Y-52609523D02*
X84541904Y-52990476D01*
X84922857Y-53028571D01*
X84884761Y-52990476D01*
X84846666Y-52914285D01*
X84846666Y-52723809D01*
X84884761Y-52647619D01*
X84922857Y-52609523D01*
X84999047Y-52571428D01*
X85189523Y-52571428D01*
X85265714Y-52609523D01*
X85303809Y-52647619D01*
X85341904Y-52723809D01*
X85341904Y-52914285D01*
X85303809Y-52990476D01*
X85265714Y-53028571D01*
G04 #@! TO.C,C6*
X79715714Y-53383333D02*
X79753809Y-53421428D01*
X79791904Y-53535714D01*
X79791904Y-53611904D01*
X79753809Y-53726190D01*
X79677619Y-53802380D01*
X79601428Y-53840476D01*
X79449047Y-53878571D01*
X79334761Y-53878571D01*
X79182380Y-53840476D01*
X79106190Y-53802380D01*
X79030000Y-53726190D01*
X78991904Y-53611904D01*
X78991904Y-53535714D01*
X79030000Y-53421428D01*
X79068095Y-53383333D01*
X78991904Y-52697619D02*
X78991904Y-52850000D01*
X79030000Y-52926190D01*
X79068095Y-52964285D01*
X79182380Y-53040476D01*
X79334761Y-53078571D01*
X79639523Y-53078571D01*
X79715714Y-53040476D01*
X79753809Y-53002380D01*
X79791904Y-52926190D01*
X79791904Y-52773809D01*
X79753809Y-52697619D01*
X79715714Y-52659523D01*
X79639523Y-52621428D01*
X79449047Y-52621428D01*
X79372857Y-52659523D01*
X79334761Y-52697619D01*
X79296666Y-52773809D01*
X79296666Y-52926190D01*
X79334761Y-53002380D01*
X79372857Y-53040476D01*
X79449047Y-53078571D01*
G04 #@! TO.C,C7*
X75936666Y-53185714D02*
X75898571Y-53223809D01*
X75784285Y-53261904D01*
X75708095Y-53261904D01*
X75593809Y-53223809D01*
X75517619Y-53147619D01*
X75479523Y-53071428D01*
X75441428Y-52919047D01*
X75441428Y-52804761D01*
X75479523Y-52652380D01*
X75517619Y-52576190D01*
X75593809Y-52500000D01*
X75708095Y-52461904D01*
X75784285Y-52461904D01*
X75898571Y-52500000D01*
X75936666Y-52538095D01*
X76203333Y-52461904D02*
X76736666Y-52461904D01*
X76393809Y-53261904D01*
G04 #@! TO.C,C8*
X64876666Y-53575714D02*
X64838571Y-53613809D01*
X64724285Y-53651904D01*
X64648095Y-53651904D01*
X64533809Y-53613809D01*
X64457619Y-53537619D01*
X64419523Y-53461428D01*
X64381428Y-53309047D01*
X64381428Y-53194761D01*
X64419523Y-53042380D01*
X64457619Y-52966190D01*
X64533809Y-52890000D01*
X64648095Y-52851904D01*
X64724285Y-52851904D01*
X64838571Y-52890000D01*
X64876666Y-52928095D01*
X65333809Y-53194761D02*
X65257619Y-53156666D01*
X65219523Y-53118571D01*
X65181428Y-53042380D01*
X65181428Y-53004285D01*
X65219523Y-52928095D01*
X65257619Y-52890000D01*
X65333809Y-52851904D01*
X65486190Y-52851904D01*
X65562380Y-52890000D01*
X65600476Y-52928095D01*
X65638571Y-53004285D01*
X65638571Y-53042380D01*
X65600476Y-53118571D01*
X65562380Y-53156666D01*
X65486190Y-53194761D01*
X65333809Y-53194761D01*
X65257619Y-53232857D01*
X65219523Y-53270952D01*
X65181428Y-53347142D01*
X65181428Y-53499523D01*
X65219523Y-53575714D01*
X65257619Y-53613809D01*
X65333809Y-53651904D01*
X65486190Y-53651904D01*
X65562380Y-53613809D01*
X65600476Y-53575714D01*
X65638571Y-53499523D01*
X65638571Y-53347142D01*
X65600476Y-53270952D01*
X65562380Y-53232857D01*
X65486190Y-53194761D01*
G04 #@! TO.C,C9*
X91276666Y-77925714D02*
X91238571Y-77963809D01*
X91124285Y-78001904D01*
X91048095Y-78001904D01*
X90933809Y-77963809D01*
X90857619Y-77887619D01*
X90819523Y-77811428D01*
X90781428Y-77659047D01*
X90781428Y-77544761D01*
X90819523Y-77392380D01*
X90857619Y-77316190D01*
X90933809Y-77240000D01*
X91048095Y-77201904D01*
X91124285Y-77201904D01*
X91238571Y-77240000D01*
X91276666Y-77278095D01*
X91657619Y-78001904D02*
X91810000Y-78001904D01*
X91886190Y-77963809D01*
X91924285Y-77925714D01*
X92000476Y-77811428D01*
X92038571Y-77659047D01*
X92038571Y-77354285D01*
X92000476Y-77278095D01*
X91962380Y-77240000D01*
X91886190Y-77201904D01*
X91733809Y-77201904D01*
X91657619Y-77240000D01*
X91619523Y-77278095D01*
X91581428Y-77354285D01*
X91581428Y-77544761D01*
X91619523Y-77620952D01*
X91657619Y-77659047D01*
X91733809Y-77697142D01*
X91886190Y-77697142D01*
X91962380Y-77659047D01*
X92000476Y-77620952D01*
X92038571Y-77544761D01*
G04 #@! TO.C,C10*
X95935714Y-56815714D02*
X95897619Y-56853809D01*
X95783333Y-56891904D01*
X95707142Y-56891904D01*
X95592857Y-56853809D01*
X95516666Y-56777619D01*
X95478571Y-56701428D01*
X95440476Y-56549047D01*
X95440476Y-56434761D01*
X95478571Y-56282380D01*
X95516666Y-56206190D01*
X95592857Y-56130000D01*
X95707142Y-56091904D01*
X95783333Y-56091904D01*
X95897619Y-56130000D01*
X95935714Y-56168095D01*
X96697619Y-56891904D02*
X96240476Y-56891904D01*
X96469047Y-56891904D02*
X96469047Y-56091904D01*
X96392857Y-56206190D01*
X96316666Y-56282380D01*
X96240476Y-56320476D01*
X97192857Y-56091904D02*
X97269047Y-56091904D01*
X97345238Y-56130000D01*
X97383333Y-56168095D01*
X97421428Y-56244285D01*
X97459523Y-56396666D01*
X97459523Y-56587142D01*
X97421428Y-56739523D01*
X97383333Y-56815714D01*
X97345238Y-56853809D01*
X97269047Y-56891904D01*
X97192857Y-56891904D01*
X97116666Y-56853809D01*
X97078571Y-56815714D01*
X97040476Y-56739523D01*
X97002380Y-56587142D01*
X97002380Y-56396666D01*
X97040476Y-56244285D01*
X97078571Y-56168095D01*
X97116666Y-56130000D01*
X97192857Y-56091904D01*
G04 #@! TO.C,C11*
X88085714Y-53714285D02*
X88123809Y-53752380D01*
X88161904Y-53866666D01*
X88161904Y-53942857D01*
X88123809Y-54057142D01*
X88047619Y-54133333D01*
X87971428Y-54171428D01*
X87819047Y-54209523D01*
X87704761Y-54209523D01*
X87552380Y-54171428D01*
X87476190Y-54133333D01*
X87400000Y-54057142D01*
X87361904Y-53942857D01*
X87361904Y-53866666D01*
X87400000Y-53752380D01*
X87438095Y-53714285D01*
X88161904Y-52952380D02*
X88161904Y-53409523D01*
X88161904Y-53180952D02*
X87361904Y-53180952D01*
X87476190Y-53257142D01*
X87552380Y-53333333D01*
X87590476Y-53409523D01*
X88161904Y-52190476D02*
X88161904Y-52647619D01*
X88161904Y-52419047D02*
X87361904Y-52419047D01*
X87476190Y-52495238D01*
X87552380Y-52571428D01*
X87590476Y-52647619D01*
G04 #@! TO.C,C12*
X88955714Y-43068094D02*
X88993809Y-43106189D01*
X89031904Y-43220475D01*
X89031904Y-43296666D01*
X88993809Y-43410951D01*
X88917619Y-43487142D01*
X88841428Y-43525237D01*
X88689047Y-43563332D01*
X88574761Y-43563332D01*
X88422380Y-43525237D01*
X88346190Y-43487142D01*
X88270000Y-43410951D01*
X88231904Y-43296666D01*
X88231904Y-43220475D01*
X88270000Y-43106189D01*
X88308095Y-43068094D01*
X89031904Y-42306189D02*
X89031904Y-42763332D01*
X89031904Y-42534761D02*
X88231904Y-42534761D01*
X88346190Y-42610951D01*
X88422380Y-42687142D01*
X88460476Y-42763332D01*
X88308095Y-42001428D02*
X88270000Y-41963332D01*
X88231904Y-41887142D01*
X88231904Y-41696666D01*
X88270000Y-41620475D01*
X88308095Y-41582380D01*
X88384285Y-41544285D01*
X88460476Y-41544285D01*
X88574761Y-41582380D01*
X89031904Y-42039523D01*
X89031904Y-41544285D01*
G04 #@! TO.C,C13*
X86605714Y-43068094D02*
X86643809Y-43106189D01*
X86681904Y-43220475D01*
X86681904Y-43296666D01*
X86643809Y-43410951D01*
X86567619Y-43487142D01*
X86491428Y-43525237D01*
X86339047Y-43563332D01*
X86224761Y-43563332D01*
X86072380Y-43525237D01*
X85996190Y-43487142D01*
X85920000Y-43410951D01*
X85881904Y-43296666D01*
X85881904Y-43220475D01*
X85920000Y-43106189D01*
X85958095Y-43068094D01*
X86681904Y-42306189D02*
X86681904Y-42763332D01*
X86681904Y-42534761D02*
X85881904Y-42534761D01*
X85996190Y-42610951D01*
X86072380Y-42687142D01*
X86110476Y-42763332D01*
X85881904Y-42039523D02*
X85881904Y-41544285D01*
X86186666Y-41810951D01*
X86186666Y-41696666D01*
X86224761Y-41620475D01*
X86262857Y-41582380D01*
X86339047Y-41544285D01*
X86529523Y-41544285D01*
X86605714Y-41582380D01*
X86643809Y-41620475D01*
X86681904Y-41696666D01*
X86681904Y-41925237D01*
X86643809Y-42001428D01*
X86605714Y-42039523D01*
G04 #@! TO.C,C14*
X130795714Y-34475714D02*
X130757619Y-34513809D01*
X130643333Y-34551904D01*
X130567142Y-34551904D01*
X130452857Y-34513809D01*
X130376666Y-34437619D01*
X130338571Y-34361428D01*
X130300476Y-34209047D01*
X130300476Y-34094761D01*
X130338571Y-33942380D01*
X130376666Y-33866190D01*
X130452857Y-33790000D01*
X130567142Y-33751904D01*
X130643333Y-33751904D01*
X130757619Y-33790000D01*
X130795714Y-33828095D01*
X131557619Y-34551904D02*
X131100476Y-34551904D01*
X131329047Y-34551904D02*
X131329047Y-33751904D01*
X131252857Y-33866190D01*
X131176666Y-33942380D01*
X131100476Y-33980476D01*
X132243333Y-34018571D02*
X132243333Y-34551904D01*
X132052857Y-33713809D02*
X131862380Y-34285238D01*
X132357619Y-34285238D01*
G04 #@! TO.C,C15*
X125835714Y-45455714D02*
X125797619Y-45493809D01*
X125683333Y-45531904D01*
X125607142Y-45531904D01*
X125492857Y-45493809D01*
X125416666Y-45417619D01*
X125378571Y-45341428D01*
X125340476Y-45189047D01*
X125340476Y-45074761D01*
X125378571Y-44922380D01*
X125416666Y-44846190D01*
X125492857Y-44770000D01*
X125607142Y-44731904D01*
X125683333Y-44731904D01*
X125797619Y-44770000D01*
X125835714Y-44808095D01*
X126597619Y-45531904D02*
X126140476Y-45531904D01*
X126369047Y-45531904D02*
X126369047Y-44731904D01*
X126292857Y-44846190D01*
X126216666Y-44922380D01*
X126140476Y-44960476D01*
X127321428Y-44731904D02*
X126940476Y-44731904D01*
X126902380Y-45112857D01*
X126940476Y-45074761D01*
X127016666Y-45036666D01*
X127207142Y-45036666D01*
X127283333Y-45074761D01*
X127321428Y-45112857D01*
X127359523Y-45189047D01*
X127359523Y-45379523D01*
X127321428Y-45455714D01*
X127283333Y-45493809D01*
X127207142Y-45531904D01*
X127016666Y-45531904D01*
X126940476Y-45493809D01*
X126902380Y-45455714D01*
G04 #@! TO.C,C16*
X102875714Y-35415714D02*
X102837619Y-35453809D01*
X102723333Y-35491904D01*
X102647142Y-35491904D01*
X102532857Y-35453809D01*
X102456666Y-35377619D01*
X102418571Y-35301428D01*
X102380476Y-35149047D01*
X102380476Y-35034761D01*
X102418571Y-34882380D01*
X102456666Y-34806190D01*
X102532857Y-34730000D01*
X102647142Y-34691904D01*
X102723333Y-34691904D01*
X102837619Y-34730000D01*
X102875714Y-34768095D01*
X103637619Y-35491904D02*
X103180476Y-35491904D01*
X103409047Y-35491904D02*
X103409047Y-34691904D01*
X103332857Y-34806190D01*
X103256666Y-34882380D01*
X103180476Y-34920476D01*
X104323333Y-34691904D02*
X104170952Y-34691904D01*
X104094761Y-34730000D01*
X104056666Y-34768095D01*
X103980476Y-34882380D01*
X103942380Y-35034761D01*
X103942380Y-35339523D01*
X103980476Y-35415714D01*
X104018571Y-35453809D01*
X104094761Y-35491904D01*
X104247142Y-35491904D01*
X104323333Y-35453809D01*
X104361428Y-35415714D01*
X104399523Y-35339523D01*
X104399523Y-35149047D01*
X104361428Y-35072857D01*
X104323333Y-35034761D01*
X104247142Y-34996666D01*
X104094761Y-34996666D01*
X104018571Y-35034761D01*
X103980476Y-35072857D01*
X103942380Y-35149047D01*
G04 #@! TO.C,C19*
X134315714Y-46035714D02*
X134277619Y-46073809D01*
X134163333Y-46111904D01*
X134087142Y-46111904D01*
X133972857Y-46073809D01*
X133896666Y-45997619D01*
X133858571Y-45921428D01*
X133820476Y-45769047D01*
X133820476Y-45654761D01*
X133858571Y-45502380D01*
X133896666Y-45426190D01*
X133972857Y-45350000D01*
X134087142Y-45311904D01*
X134163333Y-45311904D01*
X134277619Y-45350000D01*
X134315714Y-45388095D01*
X135077619Y-46111904D02*
X134620476Y-46111904D01*
X134849047Y-46111904D02*
X134849047Y-45311904D01*
X134772857Y-45426190D01*
X134696666Y-45502380D01*
X134620476Y-45540476D01*
X135458571Y-46111904D02*
X135610952Y-46111904D01*
X135687142Y-46073809D01*
X135725238Y-46035714D01*
X135801428Y-45921428D01*
X135839523Y-45769047D01*
X135839523Y-45464285D01*
X135801428Y-45388095D01*
X135763333Y-45350000D01*
X135687142Y-45311904D01*
X135534761Y-45311904D01*
X135458571Y-45350000D01*
X135420476Y-45388095D01*
X135382380Y-45464285D01*
X135382380Y-45654761D01*
X135420476Y-45730952D01*
X135458571Y-45769047D01*
X135534761Y-45807142D01*
X135687142Y-45807142D01*
X135763333Y-45769047D01*
X135801428Y-45730952D01*
X135839523Y-45654761D01*
G04 #@! TO.C,C20*
X149325714Y-40315714D02*
X149287619Y-40353809D01*
X149173333Y-40391904D01*
X149097142Y-40391904D01*
X148982857Y-40353809D01*
X148906666Y-40277619D01*
X148868571Y-40201428D01*
X148830476Y-40049047D01*
X148830476Y-39934761D01*
X148868571Y-39782380D01*
X148906666Y-39706190D01*
X148982857Y-39630000D01*
X149097142Y-39591904D01*
X149173333Y-39591904D01*
X149287619Y-39630000D01*
X149325714Y-39668095D01*
X149630476Y-39668095D02*
X149668571Y-39630000D01*
X149744761Y-39591904D01*
X149935238Y-39591904D01*
X150011428Y-39630000D01*
X150049523Y-39668095D01*
X150087619Y-39744285D01*
X150087619Y-39820476D01*
X150049523Y-39934761D01*
X149592380Y-40391904D01*
X150087619Y-40391904D01*
X150582857Y-39591904D02*
X150659047Y-39591904D01*
X150735238Y-39630000D01*
X150773333Y-39668095D01*
X150811428Y-39744285D01*
X150849523Y-39896666D01*
X150849523Y-40087142D01*
X150811428Y-40239523D01*
X150773333Y-40315714D01*
X150735238Y-40353809D01*
X150659047Y-40391904D01*
X150582857Y-40391904D01*
X150506666Y-40353809D01*
X150468571Y-40315714D01*
X150430476Y-40239523D01*
X150392380Y-40087142D01*
X150392380Y-39896666D01*
X150430476Y-39744285D01*
X150468571Y-39668095D01*
X150506666Y-39630000D01*
X150582857Y-39591904D01*
G04 #@! TO.C,C21*
X149325714Y-39035714D02*
X149287619Y-39073809D01*
X149173333Y-39111904D01*
X149097142Y-39111904D01*
X148982857Y-39073809D01*
X148906666Y-38997619D01*
X148868571Y-38921428D01*
X148830476Y-38769047D01*
X148830476Y-38654761D01*
X148868571Y-38502380D01*
X148906666Y-38426190D01*
X148982857Y-38350000D01*
X149097142Y-38311904D01*
X149173333Y-38311904D01*
X149287619Y-38350000D01*
X149325714Y-38388095D01*
X149630476Y-38388095D02*
X149668571Y-38350000D01*
X149744761Y-38311904D01*
X149935238Y-38311904D01*
X150011428Y-38350000D01*
X150049523Y-38388095D01*
X150087619Y-38464285D01*
X150087619Y-38540476D01*
X150049523Y-38654761D01*
X149592380Y-39111904D01*
X150087619Y-39111904D01*
X150849523Y-39111904D02*
X150392380Y-39111904D01*
X150620952Y-39111904D02*
X150620952Y-38311904D01*
X150544761Y-38426190D01*
X150468571Y-38502380D01*
X150392380Y-38540476D01*
G04 #@! TO.C,C22*
X149325714Y-37655714D02*
X149287619Y-37693809D01*
X149173333Y-37731904D01*
X149097142Y-37731904D01*
X148982857Y-37693809D01*
X148906666Y-37617619D01*
X148868571Y-37541428D01*
X148830476Y-37389047D01*
X148830476Y-37274761D01*
X148868571Y-37122380D01*
X148906666Y-37046190D01*
X148982857Y-36970000D01*
X149097142Y-36931904D01*
X149173333Y-36931904D01*
X149287619Y-36970000D01*
X149325714Y-37008095D01*
X149630476Y-37008095D02*
X149668571Y-36970000D01*
X149744761Y-36931904D01*
X149935238Y-36931904D01*
X150011428Y-36970000D01*
X150049523Y-37008095D01*
X150087619Y-37084285D01*
X150087619Y-37160476D01*
X150049523Y-37274761D01*
X149592380Y-37731904D01*
X150087619Y-37731904D01*
X150392380Y-37008095D02*
X150430476Y-36970000D01*
X150506666Y-36931904D01*
X150697142Y-36931904D01*
X150773333Y-36970000D01*
X150811428Y-37008095D01*
X150849523Y-37084285D01*
X150849523Y-37160476D01*
X150811428Y-37274761D01*
X150354285Y-37731904D01*
X150849523Y-37731904D01*
G04 #@! TO.C,C23*
X79065714Y-34505714D02*
X79027619Y-34543809D01*
X78913333Y-34581904D01*
X78837142Y-34581904D01*
X78722857Y-34543809D01*
X78646666Y-34467619D01*
X78608571Y-34391428D01*
X78570476Y-34239047D01*
X78570476Y-34124761D01*
X78608571Y-33972380D01*
X78646666Y-33896190D01*
X78722857Y-33820000D01*
X78837142Y-33781904D01*
X78913333Y-33781904D01*
X79027619Y-33820000D01*
X79065714Y-33858095D01*
X79370476Y-33858095D02*
X79408571Y-33820000D01*
X79484761Y-33781904D01*
X79675238Y-33781904D01*
X79751428Y-33820000D01*
X79789523Y-33858095D01*
X79827619Y-33934285D01*
X79827619Y-34010476D01*
X79789523Y-34124761D01*
X79332380Y-34581904D01*
X79827619Y-34581904D01*
X80094285Y-33781904D02*
X80589523Y-33781904D01*
X80322857Y-34086666D01*
X80437142Y-34086666D01*
X80513333Y-34124761D01*
X80551428Y-34162857D01*
X80589523Y-34239047D01*
X80589523Y-34429523D01*
X80551428Y-34505714D01*
X80513333Y-34543809D01*
X80437142Y-34581904D01*
X80208571Y-34581904D01*
X80132380Y-34543809D01*
X80094285Y-34505714D01*
G04 #@! TO.C,D1*
X117099523Y-41741904D02*
X117099523Y-40941904D01*
X117290000Y-40941904D01*
X117404285Y-40980000D01*
X117480476Y-41056190D01*
X117518571Y-41132380D01*
X117556666Y-41284761D01*
X117556666Y-41399047D01*
X117518571Y-41551428D01*
X117480476Y-41627619D01*
X117404285Y-41703809D01*
X117290000Y-41741904D01*
X117099523Y-41741904D01*
X118318571Y-41741904D02*
X117861428Y-41741904D01*
X118090000Y-41741904D02*
X118090000Y-40941904D01*
X118013809Y-41056190D01*
X117937619Y-41132380D01*
X117861428Y-41170476D01*
G04 #@! TO.C,J2*
X69253333Y-29971904D02*
X69253333Y-30543333D01*
X69215238Y-30657619D01*
X69139047Y-30733809D01*
X69024761Y-30771904D01*
X68948571Y-30771904D01*
X69596190Y-30048095D02*
X69634285Y-30010000D01*
X69710476Y-29971904D01*
X69900952Y-29971904D01*
X69977142Y-30010000D01*
X70015238Y-30048095D01*
X70053333Y-30124285D01*
X70053333Y-30200476D01*
X70015238Y-30314761D01*
X69558095Y-30771904D01*
X70053333Y-30771904D01*
G04 #@! TO.C,JLINK*
X141870952Y-98541904D02*
X141870952Y-99113333D01*
X141832857Y-99227619D01*
X141756666Y-99303809D01*
X141642380Y-99341904D01*
X141566190Y-99341904D01*
X142632857Y-99341904D02*
X142251904Y-99341904D01*
X142251904Y-98541904D01*
X142899523Y-99341904D02*
X142899523Y-98541904D01*
X143280476Y-99341904D02*
X143280476Y-98541904D01*
X143737619Y-99341904D01*
X143737619Y-98541904D01*
X144118571Y-99341904D02*
X144118571Y-98541904D01*
X144575714Y-99341904D02*
X144232857Y-98884761D01*
X144575714Y-98541904D02*
X144118571Y-98999047D01*
G04 #@! TO.C,L1*
X127603333Y-28782380D02*
X127127142Y-28782380D01*
X127127142Y-27782380D01*
X128460476Y-28782380D02*
X127889047Y-28782380D01*
X128174761Y-28782380D02*
X128174761Y-27782380D01*
X128079523Y-27925238D01*
X127984285Y-28020476D01*
X127889047Y-28068095D01*
G04 #@! TO.C,L2*
X106486666Y-39841904D02*
X106105714Y-39841904D01*
X106105714Y-39041904D01*
X106715238Y-39118095D02*
X106753333Y-39080000D01*
X106829523Y-39041904D01*
X107020000Y-39041904D01*
X107096190Y-39080000D01*
X107134285Y-39118095D01*
X107172380Y-39194285D01*
X107172380Y-39270476D01*
X107134285Y-39384761D01*
X106677142Y-39841904D01*
X107172380Y-39841904D01*
G04 #@! TO.C,R1*
X76946666Y-48271904D02*
X76680000Y-47890952D01*
X76489523Y-48271904D02*
X76489523Y-47471904D01*
X76794285Y-47471904D01*
X76870476Y-47510000D01*
X76908571Y-47548095D01*
X76946666Y-47624285D01*
X76946666Y-47738571D01*
X76908571Y-47814761D01*
X76870476Y-47852857D01*
X76794285Y-47890952D01*
X76489523Y-47890952D01*
X77708571Y-48271904D02*
X77251428Y-48271904D01*
X77480000Y-48271904D02*
X77480000Y-47471904D01*
X77403809Y-47586190D01*
X77327619Y-47662380D01*
X77251428Y-47700476D01*
G04 #@! TO.C,R2*
X148006666Y-78071904D02*
X147740000Y-77690952D01*
X147549523Y-78071904D02*
X147549523Y-77271904D01*
X147854285Y-77271904D01*
X147930476Y-77310000D01*
X147968571Y-77348095D01*
X148006666Y-77424285D01*
X148006666Y-77538571D01*
X147968571Y-77614761D01*
X147930476Y-77652857D01*
X147854285Y-77690952D01*
X147549523Y-77690952D01*
X148311428Y-77348095D02*
X148349523Y-77310000D01*
X148425714Y-77271904D01*
X148616190Y-77271904D01*
X148692380Y-77310000D01*
X148730476Y-77348095D01*
X148768571Y-77424285D01*
X148768571Y-77500476D01*
X148730476Y-77614761D01*
X148273333Y-78071904D01*
X148768571Y-78071904D01*
G04 #@! TO.C,R3*
X68426666Y-53651904D02*
X68160000Y-53270952D01*
X67969523Y-53651904D02*
X67969523Y-52851904D01*
X68274285Y-52851904D01*
X68350476Y-52890000D01*
X68388571Y-52928095D01*
X68426666Y-53004285D01*
X68426666Y-53118571D01*
X68388571Y-53194761D01*
X68350476Y-53232857D01*
X68274285Y-53270952D01*
X67969523Y-53270952D01*
X68693333Y-52851904D02*
X69188571Y-52851904D01*
X68921904Y-53156666D01*
X69036190Y-53156666D01*
X69112380Y-53194761D01*
X69150476Y-53232857D01*
X69188571Y-53309047D01*
X69188571Y-53499523D01*
X69150476Y-53575714D01*
X69112380Y-53613809D01*
X69036190Y-53651904D01*
X68807619Y-53651904D01*
X68731428Y-53613809D01*
X68693333Y-53575714D01*
G04 #@! TO.C,R4*
X82631904Y-43163333D02*
X82250952Y-43430000D01*
X82631904Y-43620476D02*
X81831904Y-43620476D01*
X81831904Y-43315714D01*
X81870000Y-43239523D01*
X81908095Y-43201428D01*
X81984285Y-43163333D01*
X82098571Y-43163333D01*
X82174761Y-43201428D01*
X82212857Y-43239523D01*
X82250952Y-43315714D01*
X82250952Y-43620476D01*
X82098571Y-42477619D02*
X82631904Y-42477619D01*
X81793809Y-42668095D02*
X82365238Y-42858571D01*
X82365238Y-42363333D01*
G04 #@! TO.C,R5*
X133471904Y-39633333D02*
X133090952Y-39900000D01*
X133471904Y-40090476D02*
X132671904Y-40090476D01*
X132671904Y-39785714D01*
X132710000Y-39709523D01*
X132748095Y-39671428D01*
X132824285Y-39633333D01*
X132938571Y-39633333D01*
X133014761Y-39671428D01*
X133052857Y-39709523D01*
X133090952Y-39785714D01*
X133090952Y-40090476D01*
X132671904Y-38909523D02*
X132671904Y-39290476D01*
X133052857Y-39328571D01*
X133014761Y-39290476D01*
X132976666Y-39214285D01*
X132976666Y-39023809D01*
X133014761Y-38947619D01*
X133052857Y-38909523D01*
X133129047Y-38871428D01*
X133319523Y-38871428D01*
X133395714Y-38909523D01*
X133433809Y-38947619D01*
X133471904Y-39023809D01*
X133471904Y-39214285D01*
X133433809Y-39290476D01*
X133395714Y-39328571D01*
G04 #@! TO.C,R6*
X132211904Y-39633333D02*
X131830952Y-39900000D01*
X132211904Y-40090476D02*
X131411904Y-40090476D01*
X131411904Y-39785714D01*
X131450000Y-39709523D01*
X131488095Y-39671428D01*
X131564285Y-39633333D01*
X131678571Y-39633333D01*
X131754761Y-39671428D01*
X131792857Y-39709523D01*
X131830952Y-39785714D01*
X131830952Y-40090476D01*
X131411904Y-38947619D02*
X131411904Y-39100000D01*
X131450000Y-39176190D01*
X131488095Y-39214285D01*
X131602380Y-39290476D01*
X131754761Y-39328571D01*
X132059523Y-39328571D01*
X132135714Y-39290476D01*
X132173809Y-39252380D01*
X132211904Y-39176190D01*
X132211904Y-39023809D01*
X132173809Y-38947619D01*
X132135714Y-38909523D01*
X132059523Y-38871428D01*
X131869047Y-38871428D01*
X131792857Y-38909523D01*
X131754761Y-38947619D01*
X131716666Y-39023809D01*
X131716666Y-39176190D01*
X131754761Y-39252380D01*
X131792857Y-39290476D01*
X131869047Y-39328571D01*
G04 #@! TO.C,R7*
X88331904Y-83063333D02*
X87950952Y-83330000D01*
X88331904Y-83520476D02*
X87531904Y-83520476D01*
X87531904Y-83215714D01*
X87570000Y-83139523D01*
X87608095Y-83101428D01*
X87684285Y-83063333D01*
X87798571Y-83063333D01*
X87874761Y-83101428D01*
X87912857Y-83139523D01*
X87950952Y-83215714D01*
X87950952Y-83520476D01*
X87531904Y-82796666D02*
X87531904Y-82263333D01*
X88331904Y-82606190D01*
G04 #@! TO.C,R8*
X89721904Y-83063333D02*
X89340952Y-83330000D01*
X89721904Y-83520476D02*
X88921904Y-83520476D01*
X88921904Y-83215714D01*
X88960000Y-83139523D01*
X88998095Y-83101428D01*
X89074285Y-83063333D01*
X89188571Y-83063333D01*
X89264761Y-83101428D01*
X89302857Y-83139523D01*
X89340952Y-83215714D01*
X89340952Y-83520476D01*
X89264761Y-82606190D02*
X89226666Y-82682380D01*
X89188571Y-82720476D01*
X89112380Y-82758571D01*
X89074285Y-82758571D01*
X88998095Y-82720476D01*
X88960000Y-82682380D01*
X88921904Y-82606190D01*
X88921904Y-82453809D01*
X88960000Y-82377619D01*
X88998095Y-82339523D01*
X89074285Y-82301428D01*
X89112380Y-82301428D01*
X89188571Y-82339523D01*
X89226666Y-82377619D01*
X89264761Y-82453809D01*
X89264761Y-82606190D01*
X89302857Y-82682380D01*
X89340952Y-82720476D01*
X89417142Y-82758571D01*
X89569523Y-82758571D01*
X89645714Y-82720476D01*
X89683809Y-82682380D01*
X89721904Y-82606190D01*
X89721904Y-82453809D01*
X89683809Y-82377619D01*
X89645714Y-82339523D01*
X89569523Y-82301428D01*
X89417142Y-82301428D01*
X89340952Y-82339523D01*
X89302857Y-82377619D01*
X89264761Y-82453809D01*
G04 #@! TO.C,R9*
X95371904Y-83063333D02*
X94990952Y-83330000D01*
X95371904Y-83520476D02*
X94571904Y-83520476D01*
X94571904Y-83215714D01*
X94610000Y-83139523D01*
X94648095Y-83101428D01*
X94724285Y-83063333D01*
X94838571Y-83063333D01*
X94914761Y-83101428D01*
X94952857Y-83139523D01*
X94990952Y-83215714D01*
X94990952Y-83520476D01*
X95371904Y-82682380D02*
X95371904Y-82530000D01*
X95333809Y-82453809D01*
X95295714Y-82415714D01*
X95181428Y-82339523D01*
X95029047Y-82301428D01*
X94724285Y-82301428D01*
X94648095Y-82339523D01*
X94610000Y-82377619D01*
X94571904Y-82453809D01*
X94571904Y-82606190D01*
X94610000Y-82682380D01*
X94648095Y-82720476D01*
X94724285Y-82758571D01*
X94914761Y-82758571D01*
X94990952Y-82720476D01*
X95029047Y-82682380D01*
X95067142Y-82606190D01*
X95067142Y-82453809D01*
X95029047Y-82377619D01*
X94990952Y-82339523D01*
X94914761Y-82301428D01*
G04 #@! TO.C,R10*
X115021904Y-29104285D02*
X114640952Y-29370952D01*
X115021904Y-29561428D02*
X114221904Y-29561428D01*
X114221904Y-29256666D01*
X114260000Y-29180476D01*
X114298095Y-29142380D01*
X114374285Y-29104285D01*
X114488571Y-29104285D01*
X114564761Y-29142380D01*
X114602857Y-29180476D01*
X114640952Y-29256666D01*
X114640952Y-29561428D01*
X115021904Y-28342380D02*
X115021904Y-28799523D01*
X115021904Y-28570952D02*
X114221904Y-28570952D01*
X114336190Y-28647142D01*
X114412380Y-28723333D01*
X114450476Y-28799523D01*
X114221904Y-27847142D02*
X114221904Y-27770952D01*
X114260000Y-27694761D01*
X114298095Y-27656666D01*
X114374285Y-27618571D01*
X114526666Y-27580476D01*
X114717142Y-27580476D01*
X114869523Y-27618571D01*
X114945714Y-27656666D01*
X114983809Y-27694761D01*
X115021904Y-27770952D01*
X115021904Y-27847142D01*
X114983809Y-27923333D01*
X114945714Y-27961428D01*
X114869523Y-27999523D01*
X114717142Y-28037619D01*
X114526666Y-28037619D01*
X114374285Y-27999523D01*
X114298095Y-27961428D01*
X114260000Y-27923333D01*
X114221904Y-27847142D01*
G04 #@! TO.C,R11*
X147445714Y-43661904D02*
X147179047Y-43280952D01*
X146988571Y-43661904D02*
X146988571Y-42861904D01*
X147293333Y-42861904D01*
X147369523Y-42900000D01*
X147407619Y-42938095D01*
X147445714Y-43014285D01*
X147445714Y-43128571D01*
X147407619Y-43204761D01*
X147369523Y-43242857D01*
X147293333Y-43280952D01*
X146988571Y-43280952D01*
X148207619Y-43661904D02*
X147750476Y-43661904D01*
X147979047Y-43661904D02*
X147979047Y-42861904D01*
X147902857Y-42976190D01*
X147826666Y-43052380D01*
X147750476Y-43090476D01*
X148969523Y-43661904D02*
X148512380Y-43661904D01*
X148740952Y-43661904D02*
X148740952Y-42861904D01*
X148664761Y-42976190D01*
X148588571Y-43052380D01*
X148512380Y-43090476D01*
G04 #@! TO.C,R12*
X134315714Y-42911904D02*
X134049047Y-42530952D01*
X133858571Y-42911904D02*
X133858571Y-42111904D01*
X134163333Y-42111904D01*
X134239523Y-42150000D01*
X134277619Y-42188095D01*
X134315714Y-42264285D01*
X134315714Y-42378571D01*
X134277619Y-42454761D01*
X134239523Y-42492857D01*
X134163333Y-42530952D01*
X133858571Y-42530952D01*
X135077619Y-42911904D02*
X134620476Y-42911904D01*
X134849047Y-42911904D02*
X134849047Y-42111904D01*
X134772857Y-42226190D01*
X134696666Y-42302380D01*
X134620476Y-42340476D01*
X135382380Y-42188095D02*
X135420476Y-42150000D01*
X135496666Y-42111904D01*
X135687142Y-42111904D01*
X135763333Y-42150000D01*
X135801428Y-42188095D01*
X135839523Y-42264285D01*
X135839523Y-42340476D01*
X135801428Y-42454761D01*
X135344285Y-42911904D01*
X135839523Y-42911904D01*
G04 #@! TO.C,R13*
X72865714Y-34551904D02*
X72599047Y-34170952D01*
X72408571Y-34551904D02*
X72408571Y-33751904D01*
X72713333Y-33751904D01*
X72789523Y-33790000D01*
X72827619Y-33828095D01*
X72865714Y-33904285D01*
X72865714Y-34018571D01*
X72827619Y-34094761D01*
X72789523Y-34132857D01*
X72713333Y-34170952D01*
X72408571Y-34170952D01*
X73627619Y-34551904D02*
X73170476Y-34551904D01*
X73399047Y-34551904D02*
X73399047Y-33751904D01*
X73322857Y-33866190D01*
X73246666Y-33942380D01*
X73170476Y-33980476D01*
X73894285Y-33751904D02*
X74389523Y-33751904D01*
X74122857Y-34056666D01*
X74237142Y-34056666D01*
X74313333Y-34094761D01*
X74351428Y-34132857D01*
X74389523Y-34209047D01*
X74389523Y-34399523D01*
X74351428Y-34475714D01*
X74313333Y-34513809D01*
X74237142Y-34551904D01*
X74008571Y-34551904D01*
X73932380Y-34513809D01*
X73894285Y-34475714D01*
G04 #@! TO.C,R14*
X116391904Y-29114285D02*
X116010952Y-29380952D01*
X116391904Y-29571428D02*
X115591904Y-29571428D01*
X115591904Y-29266666D01*
X115630000Y-29190476D01*
X115668095Y-29152380D01*
X115744285Y-29114285D01*
X115858571Y-29114285D01*
X115934761Y-29152380D01*
X115972857Y-29190476D01*
X116010952Y-29266666D01*
X116010952Y-29571428D01*
X116391904Y-28352380D02*
X116391904Y-28809523D01*
X116391904Y-28580952D02*
X115591904Y-28580952D01*
X115706190Y-28657142D01*
X115782380Y-28733333D01*
X115820476Y-28809523D01*
X115858571Y-27666666D02*
X116391904Y-27666666D01*
X115553809Y-27857142D02*
X116125238Y-28047619D01*
X116125238Y-27552380D01*
G04 #@! TO.C,RESET*
X85118095Y-105811904D02*
X84851428Y-105430952D01*
X84660952Y-105811904D02*
X84660952Y-105011904D01*
X84965714Y-105011904D01*
X85041904Y-105050000D01*
X85080000Y-105088095D01*
X85118095Y-105164285D01*
X85118095Y-105278571D01*
X85080000Y-105354761D01*
X85041904Y-105392857D01*
X84965714Y-105430952D01*
X84660952Y-105430952D01*
X85460952Y-105392857D02*
X85727619Y-105392857D01*
X85841904Y-105811904D02*
X85460952Y-105811904D01*
X85460952Y-105011904D01*
X85841904Y-105011904D01*
X86146666Y-105773809D02*
X86260952Y-105811904D01*
X86451428Y-105811904D01*
X86527619Y-105773809D01*
X86565714Y-105735714D01*
X86603809Y-105659523D01*
X86603809Y-105583333D01*
X86565714Y-105507142D01*
X86527619Y-105469047D01*
X86451428Y-105430952D01*
X86299047Y-105392857D01*
X86222857Y-105354761D01*
X86184761Y-105316666D01*
X86146666Y-105240476D01*
X86146666Y-105164285D01*
X86184761Y-105088095D01*
X86222857Y-105050000D01*
X86299047Y-105011904D01*
X86489523Y-105011904D01*
X86603809Y-105050000D01*
X86946666Y-105392857D02*
X87213333Y-105392857D01*
X87327619Y-105811904D02*
X86946666Y-105811904D01*
X86946666Y-105011904D01*
X87327619Y-105011904D01*
X87556190Y-105011904D02*
X88013333Y-105011904D01*
X87784761Y-105811904D02*
X87784761Y-105011904D01*
G04 #@! TO.C,RN1*
X73737619Y-102741904D02*
X73470952Y-102360952D01*
X73280476Y-102741904D02*
X73280476Y-101941904D01*
X73585238Y-101941904D01*
X73661428Y-101980000D01*
X73699523Y-102018095D01*
X73737619Y-102094285D01*
X73737619Y-102208571D01*
X73699523Y-102284761D01*
X73661428Y-102322857D01*
X73585238Y-102360952D01*
X73280476Y-102360952D01*
X74080476Y-102741904D02*
X74080476Y-101941904D01*
X74537619Y-102741904D01*
X74537619Y-101941904D01*
X75337619Y-102741904D02*
X74880476Y-102741904D01*
X75109047Y-102741904D02*
X75109047Y-101941904D01*
X75032857Y-102056190D01*
X74956666Y-102132380D01*
X74880476Y-102170476D01*
G04 #@! TO.C,RV1*
X114893809Y-104301904D02*
X114627142Y-103920952D01*
X114436666Y-104301904D02*
X114436666Y-103501904D01*
X114741428Y-103501904D01*
X114817619Y-103540000D01*
X114855714Y-103578095D01*
X114893809Y-103654285D01*
X114893809Y-103768571D01*
X114855714Y-103844761D01*
X114817619Y-103882857D01*
X114741428Y-103920952D01*
X114436666Y-103920952D01*
X115122380Y-103501904D02*
X115389047Y-104301904D01*
X115655714Y-103501904D01*
X116341428Y-104301904D02*
X115884285Y-104301904D01*
X116112857Y-104301904D02*
X116112857Y-103501904D01*
X116036666Y-103616190D01*
X115960476Y-103692380D01*
X115884285Y-103730476D01*
G04 #@! TO.C,SW1*
X78773333Y-114993809D02*
X78887619Y-115031904D01*
X79078095Y-115031904D01*
X79154285Y-114993809D01*
X79192380Y-114955714D01*
X79230476Y-114879523D01*
X79230476Y-114803333D01*
X79192380Y-114727142D01*
X79154285Y-114689047D01*
X79078095Y-114650952D01*
X78925714Y-114612857D01*
X78849523Y-114574761D01*
X78811428Y-114536666D01*
X78773333Y-114460476D01*
X78773333Y-114384285D01*
X78811428Y-114308095D01*
X78849523Y-114270000D01*
X78925714Y-114231904D01*
X79116190Y-114231904D01*
X79230476Y-114270000D01*
X79497142Y-114231904D02*
X79687619Y-115031904D01*
X79840000Y-114460476D01*
X79992380Y-115031904D01*
X80182857Y-114231904D01*
X80906666Y-115031904D02*
X80449523Y-115031904D01*
X80678095Y-115031904D02*
X80678095Y-114231904D01*
X80601904Y-114346190D01*
X80525714Y-114422380D01*
X80449523Y-114460476D01*
G04 #@! TO.C,SW2*
X78773333Y-133713809D02*
X78887619Y-133751904D01*
X79078095Y-133751904D01*
X79154285Y-133713809D01*
X79192380Y-133675714D01*
X79230476Y-133599523D01*
X79230476Y-133523333D01*
X79192380Y-133447142D01*
X79154285Y-133409047D01*
X79078095Y-133370952D01*
X78925714Y-133332857D01*
X78849523Y-133294761D01*
X78811428Y-133256666D01*
X78773333Y-133180476D01*
X78773333Y-133104285D01*
X78811428Y-133028095D01*
X78849523Y-132990000D01*
X78925714Y-132951904D01*
X79116190Y-132951904D01*
X79230476Y-132990000D01*
X79497142Y-132951904D02*
X79687619Y-133751904D01*
X79840000Y-133180476D01*
X79992380Y-133751904D01*
X80182857Y-132951904D01*
X80449523Y-133028095D02*
X80487619Y-132990000D01*
X80563809Y-132951904D01*
X80754285Y-132951904D01*
X80830476Y-132990000D01*
X80868571Y-133028095D01*
X80906666Y-133104285D01*
X80906666Y-133180476D01*
X80868571Y-133294761D01*
X80411428Y-133751904D01*
X80906666Y-133751904D01*
G04 #@! TO.C,SW3*
X78773333Y-152213809D02*
X78887619Y-152251904D01*
X79078095Y-152251904D01*
X79154285Y-152213809D01*
X79192380Y-152175714D01*
X79230476Y-152099523D01*
X79230476Y-152023333D01*
X79192380Y-151947142D01*
X79154285Y-151909047D01*
X79078095Y-151870952D01*
X78925714Y-151832857D01*
X78849523Y-151794761D01*
X78811428Y-151756666D01*
X78773333Y-151680476D01*
X78773333Y-151604285D01*
X78811428Y-151528095D01*
X78849523Y-151490000D01*
X78925714Y-151451904D01*
X79116190Y-151451904D01*
X79230476Y-151490000D01*
X79497142Y-151451904D02*
X79687619Y-152251904D01*
X79840000Y-151680476D01*
X79992380Y-152251904D01*
X80182857Y-151451904D01*
X80411428Y-151451904D02*
X80906666Y-151451904D01*
X80640000Y-151756666D01*
X80754285Y-151756666D01*
X80830476Y-151794761D01*
X80868571Y-151832857D01*
X80906666Y-151909047D01*
X80906666Y-152099523D01*
X80868571Y-152175714D01*
X80830476Y-152213809D01*
X80754285Y-152251904D01*
X80525714Y-152251904D01*
X80449523Y-152213809D01*
X80411428Y-152175714D01*
G04 #@! TO.C,SW4*
X78773333Y-170843809D02*
X78887619Y-170881904D01*
X79078095Y-170881904D01*
X79154285Y-170843809D01*
X79192380Y-170805714D01*
X79230476Y-170729523D01*
X79230476Y-170653333D01*
X79192380Y-170577142D01*
X79154285Y-170539047D01*
X79078095Y-170500952D01*
X78925714Y-170462857D01*
X78849523Y-170424761D01*
X78811428Y-170386666D01*
X78773333Y-170310476D01*
X78773333Y-170234285D01*
X78811428Y-170158095D01*
X78849523Y-170120000D01*
X78925714Y-170081904D01*
X79116190Y-170081904D01*
X79230476Y-170120000D01*
X79497142Y-170081904D02*
X79687619Y-170881904D01*
X79840000Y-170310476D01*
X79992380Y-170881904D01*
X80182857Y-170081904D01*
X80830476Y-170348571D02*
X80830476Y-170881904D01*
X80640000Y-170043809D02*
X80449523Y-170615238D01*
X80944761Y-170615238D01*
G04 #@! TO.C,SW5*
X97383333Y-114993809D02*
X97497619Y-115031904D01*
X97688095Y-115031904D01*
X97764285Y-114993809D01*
X97802380Y-114955714D01*
X97840476Y-114879523D01*
X97840476Y-114803333D01*
X97802380Y-114727142D01*
X97764285Y-114689047D01*
X97688095Y-114650952D01*
X97535714Y-114612857D01*
X97459523Y-114574761D01*
X97421428Y-114536666D01*
X97383333Y-114460476D01*
X97383333Y-114384285D01*
X97421428Y-114308095D01*
X97459523Y-114270000D01*
X97535714Y-114231904D01*
X97726190Y-114231904D01*
X97840476Y-114270000D01*
X98107142Y-114231904D02*
X98297619Y-115031904D01*
X98450000Y-114460476D01*
X98602380Y-115031904D01*
X98792857Y-114231904D01*
X99478571Y-114231904D02*
X99097619Y-114231904D01*
X99059523Y-114612857D01*
X99097619Y-114574761D01*
X99173809Y-114536666D01*
X99364285Y-114536666D01*
X99440476Y-114574761D01*
X99478571Y-114612857D01*
X99516666Y-114689047D01*
X99516666Y-114879523D01*
X99478571Y-114955714D01*
X99440476Y-114993809D01*
X99364285Y-115031904D01*
X99173809Y-115031904D01*
X99097619Y-114993809D01*
X99059523Y-114955714D01*
G04 #@! TO.C,SW6*
X97363333Y-133794761D02*
X97477619Y-133842380D01*
X97668095Y-133842380D01*
X97744285Y-133794761D01*
X97782380Y-133747142D01*
X97820476Y-133651904D01*
X97820476Y-133556666D01*
X97782380Y-133461428D01*
X97744285Y-133413809D01*
X97668095Y-133366190D01*
X97515714Y-133318571D01*
X97439523Y-133270952D01*
X97401428Y-133223333D01*
X97363333Y-133128095D01*
X97363333Y-133032857D01*
X97401428Y-132937619D01*
X97439523Y-132890000D01*
X97515714Y-132842380D01*
X97706190Y-132842380D01*
X97820476Y-132890000D01*
X98087142Y-132842380D02*
X98277619Y-133842380D01*
X98430000Y-133128095D01*
X98582380Y-133842380D01*
X98772857Y-132842380D01*
X99420476Y-132842380D02*
X99268095Y-132842380D01*
X99191904Y-132890000D01*
X99153809Y-132937619D01*
X99077619Y-133080476D01*
X99039523Y-133270952D01*
X99039523Y-133651904D01*
X99077619Y-133747142D01*
X99115714Y-133794761D01*
X99191904Y-133842380D01*
X99344285Y-133842380D01*
X99420476Y-133794761D01*
X99458571Y-133747142D01*
X99496666Y-133651904D01*
X99496666Y-133413809D01*
X99458571Y-133318571D01*
X99420476Y-133270952D01*
X99344285Y-133223333D01*
X99191904Y-133223333D01*
X99115714Y-133270952D01*
X99077619Y-133318571D01*
X99039523Y-133413809D01*
G04 #@! TO.C,SW7*
X97363333Y-152213809D02*
X97477619Y-152251904D01*
X97668095Y-152251904D01*
X97744285Y-152213809D01*
X97782380Y-152175714D01*
X97820476Y-152099523D01*
X97820476Y-152023333D01*
X97782380Y-151947142D01*
X97744285Y-151909047D01*
X97668095Y-151870952D01*
X97515714Y-151832857D01*
X97439523Y-151794761D01*
X97401428Y-151756666D01*
X97363333Y-151680476D01*
X97363333Y-151604285D01*
X97401428Y-151528095D01*
X97439523Y-151490000D01*
X97515714Y-151451904D01*
X97706190Y-151451904D01*
X97820476Y-151490000D01*
X98087142Y-151451904D02*
X98277619Y-152251904D01*
X98430000Y-151680476D01*
X98582380Y-152251904D01*
X98772857Y-151451904D01*
X99001428Y-151451904D02*
X99534761Y-151451904D01*
X99191904Y-152251904D01*
G04 #@! TO.C,SW8*
X97353333Y-170843809D02*
X97467619Y-170881904D01*
X97658095Y-170881904D01*
X97734285Y-170843809D01*
X97772380Y-170805714D01*
X97810476Y-170729523D01*
X97810476Y-170653333D01*
X97772380Y-170577142D01*
X97734285Y-170539047D01*
X97658095Y-170500952D01*
X97505714Y-170462857D01*
X97429523Y-170424761D01*
X97391428Y-170386666D01*
X97353333Y-170310476D01*
X97353333Y-170234285D01*
X97391428Y-170158095D01*
X97429523Y-170120000D01*
X97505714Y-170081904D01*
X97696190Y-170081904D01*
X97810476Y-170120000D01*
X98077142Y-170081904D02*
X98267619Y-170881904D01*
X98420000Y-170310476D01*
X98572380Y-170881904D01*
X98762857Y-170081904D01*
X99181904Y-170424761D02*
X99105714Y-170386666D01*
X99067619Y-170348571D01*
X99029523Y-170272380D01*
X99029523Y-170234285D01*
X99067619Y-170158095D01*
X99105714Y-170120000D01*
X99181904Y-170081904D01*
X99334285Y-170081904D01*
X99410476Y-170120000D01*
X99448571Y-170158095D01*
X99486666Y-170234285D01*
X99486666Y-170272380D01*
X99448571Y-170348571D01*
X99410476Y-170386666D01*
X99334285Y-170424761D01*
X99181904Y-170424761D01*
X99105714Y-170462857D01*
X99067619Y-170500952D01*
X99029523Y-170577142D01*
X99029523Y-170729523D01*
X99067619Y-170805714D01*
X99105714Y-170843809D01*
X99181904Y-170881904D01*
X99334285Y-170881904D01*
X99410476Y-170843809D01*
X99448571Y-170805714D01*
X99486666Y-170729523D01*
X99486666Y-170577142D01*
X99448571Y-170500952D01*
X99410476Y-170462857D01*
X99334285Y-170424761D01*
G04 #@! TO.C,SW9*
X116003333Y-114993809D02*
X116117619Y-115031904D01*
X116308095Y-115031904D01*
X116384285Y-114993809D01*
X116422380Y-114955714D01*
X116460476Y-114879523D01*
X116460476Y-114803333D01*
X116422380Y-114727142D01*
X116384285Y-114689047D01*
X116308095Y-114650952D01*
X116155714Y-114612857D01*
X116079523Y-114574761D01*
X116041428Y-114536666D01*
X116003333Y-114460476D01*
X116003333Y-114384285D01*
X116041428Y-114308095D01*
X116079523Y-114270000D01*
X116155714Y-114231904D01*
X116346190Y-114231904D01*
X116460476Y-114270000D01*
X116727142Y-114231904D02*
X116917619Y-115031904D01*
X117070000Y-114460476D01*
X117222380Y-115031904D01*
X117412857Y-114231904D01*
X117755714Y-115031904D02*
X117908095Y-115031904D01*
X117984285Y-114993809D01*
X118022380Y-114955714D01*
X118098571Y-114841428D01*
X118136666Y-114689047D01*
X118136666Y-114384285D01*
X118098571Y-114308095D01*
X118060476Y-114270000D01*
X117984285Y-114231904D01*
X117831904Y-114231904D01*
X117755714Y-114270000D01*
X117717619Y-114308095D01*
X117679523Y-114384285D01*
X117679523Y-114574761D01*
X117717619Y-114650952D01*
X117755714Y-114689047D01*
X117831904Y-114727142D01*
X117984285Y-114727142D01*
X118060476Y-114689047D01*
X118098571Y-114650952D01*
X118136666Y-114574761D01*
G04 #@! TO.C,SW10*
X115582380Y-133713809D02*
X115696666Y-133751904D01*
X115887142Y-133751904D01*
X115963333Y-133713809D01*
X116001428Y-133675714D01*
X116039523Y-133599523D01*
X116039523Y-133523333D01*
X116001428Y-133447142D01*
X115963333Y-133409047D01*
X115887142Y-133370952D01*
X115734761Y-133332857D01*
X115658571Y-133294761D01*
X115620476Y-133256666D01*
X115582380Y-133180476D01*
X115582380Y-133104285D01*
X115620476Y-133028095D01*
X115658571Y-132990000D01*
X115734761Y-132951904D01*
X115925238Y-132951904D01*
X116039523Y-132990000D01*
X116306190Y-132951904D02*
X116496666Y-133751904D01*
X116649047Y-133180476D01*
X116801428Y-133751904D01*
X116991904Y-132951904D01*
X117715714Y-133751904D02*
X117258571Y-133751904D01*
X117487142Y-133751904D02*
X117487142Y-132951904D01*
X117410952Y-133066190D01*
X117334761Y-133142380D01*
X117258571Y-133180476D01*
X118210952Y-132951904D02*
X118287142Y-132951904D01*
X118363333Y-132990000D01*
X118401428Y-133028095D01*
X118439523Y-133104285D01*
X118477619Y-133256666D01*
X118477619Y-133447142D01*
X118439523Y-133599523D01*
X118401428Y-133675714D01*
X118363333Y-133713809D01*
X118287142Y-133751904D01*
X118210952Y-133751904D01*
X118134761Y-133713809D01*
X118096666Y-133675714D01*
X118058571Y-133599523D01*
X118020476Y-133447142D01*
X118020476Y-133256666D01*
X118058571Y-133104285D01*
X118096666Y-133028095D01*
X118134761Y-132990000D01*
X118210952Y-132951904D01*
G04 #@! TO.C,SW11*
X115592380Y-152213809D02*
X115706666Y-152251904D01*
X115897142Y-152251904D01*
X115973333Y-152213809D01*
X116011428Y-152175714D01*
X116049523Y-152099523D01*
X116049523Y-152023333D01*
X116011428Y-151947142D01*
X115973333Y-151909047D01*
X115897142Y-151870952D01*
X115744761Y-151832857D01*
X115668571Y-151794761D01*
X115630476Y-151756666D01*
X115592380Y-151680476D01*
X115592380Y-151604285D01*
X115630476Y-151528095D01*
X115668571Y-151490000D01*
X115744761Y-151451904D01*
X115935238Y-151451904D01*
X116049523Y-151490000D01*
X116316190Y-151451904D02*
X116506666Y-152251904D01*
X116659047Y-151680476D01*
X116811428Y-152251904D01*
X117001904Y-151451904D01*
X117725714Y-152251904D02*
X117268571Y-152251904D01*
X117497142Y-152251904D02*
X117497142Y-151451904D01*
X117420952Y-151566190D01*
X117344761Y-151642380D01*
X117268571Y-151680476D01*
X118487619Y-152251904D02*
X118030476Y-152251904D01*
X118259047Y-152251904D02*
X118259047Y-151451904D01*
X118182857Y-151566190D01*
X118106666Y-151642380D01*
X118030476Y-151680476D01*
G04 #@! TO.C,SW12*
X115592380Y-170843809D02*
X115706666Y-170881904D01*
X115897142Y-170881904D01*
X115973333Y-170843809D01*
X116011428Y-170805714D01*
X116049523Y-170729523D01*
X116049523Y-170653333D01*
X116011428Y-170577142D01*
X115973333Y-170539047D01*
X115897142Y-170500952D01*
X115744761Y-170462857D01*
X115668571Y-170424761D01*
X115630476Y-170386666D01*
X115592380Y-170310476D01*
X115592380Y-170234285D01*
X115630476Y-170158095D01*
X115668571Y-170120000D01*
X115744761Y-170081904D01*
X115935238Y-170081904D01*
X116049523Y-170120000D01*
X116316190Y-170081904D02*
X116506666Y-170881904D01*
X116659047Y-170310476D01*
X116811428Y-170881904D01*
X117001904Y-170081904D01*
X117725714Y-170881904D02*
X117268571Y-170881904D01*
X117497142Y-170881904D02*
X117497142Y-170081904D01*
X117420952Y-170196190D01*
X117344761Y-170272380D01*
X117268571Y-170310476D01*
X118030476Y-170158095D02*
X118068571Y-170120000D01*
X118144761Y-170081904D01*
X118335238Y-170081904D01*
X118411428Y-170120000D01*
X118449523Y-170158095D01*
X118487619Y-170234285D01*
X118487619Y-170310476D01*
X118449523Y-170424761D01*
X117992380Y-170881904D01*
X118487619Y-170881904D01*
G04 #@! TO.C,SW13*
X134202380Y-114993809D02*
X134316666Y-115031904D01*
X134507142Y-115031904D01*
X134583333Y-114993809D01*
X134621428Y-114955714D01*
X134659523Y-114879523D01*
X134659523Y-114803333D01*
X134621428Y-114727142D01*
X134583333Y-114689047D01*
X134507142Y-114650952D01*
X134354761Y-114612857D01*
X134278571Y-114574761D01*
X134240476Y-114536666D01*
X134202380Y-114460476D01*
X134202380Y-114384285D01*
X134240476Y-114308095D01*
X134278571Y-114270000D01*
X134354761Y-114231904D01*
X134545238Y-114231904D01*
X134659523Y-114270000D01*
X134926190Y-114231904D02*
X135116666Y-115031904D01*
X135269047Y-114460476D01*
X135421428Y-115031904D01*
X135611904Y-114231904D01*
X136335714Y-115031904D02*
X135878571Y-115031904D01*
X136107142Y-115031904D02*
X136107142Y-114231904D01*
X136030952Y-114346190D01*
X135954761Y-114422380D01*
X135878571Y-114460476D01*
X136602380Y-114231904D02*
X137097619Y-114231904D01*
X136830952Y-114536666D01*
X136945238Y-114536666D01*
X137021428Y-114574761D01*
X137059523Y-114612857D01*
X137097619Y-114689047D01*
X137097619Y-114879523D01*
X137059523Y-114955714D01*
X137021428Y-114993809D01*
X136945238Y-115031904D01*
X136716666Y-115031904D01*
X136640476Y-114993809D01*
X136602380Y-114955714D01*
G04 #@! TO.C,SW14*
X134192380Y-133713809D02*
X134306666Y-133751904D01*
X134497142Y-133751904D01*
X134573333Y-133713809D01*
X134611428Y-133675714D01*
X134649523Y-133599523D01*
X134649523Y-133523333D01*
X134611428Y-133447142D01*
X134573333Y-133409047D01*
X134497142Y-133370952D01*
X134344761Y-133332857D01*
X134268571Y-133294761D01*
X134230476Y-133256666D01*
X134192380Y-133180476D01*
X134192380Y-133104285D01*
X134230476Y-133028095D01*
X134268571Y-132990000D01*
X134344761Y-132951904D01*
X134535238Y-132951904D01*
X134649523Y-132990000D01*
X134916190Y-132951904D02*
X135106666Y-133751904D01*
X135259047Y-133180476D01*
X135411428Y-133751904D01*
X135601904Y-132951904D01*
X136325714Y-133751904D02*
X135868571Y-133751904D01*
X136097142Y-133751904D02*
X136097142Y-132951904D01*
X136020952Y-133066190D01*
X135944761Y-133142380D01*
X135868571Y-133180476D01*
X137011428Y-133218571D02*
X137011428Y-133751904D01*
X136820952Y-132913809D02*
X136630476Y-133485238D01*
X137125714Y-133485238D01*
G04 #@! TO.C,SW15*
X134192380Y-152213809D02*
X134306666Y-152251904D01*
X134497142Y-152251904D01*
X134573333Y-152213809D01*
X134611428Y-152175714D01*
X134649523Y-152099523D01*
X134649523Y-152023333D01*
X134611428Y-151947142D01*
X134573333Y-151909047D01*
X134497142Y-151870952D01*
X134344761Y-151832857D01*
X134268571Y-151794761D01*
X134230476Y-151756666D01*
X134192380Y-151680476D01*
X134192380Y-151604285D01*
X134230476Y-151528095D01*
X134268571Y-151490000D01*
X134344761Y-151451904D01*
X134535238Y-151451904D01*
X134649523Y-151490000D01*
X134916190Y-151451904D02*
X135106666Y-152251904D01*
X135259047Y-151680476D01*
X135411428Y-152251904D01*
X135601904Y-151451904D01*
X136325714Y-152251904D02*
X135868571Y-152251904D01*
X136097142Y-152251904D02*
X136097142Y-151451904D01*
X136020952Y-151566190D01*
X135944761Y-151642380D01*
X135868571Y-151680476D01*
X137049523Y-151451904D02*
X136668571Y-151451904D01*
X136630476Y-151832857D01*
X136668571Y-151794761D01*
X136744761Y-151756666D01*
X136935238Y-151756666D01*
X137011428Y-151794761D01*
X137049523Y-151832857D01*
X137087619Y-151909047D01*
X137087619Y-152099523D01*
X137049523Y-152175714D01*
X137011428Y-152213809D01*
X136935238Y-152251904D01*
X136744761Y-152251904D01*
X136668571Y-152213809D01*
X136630476Y-152175714D01*
G04 #@! TO.C,SW16*
X134192380Y-170843809D02*
X134306666Y-170881904D01*
X134497142Y-170881904D01*
X134573333Y-170843809D01*
X134611428Y-170805714D01*
X134649523Y-170729523D01*
X134649523Y-170653333D01*
X134611428Y-170577142D01*
X134573333Y-170539047D01*
X134497142Y-170500952D01*
X134344761Y-170462857D01*
X134268571Y-170424761D01*
X134230476Y-170386666D01*
X134192380Y-170310476D01*
X134192380Y-170234285D01*
X134230476Y-170158095D01*
X134268571Y-170120000D01*
X134344761Y-170081904D01*
X134535238Y-170081904D01*
X134649523Y-170120000D01*
X134916190Y-170081904D02*
X135106666Y-170881904D01*
X135259047Y-170310476D01*
X135411428Y-170881904D01*
X135601904Y-170081904D01*
X136325714Y-170881904D02*
X135868571Y-170881904D01*
X136097142Y-170881904D02*
X136097142Y-170081904D01*
X136020952Y-170196190D01*
X135944761Y-170272380D01*
X135868571Y-170310476D01*
X137011428Y-170081904D02*
X136859047Y-170081904D01*
X136782857Y-170120000D01*
X136744761Y-170158095D01*
X136668571Y-170272380D01*
X136630476Y-170424761D01*
X136630476Y-170729523D01*
X136668571Y-170805714D01*
X136706666Y-170843809D01*
X136782857Y-170881904D01*
X136935238Y-170881904D01*
X137011428Y-170843809D01*
X137049523Y-170805714D01*
X137087619Y-170729523D01*
X137087619Y-170539047D01*
X137049523Y-170462857D01*
X137011428Y-170424761D01*
X136935238Y-170386666D01*
X136782857Y-170386666D01*
X136706666Y-170424761D01*
X136668571Y-170462857D01*
X136630476Y-170539047D01*
G04 #@! TO.C,SW_MNU*
X93424285Y-105773809D02*
X93538571Y-105811904D01*
X93729047Y-105811904D01*
X93805238Y-105773809D01*
X93843333Y-105735714D01*
X93881428Y-105659523D01*
X93881428Y-105583333D01*
X93843333Y-105507142D01*
X93805238Y-105469047D01*
X93729047Y-105430952D01*
X93576666Y-105392857D01*
X93500476Y-105354761D01*
X93462380Y-105316666D01*
X93424285Y-105240476D01*
X93424285Y-105164285D01*
X93462380Y-105088095D01*
X93500476Y-105050000D01*
X93576666Y-105011904D01*
X93767142Y-105011904D01*
X93881428Y-105050000D01*
X94148095Y-105011904D02*
X94338571Y-105811904D01*
X94490952Y-105240476D01*
X94643333Y-105811904D01*
X94833809Y-105011904D01*
X94948095Y-105888095D02*
X95557619Y-105888095D01*
X95748095Y-105811904D02*
X95748095Y-105011904D01*
X96014761Y-105583333D01*
X96281428Y-105011904D01*
X96281428Y-105811904D01*
X96662380Y-105811904D02*
X96662380Y-105011904D01*
X97119523Y-105811904D01*
X97119523Y-105011904D01*
X97500476Y-105011904D02*
X97500476Y-105659523D01*
X97538571Y-105735714D01*
X97576666Y-105773809D01*
X97652857Y-105811904D01*
X97805238Y-105811904D01*
X97881428Y-105773809D01*
X97919523Y-105735714D01*
X97957619Y-105659523D01*
X97957619Y-105011904D01*
G04 #@! TO.C,U1*
X68190476Y-40681904D02*
X68190476Y-41329523D01*
X68228571Y-41405714D01*
X68266666Y-41443809D01*
X68342857Y-41481904D01*
X68495238Y-41481904D01*
X68571428Y-41443809D01*
X68609523Y-41405714D01*
X68647619Y-41329523D01*
X68647619Y-40681904D01*
X69447619Y-41481904D02*
X68990476Y-41481904D01*
X69219047Y-41481904D02*
X69219047Y-40681904D01*
X69142857Y-40796190D01*
X69066666Y-40872380D01*
X68990476Y-40910476D01*
G04 #@! TO.C,U2*
X95260476Y-65241904D02*
X95260476Y-65889523D01*
X95298571Y-65965714D01*
X95336666Y-66003809D01*
X95412857Y-66041904D01*
X95565238Y-66041904D01*
X95641428Y-66003809D01*
X95679523Y-65965714D01*
X95717619Y-65889523D01*
X95717619Y-65241904D01*
X96060476Y-65318095D02*
X96098571Y-65280000D01*
X96174761Y-65241904D01*
X96365238Y-65241904D01*
X96441428Y-65280000D01*
X96479523Y-65318095D01*
X96517619Y-65394285D01*
X96517619Y-65470476D01*
X96479523Y-65584761D01*
X96022380Y-66041904D01*
X96517619Y-66041904D01*
G04 #@! TO.C,U3*
X122880476Y-40441904D02*
X122880476Y-41089523D01*
X122918571Y-41165714D01*
X122956666Y-41203809D01*
X123032857Y-41241904D01*
X123185238Y-41241904D01*
X123261428Y-41203809D01*
X123299523Y-41165714D01*
X123337619Y-41089523D01*
X123337619Y-40441904D01*
X123642380Y-40441904D02*
X124137619Y-40441904D01*
X123870952Y-40746666D01*
X123985238Y-40746666D01*
X124061428Y-40784761D01*
X124099523Y-40822857D01*
X124137619Y-40899047D01*
X124137619Y-41089523D01*
X124099523Y-41165714D01*
X124061428Y-41203809D01*
X123985238Y-41241904D01*
X123756666Y-41241904D01*
X123680476Y-41203809D01*
X123642380Y-41165714D01*
G04 #@! TO.C,U4*
X114500476Y-30661904D02*
X114500476Y-31309523D01*
X114538571Y-31385714D01*
X114576666Y-31423809D01*
X114652857Y-31461904D01*
X114805238Y-31461904D01*
X114881428Y-31423809D01*
X114919523Y-31385714D01*
X114957619Y-31309523D01*
X114957619Y-30661904D01*
X115681428Y-30928571D02*
X115681428Y-31461904D01*
X115490952Y-30623809D02*
X115300476Y-31195238D01*
X115795714Y-31195238D01*
G04 #@! TO.C,U5*
X140580476Y-45911904D02*
X140580476Y-46559523D01*
X140618571Y-46635714D01*
X140656666Y-46673809D01*
X140732857Y-46711904D01*
X140885238Y-46711904D01*
X140961428Y-46673809D01*
X140999523Y-46635714D01*
X141037619Y-46559523D01*
X141037619Y-45911904D01*
X141799523Y-45911904D02*
X141418571Y-45911904D01*
X141380476Y-46292857D01*
X141418571Y-46254761D01*
X141494761Y-46216666D01*
X141685238Y-46216666D01*
X141761428Y-46254761D01*
X141799523Y-46292857D01*
X141837619Y-46369047D01*
X141837619Y-46559523D01*
X141799523Y-46635714D01*
X141761428Y-46673809D01*
X141685238Y-46711904D01*
X141494761Y-46711904D01*
X141418571Y-46673809D01*
X141380476Y-46635714D01*
G04 #@! TO.C,U6*
X138040476Y-35291904D02*
X138040476Y-35939523D01*
X138078571Y-36015714D01*
X138116666Y-36053809D01*
X138192857Y-36091904D01*
X138345238Y-36091904D01*
X138421428Y-36053809D01*
X138459523Y-36015714D01*
X138497619Y-35939523D01*
X138497619Y-35291904D01*
X139221428Y-35291904D02*
X139069047Y-35291904D01*
X138992857Y-35330000D01*
X138954761Y-35368095D01*
X138878571Y-35482380D01*
X138840476Y-35634761D01*
X138840476Y-35939523D01*
X138878571Y-36015714D01*
X138916666Y-36053809D01*
X138992857Y-36091904D01*
X139145238Y-36091904D01*
X139221428Y-36053809D01*
X139259523Y-36015714D01*
X139297619Y-35939523D01*
X139297619Y-35749047D01*
X139259523Y-35672857D01*
X139221428Y-35634761D01*
X139145238Y-35596666D01*
X138992857Y-35596666D01*
X138916666Y-35634761D01*
X138878571Y-35672857D01*
X138840476Y-35749047D01*
G04 #@! TO.C,UART*
X141599523Y-103851904D02*
X141599523Y-104499523D01*
X141637618Y-104575714D01*
X141675714Y-104613809D01*
X141751904Y-104651904D01*
X141904285Y-104651904D01*
X141980475Y-104613809D01*
X142018571Y-104575714D01*
X142056666Y-104499523D01*
X142056666Y-103851904D01*
X142399523Y-104423333D02*
X142780475Y-104423333D01*
X142323333Y-104651904D02*
X142589999Y-103851904D01*
X142856666Y-104651904D01*
X143580475Y-104651904D02*
X143313809Y-104270952D01*
X143123333Y-104651904D02*
X143123333Y-103851904D01*
X143428094Y-103851904D01*
X143504285Y-103890000D01*
X143542380Y-103928095D01*
X143580475Y-104004285D01*
X143580475Y-104118571D01*
X143542380Y-104194761D01*
X143504285Y-104232857D01*
X143428094Y-104270952D01*
X143123333Y-104270952D01*
X143809047Y-103851904D02*
X144266190Y-103851904D01*
X144037618Y-104651904D02*
X144037618Y-103851904D01*
G04 #@! TO.C,Y1*
X77819047Y-49600952D02*
X77819047Y-49981904D01*
X77552380Y-49181904D02*
X77819047Y-49600952D01*
X78085714Y-49181904D01*
X78771428Y-49981904D02*
X78314285Y-49981904D01*
X78542857Y-49981904D02*
X78542857Y-49181904D01*
X78466666Y-49296190D01*
X78390476Y-49372380D01*
X78314285Y-49410476D01*
G04 #@! TO.C,Y2*
X90249047Y-49560952D02*
X90249047Y-49941904D01*
X89982380Y-49141904D02*
X90249047Y-49560952D01*
X90515714Y-49141904D01*
X90744285Y-49218095D02*
X90782380Y-49180000D01*
X90858571Y-49141904D01*
X91049047Y-49141904D01*
X91125238Y-49180000D01*
X91163333Y-49218095D01*
X91201428Y-49294285D01*
X91201428Y-49370476D01*
X91163333Y-49484761D01*
X90706190Y-49941904D01*
X91201428Y-49941904D01*
G04 #@! TO.C,Q1*
X140513809Y-78198095D02*
X140437619Y-78160000D01*
X140361428Y-78083809D01*
X140247142Y-77969523D01*
X140170952Y-77931428D01*
X140094761Y-77931428D01*
X140132857Y-78121904D02*
X140056666Y-78083809D01*
X139980476Y-78007619D01*
X139942380Y-77855238D01*
X139942380Y-77588571D01*
X139980476Y-77436190D01*
X140056666Y-77360000D01*
X140132857Y-77321904D01*
X140285238Y-77321904D01*
X140361428Y-77360000D01*
X140437619Y-77436190D01*
X140475714Y-77588571D01*
X140475714Y-77855238D01*
X140437619Y-78007619D01*
X140361428Y-78083809D01*
X140285238Y-78121904D01*
X140132857Y-78121904D01*
X141237619Y-78121904D02*
X140780476Y-78121904D01*
X141009047Y-78121904D02*
X141009047Y-77321904D01*
X140932857Y-77436190D01*
X140856666Y-77512380D01*
X140780476Y-77550476D01*
G04 #@! TO.C,Q2*
X92203809Y-83468095D02*
X92127619Y-83430000D01*
X92051428Y-83353809D01*
X91937142Y-83239523D01*
X91860952Y-83201428D01*
X91784761Y-83201428D01*
X91822857Y-83391904D02*
X91746666Y-83353809D01*
X91670476Y-83277619D01*
X91632380Y-83125238D01*
X91632380Y-82858571D01*
X91670476Y-82706190D01*
X91746666Y-82630000D01*
X91822857Y-82591904D01*
X91975238Y-82591904D01*
X92051428Y-82630000D01*
X92127619Y-82706190D01*
X92165714Y-82858571D01*
X92165714Y-83125238D01*
X92127619Y-83277619D01*
X92051428Y-83353809D01*
X91975238Y-83391904D01*
X91822857Y-83391904D01*
X92470476Y-82668095D02*
X92508571Y-82630000D01*
X92584761Y-82591904D01*
X92775238Y-82591904D01*
X92851428Y-82630000D01*
X92889523Y-82668095D01*
X92927619Y-82744285D01*
X92927619Y-82820476D01*
X92889523Y-82934761D01*
X92432380Y-83391904D01*
X92927619Y-83391904D01*
G04 #@! TO.C,BATT*
X103674761Y-62302857D02*
X103789047Y-62340952D01*
X103827142Y-62379047D01*
X103865238Y-62455238D01*
X103865238Y-62569523D01*
X103827142Y-62645714D01*
X103789047Y-62683809D01*
X103712857Y-62721904D01*
X103408095Y-62721904D01*
X103408095Y-61921904D01*
X103674761Y-61921904D01*
X103750952Y-61960000D01*
X103789047Y-61998095D01*
X103827142Y-62074285D01*
X103827142Y-62150476D01*
X103789047Y-62226666D01*
X103750952Y-62264761D01*
X103674761Y-62302857D01*
X103408095Y-62302857D01*
X104170000Y-62493333D02*
X104550952Y-62493333D01*
X104093809Y-62721904D02*
X104360476Y-61921904D01*
X104627142Y-62721904D01*
X104779523Y-61921904D02*
X105236666Y-61921904D01*
X105008095Y-62721904D02*
X105008095Y-61921904D01*
X105389047Y-61921904D02*
X105846190Y-61921904D01*
X105617619Y-62721904D02*
X105617619Y-61921904D01*
G04 #@! TO.C,BTN_POWER*
X137000476Y-27422857D02*
X137114761Y-27460952D01*
X137152857Y-27499047D01*
X137190952Y-27575238D01*
X137190952Y-27689523D01*
X137152857Y-27765714D01*
X137114761Y-27803809D01*
X137038571Y-27841904D01*
X136733809Y-27841904D01*
X136733809Y-27041904D01*
X137000476Y-27041904D01*
X137076666Y-27080000D01*
X137114761Y-27118095D01*
X137152857Y-27194285D01*
X137152857Y-27270476D01*
X137114761Y-27346666D01*
X137076666Y-27384761D01*
X137000476Y-27422857D01*
X136733809Y-27422857D01*
X137419523Y-27041904D02*
X137876666Y-27041904D01*
X137648095Y-27841904D02*
X137648095Y-27041904D01*
X138143333Y-27841904D02*
X138143333Y-27041904D01*
X138600476Y-27841904D01*
X138600476Y-27041904D01*
X138790952Y-27918095D02*
X139400476Y-27918095D01*
X139590952Y-27841904D02*
X139590952Y-27041904D01*
X139895714Y-27041904D01*
X139971904Y-27080000D01*
X140010000Y-27118095D01*
X140048095Y-27194285D01*
X140048095Y-27308571D01*
X140010000Y-27384761D01*
X139971904Y-27422857D01*
X139895714Y-27460952D01*
X139590952Y-27460952D01*
X140543333Y-27041904D02*
X140695714Y-27041904D01*
X140771904Y-27080000D01*
X140848095Y-27156190D01*
X140886190Y-27308571D01*
X140886190Y-27575238D01*
X140848095Y-27727619D01*
X140771904Y-27803809D01*
X140695714Y-27841904D01*
X140543333Y-27841904D01*
X140467142Y-27803809D01*
X140390952Y-27727619D01*
X140352857Y-27575238D01*
X140352857Y-27308571D01*
X140390952Y-27156190D01*
X140467142Y-27080000D01*
X140543333Y-27041904D01*
X141152857Y-27041904D02*
X141343333Y-27841904D01*
X141495714Y-27270476D01*
X141648095Y-27841904D01*
X141838571Y-27041904D01*
X142143333Y-27422857D02*
X142410000Y-27422857D01*
X142524285Y-27841904D02*
X142143333Y-27841904D01*
X142143333Y-27041904D01*
X142524285Y-27041904D01*
X143324285Y-27841904D02*
X143057619Y-27460952D01*
X142867142Y-27841904D02*
X142867142Y-27041904D01*
X143171904Y-27041904D01*
X143248095Y-27080000D01*
X143286190Y-27118095D01*
X143324285Y-27194285D01*
X143324285Y-27308571D01*
X143286190Y-27384761D01*
X143248095Y-27422857D01*
X143171904Y-27460952D01*
X142867142Y-27460952D01*
G04 #@! TD*
M02*
