G04 #@! TF.GenerationSoftware,KiCad,Pcbnew,5.0.2+dfsg1-1~bpo9+1*
G04 #@! TF.CreationDate,2019-07-30T16:59:57+07:00*
G04 #@! TF.ProjectId,edukate,6564756b-6174-4652-9e6b-696361645f70,rev?*
G04 #@! TF.SameCoordinates,Original*
G04 #@! TF.FileFunction,Soldermask,Top*
G04 #@! TF.FilePolarity,Negative*
%FSLAX46Y46*%
G04 Gerber Fmt 4.6, Leading zero omitted, Abs format (unit mm)*
G04 Created by KiCad (PCBNEW 5.0.2+dfsg1-1~bpo9+1) date Tue 30 Jul 2019 04:59:57 PM +07*
%MOMM*%
%LPD*%
G01*
G04 APERTURE LIST*
%ADD10C,0.100000*%
G04 APERTURE END LIST*
D10*
G36*
X144091000Y-173951000D02*
X141989000Y-173951000D01*
X141989000Y-171849000D01*
X144091000Y-171849000D01*
X144091000Y-173951000D01*
X144091000Y-173951000D01*
G37*
G36*
X110991000Y-173951000D02*
X108889000Y-173951000D01*
X108889000Y-171849000D01*
X110991000Y-171849000D01*
X110991000Y-173951000D01*
X110991000Y-173951000D01*
G37*
G36*
X125491000Y-173951000D02*
X123389000Y-173951000D01*
X123389000Y-171849000D01*
X125491000Y-171849000D01*
X125491000Y-173951000D01*
X125491000Y-173951000D01*
G37*
G36*
X106881000Y-173951000D02*
X104779000Y-173951000D01*
X104779000Y-171849000D01*
X106881000Y-171849000D01*
X106881000Y-173951000D01*
X106881000Y-173951000D01*
G37*
G36*
X92381000Y-173951000D02*
X90279000Y-173951000D01*
X90279000Y-171849000D01*
X92381000Y-171849000D01*
X92381000Y-173951000D01*
X92381000Y-173951000D01*
G37*
G36*
X73791000Y-173951000D02*
X71689000Y-173951000D01*
X71689000Y-171849000D01*
X73791000Y-171849000D01*
X73791000Y-173951000D01*
X73791000Y-173951000D01*
G37*
G36*
X88291000Y-173951000D02*
X86189000Y-173951000D01*
X86189000Y-171849000D01*
X88291000Y-171849000D01*
X88291000Y-173951000D01*
X88291000Y-173951000D01*
G37*
G36*
X129591000Y-173951000D02*
X127489000Y-173951000D01*
X127489000Y-171849000D01*
X129591000Y-171849000D01*
X129591000Y-173951000D01*
X129591000Y-173951000D01*
G37*
G36*
X125491000Y-168951000D02*
X123389000Y-168951000D01*
X123389000Y-166849000D01*
X125491000Y-166849000D01*
X125491000Y-168951000D01*
X125491000Y-168951000D01*
G37*
G36*
X88291000Y-168951000D02*
X86189000Y-168951000D01*
X86189000Y-166849000D01*
X88291000Y-166849000D01*
X88291000Y-168951000D01*
X88291000Y-168951000D01*
G37*
G36*
X73791000Y-168951000D02*
X71689000Y-168951000D01*
X71689000Y-166849000D01*
X73791000Y-166849000D01*
X73791000Y-168951000D01*
X73791000Y-168951000D01*
G37*
G36*
X129591000Y-168951000D02*
X127489000Y-168951000D01*
X127489000Y-166849000D01*
X129591000Y-166849000D01*
X129591000Y-168951000D01*
X129591000Y-168951000D01*
G37*
G36*
X92381000Y-168951000D02*
X90279000Y-168951000D01*
X90279000Y-166849000D01*
X92381000Y-166849000D01*
X92381000Y-168951000D01*
X92381000Y-168951000D01*
G37*
G36*
X106881000Y-168951000D02*
X104779000Y-168951000D01*
X104779000Y-166849000D01*
X106881000Y-166849000D01*
X106881000Y-168951000D01*
X106881000Y-168951000D01*
G37*
G36*
X110991000Y-168951000D02*
X108889000Y-168951000D01*
X108889000Y-166849000D01*
X110991000Y-166849000D01*
X110991000Y-168951000D01*
X110991000Y-168951000D01*
G37*
G36*
X144091000Y-168951000D02*
X141989000Y-168951000D01*
X141989000Y-166849000D01*
X144091000Y-166849000D01*
X144091000Y-168951000D01*
X144091000Y-168951000D01*
G37*
G36*
X92381000Y-155351000D02*
X90279000Y-155351000D01*
X90279000Y-153249000D01*
X92381000Y-153249000D01*
X92381000Y-155351000D01*
X92381000Y-155351000D01*
G37*
G36*
X73791000Y-155351000D02*
X71689000Y-155351000D01*
X71689000Y-153249000D01*
X73791000Y-153249000D01*
X73791000Y-155351000D01*
X73791000Y-155351000D01*
G37*
G36*
X106881000Y-155351000D02*
X104779000Y-155351000D01*
X104779000Y-153249000D01*
X106881000Y-153249000D01*
X106881000Y-155351000D01*
X106881000Y-155351000D01*
G37*
G36*
X88291000Y-155351000D02*
X86189000Y-155351000D01*
X86189000Y-153249000D01*
X88291000Y-153249000D01*
X88291000Y-155351000D01*
X88291000Y-155351000D01*
G37*
G36*
X110991000Y-155351000D02*
X108889000Y-155351000D01*
X108889000Y-153249000D01*
X110991000Y-153249000D01*
X110991000Y-155351000D01*
X110991000Y-155351000D01*
G37*
G36*
X125491000Y-155351000D02*
X123389000Y-155351000D01*
X123389000Y-153249000D01*
X125491000Y-153249000D01*
X125491000Y-155351000D01*
X125491000Y-155351000D01*
G37*
G36*
X129591000Y-155351000D02*
X127489000Y-155351000D01*
X127489000Y-153249000D01*
X129591000Y-153249000D01*
X129591000Y-155351000D01*
X129591000Y-155351000D01*
G37*
G36*
X144091000Y-155351000D02*
X141989000Y-155351000D01*
X141989000Y-153249000D01*
X144091000Y-153249000D01*
X144091000Y-155351000D01*
X144091000Y-155351000D01*
G37*
G36*
X144091000Y-150351000D02*
X141989000Y-150351000D01*
X141989000Y-148249000D01*
X144091000Y-148249000D01*
X144091000Y-150351000D01*
X144091000Y-150351000D01*
G37*
G36*
X129591000Y-150351000D02*
X127489000Y-150351000D01*
X127489000Y-148249000D01*
X129591000Y-148249000D01*
X129591000Y-150351000D01*
X129591000Y-150351000D01*
G37*
G36*
X110991000Y-150351000D02*
X108889000Y-150351000D01*
X108889000Y-148249000D01*
X110991000Y-148249000D01*
X110991000Y-150351000D01*
X110991000Y-150351000D01*
G37*
G36*
X125491000Y-150351000D02*
X123389000Y-150351000D01*
X123389000Y-148249000D01*
X125491000Y-148249000D01*
X125491000Y-150351000D01*
X125491000Y-150351000D01*
G37*
G36*
X106881000Y-150351000D02*
X104779000Y-150351000D01*
X104779000Y-148249000D01*
X106881000Y-148249000D01*
X106881000Y-150351000D01*
X106881000Y-150351000D01*
G37*
G36*
X92381000Y-150351000D02*
X90279000Y-150351000D01*
X90279000Y-148249000D01*
X92381000Y-148249000D01*
X92381000Y-150351000D01*
X92381000Y-150351000D01*
G37*
G36*
X73791000Y-150351000D02*
X71689000Y-150351000D01*
X71689000Y-148249000D01*
X73791000Y-148249000D01*
X73791000Y-150351000D01*
X73791000Y-150351000D01*
G37*
G36*
X88291000Y-150351000D02*
X86189000Y-150351000D01*
X86189000Y-148249000D01*
X88291000Y-148249000D01*
X88291000Y-150351000D01*
X88291000Y-150351000D01*
G37*
G36*
X106881000Y-136751000D02*
X104779000Y-136751000D01*
X104779000Y-134649000D01*
X106881000Y-134649000D01*
X106881000Y-136751000D01*
X106881000Y-136751000D01*
G37*
G36*
X88291000Y-136751000D02*
X86189000Y-136751000D01*
X86189000Y-134649000D01*
X88291000Y-134649000D01*
X88291000Y-136751000D01*
X88291000Y-136751000D01*
G37*
G36*
X125491000Y-136751000D02*
X123389000Y-136751000D01*
X123389000Y-134649000D01*
X125491000Y-134649000D01*
X125491000Y-136751000D01*
X125491000Y-136751000D01*
G37*
G36*
X144091000Y-136751000D02*
X141989000Y-136751000D01*
X141989000Y-134649000D01*
X144091000Y-134649000D01*
X144091000Y-136751000D01*
X144091000Y-136751000D01*
G37*
G36*
X129591000Y-136751000D02*
X127489000Y-136751000D01*
X127489000Y-134649000D01*
X129591000Y-134649000D01*
X129591000Y-136751000D01*
X129591000Y-136751000D01*
G37*
G36*
X73791000Y-136751000D02*
X71689000Y-136751000D01*
X71689000Y-134649000D01*
X73791000Y-134649000D01*
X73791000Y-136751000D01*
X73791000Y-136751000D01*
G37*
G36*
X92381000Y-136751000D02*
X90279000Y-136751000D01*
X90279000Y-134649000D01*
X92381000Y-134649000D01*
X92381000Y-136751000D01*
X92381000Y-136751000D01*
G37*
G36*
X110991000Y-136751000D02*
X108889000Y-136751000D01*
X108889000Y-134649000D01*
X110991000Y-134649000D01*
X110991000Y-136751000D01*
X110991000Y-136751000D01*
G37*
G36*
X129591000Y-131751000D02*
X127489000Y-131751000D01*
X127489000Y-129649000D01*
X129591000Y-129649000D01*
X129591000Y-131751000D01*
X129591000Y-131751000D01*
G37*
G36*
X144091000Y-131751000D02*
X141989000Y-131751000D01*
X141989000Y-129649000D01*
X144091000Y-129649000D01*
X144091000Y-131751000D01*
X144091000Y-131751000D01*
G37*
G36*
X73791000Y-131751000D02*
X71689000Y-131751000D01*
X71689000Y-129649000D01*
X73791000Y-129649000D01*
X73791000Y-131751000D01*
X73791000Y-131751000D01*
G37*
G36*
X88291000Y-131751000D02*
X86189000Y-131751000D01*
X86189000Y-129649000D01*
X88291000Y-129649000D01*
X88291000Y-131751000D01*
X88291000Y-131751000D01*
G37*
G36*
X110991000Y-131751000D02*
X108889000Y-131751000D01*
X108889000Y-129649000D01*
X110991000Y-129649000D01*
X110991000Y-131751000D01*
X110991000Y-131751000D01*
G37*
G36*
X125491000Y-131751000D02*
X123389000Y-131751000D01*
X123389000Y-129649000D01*
X125491000Y-129649000D01*
X125491000Y-131751000D01*
X125491000Y-131751000D01*
G37*
G36*
X92381000Y-131751000D02*
X90279000Y-131751000D01*
X90279000Y-129649000D01*
X92381000Y-129649000D01*
X92381000Y-131751000D01*
X92381000Y-131751000D01*
G37*
G36*
X106881000Y-131751000D02*
X104779000Y-131751000D01*
X104779000Y-129649000D01*
X106881000Y-129649000D01*
X106881000Y-131751000D01*
X106881000Y-131751000D01*
G37*
G36*
X106881000Y-118151000D02*
X104779000Y-118151000D01*
X104779000Y-116049000D01*
X106881000Y-116049000D01*
X106881000Y-118151000D01*
X106881000Y-118151000D01*
G37*
G36*
X110991000Y-118151000D02*
X108889000Y-118151000D01*
X108889000Y-116049000D01*
X110991000Y-116049000D01*
X110991000Y-118151000D01*
X110991000Y-118151000D01*
G37*
G36*
X92381000Y-118151000D02*
X90279000Y-118151000D01*
X90279000Y-116049000D01*
X92381000Y-116049000D01*
X92381000Y-118151000D01*
X92381000Y-118151000D01*
G37*
G36*
X144091000Y-118151000D02*
X141989000Y-118151000D01*
X141989000Y-116049000D01*
X144091000Y-116049000D01*
X144091000Y-118151000D01*
X144091000Y-118151000D01*
G37*
G36*
X88291000Y-118151000D02*
X86189000Y-118151000D01*
X86189000Y-116049000D01*
X88291000Y-116049000D01*
X88291000Y-118151000D01*
X88291000Y-118151000D01*
G37*
G36*
X129591000Y-118151000D02*
X127489000Y-118151000D01*
X127489000Y-116049000D01*
X129591000Y-116049000D01*
X129591000Y-118151000D01*
X129591000Y-118151000D01*
G37*
G36*
X73791000Y-118151000D02*
X71689000Y-118151000D01*
X71689000Y-116049000D01*
X73791000Y-116049000D01*
X73791000Y-118151000D01*
X73791000Y-118151000D01*
G37*
G36*
X125491000Y-118151000D02*
X123389000Y-118151000D01*
X123389000Y-116049000D01*
X125491000Y-116049000D01*
X125491000Y-118151000D01*
X125491000Y-118151000D01*
G37*
G36*
X144091000Y-113151000D02*
X141989000Y-113151000D01*
X141989000Y-111049000D01*
X144091000Y-111049000D01*
X144091000Y-113151000D01*
X144091000Y-113151000D01*
G37*
G36*
X110991000Y-113151000D02*
X108889000Y-113151000D01*
X108889000Y-111049000D01*
X110991000Y-111049000D01*
X110991000Y-113151000D01*
X110991000Y-113151000D01*
G37*
G36*
X106881000Y-113151000D02*
X104779000Y-113151000D01*
X104779000Y-111049000D01*
X106881000Y-111049000D01*
X106881000Y-113151000D01*
X106881000Y-113151000D01*
G37*
G36*
X125491000Y-113151000D02*
X123389000Y-113151000D01*
X123389000Y-111049000D01*
X125491000Y-111049000D01*
X125491000Y-113151000D01*
X125491000Y-113151000D01*
G37*
G36*
X73791000Y-113151000D02*
X71689000Y-113151000D01*
X71689000Y-111049000D01*
X73791000Y-111049000D01*
X73791000Y-113151000D01*
X73791000Y-113151000D01*
G37*
G36*
X129591000Y-113151000D02*
X127489000Y-113151000D01*
X127489000Y-111049000D01*
X129591000Y-111049000D01*
X129591000Y-113151000D01*
X129591000Y-113151000D01*
G37*
G36*
X88291000Y-113151000D02*
X86189000Y-113151000D01*
X86189000Y-111049000D01*
X88291000Y-111049000D01*
X88291000Y-113151000D01*
X88291000Y-113151000D01*
G37*
G36*
X92381000Y-113151000D02*
X90279000Y-113151000D01*
X90279000Y-111049000D01*
X92381000Y-111049000D01*
X92381000Y-113151000D01*
X92381000Y-113151000D01*
G37*
G36*
X134260442Y-103395518D02*
X134326627Y-103402037D01*
X134439853Y-103436384D01*
X134496467Y-103453557D01*
X134635087Y-103527652D01*
X134652991Y-103537222D01*
X134688729Y-103566552D01*
X134790186Y-103649814D01*
X134873448Y-103751271D01*
X134902778Y-103787009D01*
X134902779Y-103787011D01*
X134986443Y-103943533D01*
X134986443Y-103943534D01*
X135037963Y-104113373D01*
X135055359Y-104290000D01*
X135037963Y-104466627D01*
X135003616Y-104579853D01*
X134986443Y-104636467D01*
X134912348Y-104775087D01*
X134902778Y-104792991D01*
X134873448Y-104828729D01*
X134790186Y-104930186D01*
X134688729Y-105013448D01*
X134652991Y-105042778D01*
X134652989Y-105042779D01*
X134496467Y-105126443D01*
X134439853Y-105143616D01*
X134326627Y-105177963D01*
X134260443Y-105184481D01*
X134194260Y-105191000D01*
X134105740Y-105191000D01*
X134039557Y-105184481D01*
X133973373Y-105177963D01*
X133860147Y-105143616D01*
X133803533Y-105126443D01*
X133647011Y-105042779D01*
X133647009Y-105042778D01*
X133611271Y-105013448D01*
X133509814Y-104930186D01*
X133426552Y-104828729D01*
X133397222Y-104792991D01*
X133387652Y-104775087D01*
X133313557Y-104636467D01*
X133296384Y-104579853D01*
X133262037Y-104466627D01*
X133244641Y-104290000D01*
X133262037Y-104113373D01*
X133313557Y-103943534D01*
X133313557Y-103943533D01*
X133397221Y-103787011D01*
X133397222Y-103787009D01*
X133426552Y-103751271D01*
X133509814Y-103649814D01*
X133611271Y-103566552D01*
X133647009Y-103537222D01*
X133664913Y-103527652D01*
X133803533Y-103453557D01*
X133860147Y-103436384D01*
X133973373Y-103402037D01*
X134039558Y-103395518D01*
X134105740Y-103389000D01*
X134194260Y-103389000D01*
X134260442Y-103395518D01*
X134260442Y-103395518D01*
G37*
G36*
X136800442Y-103395518D02*
X136866627Y-103402037D01*
X136979853Y-103436384D01*
X137036467Y-103453557D01*
X137175087Y-103527652D01*
X137192991Y-103537222D01*
X137228729Y-103566552D01*
X137330186Y-103649814D01*
X137413448Y-103751271D01*
X137442778Y-103787009D01*
X137442779Y-103787011D01*
X137526443Y-103943533D01*
X137526443Y-103943534D01*
X137577963Y-104113373D01*
X137595359Y-104290000D01*
X137577963Y-104466627D01*
X137543616Y-104579853D01*
X137526443Y-104636467D01*
X137452348Y-104775087D01*
X137442778Y-104792991D01*
X137413448Y-104828729D01*
X137330186Y-104930186D01*
X137228729Y-105013448D01*
X137192991Y-105042778D01*
X137192989Y-105042779D01*
X137036467Y-105126443D01*
X136979853Y-105143616D01*
X136866627Y-105177963D01*
X136800443Y-105184481D01*
X136734260Y-105191000D01*
X136645740Y-105191000D01*
X136579557Y-105184481D01*
X136513373Y-105177963D01*
X136400147Y-105143616D01*
X136343533Y-105126443D01*
X136187011Y-105042779D01*
X136187009Y-105042778D01*
X136151271Y-105013448D01*
X136049814Y-104930186D01*
X135966552Y-104828729D01*
X135937222Y-104792991D01*
X135927652Y-104775087D01*
X135853557Y-104636467D01*
X135836384Y-104579853D01*
X135802037Y-104466627D01*
X135784641Y-104290000D01*
X135802037Y-104113373D01*
X135853557Y-103943534D01*
X135853557Y-103943533D01*
X135937221Y-103787011D01*
X135937222Y-103787009D01*
X135966552Y-103751271D01*
X136049814Y-103649814D01*
X136151271Y-103566552D01*
X136187009Y-103537222D01*
X136204913Y-103527652D01*
X136343533Y-103453557D01*
X136400147Y-103436384D01*
X136513373Y-103402037D01*
X136579558Y-103395518D01*
X136645740Y-103389000D01*
X136734260Y-103389000D01*
X136800442Y-103395518D01*
X136800442Y-103395518D01*
G37*
G36*
X139340442Y-103395518D02*
X139406627Y-103402037D01*
X139519853Y-103436384D01*
X139576467Y-103453557D01*
X139715087Y-103527652D01*
X139732991Y-103537222D01*
X139768729Y-103566552D01*
X139870186Y-103649814D01*
X139953448Y-103751271D01*
X139982778Y-103787009D01*
X139982779Y-103787011D01*
X140066443Y-103943533D01*
X140066443Y-103943534D01*
X140117963Y-104113373D01*
X140135359Y-104290000D01*
X140117963Y-104466627D01*
X140083616Y-104579853D01*
X140066443Y-104636467D01*
X139992348Y-104775087D01*
X139982778Y-104792991D01*
X139953448Y-104828729D01*
X139870186Y-104930186D01*
X139768729Y-105013448D01*
X139732991Y-105042778D01*
X139732989Y-105042779D01*
X139576467Y-105126443D01*
X139519853Y-105143616D01*
X139406627Y-105177963D01*
X139340443Y-105184481D01*
X139274260Y-105191000D01*
X139185740Y-105191000D01*
X139119557Y-105184481D01*
X139053373Y-105177963D01*
X138940147Y-105143616D01*
X138883533Y-105126443D01*
X138727011Y-105042779D01*
X138727009Y-105042778D01*
X138691271Y-105013448D01*
X138589814Y-104930186D01*
X138506552Y-104828729D01*
X138477222Y-104792991D01*
X138467652Y-104775087D01*
X138393557Y-104636467D01*
X138376384Y-104579853D01*
X138342037Y-104466627D01*
X138324641Y-104290000D01*
X138342037Y-104113373D01*
X138393557Y-103943534D01*
X138393557Y-103943533D01*
X138477221Y-103787011D01*
X138477222Y-103787009D01*
X138506552Y-103751271D01*
X138589814Y-103649814D01*
X138691271Y-103566552D01*
X138727009Y-103537222D01*
X138744913Y-103527652D01*
X138883533Y-103453557D01*
X138940147Y-103436384D01*
X139053373Y-103402037D01*
X139119558Y-103395518D01*
X139185740Y-103389000D01*
X139274260Y-103389000D01*
X139340442Y-103395518D01*
X139340442Y-103395518D01*
G37*
G36*
X132511000Y-105191000D02*
X130709000Y-105191000D01*
X130709000Y-103389000D01*
X132511000Y-103389000D01*
X132511000Y-105191000D01*
X132511000Y-105191000D01*
G37*
G36*
X77481000Y-103771000D02*
X76129000Y-103771000D01*
X76129000Y-102869000D01*
X77481000Y-102869000D01*
X77481000Y-103771000D01*
X77481000Y-103771000D01*
G37*
G36*
X79131000Y-103771000D02*
X77779000Y-103771000D01*
X77779000Y-102869000D01*
X79131000Y-102869000D01*
X79131000Y-103771000D01*
X79131000Y-103771000D01*
G37*
G36*
X109551000Y-103391000D02*
X107949000Y-103391000D01*
X107949000Y-101689000D01*
X109551000Y-101689000D01*
X109551000Y-103391000D01*
X109551000Y-103391000D01*
G37*
G36*
X83511000Y-103391000D02*
X81909000Y-103391000D01*
X81909000Y-101689000D01*
X83511000Y-101689000D01*
X83511000Y-103391000D01*
X83511000Y-103391000D01*
G37*
G36*
X100051000Y-103391000D02*
X98449000Y-103391000D01*
X98449000Y-101689000D01*
X100051000Y-101689000D01*
X100051000Y-103391000D01*
X100051000Y-103391000D01*
G37*
G36*
X92961000Y-103391000D02*
X91359000Y-103391000D01*
X91359000Y-101689000D01*
X92961000Y-101689000D01*
X92961000Y-103391000D01*
X92961000Y-103391000D01*
G37*
G36*
X102461000Y-103391000D02*
X100859000Y-103391000D01*
X100859000Y-101689000D01*
X102461000Y-101689000D01*
X102461000Y-103391000D01*
X102461000Y-103391000D01*
G37*
G36*
X90601000Y-103391000D02*
X88999000Y-103391000D01*
X88999000Y-101689000D01*
X90601000Y-101689000D01*
X90601000Y-103391000D01*
X90601000Y-103391000D01*
G37*
G36*
X118167142Y-101218242D02*
X118315102Y-101279530D01*
X118448258Y-101368502D01*
X118561498Y-101481742D01*
X118650470Y-101614898D01*
X118711758Y-101762858D01*
X118743000Y-101919925D01*
X118743000Y-102080075D01*
X118711758Y-102237142D01*
X118650470Y-102385102D01*
X118561498Y-102518258D01*
X118448258Y-102631498D01*
X118315102Y-102720470D01*
X118167142Y-102781758D01*
X118010075Y-102813000D01*
X117849925Y-102813000D01*
X117692858Y-102781758D01*
X117544898Y-102720470D01*
X117411742Y-102631498D01*
X117298502Y-102518258D01*
X117209530Y-102385102D01*
X117148242Y-102237142D01*
X117117000Y-102080075D01*
X117117000Y-101919925D01*
X117148242Y-101762858D01*
X117209530Y-101614898D01*
X117298502Y-101481742D01*
X117411742Y-101368502D01*
X117544898Y-101279530D01*
X117692858Y-101218242D01*
X117849925Y-101187000D01*
X118010075Y-101187000D01*
X118167142Y-101218242D01*
X118167142Y-101218242D01*
G37*
G36*
X123247142Y-101218242D02*
X123395102Y-101279530D01*
X123528258Y-101368502D01*
X123641498Y-101481742D01*
X123730470Y-101614898D01*
X123791758Y-101762858D01*
X123823000Y-101919925D01*
X123823000Y-102080075D01*
X123791758Y-102237142D01*
X123730470Y-102385102D01*
X123641498Y-102518258D01*
X123528258Y-102631498D01*
X123395102Y-102720470D01*
X123247142Y-102781758D01*
X123090075Y-102813000D01*
X122929925Y-102813000D01*
X122772858Y-102781758D01*
X122624898Y-102720470D01*
X122491742Y-102631498D01*
X122378502Y-102518258D01*
X122289530Y-102385102D01*
X122228242Y-102237142D01*
X122197000Y-102080075D01*
X122197000Y-101919925D01*
X122228242Y-101762858D01*
X122289530Y-101614898D01*
X122378502Y-101481742D01*
X122491742Y-101368502D01*
X122624898Y-101279530D01*
X122772858Y-101218242D01*
X122929925Y-101187000D01*
X123090075Y-101187000D01*
X123247142Y-101218242D01*
X123247142Y-101218242D01*
G37*
G36*
X77481000Y-101971000D02*
X76129000Y-101971000D01*
X76129000Y-101069000D01*
X77481000Y-101069000D01*
X77481000Y-101971000D01*
X77481000Y-101971000D01*
G37*
G36*
X79131000Y-101971000D02*
X77779000Y-101971000D01*
X77779000Y-101069000D01*
X79131000Y-101069000D01*
X79131000Y-101971000D01*
X79131000Y-101971000D01*
G37*
G36*
X120707142Y-98678242D02*
X120855102Y-98739530D01*
X120922130Y-98784317D01*
X120988257Y-98828501D01*
X121101499Y-98941743D01*
X121145683Y-99007870D01*
X121190470Y-99074898D01*
X121251758Y-99222858D01*
X121283000Y-99379925D01*
X121283000Y-99540075D01*
X121251758Y-99697142D01*
X121190470Y-99845102D01*
X121101498Y-99978258D01*
X120988258Y-100091498D01*
X120855102Y-100180470D01*
X120707142Y-100241758D01*
X120550075Y-100273000D01*
X120389925Y-100273000D01*
X120232858Y-100241758D01*
X120084898Y-100180470D01*
X119951742Y-100091498D01*
X119838502Y-99978258D01*
X119749530Y-99845102D01*
X119688242Y-99697142D01*
X119657000Y-99540075D01*
X119657000Y-99379925D01*
X119688242Y-99222858D01*
X119749530Y-99074898D01*
X119794317Y-99007870D01*
X119838501Y-98941743D01*
X119951743Y-98828501D01*
X120017870Y-98784317D01*
X120084898Y-98739530D01*
X120232858Y-98678242D01*
X120389925Y-98647000D01*
X120550075Y-98647000D01*
X120707142Y-98678242D01*
X120707142Y-98678242D01*
G37*
G36*
X134160442Y-98075518D02*
X134226627Y-98082037D01*
X134339853Y-98116384D01*
X134396467Y-98133557D01*
X134535087Y-98207652D01*
X134552991Y-98217222D01*
X134588729Y-98246552D01*
X134690186Y-98329814D01*
X134773448Y-98431271D01*
X134802778Y-98467009D01*
X134802779Y-98467011D01*
X134886443Y-98623533D01*
X134886443Y-98623534D01*
X134937963Y-98793373D01*
X134955359Y-98970000D01*
X134937963Y-99146627D01*
X134903616Y-99259853D01*
X134886443Y-99316467D01*
X134852523Y-99379925D01*
X134802778Y-99472991D01*
X134773448Y-99508729D01*
X134690186Y-99610186D01*
X134588729Y-99693448D01*
X134552991Y-99722778D01*
X134552989Y-99722779D01*
X134396467Y-99806443D01*
X134339853Y-99823616D01*
X134226627Y-99857963D01*
X134160443Y-99864481D01*
X134094260Y-99871000D01*
X134005740Y-99871000D01*
X133939557Y-99864481D01*
X133873373Y-99857963D01*
X133760147Y-99823616D01*
X133703533Y-99806443D01*
X133547011Y-99722779D01*
X133547009Y-99722778D01*
X133511271Y-99693448D01*
X133409814Y-99610186D01*
X133326552Y-99508729D01*
X133297222Y-99472991D01*
X133247477Y-99379925D01*
X133213557Y-99316467D01*
X133196384Y-99259853D01*
X133162037Y-99146627D01*
X133144641Y-98970000D01*
X133162037Y-98793373D01*
X133213557Y-98623534D01*
X133213557Y-98623533D01*
X133297221Y-98467011D01*
X133297222Y-98467009D01*
X133326552Y-98431271D01*
X133409814Y-98329814D01*
X133511271Y-98246552D01*
X133547009Y-98217222D01*
X133564913Y-98207652D01*
X133703533Y-98133557D01*
X133760147Y-98116384D01*
X133873373Y-98082037D01*
X133939558Y-98075518D01*
X134005740Y-98069000D01*
X134094260Y-98069000D01*
X134160442Y-98075518D01*
X134160442Y-98075518D01*
G37*
G36*
X132411000Y-99871000D02*
X130609000Y-99871000D01*
X130609000Y-98069000D01*
X132411000Y-98069000D01*
X132411000Y-99871000D01*
X132411000Y-99871000D01*
G37*
G36*
X136700442Y-98075518D02*
X136766627Y-98082037D01*
X136879853Y-98116384D01*
X136936467Y-98133557D01*
X137075087Y-98207652D01*
X137092991Y-98217222D01*
X137128729Y-98246552D01*
X137230186Y-98329814D01*
X137313448Y-98431271D01*
X137342778Y-98467009D01*
X137342779Y-98467011D01*
X137426443Y-98623533D01*
X137426443Y-98623534D01*
X137477963Y-98793373D01*
X137495359Y-98970000D01*
X137477963Y-99146627D01*
X137443616Y-99259853D01*
X137426443Y-99316467D01*
X137392523Y-99379925D01*
X137342778Y-99472991D01*
X137313448Y-99508729D01*
X137230186Y-99610186D01*
X137128729Y-99693448D01*
X137092991Y-99722778D01*
X137092989Y-99722779D01*
X136936467Y-99806443D01*
X136879853Y-99823616D01*
X136766627Y-99857963D01*
X136700443Y-99864481D01*
X136634260Y-99871000D01*
X136545740Y-99871000D01*
X136479557Y-99864481D01*
X136413373Y-99857963D01*
X136300147Y-99823616D01*
X136243533Y-99806443D01*
X136087011Y-99722779D01*
X136087009Y-99722778D01*
X136051271Y-99693448D01*
X135949814Y-99610186D01*
X135866552Y-99508729D01*
X135837222Y-99472991D01*
X135787477Y-99379925D01*
X135753557Y-99316467D01*
X135736384Y-99259853D01*
X135702037Y-99146627D01*
X135684641Y-98970000D01*
X135702037Y-98793373D01*
X135753557Y-98623534D01*
X135753557Y-98623533D01*
X135837221Y-98467011D01*
X135837222Y-98467009D01*
X135866552Y-98431271D01*
X135949814Y-98329814D01*
X136051271Y-98246552D01*
X136087009Y-98217222D01*
X136104913Y-98207652D01*
X136243533Y-98133557D01*
X136300147Y-98116384D01*
X136413373Y-98082037D01*
X136479558Y-98075518D01*
X136545740Y-98069000D01*
X136634260Y-98069000D01*
X136700442Y-98075518D01*
X136700442Y-98075518D01*
G37*
G36*
X139240442Y-98075518D02*
X139306627Y-98082037D01*
X139419853Y-98116384D01*
X139476467Y-98133557D01*
X139615087Y-98207652D01*
X139632991Y-98217222D01*
X139668729Y-98246552D01*
X139770186Y-98329814D01*
X139853448Y-98431271D01*
X139882778Y-98467009D01*
X139882779Y-98467011D01*
X139966443Y-98623533D01*
X139966443Y-98623534D01*
X140017963Y-98793373D01*
X140035359Y-98970000D01*
X140017963Y-99146627D01*
X139983616Y-99259853D01*
X139966443Y-99316467D01*
X139932523Y-99379925D01*
X139882778Y-99472991D01*
X139853448Y-99508729D01*
X139770186Y-99610186D01*
X139668729Y-99693448D01*
X139632991Y-99722778D01*
X139632989Y-99722779D01*
X139476467Y-99806443D01*
X139419853Y-99823616D01*
X139306627Y-99857963D01*
X139240443Y-99864481D01*
X139174260Y-99871000D01*
X139085740Y-99871000D01*
X139019557Y-99864481D01*
X138953373Y-99857963D01*
X138840147Y-99823616D01*
X138783533Y-99806443D01*
X138627011Y-99722779D01*
X138627009Y-99722778D01*
X138591271Y-99693448D01*
X138489814Y-99610186D01*
X138406552Y-99508729D01*
X138377222Y-99472991D01*
X138327477Y-99379925D01*
X138293557Y-99316467D01*
X138276384Y-99259853D01*
X138242037Y-99146627D01*
X138224641Y-98970000D01*
X138242037Y-98793373D01*
X138293557Y-98623534D01*
X138293557Y-98623533D01*
X138377221Y-98467011D01*
X138377222Y-98467009D01*
X138406552Y-98431271D01*
X138489814Y-98329814D01*
X138591271Y-98246552D01*
X138627009Y-98217222D01*
X138644913Y-98207652D01*
X138783533Y-98133557D01*
X138840147Y-98116384D01*
X138953373Y-98082037D01*
X139019558Y-98075518D01*
X139085740Y-98069000D01*
X139174260Y-98069000D01*
X139240442Y-98075518D01*
X139240442Y-98075518D01*
G37*
G36*
X85871000Y-98541000D02*
X84869000Y-98541000D01*
X84869000Y-97639000D01*
X85871000Y-97639000D01*
X85871000Y-98541000D01*
X85871000Y-98541000D01*
G37*
G36*
X87671000Y-98541000D02*
X86669000Y-98541000D01*
X86669000Y-97639000D01*
X87671000Y-97639000D01*
X87671000Y-98541000D01*
X87671000Y-98541000D01*
G37*
G36*
X152265331Y-91868211D02*
X152593092Y-92003974D01*
X152888073Y-92201074D01*
X153138926Y-92451927D01*
X153336026Y-92746908D01*
X153471789Y-93074669D01*
X153541000Y-93422616D01*
X153541000Y-93777384D01*
X153471789Y-94125331D01*
X153336026Y-94453092D01*
X153138926Y-94748073D01*
X152888073Y-94998926D01*
X152593092Y-95196026D01*
X152265331Y-95331789D01*
X151917384Y-95401000D01*
X151562616Y-95401000D01*
X151214669Y-95331789D01*
X150886908Y-95196026D01*
X150591927Y-94998926D01*
X150341074Y-94748073D01*
X150143974Y-94453092D01*
X150008211Y-94125331D01*
X149939000Y-93777384D01*
X149939000Y-93422616D01*
X150008211Y-93074669D01*
X150143974Y-92746908D01*
X150341074Y-92451927D01*
X150591927Y-92201074D01*
X150886908Y-92003974D01*
X151214669Y-91868211D01*
X151562616Y-91799000D01*
X151917384Y-91799000D01*
X152265331Y-91868211D01*
X152265331Y-91868211D01*
G37*
G36*
X64265331Y-91868211D02*
X64593092Y-92003974D01*
X64888073Y-92201074D01*
X65138926Y-92451927D01*
X65336026Y-92746908D01*
X65471789Y-93074669D01*
X65541000Y-93422616D01*
X65541000Y-93777384D01*
X65471789Y-94125331D01*
X65336026Y-94453092D01*
X65138926Y-94748073D01*
X64888073Y-94998926D01*
X64593092Y-95196026D01*
X64265331Y-95331789D01*
X63917384Y-95401000D01*
X63562616Y-95401000D01*
X63214669Y-95331789D01*
X62886908Y-95196026D01*
X62591927Y-94998926D01*
X62341074Y-94748073D01*
X62143974Y-94453092D01*
X62008211Y-94125331D01*
X61939000Y-93777384D01*
X61939000Y-93422616D01*
X62008211Y-93074669D01*
X62143974Y-92746908D01*
X62341074Y-92451927D01*
X62591927Y-92201074D01*
X62886908Y-92003974D01*
X63214669Y-91868211D01*
X63562616Y-91799000D01*
X63917384Y-91799000D01*
X64265331Y-91868211D01*
X64265331Y-91868211D01*
G37*
G36*
X80546820Y-92061313D02*
X80546823Y-92061314D01*
X80546824Y-92061314D01*
X80707238Y-92109975D01*
X80707240Y-92109976D01*
X80707243Y-92109977D01*
X80855078Y-92188995D01*
X80984659Y-92295341D01*
X81091005Y-92424922D01*
X81170023Y-92572756D01*
X81218687Y-92733179D01*
X81231000Y-92858196D01*
X81231000Y-94341804D01*
X81218687Y-94466821D01*
X81170023Y-94627244D01*
X81091005Y-94775078D01*
X80984659Y-94904659D01*
X80855078Y-95011005D01*
X80707244Y-95090023D01*
X80707241Y-95090024D01*
X80707239Y-95090025D01*
X80546825Y-95138686D01*
X80546824Y-95138686D01*
X80546821Y-95138687D01*
X80380000Y-95155117D01*
X80213180Y-95138687D01*
X80213177Y-95138686D01*
X80213176Y-95138686D01*
X80052762Y-95090025D01*
X80052760Y-95090024D01*
X80052757Y-95090023D01*
X79904923Y-95011005D01*
X79775342Y-94904659D01*
X79668996Y-94775078D01*
X79589978Y-94627244D01*
X79541314Y-94466821D01*
X79529001Y-94341804D01*
X79529000Y-92858197D01*
X79541313Y-92733180D01*
X79541314Y-92733176D01*
X79589975Y-92572762D01*
X79589976Y-92572760D01*
X79589977Y-92572757D01*
X79668995Y-92424922D01*
X79775341Y-92295341D01*
X79904922Y-92188995D01*
X80052756Y-92109977D01*
X80052759Y-92109976D01*
X80052761Y-92109975D01*
X80213175Y-92061314D01*
X80213176Y-92061314D01*
X80213179Y-92061313D01*
X80380000Y-92044883D01*
X80546820Y-92061313D01*
X80546820Y-92061313D01*
G37*
G36*
X75466820Y-92061313D02*
X75466823Y-92061314D01*
X75466824Y-92061314D01*
X75627238Y-92109975D01*
X75627240Y-92109976D01*
X75627243Y-92109977D01*
X75775078Y-92188995D01*
X75904659Y-92295341D01*
X76011005Y-92424922D01*
X76090023Y-92572756D01*
X76138687Y-92733179D01*
X76151000Y-92858196D01*
X76151000Y-94341804D01*
X76138687Y-94466821D01*
X76090023Y-94627244D01*
X76011005Y-94775078D01*
X75904659Y-94904659D01*
X75775078Y-95011005D01*
X75627244Y-95090023D01*
X75627241Y-95090024D01*
X75627239Y-95090025D01*
X75466825Y-95138686D01*
X75466824Y-95138686D01*
X75466821Y-95138687D01*
X75300000Y-95155117D01*
X75133180Y-95138687D01*
X75133177Y-95138686D01*
X75133176Y-95138686D01*
X74972762Y-95090025D01*
X74972760Y-95090024D01*
X74972757Y-95090023D01*
X74824923Y-95011005D01*
X74695342Y-94904659D01*
X74588996Y-94775078D01*
X74509978Y-94627244D01*
X74461314Y-94466821D01*
X74449001Y-94341804D01*
X74449000Y-92858197D01*
X74461313Y-92733180D01*
X74461314Y-92733176D01*
X74509975Y-92572762D01*
X74509976Y-92572760D01*
X74509977Y-92572757D01*
X74588995Y-92424922D01*
X74695341Y-92295341D01*
X74824922Y-92188995D01*
X74972756Y-92109977D01*
X74972759Y-92109976D01*
X74972761Y-92109975D01*
X75133175Y-92061314D01*
X75133176Y-92061314D01*
X75133179Y-92061313D01*
X75300000Y-92044883D01*
X75466820Y-92061313D01*
X75466820Y-92061313D01*
G37*
G36*
X78006820Y-92061313D02*
X78006823Y-92061314D01*
X78006824Y-92061314D01*
X78167238Y-92109975D01*
X78167240Y-92109976D01*
X78167243Y-92109977D01*
X78315078Y-92188995D01*
X78444659Y-92295341D01*
X78551005Y-92424922D01*
X78630023Y-92572756D01*
X78678687Y-92733179D01*
X78691000Y-92858196D01*
X78691000Y-94341804D01*
X78678687Y-94466821D01*
X78630023Y-94627244D01*
X78551005Y-94775078D01*
X78444659Y-94904659D01*
X78315078Y-95011005D01*
X78167244Y-95090023D01*
X78167241Y-95090024D01*
X78167239Y-95090025D01*
X78006825Y-95138686D01*
X78006824Y-95138686D01*
X78006821Y-95138687D01*
X77840000Y-95155117D01*
X77673180Y-95138687D01*
X77673177Y-95138686D01*
X77673176Y-95138686D01*
X77512762Y-95090025D01*
X77512760Y-95090024D01*
X77512757Y-95090023D01*
X77364923Y-95011005D01*
X77235342Y-94904659D01*
X77128996Y-94775078D01*
X77049978Y-94627244D01*
X77001314Y-94466821D01*
X76989001Y-94341804D01*
X76989000Y-92858197D01*
X77001313Y-92733180D01*
X77001314Y-92733176D01*
X77049975Y-92572762D01*
X77049976Y-92572760D01*
X77049977Y-92572757D01*
X77128995Y-92424922D01*
X77235341Y-92295341D01*
X77364922Y-92188995D01*
X77512756Y-92109977D01*
X77512759Y-92109976D01*
X77512761Y-92109975D01*
X77673175Y-92061314D01*
X77673176Y-92061314D01*
X77673179Y-92061313D01*
X77840000Y-92044883D01*
X78006820Y-92061313D01*
X78006820Y-92061313D01*
G37*
G36*
X83086820Y-92061313D02*
X83086823Y-92061314D01*
X83086824Y-92061314D01*
X83247238Y-92109975D01*
X83247240Y-92109976D01*
X83247243Y-92109977D01*
X83395078Y-92188995D01*
X83524659Y-92295341D01*
X83631005Y-92424922D01*
X83710023Y-92572756D01*
X83758687Y-92733179D01*
X83771000Y-92858196D01*
X83771000Y-94341804D01*
X83758687Y-94466821D01*
X83710023Y-94627244D01*
X83631005Y-94775078D01*
X83524659Y-94904659D01*
X83395078Y-95011005D01*
X83247244Y-95090023D01*
X83247241Y-95090024D01*
X83247239Y-95090025D01*
X83086825Y-95138686D01*
X83086824Y-95138686D01*
X83086821Y-95138687D01*
X82920000Y-95155117D01*
X82753180Y-95138687D01*
X82753177Y-95138686D01*
X82753176Y-95138686D01*
X82592762Y-95090025D01*
X82592760Y-95090024D01*
X82592757Y-95090023D01*
X82444923Y-95011005D01*
X82315342Y-94904659D01*
X82208996Y-94775078D01*
X82129978Y-94627244D01*
X82081314Y-94466821D01*
X82069001Y-94341804D01*
X82069000Y-92858197D01*
X82081313Y-92733180D01*
X82081314Y-92733176D01*
X82129975Y-92572762D01*
X82129976Y-92572760D01*
X82129977Y-92572757D01*
X82208995Y-92424922D01*
X82315341Y-92295341D01*
X82444922Y-92188995D01*
X82592756Y-92109977D01*
X82592759Y-92109976D01*
X82592761Y-92109975D01*
X82753175Y-92061314D01*
X82753176Y-92061314D01*
X82753179Y-92061313D01*
X82920000Y-92044883D01*
X83086820Y-92061313D01*
X83086820Y-92061313D01*
G37*
G36*
X85626820Y-92061313D02*
X85626823Y-92061314D01*
X85626824Y-92061314D01*
X85787238Y-92109975D01*
X85787240Y-92109976D01*
X85787243Y-92109977D01*
X85935078Y-92188995D01*
X86064659Y-92295341D01*
X86171005Y-92424922D01*
X86250023Y-92572756D01*
X86298687Y-92733179D01*
X86311000Y-92858196D01*
X86311000Y-94341804D01*
X86298687Y-94466821D01*
X86250023Y-94627244D01*
X86171005Y-94775078D01*
X86064659Y-94904659D01*
X85935078Y-95011005D01*
X85787244Y-95090023D01*
X85787241Y-95090024D01*
X85787239Y-95090025D01*
X85626825Y-95138686D01*
X85626824Y-95138686D01*
X85626821Y-95138687D01*
X85460000Y-95155117D01*
X85293180Y-95138687D01*
X85293177Y-95138686D01*
X85293176Y-95138686D01*
X85132762Y-95090025D01*
X85132760Y-95090024D01*
X85132757Y-95090023D01*
X84984923Y-95011005D01*
X84855342Y-94904659D01*
X84748996Y-94775078D01*
X84669978Y-94627244D01*
X84621314Y-94466821D01*
X84609001Y-94341804D01*
X84609000Y-92858197D01*
X84621313Y-92733180D01*
X84621314Y-92733176D01*
X84669975Y-92572762D01*
X84669976Y-92572760D01*
X84669977Y-92572757D01*
X84748995Y-92424922D01*
X84855341Y-92295341D01*
X84984922Y-92188995D01*
X85132756Y-92109977D01*
X85132759Y-92109976D01*
X85132761Y-92109975D01*
X85293175Y-92061314D01*
X85293176Y-92061314D01*
X85293179Y-92061313D01*
X85460000Y-92044883D01*
X85626820Y-92061313D01*
X85626820Y-92061313D01*
G37*
G36*
X88166820Y-92061313D02*
X88166823Y-92061314D01*
X88166824Y-92061314D01*
X88327238Y-92109975D01*
X88327240Y-92109976D01*
X88327243Y-92109977D01*
X88475078Y-92188995D01*
X88604659Y-92295341D01*
X88711005Y-92424922D01*
X88790023Y-92572756D01*
X88838687Y-92733179D01*
X88851000Y-92858196D01*
X88851000Y-94341804D01*
X88838687Y-94466821D01*
X88790023Y-94627244D01*
X88711005Y-94775078D01*
X88604659Y-94904659D01*
X88475078Y-95011005D01*
X88327244Y-95090023D01*
X88327241Y-95090024D01*
X88327239Y-95090025D01*
X88166825Y-95138686D01*
X88166824Y-95138686D01*
X88166821Y-95138687D01*
X88000000Y-95155117D01*
X87833180Y-95138687D01*
X87833177Y-95138686D01*
X87833176Y-95138686D01*
X87672762Y-95090025D01*
X87672760Y-95090024D01*
X87672757Y-95090023D01*
X87524923Y-95011005D01*
X87395342Y-94904659D01*
X87288996Y-94775078D01*
X87209978Y-94627244D01*
X87161314Y-94466821D01*
X87149001Y-94341804D01*
X87149000Y-92858197D01*
X87161313Y-92733180D01*
X87161314Y-92733176D01*
X87209975Y-92572762D01*
X87209976Y-92572760D01*
X87209977Y-92572757D01*
X87288995Y-92424922D01*
X87395341Y-92295341D01*
X87524922Y-92188995D01*
X87672756Y-92109977D01*
X87672759Y-92109976D01*
X87672761Y-92109975D01*
X87833175Y-92061314D01*
X87833176Y-92061314D01*
X87833179Y-92061313D01*
X88000000Y-92044883D01*
X88166820Y-92061313D01*
X88166820Y-92061313D01*
G37*
G36*
X90706820Y-92061313D02*
X90706823Y-92061314D01*
X90706824Y-92061314D01*
X90867238Y-92109975D01*
X90867240Y-92109976D01*
X90867243Y-92109977D01*
X91015078Y-92188995D01*
X91144659Y-92295341D01*
X91251005Y-92424922D01*
X91330023Y-92572756D01*
X91378687Y-92733179D01*
X91391000Y-92858196D01*
X91391000Y-94341804D01*
X91378687Y-94466821D01*
X91330023Y-94627244D01*
X91251005Y-94775078D01*
X91144659Y-94904659D01*
X91015078Y-95011005D01*
X90867244Y-95090023D01*
X90867241Y-95090024D01*
X90867239Y-95090025D01*
X90706825Y-95138686D01*
X90706824Y-95138686D01*
X90706821Y-95138687D01*
X90540000Y-95155117D01*
X90373180Y-95138687D01*
X90373177Y-95138686D01*
X90373176Y-95138686D01*
X90212762Y-95090025D01*
X90212760Y-95090024D01*
X90212757Y-95090023D01*
X90064923Y-95011005D01*
X89935342Y-94904659D01*
X89828996Y-94775078D01*
X89749978Y-94627244D01*
X89701314Y-94466821D01*
X89689001Y-94341804D01*
X89689000Y-92858197D01*
X89701313Y-92733180D01*
X89701314Y-92733176D01*
X89749975Y-92572762D01*
X89749976Y-92572760D01*
X89749977Y-92572757D01*
X89828995Y-92424922D01*
X89935341Y-92295341D01*
X90064922Y-92188995D01*
X90212756Y-92109977D01*
X90212759Y-92109976D01*
X90212761Y-92109975D01*
X90373175Y-92061314D01*
X90373176Y-92061314D01*
X90373179Y-92061313D01*
X90540000Y-92044883D01*
X90706820Y-92061313D01*
X90706820Y-92061313D01*
G37*
G36*
X93246820Y-92061313D02*
X93246823Y-92061314D01*
X93246824Y-92061314D01*
X93407238Y-92109975D01*
X93407240Y-92109976D01*
X93407243Y-92109977D01*
X93555078Y-92188995D01*
X93684659Y-92295341D01*
X93791005Y-92424922D01*
X93870023Y-92572756D01*
X93918687Y-92733179D01*
X93931000Y-92858196D01*
X93931000Y-94341804D01*
X93918687Y-94466821D01*
X93870023Y-94627244D01*
X93791005Y-94775078D01*
X93684659Y-94904659D01*
X93555078Y-95011005D01*
X93407244Y-95090023D01*
X93407241Y-95090024D01*
X93407239Y-95090025D01*
X93246825Y-95138686D01*
X93246824Y-95138686D01*
X93246821Y-95138687D01*
X93080000Y-95155117D01*
X92913180Y-95138687D01*
X92913177Y-95138686D01*
X92913176Y-95138686D01*
X92752762Y-95090025D01*
X92752760Y-95090024D01*
X92752757Y-95090023D01*
X92604923Y-95011005D01*
X92475342Y-94904659D01*
X92368996Y-94775078D01*
X92289978Y-94627244D01*
X92241314Y-94466821D01*
X92229001Y-94341804D01*
X92229000Y-92858197D01*
X92241313Y-92733180D01*
X92241314Y-92733176D01*
X92289975Y-92572762D01*
X92289976Y-92572760D01*
X92289977Y-92572757D01*
X92368995Y-92424922D01*
X92475341Y-92295341D01*
X92604922Y-92188995D01*
X92752756Y-92109977D01*
X92752759Y-92109976D01*
X92752761Y-92109975D01*
X92913175Y-92061314D01*
X92913176Y-92061314D01*
X92913179Y-92061313D01*
X93080000Y-92044883D01*
X93246820Y-92061313D01*
X93246820Y-92061313D01*
G37*
G36*
X95786820Y-92061313D02*
X95786823Y-92061314D01*
X95786824Y-92061314D01*
X95947238Y-92109975D01*
X95947240Y-92109976D01*
X95947243Y-92109977D01*
X96095078Y-92188995D01*
X96224659Y-92295341D01*
X96331005Y-92424922D01*
X96410023Y-92572756D01*
X96458687Y-92733179D01*
X96471000Y-92858196D01*
X96471000Y-94341804D01*
X96458687Y-94466821D01*
X96410023Y-94627244D01*
X96331005Y-94775078D01*
X96224659Y-94904659D01*
X96095078Y-95011005D01*
X95947244Y-95090023D01*
X95947241Y-95090024D01*
X95947239Y-95090025D01*
X95786825Y-95138686D01*
X95786824Y-95138686D01*
X95786821Y-95138687D01*
X95620000Y-95155117D01*
X95453180Y-95138687D01*
X95453177Y-95138686D01*
X95453176Y-95138686D01*
X95292762Y-95090025D01*
X95292760Y-95090024D01*
X95292757Y-95090023D01*
X95144923Y-95011005D01*
X95015342Y-94904659D01*
X94908996Y-94775078D01*
X94829978Y-94627244D01*
X94781314Y-94466821D01*
X94769001Y-94341804D01*
X94769000Y-92858197D01*
X94781313Y-92733180D01*
X94781314Y-92733176D01*
X94829975Y-92572762D01*
X94829976Y-92572760D01*
X94829977Y-92572757D01*
X94908995Y-92424922D01*
X95015341Y-92295341D01*
X95144922Y-92188995D01*
X95292756Y-92109977D01*
X95292759Y-92109976D01*
X95292761Y-92109975D01*
X95453175Y-92061314D01*
X95453176Y-92061314D01*
X95453179Y-92061313D01*
X95620000Y-92044883D01*
X95786820Y-92061313D01*
X95786820Y-92061313D01*
G37*
G36*
X100866820Y-92061313D02*
X100866823Y-92061314D01*
X100866824Y-92061314D01*
X101027238Y-92109975D01*
X101027240Y-92109976D01*
X101027243Y-92109977D01*
X101175078Y-92188995D01*
X101304659Y-92295341D01*
X101411005Y-92424922D01*
X101490023Y-92572756D01*
X101538687Y-92733179D01*
X101551000Y-92858196D01*
X101551000Y-94341804D01*
X101538687Y-94466821D01*
X101490023Y-94627244D01*
X101411005Y-94775078D01*
X101304659Y-94904659D01*
X101175078Y-95011005D01*
X101027244Y-95090023D01*
X101027241Y-95090024D01*
X101027239Y-95090025D01*
X100866825Y-95138686D01*
X100866824Y-95138686D01*
X100866821Y-95138687D01*
X100700000Y-95155117D01*
X100533180Y-95138687D01*
X100533177Y-95138686D01*
X100533176Y-95138686D01*
X100372762Y-95090025D01*
X100372760Y-95090024D01*
X100372757Y-95090023D01*
X100224923Y-95011005D01*
X100095342Y-94904659D01*
X99988996Y-94775078D01*
X99909978Y-94627244D01*
X99861314Y-94466821D01*
X99849001Y-94341804D01*
X99849000Y-92858197D01*
X99861313Y-92733180D01*
X99861314Y-92733176D01*
X99909975Y-92572762D01*
X99909976Y-92572760D01*
X99909977Y-92572757D01*
X99988995Y-92424922D01*
X100095341Y-92295341D01*
X100224922Y-92188995D01*
X100372756Y-92109977D01*
X100372759Y-92109976D01*
X100372761Y-92109975D01*
X100533175Y-92061314D01*
X100533176Y-92061314D01*
X100533179Y-92061313D01*
X100700000Y-92044883D01*
X100866820Y-92061313D01*
X100866820Y-92061313D01*
G37*
G36*
X103406820Y-92061313D02*
X103406823Y-92061314D01*
X103406824Y-92061314D01*
X103567238Y-92109975D01*
X103567240Y-92109976D01*
X103567243Y-92109977D01*
X103715078Y-92188995D01*
X103844659Y-92295341D01*
X103951005Y-92424922D01*
X104030023Y-92572756D01*
X104078687Y-92733179D01*
X104091000Y-92858196D01*
X104091000Y-94341804D01*
X104078687Y-94466821D01*
X104030023Y-94627244D01*
X103951005Y-94775078D01*
X103844659Y-94904659D01*
X103715078Y-95011005D01*
X103567244Y-95090023D01*
X103567241Y-95090024D01*
X103567239Y-95090025D01*
X103406825Y-95138686D01*
X103406824Y-95138686D01*
X103406821Y-95138687D01*
X103240000Y-95155117D01*
X103073180Y-95138687D01*
X103073177Y-95138686D01*
X103073176Y-95138686D01*
X102912762Y-95090025D01*
X102912760Y-95090024D01*
X102912757Y-95090023D01*
X102764923Y-95011005D01*
X102635342Y-94904659D01*
X102528996Y-94775078D01*
X102449978Y-94627244D01*
X102401314Y-94466821D01*
X102389001Y-94341804D01*
X102389000Y-92858197D01*
X102401313Y-92733180D01*
X102401314Y-92733176D01*
X102449975Y-92572762D01*
X102449976Y-92572760D01*
X102449977Y-92572757D01*
X102528995Y-92424922D01*
X102635341Y-92295341D01*
X102764922Y-92188995D01*
X102912756Y-92109977D01*
X102912759Y-92109976D01*
X102912761Y-92109975D01*
X103073175Y-92061314D01*
X103073176Y-92061314D01*
X103073179Y-92061313D01*
X103240000Y-92044883D01*
X103406820Y-92061313D01*
X103406820Y-92061313D01*
G37*
G36*
X105946820Y-92061313D02*
X105946823Y-92061314D01*
X105946824Y-92061314D01*
X106107238Y-92109975D01*
X106107240Y-92109976D01*
X106107243Y-92109977D01*
X106255078Y-92188995D01*
X106384659Y-92295341D01*
X106491005Y-92424922D01*
X106570023Y-92572756D01*
X106618687Y-92733179D01*
X106631000Y-92858196D01*
X106631000Y-94341804D01*
X106618687Y-94466821D01*
X106570023Y-94627244D01*
X106491005Y-94775078D01*
X106384659Y-94904659D01*
X106255078Y-95011005D01*
X106107244Y-95090023D01*
X106107241Y-95090024D01*
X106107239Y-95090025D01*
X105946825Y-95138686D01*
X105946824Y-95138686D01*
X105946821Y-95138687D01*
X105780000Y-95155117D01*
X105613180Y-95138687D01*
X105613177Y-95138686D01*
X105613176Y-95138686D01*
X105452762Y-95090025D01*
X105452760Y-95090024D01*
X105452757Y-95090023D01*
X105304923Y-95011005D01*
X105175342Y-94904659D01*
X105068996Y-94775078D01*
X104989978Y-94627244D01*
X104941314Y-94466821D01*
X104929001Y-94341804D01*
X104929000Y-92858197D01*
X104941313Y-92733180D01*
X104941314Y-92733176D01*
X104989975Y-92572762D01*
X104989976Y-92572760D01*
X104989977Y-92572757D01*
X105068995Y-92424922D01*
X105175341Y-92295341D01*
X105304922Y-92188995D01*
X105452756Y-92109977D01*
X105452759Y-92109976D01*
X105452761Y-92109975D01*
X105613175Y-92061314D01*
X105613176Y-92061314D01*
X105613179Y-92061313D01*
X105780000Y-92044883D01*
X105946820Y-92061313D01*
X105946820Y-92061313D01*
G37*
G36*
X108486820Y-92061313D02*
X108486823Y-92061314D01*
X108486824Y-92061314D01*
X108647238Y-92109975D01*
X108647240Y-92109976D01*
X108647243Y-92109977D01*
X108795078Y-92188995D01*
X108924659Y-92295341D01*
X109031005Y-92424922D01*
X109110023Y-92572756D01*
X109158687Y-92733179D01*
X109171000Y-92858196D01*
X109171000Y-94341804D01*
X109158687Y-94466821D01*
X109110023Y-94627244D01*
X109031005Y-94775078D01*
X108924659Y-94904659D01*
X108795078Y-95011005D01*
X108647244Y-95090023D01*
X108647241Y-95090024D01*
X108647239Y-95090025D01*
X108486825Y-95138686D01*
X108486824Y-95138686D01*
X108486821Y-95138687D01*
X108320000Y-95155117D01*
X108153180Y-95138687D01*
X108153177Y-95138686D01*
X108153176Y-95138686D01*
X107992762Y-95090025D01*
X107992760Y-95090024D01*
X107992757Y-95090023D01*
X107844923Y-95011005D01*
X107715342Y-94904659D01*
X107608996Y-94775078D01*
X107529978Y-94627244D01*
X107481314Y-94466821D01*
X107469001Y-94341804D01*
X107469000Y-92858197D01*
X107481313Y-92733180D01*
X107481314Y-92733176D01*
X107529975Y-92572762D01*
X107529976Y-92572760D01*
X107529977Y-92572757D01*
X107608995Y-92424922D01*
X107715341Y-92295341D01*
X107844922Y-92188995D01*
X107992756Y-92109977D01*
X107992759Y-92109976D01*
X107992761Y-92109975D01*
X108153175Y-92061314D01*
X108153176Y-92061314D01*
X108153179Y-92061313D01*
X108320000Y-92044883D01*
X108486820Y-92061313D01*
X108486820Y-92061313D01*
G37*
G36*
X111026820Y-92061313D02*
X111026823Y-92061314D01*
X111026824Y-92061314D01*
X111187238Y-92109975D01*
X111187240Y-92109976D01*
X111187243Y-92109977D01*
X111335078Y-92188995D01*
X111464659Y-92295341D01*
X111571005Y-92424922D01*
X111650023Y-92572756D01*
X111698687Y-92733179D01*
X111711000Y-92858196D01*
X111711000Y-94341804D01*
X111698687Y-94466821D01*
X111650023Y-94627244D01*
X111571005Y-94775078D01*
X111464659Y-94904659D01*
X111335078Y-95011005D01*
X111187244Y-95090023D01*
X111187241Y-95090024D01*
X111187239Y-95090025D01*
X111026825Y-95138686D01*
X111026824Y-95138686D01*
X111026821Y-95138687D01*
X110860000Y-95155117D01*
X110693180Y-95138687D01*
X110693177Y-95138686D01*
X110693176Y-95138686D01*
X110532762Y-95090025D01*
X110532760Y-95090024D01*
X110532757Y-95090023D01*
X110384923Y-95011005D01*
X110255342Y-94904659D01*
X110148996Y-94775078D01*
X110069978Y-94627244D01*
X110021314Y-94466821D01*
X110009001Y-94341804D01*
X110009000Y-92858197D01*
X110021313Y-92733180D01*
X110021314Y-92733176D01*
X110069975Y-92572762D01*
X110069976Y-92572760D01*
X110069977Y-92572757D01*
X110148995Y-92424922D01*
X110255341Y-92295341D01*
X110384922Y-92188995D01*
X110532756Y-92109977D01*
X110532759Y-92109976D01*
X110532761Y-92109975D01*
X110693175Y-92061314D01*
X110693176Y-92061314D01*
X110693179Y-92061313D01*
X110860000Y-92044883D01*
X111026820Y-92061313D01*
X111026820Y-92061313D01*
G37*
G36*
X113566820Y-92061313D02*
X113566823Y-92061314D01*
X113566824Y-92061314D01*
X113727238Y-92109975D01*
X113727240Y-92109976D01*
X113727243Y-92109977D01*
X113875078Y-92188995D01*
X114004659Y-92295341D01*
X114111005Y-92424922D01*
X114190023Y-92572756D01*
X114238687Y-92733179D01*
X114251000Y-92858196D01*
X114251000Y-94341804D01*
X114238687Y-94466821D01*
X114190023Y-94627244D01*
X114111005Y-94775078D01*
X114004659Y-94904659D01*
X113875078Y-95011005D01*
X113727244Y-95090023D01*
X113727241Y-95090024D01*
X113727239Y-95090025D01*
X113566825Y-95138686D01*
X113566824Y-95138686D01*
X113566821Y-95138687D01*
X113400000Y-95155117D01*
X113233180Y-95138687D01*
X113233177Y-95138686D01*
X113233176Y-95138686D01*
X113072762Y-95090025D01*
X113072760Y-95090024D01*
X113072757Y-95090023D01*
X112924923Y-95011005D01*
X112795342Y-94904659D01*
X112688996Y-94775078D01*
X112609978Y-94627244D01*
X112561314Y-94466821D01*
X112549001Y-94341804D01*
X112549000Y-92858197D01*
X112561313Y-92733180D01*
X112561314Y-92733176D01*
X112609975Y-92572762D01*
X112609976Y-92572760D01*
X112609977Y-92572757D01*
X112688995Y-92424922D01*
X112795341Y-92295341D01*
X112924922Y-92188995D01*
X113072756Y-92109977D01*
X113072759Y-92109976D01*
X113072761Y-92109975D01*
X113233175Y-92061314D01*
X113233176Y-92061314D01*
X113233179Y-92061313D01*
X113400000Y-92044883D01*
X113566820Y-92061313D01*
X113566820Y-92061313D01*
G37*
G36*
X116106820Y-92061313D02*
X116106823Y-92061314D01*
X116106824Y-92061314D01*
X116267238Y-92109975D01*
X116267240Y-92109976D01*
X116267243Y-92109977D01*
X116415078Y-92188995D01*
X116544659Y-92295341D01*
X116651005Y-92424922D01*
X116730023Y-92572756D01*
X116778687Y-92733179D01*
X116791000Y-92858196D01*
X116791000Y-94341804D01*
X116778687Y-94466821D01*
X116730023Y-94627244D01*
X116651005Y-94775078D01*
X116544659Y-94904659D01*
X116415078Y-95011005D01*
X116267244Y-95090023D01*
X116267241Y-95090024D01*
X116267239Y-95090025D01*
X116106825Y-95138686D01*
X116106824Y-95138686D01*
X116106821Y-95138687D01*
X115940000Y-95155117D01*
X115773180Y-95138687D01*
X115773177Y-95138686D01*
X115773176Y-95138686D01*
X115612762Y-95090025D01*
X115612760Y-95090024D01*
X115612757Y-95090023D01*
X115464923Y-95011005D01*
X115335342Y-94904659D01*
X115228996Y-94775078D01*
X115149978Y-94627244D01*
X115101314Y-94466821D01*
X115089001Y-94341804D01*
X115089000Y-92858197D01*
X115101313Y-92733180D01*
X115101314Y-92733176D01*
X115149975Y-92572762D01*
X115149976Y-92572760D01*
X115149977Y-92572757D01*
X115228995Y-92424922D01*
X115335341Y-92295341D01*
X115464922Y-92188995D01*
X115612756Y-92109977D01*
X115612759Y-92109976D01*
X115612761Y-92109975D01*
X115773175Y-92061314D01*
X115773176Y-92061314D01*
X115773179Y-92061313D01*
X115940000Y-92044883D01*
X116106820Y-92061313D01*
X116106820Y-92061313D01*
G37*
G36*
X118646820Y-92061313D02*
X118646823Y-92061314D01*
X118646824Y-92061314D01*
X118807238Y-92109975D01*
X118807240Y-92109976D01*
X118807243Y-92109977D01*
X118955078Y-92188995D01*
X119084659Y-92295341D01*
X119191005Y-92424922D01*
X119270023Y-92572756D01*
X119318687Y-92733179D01*
X119331000Y-92858196D01*
X119331000Y-94341804D01*
X119318687Y-94466821D01*
X119270023Y-94627244D01*
X119191005Y-94775078D01*
X119084659Y-94904659D01*
X118955078Y-95011005D01*
X118807244Y-95090023D01*
X118807241Y-95090024D01*
X118807239Y-95090025D01*
X118646825Y-95138686D01*
X118646824Y-95138686D01*
X118646821Y-95138687D01*
X118480000Y-95155117D01*
X118313180Y-95138687D01*
X118313177Y-95138686D01*
X118313176Y-95138686D01*
X118152762Y-95090025D01*
X118152760Y-95090024D01*
X118152757Y-95090023D01*
X118004923Y-95011005D01*
X117875342Y-94904659D01*
X117768996Y-94775078D01*
X117689978Y-94627244D01*
X117641314Y-94466821D01*
X117629001Y-94341804D01*
X117629000Y-92858197D01*
X117641313Y-92733180D01*
X117641314Y-92733176D01*
X117689975Y-92572762D01*
X117689976Y-92572760D01*
X117689977Y-92572757D01*
X117768995Y-92424922D01*
X117875341Y-92295341D01*
X118004922Y-92188995D01*
X118152756Y-92109977D01*
X118152759Y-92109976D01*
X118152761Y-92109975D01*
X118313175Y-92061314D01*
X118313176Y-92061314D01*
X118313179Y-92061313D01*
X118480000Y-92044883D01*
X118646820Y-92061313D01*
X118646820Y-92061313D01*
G37*
G36*
X121186820Y-92061313D02*
X121186823Y-92061314D01*
X121186824Y-92061314D01*
X121347238Y-92109975D01*
X121347240Y-92109976D01*
X121347243Y-92109977D01*
X121495078Y-92188995D01*
X121624659Y-92295341D01*
X121731005Y-92424922D01*
X121810023Y-92572756D01*
X121858687Y-92733179D01*
X121871000Y-92858196D01*
X121871000Y-94341804D01*
X121858687Y-94466821D01*
X121810023Y-94627244D01*
X121731005Y-94775078D01*
X121624659Y-94904659D01*
X121495078Y-95011005D01*
X121347244Y-95090023D01*
X121347241Y-95090024D01*
X121347239Y-95090025D01*
X121186825Y-95138686D01*
X121186824Y-95138686D01*
X121186821Y-95138687D01*
X121020000Y-95155117D01*
X120853180Y-95138687D01*
X120853177Y-95138686D01*
X120853176Y-95138686D01*
X120692762Y-95090025D01*
X120692760Y-95090024D01*
X120692757Y-95090023D01*
X120544923Y-95011005D01*
X120415342Y-94904659D01*
X120308996Y-94775078D01*
X120229978Y-94627244D01*
X120181314Y-94466821D01*
X120169001Y-94341804D01*
X120169000Y-92858197D01*
X120181313Y-92733180D01*
X120181314Y-92733176D01*
X120229975Y-92572762D01*
X120229976Y-92572760D01*
X120229977Y-92572757D01*
X120308995Y-92424922D01*
X120415341Y-92295341D01*
X120544922Y-92188995D01*
X120692756Y-92109977D01*
X120692759Y-92109976D01*
X120692761Y-92109975D01*
X120853175Y-92061314D01*
X120853176Y-92061314D01*
X120853179Y-92061313D01*
X121020000Y-92044883D01*
X121186820Y-92061313D01*
X121186820Y-92061313D01*
G37*
G36*
X98326820Y-92061313D02*
X98326823Y-92061314D01*
X98326824Y-92061314D01*
X98487238Y-92109975D01*
X98487240Y-92109976D01*
X98487243Y-92109977D01*
X98635078Y-92188995D01*
X98764659Y-92295341D01*
X98871005Y-92424922D01*
X98950023Y-92572756D01*
X98998687Y-92733179D01*
X99011000Y-92858196D01*
X99011000Y-94341804D01*
X98998687Y-94466821D01*
X98950023Y-94627244D01*
X98871005Y-94775078D01*
X98764659Y-94904659D01*
X98635078Y-95011005D01*
X98487244Y-95090023D01*
X98487241Y-95090024D01*
X98487239Y-95090025D01*
X98326825Y-95138686D01*
X98326824Y-95138686D01*
X98326821Y-95138687D01*
X98160000Y-95155117D01*
X97993180Y-95138687D01*
X97993177Y-95138686D01*
X97993176Y-95138686D01*
X97832762Y-95090025D01*
X97832760Y-95090024D01*
X97832757Y-95090023D01*
X97684923Y-95011005D01*
X97555342Y-94904659D01*
X97448996Y-94775078D01*
X97369978Y-94627244D01*
X97321314Y-94466821D01*
X97309001Y-94341804D01*
X97309000Y-92858197D01*
X97321313Y-92733180D01*
X97321314Y-92733176D01*
X97369975Y-92572762D01*
X97369976Y-92572760D01*
X97369977Y-92572757D01*
X97448995Y-92424922D01*
X97555341Y-92295341D01*
X97684922Y-92188995D01*
X97832756Y-92109977D01*
X97832759Y-92109976D01*
X97832761Y-92109975D01*
X97993175Y-92061314D01*
X97993176Y-92061314D01*
X97993179Y-92061313D01*
X98160000Y-92044883D01*
X98326820Y-92061313D01*
X98326820Y-92061313D01*
G37*
G36*
X124411000Y-95151000D02*
X122709000Y-95151000D01*
X122709000Y-92049000D01*
X124411000Y-92049000D01*
X124411000Y-95151000D01*
X124411000Y-95151000D01*
G37*
G36*
X151431000Y-89561000D02*
X149029000Y-89561000D01*
X149029000Y-87159000D01*
X151431000Y-87159000D01*
X151431000Y-89561000D01*
X151431000Y-89561000D01*
G37*
G36*
X144331000Y-89561000D02*
X141929000Y-89561000D01*
X141929000Y-87159000D01*
X144331000Y-87159000D01*
X144331000Y-89561000D01*
X144331000Y-89561000D01*
G37*
G36*
X92671000Y-87251000D02*
X91769000Y-87251000D01*
X91769000Y-86249000D01*
X92671000Y-86249000D01*
X92671000Y-87251000D01*
X92671000Y-87251000D01*
G37*
G36*
X88421000Y-87231000D02*
X87519000Y-87231000D01*
X87519000Y-86229000D01*
X88421000Y-86229000D01*
X88421000Y-87231000D01*
X88421000Y-87231000D01*
G37*
G36*
X89821000Y-87231000D02*
X88919000Y-87231000D01*
X88919000Y-86229000D01*
X89821000Y-86229000D01*
X89821000Y-87231000D01*
X89821000Y-87231000D01*
G37*
G36*
X95491000Y-87221000D02*
X94589000Y-87221000D01*
X94589000Y-86219000D01*
X95491000Y-86219000D01*
X95491000Y-87221000D01*
X95491000Y-87221000D01*
G37*
G36*
X88421000Y-85431000D02*
X87519000Y-85431000D01*
X87519000Y-84429000D01*
X88421000Y-84429000D01*
X88421000Y-85431000D01*
X88421000Y-85431000D01*
G37*
G36*
X89821000Y-85431000D02*
X88919000Y-85431000D01*
X88919000Y-84429000D01*
X89821000Y-84429000D01*
X89821000Y-85431000D01*
X89821000Y-85431000D01*
G37*
G36*
X95491000Y-85421000D02*
X94589000Y-85421000D01*
X94589000Y-84419000D01*
X95491000Y-84419000D01*
X95491000Y-85421000D01*
X95491000Y-85421000D01*
G37*
G36*
X91721000Y-85251000D02*
X90819000Y-85251000D01*
X90819000Y-84249000D01*
X91721000Y-84249000D01*
X91721000Y-85251000D01*
X91721000Y-85251000D01*
G37*
G36*
X93621000Y-85251000D02*
X92719000Y-85251000D01*
X92719000Y-84249000D01*
X93621000Y-84249000D01*
X93621000Y-85251000D01*
X93621000Y-85251000D01*
G37*
G36*
X144331000Y-82461000D02*
X141929000Y-82461000D01*
X141929000Y-80059000D01*
X144331000Y-80059000D01*
X144331000Y-82461000D01*
X144331000Y-82461000D01*
G37*
G36*
X151431000Y-82461000D02*
X149029000Y-82461000D01*
X149029000Y-80059000D01*
X151431000Y-80059000D01*
X151431000Y-82461000D01*
X151431000Y-82461000D01*
G37*
G36*
X144111000Y-79281000D02*
X143209000Y-79281000D01*
X143209000Y-78279000D01*
X144111000Y-78279000D01*
X144111000Y-79281000D01*
X144111000Y-79281000D01*
G37*
G36*
X146741000Y-79131000D02*
X145839000Y-79131000D01*
X145839000Y-78129000D01*
X146741000Y-78129000D01*
X146741000Y-79131000D01*
X146741000Y-79131000D01*
G37*
G36*
X146741000Y-77331000D02*
X145839000Y-77331000D01*
X145839000Y-76329000D01*
X146741000Y-76329000D01*
X146741000Y-77331000D01*
X146741000Y-77331000D01*
G37*
G36*
X143161000Y-77281000D02*
X142259000Y-77281000D01*
X142259000Y-76279000D01*
X143161000Y-76279000D01*
X143161000Y-77281000D01*
X143161000Y-77281000D01*
G37*
G36*
X145061000Y-77281000D02*
X144159000Y-77281000D01*
X144159000Y-76279000D01*
X145061000Y-76279000D01*
X145061000Y-77281000D01*
X145061000Y-77281000D01*
G37*
G36*
X91051000Y-76471000D02*
X90049000Y-76471000D01*
X90049000Y-75569000D01*
X91051000Y-75569000D01*
X91051000Y-76471000D01*
X91051000Y-76471000D01*
G37*
G36*
X92851000Y-76471000D02*
X91849000Y-76471000D01*
X91849000Y-75569000D01*
X92851000Y-75569000D01*
X92851000Y-76471000D01*
X92851000Y-76471000D01*
G37*
G36*
X79600293Y-71285323D02*
X79607311Y-71287452D01*
X79621080Y-71294811D01*
X79643719Y-71304187D01*
X79667753Y-71308967D01*
X79692257Y-71308966D01*
X79716290Y-71304184D01*
X79738920Y-71294811D01*
X79752689Y-71287452D01*
X79759707Y-71285323D01*
X79773140Y-71284000D01*
X80086860Y-71284000D01*
X80100293Y-71285323D01*
X80107311Y-71287452D01*
X80121080Y-71294811D01*
X80143719Y-71304187D01*
X80167753Y-71308967D01*
X80192257Y-71308966D01*
X80216290Y-71304184D01*
X80238920Y-71294811D01*
X80252689Y-71287452D01*
X80259707Y-71285323D01*
X80273140Y-71284000D01*
X80586860Y-71284000D01*
X80600293Y-71285323D01*
X80607311Y-71287452D01*
X80621080Y-71294811D01*
X80643719Y-71304187D01*
X80667753Y-71308967D01*
X80692257Y-71308966D01*
X80716290Y-71304184D01*
X80738920Y-71294811D01*
X80752689Y-71287452D01*
X80759707Y-71285323D01*
X80773140Y-71284000D01*
X81086860Y-71284000D01*
X81100293Y-71285323D01*
X81107311Y-71287452D01*
X81121080Y-71294811D01*
X81143719Y-71304187D01*
X81167753Y-71308967D01*
X81192257Y-71308966D01*
X81216290Y-71304184D01*
X81238920Y-71294811D01*
X81252689Y-71287452D01*
X81259707Y-71285323D01*
X81273140Y-71284000D01*
X81586860Y-71284000D01*
X81600293Y-71285323D01*
X81607311Y-71287452D01*
X81621080Y-71294811D01*
X81643719Y-71304187D01*
X81667753Y-71308967D01*
X81692257Y-71308966D01*
X81716290Y-71304184D01*
X81738920Y-71294811D01*
X81752689Y-71287452D01*
X81759707Y-71285323D01*
X81773140Y-71284000D01*
X82086860Y-71284000D01*
X82100293Y-71285323D01*
X82107311Y-71287452D01*
X82121080Y-71294811D01*
X82143719Y-71304187D01*
X82167753Y-71308967D01*
X82192257Y-71308966D01*
X82216290Y-71304184D01*
X82238920Y-71294811D01*
X82252689Y-71287452D01*
X82259707Y-71285323D01*
X82273140Y-71284000D01*
X82586860Y-71284000D01*
X82600293Y-71285323D01*
X82607311Y-71287452D01*
X82621080Y-71294811D01*
X82643719Y-71304187D01*
X82667753Y-71308967D01*
X82692257Y-71308966D01*
X82716290Y-71304184D01*
X82738920Y-71294811D01*
X82752689Y-71287452D01*
X82759707Y-71285323D01*
X82773140Y-71284000D01*
X83086860Y-71284000D01*
X83100293Y-71285323D01*
X83107311Y-71287452D01*
X83121080Y-71294811D01*
X83143719Y-71304187D01*
X83167753Y-71308967D01*
X83192257Y-71308966D01*
X83216290Y-71304184D01*
X83238920Y-71294811D01*
X83252689Y-71287452D01*
X83259707Y-71285323D01*
X83273140Y-71284000D01*
X83586860Y-71284000D01*
X83600293Y-71285323D01*
X83607311Y-71287452D01*
X83621080Y-71294811D01*
X83643719Y-71304187D01*
X83667753Y-71308967D01*
X83692257Y-71308966D01*
X83716290Y-71304184D01*
X83738920Y-71294811D01*
X83752689Y-71287452D01*
X83759707Y-71285323D01*
X83773140Y-71284000D01*
X84086860Y-71284000D01*
X84100293Y-71285323D01*
X84107311Y-71287452D01*
X84121080Y-71294811D01*
X84143719Y-71304187D01*
X84167753Y-71308967D01*
X84192257Y-71308966D01*
X84216290Y-71304184D01*
X84238920Y-71294811D01*
X84252689Y-71287452D01*
X84259707Y-71285323D01*
X84273140Y-71284000D01*
X84586860Y-71284000D01*
X84600293Y-71285323D01*
X84607311Y-71287452D01*
X84621080Y-71294811D01*
X84643719Y-71304187D01*
X84667753Y-71308967D01*
X84692257Y-71308966D01*
X84716290Y-71304184D01*
X84738920Y-71294811D01*
X84752689Y-71287452D01*
X84759707Y-71285323D01*
X84773140Y-71284000D01*
X85086860Y-71284000D01*
X85100293Y-71285323D01*
X85107311Y-71287452D01*
X85121080Y-71294811D01*
X85143719Y-71304187D01*
X85167753Y-71308967D01*
X85192257Y-71308966D01*
X85216290Y-71304184D01*
X85238920Y-71294811D01*
X85252689Y-71287452D01*
X85259707Y-71285323D01*
X85273140Y-71284000D01*
X85586860Y-71284000D01*
X85600293Y-71285323D01*
X85607311Y-71287452D01*
X85621080Y-71294811D01*
X85643719Y-71304187D01*
X85667753Y-71308967D01*
X85692257Y-71308966D01*
X85716290Y-71304184D01*
X85738920Y-71294811D01*
X85752689Y-71287452D01*
X85759707Y-71285323D01*
X85773140Y-71284000D01*
X86086860Y-71284000D01*
X86100293Y-71285323D01*
X86107311Y-71287452D01*
X86121080Y-71294811D01*
X86143719Y-71304187D01*
X86167753Y-71308967D01*
X86192257Y-71308966D01*
X86216290Y-71304184D01*
X86238920Y-71294811D01*
X86252689Y-71287452D01*
X86259707Y-71285323D01*
X86273140Y-71284000D01*
X86586860Y-71284000D01*
X86600293Y-71285323D01*
X86607311Y-71287452D01*
X86621080Y-71294811D01*
X86643719Y-71304187D01*
X86667753Y-71308967D01*
X86692257Y-71308966D01*
X86716290Y-71304184D01*
X86738920Y-71294811D01*
X86752689Y-71287452D01*
X86759707Y-71285323D01*
X86773140Y-71284000D01*
X87086860Y-71284000D01*
X87100293Y-71285323D01*
X87107311Y-71287452D01*
X87121080Y-71294811D01*
X87143719Y-71304187D01*
X87167753Y-71308967D01*
X87192257Y-71308966D01*
X87216290Y-71304184D01*
X87238920Y-71294811D01*
X87252689Y-71287452D01*
X87259707Y-71285323D01*
X87273140Y-71284000D01*
X87586860Y-71284000D01*
X87600293Y-71285323D01*
X87607311Y-71287452D01*
X87621080Y-71294811D01*
X87643719Y-71304187D01*
X87667753Y-71308967D01*
X87692257Y-71308966D01*
X87716290Y-71304184D01*
X87738920Y-71294811D01*
X87752689Y-71287452D01*
X87759707Y-71285323D01*
X87773140Y-71284000D01*
X88086860Y-71284000D01*
X88100293Y-71285323D01*
X88107311Y-71287452D01*
X88121080Y-71294811D01*
X88143719Y-71304187D01*
X88167753Y-71308967D01*
X88192257Y-71308966D01*
X88216290Y-71304184D01*
X88238920Y-71294811D01*
X88252689Y-71287452D01*
X88259707Y-71285323D01*
X88273140Y-71284000D01*
X88586860Y-71284000D01*
X88600293Y-71285323D01*
X88607311Y-71287452D01*
X88621080Y-71294811D01*
X88643719Y-71304187D01*
X88667753Y-71308967D01*
X88692257Y-71308966D01*
X88716290Y-71304184D01*
X88738920Y-71294811D01*
X88752689Y-71287452D01*
X88759707Y-71285323D01*
X88773140Y-71284000D01*
X89086860Y-71284000D01*
X89100293Y-71285323D01*
X89107311Y-71287452D01*
X89121080Y-71294811D01*
X89143719Y-71304187D01*
X89167753Y-71308967D01*
X89192257Y-71308966D01*
X89216290Y-71304184D01*
X89238920Y-71294811D01*
X89252689Y-71287452D01*
X89259707Y-71285323D01*
X89273140Y-71284000D01*
X89586860Y-71284000D01*
X89600293Y-71285323D01*
X89607311Y-71287452D01*
X89621080Y-71294811D01*
X89643719Y-71304187D01*
X89667753Y-71308967D01*
X89692257Y-71308966D01*
X89716290Y-71304184D01*
X89738920Y-71294811D01*
X89752689Y-71287452D01*
X89759707Y-71285323D01*
X89773140Y-71284000D01*
X90086860Y-71284000D01*
X90100293Y-71285323D01*
X90107311Y-71287452D01*
X90121080Y-71294811D01*
X90143719Y-71304187D01*
X90167753Y-71308967D01*
X90192257Y-71308966D01*
X90216290Y-71304184D01*
X90238920Y-71294811D01*
X90252689Y-71287452D01*
X90259707Y-71285323D01*
X90273140Y-71284000D01*
X90586860Y-71284000D01*
X90600293Y-71285323D01*
X90607311Y-71287452D01*
X90621080Y-71294811D01*
X90643719Y-71304187D01*
X90667753Y-71308967D01*
X90692257Y-71308966D01*
X90716290Y-71304184D01*
X90738920Y-71294811D01*
X90752689Y-71287452D01*
X90759707Y-71285323D01*
X90773140Y-71284000D01*
X91086860Y-71284000D01*
X91100293Y-71285323D01*
X91107311Y-71287452D01*
X91121080Y-71294811D01*
X91143719Y-71304187D01*
X91167753Y-71308967D01*
X91192257Y-71308966D01*
X91216290Y-71304184D01*
X91238920Y-71294811D01*
X91252689Y-71287452D01*
X91259707Y-71285323D01*
X91273140Y-71284000D01*
X91586860Y-71284000D01*
X91600293Y-71285323D01*
X91607312Y-71287452D01*
X91613775Y-71290907D01*
X91619442Y-71295558D01*
X91624093Y-71301225D01*
X91627548Y-71307688D01*
X91629677Y-71314707D01*
X91631000Y-71328140D01*
X91631000Y-72941860D01*
X91629677Y-72955293D01*
X91627548Y-72962312D01*
X91624093Y-72968775D01*
X91619442Y-72974442D01*
X91613775Y-72979093D01*
X91607312Y-72982548D01*
X91600293Y-72984677D01*
X91586860Y-72986000D01*
X91273140Y-72986000D01*
X91259707Y-72984677D01*
X91252689Y-72982548D01*
X91238920Y-72975189D01*
X91216281Y-72965813D01*
X91192247Y-72961033D01*
X91167743Y-72961034D01*
X91143710Y-72965816D01*
X91121080Y-72975189D01*
X91107311Y-72982548D01*
X91100293Y-72984677D01*
X91086860Y-72986000D01*
X90773140Y-72986000D01*
X90759707Y-72984677D01*
X90752689Y-72982548D01*
X90738920Y-72975189D01*
X90716281Y-72965813D01*
X90692247Y-72961033D01*
X90667743Y-72961034D01*
X90643710Y-72965816D01*
X90621080Y-72975189D01*
X90607311Y-72982548D01*
X90600293Y-72984677D01*
X90586860Y-72986000D01*
X90273140Y-72986000D01*
X90259707Y-72984677D01*
X90252689Y-72982548D01*
X90238920Y-72975189D01*
X90216281Y-72965813D01*
X90192247Y-72961033D01*
X90167743Y-72961034D01*
X90143710Y-72965816D01*
X90121080Y-72975189D01*
X90107311Y-72982548D01*
X90100293Y-72984677D01*
X90086860Y-72986000D01*
X89773140Y-72986000D01*
X89759707Y-72984677D01*
X89752689Y-72982548D01*
X89738920Y-72975189D01*
X89716281Y-72965813D01*
X89692247Y-72961033D01*
X89667743Y-72961034D01*
X89643710Y-72965816D01*
X89621080Y-72975189D01*
X89607311Y-72982548D01*
X89600293Y-72984677D01*
X89586860Y-72986000D01*
X89273140Y-72986000D01*
X89259707Y-72984677D01*
X89252689Y-72982548D01*
X89238920Y-72975189D01*
X89216281Y-72965813D01*
X89192247Y-72961033D01*
X89167743Y-72961034D01*
X89143710Y-72965816D01*
X89121080Y-72975189D01*
X89107311Y-72982548D01*
X89100293Y-72984677D01*
X89086860Y-72986000D01*
X88773140Y-72986000D01*
X88759707Y-72984677D01*
X88752689Y-72982548D01*
X88738920Y-72975189D01*
X88716281Y-72965813D01*
X88692247Y-72961033D01*
X88667743Y-72961034D01*
X88643710Y-72965816D01*
X88621080Y-72975189D01*
X88607311Y-72982548D01*
X88600293Y-72984677D01*
X88586860Y-72986000D01*
X88273140Y-72986000D01*
X88259707Y-72984677D01*
X88252689Y-72982548D01*
X88238920Y-72975189D01*
X88216281Y-72965813D01*
X88192247Y-72961033D01*
X88167743Y-72961034D01*
X88143710Y-72965816D01*
X88121080Y-72975189D01*
X88107311Y-72982548D01*
X88100293Y-72984677D01*
X88086860Y-72986000D01*
X87773140Y-72986000D01*
X87759707Y-72984677D01*
X87752689Y-72982548D01*
X87738920Y-72975189D01*
X87716281Y-72965813D01*
X87692247Y-72961033D01*
X87667743Y-72961034D01*
X87643710Y-72965816D01*
X87621080Y-72975189D01*
X87607311Y-72982548D01*
X87600293Y-72984677D01*
X87586860Y-72986000D01*
X87273140Y-72986000D01*
X87259707Y-72984677D01*
X87252689Y-72982548D01*
X87238920Y-72975189D01*
X87216281Y-72965813D01*
X87192247Y-72961033D01*
X87167743Y-72961034D01*
X87143710Y-72965816D01*
X87121080Y-72975189D01*
X87107311Y-72982548D01*
X87100293Y-72984677D01*
X87086860Y-72986000D01*
X86773140Y-72986000D01*
X86759707Y-72984677D01*
X86752689Y-72982548D01*
X86738920Y-72975189D01*
X86716281Y-72965813D01*
X86692247Y-72961033D01*
X86667743Y-72961034D01*
X86643710Y-72965816D01*
X86621080Y-72975189D01*
X86607311Y-72982548D01*
X86600293Y-72984677D01*
X86586860Y-72986000D01*
X86273140Y-72986000D01*
X86259707Y-72984677D01*
X86252689Y-72982548D01*
X86238920Y-72975189D01*
X86216281Y-72965813D01*
X86192247Y-72961033D01*
X86167743Y-72961034D01*
X86143710Y-72965816D01*
X86121080Y-72975189D01*
X86107311Y-72982548D01*
X86100293Y-72984677D01*
X86086860Y-72986000D01*
X85773140Y-72986000D01*
X85759707Y-72984677D01*
X85752689Y-72982548D01*
X85738920Y-72975189D01*
X85716281Y-72965813D01*
X85692247Y-72961033D01*
X85667743Y-72961034D01*
X85643710Y-72965816D01*
X85621080Y-72975189D01*
X85607311Y-72982548D01*
X85600293Y-72984677D01*
X85586860Y-72986000D01*
X85273140Y-72986000D01*
X85259707Y-72984677D01*
X85252689Y-72982548D01*
X85238920Y-72975189D01*
X85216281Y-72965813D01*
X85192247Y-72961033D01*
X85167743Y-72961034D01*
X85143710Y-72965816D01*
X85121080Y-72975189D01*
X85107311Y-72982548D01*
X85100293Y-72984677D01*
X85086860Y-72986000D01*
X84773140Y-72986000D01*
X84759707Y-72984677D01*
X84752689Y-72982548D01*
X84738920Y-72975189D01*
X84716281Y-72965813D01*
X84692247Y-72961033D01*
X84667743Y-72961034D01*
X84643710Y-72965816D01*
X84621080Y-72975189D01*
X84607311Y-72982548D01*
X84600293Y-72984677D01*
X84586860Y-72986000D01*
X84273140Y-72986000D01*
X84259707Y-72984677D01*
X84252689Y-72982548D01*
X84238920Y-72975189D01*
X84216281Y-72965813D01*
X84192247Y-72961033D01*
X84167743Y-72961034D01*
X84143710Y-72965816D01*
X84121080Y-72975189D01*
X84107311Y-72982548D01*
X84100293Y-72984677D01*
X84086860Y-72986000D01*
X83773140Y-72986000D01*
X83759707Y-72984677D01*
X83752689Y-72982548D01*
X83738920Y-72975189D01*
X83716281Y-72965813D01*
X83692247Y-72961033D01*
X83667743Y-72961034D01*
X83643710Y-72965816D01*
X83621080Y-72975189D01*
X83607311Y-72982548D01*
X83600293Y-72984677D01*
X83586860Y-72986000D01*
X83273140Y-72986000D01*
X83259707Y-72984677D01*
X83252689Y-72982548D01*
X83238920Y-72975189D01*
X83216281Y-72965813D01*
X83192247Y-72961033D01*
X83167743Y-72961034D01*
X83143710Y-72965816D01*
X83121080Y-72975189D01*
X83107311Y-72982548D01*
X83100293Y-72984677D01*
X83086860Y-72986000D01*
X82773140Y-72986000D01*
X82759707Y-72984677D01*
X82752689Y-72982548D01*
X82738920Y-72975189D01*
X82716281Y-72965813D01*
X82692247Y-72961033D01*
X82667743Y-72961034D01*
X82643710Y-72965816D01*
X82621080Y-72975189D01*
X82607311Y-72982548D01*
X82600293Y-72984677D01*
X82586860Y-72986000D01*
X82273140Y-72986000D01*
X82259707Y-72984677D01*
X82252689Y-72982548D01*
X82238920Y-72975189D01*
X82216281Y-72965813D01*
X82192247Y-72961033D01*
X82167743Y-72961034D01*
X82143710Y-72965816D01*
X82121080Y-72975189D01*
X82107311Y-72982548D01*
X82100293Y-72984677D01*
X82086860Y-72986000D01*
X81773140Y-72986000D01*
X81759707Y-72984677D01*
X81752689Y-72982548D01*
X81738920Y-72975189D01*
X81716281Y-72965813D01*
X81692247Y-72961033D01*
X81667743Y-72961034D01*
X81643710Y-72965816D01*
X81621080Y-72975189D01*
X81607311Y-72982548D01*
X81600293Y-72984677D01*
X81586860Y-72986000D01*
X81273140Y-72986000D01*
X81259707Y-72984677D01*
X81252689Y-72982548D01*
X81238920Y-72975189D01*
X81216281Y-72965813D01*
X81192247Y-72961033D01*
X81167743Y-72961034D01*
X81143710Y-72965816D01*
X81121080Y-72975189D01*
X81107311Y-72982548D01*
X81100293Y-72984677D01*
X81086860Y-72986000D01*
X80773140Y-72986000D01*
X80759707Y-72984677D01*
X80752689Y-72982548D01*
X80738920Y-72975189D01*
X80716281Y-72965813D01*
X80692247Y-72961033D01*
X80667743Y-72961034D01*
X80643710Y-72965816D01*
X80621080Y-72975189D01*
X80607311Y-72982548D01*
X80600293Y-72984677D01*
X80586860Y-72986000D01*
X80273140Y-72986000D01*
X80259707Y-72984677D01*
X80252689Y-72982548D01*
X80238920Y-72975189D01*
X80216281Y-72965813D01*
X80192247Y-72961033D01*
X80167743Y-72961034D01*
X80143710Y-72965816D01*
X80121080Y-72975189D01*
X80107311Y-72982548D01*
X80100293Y-72984677D01*
X80086860Y-72986000D01*
X79773140Y-72986000D01*
X79759707Y-72984677D01*
X79752689Y-72982548D01*
X79738920Y-72975189D01*
X79716281Y-72965813D01*
X79692247Y-72961033D01*
X79667743Y-72961034D01*
X79643710Y-72965816D01*
X79621080Y-72975189D01*
X79607311Y-72982548D01*
X79600293Y-72984677D01*
X79586860Y-72986000D01*
X79273140Y-72986000D01*
X79259707Y-72984677D01*
X79252688Y-72982548D01*
X79246225Y-72979093D01*
X79240558Y-72974442D01*
X79235907Y-72968775D01*
X79232452Y-72962312D01*
X79230323Y-72955293D01*
X79229000Y-72941860D01*
X79229000Y-71328140D01*
X79230323Y-71314707D01*
X79232452Y-71307688D01*
X79235907Y-71301225D01*
X79240558Y-71295558D01*
X79246225Y-71290907D01*
X79252688Y-71287452D01*
X79259707Y-71285323D01*
X79273140Y-71284000D01*
X79586860Y-71284000D01*
X79600293Y-71285323D01*
X79600293Y-71285323D01*
G37*
G36*
X93925293Y-58260323D02*
X93932312Y-58262452D01*
X93938775Y-58265907D01*
X93944442Y-58270558D01*
X93949093Y-58276225D01*
X93952548Y-58282688D01*
X93954677Y-58289707D01*
X93956000Y-58303140D01*
X93956000Y-58616860D01*
X93954677Y-58630293D01*
X93952548Y-58637311D01*
X93945189Y-58651080D01*
X93935813Y-58673719D01*
X93931033Y-58697753D01*
X93931034Y-58722257D01*
X93935816Y-58746290D01*
X93945189Y-58768920D01*
X93952548Y-58782689D01*
X93954677Y-58789707D01*
X93956000Y-58803140D01*
X93956000Y-59116860D01*
X93954677Y-59130293D01*
X93952548Y-59137311D01*
X93945189Y-59151080D01*
X93935813Y-59173719D01*
X93931033Y-59197753D01*
X93931034Y-59222257D01*
X93935816Y-59246290D01*
X93945189Y-59268920D01*
X93952548Y-59282689D01*
X93954677Y-59289707D01*
X93956000Y-59303140D01*
X93956000Y-59616860D01*
X93954677Y-59630293D01*
X93952548Y-59637311D01*
X93945189Y-59651080D01*
X93935813Y-59673719D01*
X93931033Y-59697753D01*
X93931034Y-59722257D01*
X93935816Y-59746290D01*
X93945189Y-59768920D01*
X93952548Y-59782689D01*
X93954677Y-59789707D01*
X93956000Y-59803140D01*
X93956000Y-60116860D01*
X93954677Y-60130293D01*
X93952548Y-60137311D01*
X93945189Y-60151080D01*
X93935813Y-60173719D01*
X93931033Y-60197753D01*
X93931034Y-60222257D01*
X93935816Y-60246290D01*
X93945189Y-60268920D01*
X93952548Y-60282689D01*
X93954677Y-60289707D01*
X93956000Y-60303140D01*
X93956000Y-60616860D01*
X93954677Y-60630293D01*
X93952548Y-60637311D01*
X93945189Y-60651080D01*
X93935813Y-60673719D01*
X93931033Y-60697753D01*
X93931034Y-60722257D01*
X93935816Y-60746290D01*
X93945189Y-60768920D01*
X93952548Y-60782689D01*
X93954677Y-60789707D01*
X93956000Y-60803140D01*
X93956000Y-61116860D01*
X93954677Y-61130293D01*
X93952548Y-61137311D01*
X93945189Y-61151080D01*
X93935813Y-61173719D01*
X93931033Y-61197753D01*
X93931034Y-61222257D01*
X93935816Y-61246290D01*
X93945189Y-61268920D01*
X93952548Y-61282689D01*
X93954677Y-61289707D01*
X93956000Y-61303140D01*
X93956000Y-61616860D01*
X93954677Y-61630293D01*
X93952548Y-61637311D01*
X93945189Y-61651080D01*
X93935813Y-61673719D01*
X93931033Y-61697753D01*
X93931034Y-61722257D01*
X93935816Y-61746290D01*
X93945189Y-61768920D01*
X93952548Y-61782689D01*
X93954677Y-61789707D01*
X93956000Y-61803140D01*
X93956000Y-62116860D01*
X93954677Y-62130293D01*
X93952548Y-62137311D01*
X93945189Y-62151080D01*
X93935813Y-62173719D01*
X93931033Y-62197753D01*
X93931034Y-62222257D01*
X93935816Y-62246290D01*
X93945189Y-62268920D01*
X93952548Y-62282689D01*
X93954677Y-62289707D01*
X93956000Y-62303140D01*
X93956000Y-62616860D01*
X93954677Y-62630293D01*
X93952548Y-62637311D01*
X93945189Y-62651080D01*
X93935813Y-62673719D01*
X93931033Y-62697753D01*
X93931034Y-62722257D01*
X93935816Y-62746290D01*
X93945189Y-62768920D01*
X93952548Y-62782689D01*
X93954677Y-62789707D01*
X93956000Y-62803140D01*
X93956000Y-63116860D01*
X93954677Y-63130293D01*
X93952548Y-63137311D01*
X93945189Y-63151080D01*
X93935813Y-63173719D01*
X93931033Y-63197753D01*
X93931034Y-63222257D01*
X93935816Y-63246290D01*
X93945189Y-63268920D01*
X93952548Y-63282689D01*
X93954677Y-63289707D01*
X93956000Y-63303140D01*
X93956000Y-63616860D01*
X93954677Y-63630293D01*
X93952548Y-63637311D01*
X93945189Y-63651080D01*
X93935813Y-63673719D01*
X93931033Y-63697753D01*
X93931034Y-63722257D01*
X93935816Y-63746290D01*
X93945189Y-63768920D01*
X93952548Y-63782689D01*
X93954677Y-63789707D01*
X93956000Y-63803140D01*
X93956000Y-64116860D01*
X93954677Y-64130293D01*
X93952548Y-64137311D01*
X93945189Y-64151080D01*
X93935813Y-64173719D01*
X93931033Y-64197753D01*
X93931034Y-64222257D01*
X93935816Y-64246290D01*
X93945189Y-64268920D01*
X93952548Y-64282689D01*
X93954677Y-64289707D01*
X93956000Y-64303140D01*
X93956000Y-64616860D01*
X93954677Y-64630293D01*
X93952548Y-64637311D01*
X93945189Y-64651080D01*
X93935813Y-64673719D01*
X93931033Y-64697753D01*
X93931034Y-64722257D01*
X93935816Y-64746290D01*
X93945189Y-64768920D01*
X93952548Y-64782689D01*
X93954677Y-64789707D01*
X93956000Y-64803140D01*
X93956000Y-65116860D01*
X93954677Y-65130293D01*
X93952548Y-65137311D01*
X93945189Y-65151080D01*
X93935813Y-65173719D01*
X93931033Y-65197753D01*
X93931034Y-65222257D01*
X93935816Y-65246290D01*
X93945189Y-65268920D01*
X93952548Y-65282689D01*
X93954677Y-65289707D01*
X93956000Y-65303140D01*
X93956000Y-65616860D01*
X93954677Y-65630293D01*
X93952548Y-65637311D01*
X93945189Y-65651080D01*
X93935813Y-65673719D01*
X93931033Y-65697753D01*
X93931034Y-65722257D01*
X93935816Y-65746290D01*
X93945189Y-65768920D01*
X93952548Y-65782689D01*
X93954677Y-65789707D01*
X93956000Y-65803140D01*
X93956000Y-66116860D01*
X93954677Y-66130293D01*
X93952548Y-66137311D01*
X93945189Y-66151080D01*
X93935813Y-66173719D01*
X93931033Y-66197753D01*
X93931034Y-66222257D01*
X93935816Y-66246290D01*
X93945189Y-66268920D01*
X93952548Y-66282689D01*
X93954677Y-66289707D01*
X93956000Y-66303140D01*
X93956000Y-66616860D01*
X93954677Y-66630293D01*
X93952548Y-66637311D01*
X93945189Y-66651080D01*
X93935813Y-66673719D01*
X93931033Y-66697753D01*
X93931034Y-66722257D01*
X93935816Y-66746290D01*
X93945189Y-66768920D01*
X93952548Y-66782689D01*
X93954677Y-66789707D01*
X93956000Y-66803140D01*
X93956000Y-67116860D01*
X93954677Y-67130293D01*
X93952548Y-67137311D01*
X93945189Y-67151080D01*
X93935813Y-67173719D01*
X93931033Y-67197753D01*
X93931034Y-67222257D01*
X93935816Y-67246290D01*
X93945189Y-67268920D01*
X93952548Y-67282689D01*
X93954677Y-67289707D01*
X93956000Y-67303140D01*
X93956000Y-67616860D01*
X93954677Y-67630293D01*
X93952548Y-67637311D01*
X93945189Y-67651080D01*
X93935813Y-67673719D01*
X93931033Y-67697753D01*
X93931034Y-67722257D01*
X93935816Y-67746290D01*
X93945189Y-67768920D01*
X93952548Y-67782689D01*
X93954677Y-67789707D01*
X93956000Y-67803140D01*
X93956000Y-68116860D01*
X93954677Y-68130293D01*
X93952548Y-68137311D01*
X93945189Y-68151080D01*
X93935813Y-68173719D01*
X93931033Y-68197753D01*
X93931034Y-68222257D01*
X93935816Y-68246290D01*
X93945189Y-68268920D01*
X93952548Y-68282689D01*
X93954677Y-68289707D01*
X93956000Y-68303140D01*
X93956000Y-68616860D01*
X93954677Y-68630293D01*
X93952548Y-68637311D01*
X93945189Y-68651080D01*
X93935813Y-68673719D01*
X93931033Y-68697753D01*
X93931034Y-68722257D01*
X93935816Y-68746290D01*
X93945189Y-68768920D01*
X93952548Y-68782689D01*
X93954677Y-68789707D01*
X93956000Y-68803140D01*
X93956000Y-69116860D01*
X93954677Y-69130293D01*
X93952548Y-69137311D01*
X93945189Y-69151080D01*
X93935813Y-69173719D01*
X93931033Y-69197753D01*
X93931034Y-69222257D01*
X93935816Y-69246290D01*
X93945189Y-69268920D01*
X93952548Y-69282689D01*
X93954677Y-69289707D01*
X93956000Y-69303140D01*
X93956000Y-69616860D01*
X93954677Y-69630293D01*
X93952548Y-69637311D01*
X93945189Y-69651080D01*
X93935813Y-69673719D01*
X93931033Y-69697753D01*
X93931034Y-69722257D01*
X93935816Y-69746290D01*
X93945189Y-69768920D01*
X93952548Y-69782689D01*
X93954677Y-69789707D01*
X93956000Y-69803140D01*
X93956000Y-70116860D01*
X93954677Y-70130293D01*
X93952548Y-70137311D01*
X93945189Y-70151080D01*
X93935813Y-70173719D01*
X93931033Y-70197753D01*
X93931034Y-70222257D01*
X93935816Y-70246290D01*
X93945189Y-70268920D01*
X93952548Y-70282689D01*
X93954677Y-70289707D01*
X93956000Y-70303140D01*
X93956000Y-70616860D01*
X93954677Y-70630293D01*
X93952548Y-70637312D01*
X93949093Y-70643775D01*
X93944442Y-70649442D01*
X93938775Y-70654093D01*
X93932312Y-70657548D01*
X93925293Y-70659677D01*
X93911860Y-70661000D01*
X92298140Y-70661000D01*
X92284707Y-70659677D01*
X92277688Y-70657548D01*
X92271225Y-70654093D01*
X92265558Y-70649442D01*
X92260907Y-70643775D01*
X92257452Y-70637312D01*
X92255323Y-70630293D01*
X92254000Y-70616860D01*
X92254000Y-70303140D01*
X92255323Y-70289707D01*
X92257452Y-70282689D01*
X92264811Y-70268920D01*
X92274187Y-70246281D01*
X92278967Y-70222247D01*
X92278966Y-70197743D01*
X92274184Y-70173710D01*
X92264811Y-70151080D01*
X92257452Y-70137311D01*
X92255323Y-70130293D01*
X92254000Y-70116860D01*
X92254000Y-69803140D01*
X92255323Y-69789707D01*
X92257452Y-69782689D01*
X92264811Y-69768920D01*
X92274187Y-69746281D01*
X92278967Y-69722247D01*
X92278966Y-69697743D01*
X92274184Y-69673710D01*
X92264811Y-69651080D01*
X92257452Y-69637311D01*
X92255323Y-69630293D01*
X92254000Y-69616860D01*
X92254000Y-69303140D01*
X92255323Y-69289707D01*
X92257452Y-69282689D01*
X92264811Y-69268920D01*
X92274187Y-69246281D01*
X92278967Y-69222247D01*
X92278966Y-69197743D01*
X92274184Y-69173710D01*
X92264811Y-69151080D01*
X92257452Y-69137311D01*
X92255323Y-69130293D01*
X92254000Y-69116860D01*
X92254000Y-68803140D01*
X92255323Y-68789707D01*
X92257452Y-68782689D01*
X92264811Y-68768920D01*
X92274187Y-68746281D01*
X92278967Y-68722247D01*
X92278966Y-68697743D01*
X92274184Y-68673710D01*
X92264811Y-68651080D01*
X92257452Y-68637311D01*
X92255323Y-68630293D01*
X92254000Y-68616860D01*
X92254000Y-68303140D01*
X92255323Y-68289707D01*
X92257452Y-68282689D01*
X92264811Y-68268920D01*
X92274187Y-68246281D01*
X92278967Y-68222247D01*
X92278966Y-68197743D01*
X92274184Y-68173710D01*
X92264811Y-68151080D01*
X92257452Y-68137311D01*
X92255323Y-68130293D01*
X92254000Y-68116860D01*
X92254000Y-67803140D01*
X92255323Y-67789707D01*
X92257452Y-67782689D01*
X92264811Y-67768920D01*
X92274187Y-67746281D01*
X92278967Y-67722247D01*
X92278966Y-67697743D01*
X92274184Y-67673710D01*
X92264811Y-67651080D01*
X92257452Y-67637311D01*
X92255323Y-67630293D01*
X92254000Y-67616860D01*
X92254000Y-67303140D01*
X92255323Y-67289707D01*
X92257452Y-67282689D01*
X92264811Y-67268920D01*
X92274187Y-67246281D01*
X92278967Y-67222247D01*
X92278966Y-67197743D01*
X92274184Y-67173710D01*
X92264811Y-67151080D01*
X92257452Y-67137311D01*
X92255323Y-67130293D01*
X92254000Y-67116860D01*
X92254000Y-66803140D01*
X92255323Y-66789707D01*
X92257452Y-66782689D01*
X92264811Y-66768920D01*
X92274187Y-66746281D01*
X92278967Y-66722247D01*
X92278966Y-66697743D01*
X92274184Y-66673710D01*
X92264811Y-66651080D01*
X92257452Y-66637311D01*
X92255323Y-66630293D01*
X92254000Y-66616860D01*
X92254000Y-66303140D01*
X92255323Y-66289707D01*
X92257452Y-66282689D01*
X92264811Y-66268920D01*
X92274187Y-66246281D01*
X92278967Y-66222247D01*
X92278966Y-66197743D01*
X92274184Y-66173710D01*
X92264811Y-66151080D01*
X92257452Y-66137311D01*
X92255323Y-66130293D01*
X92254000Y-66116860D01*
X92254000Y-65803140D01*
X92255323Y-65789707D01*
X92257452Y-65782689D01*
X92264811Y-65768920D01*
X92274187Y-65746281D01*
X92278967Y-65722247D01*
X92278966Y-65697743D01*
X92274184Y-65673710D01*
X92264811Y-65651080D01*
X92257452Y-65637311D01*
X92255323Y-65630293D01*
X92254000Y-65616860D01*
X92254000Y-65303140D01*
X92255323Y-65289707D01*
X92257452Y-65282689D01*
X92264811Y-65268920D01*
X92274187Y-65246281D01*
X92278967Y-65222247D01*
X92278966Y-65197743D01*
X92274184Y-65173710D01*
X92264811Y-65151080D01*
X92257452Y-65137311D01*
X92255323Y-65130293D01*
X92254000Y-65116860D01*
X92254000Y-64803140D01*
X92255323Y-64789707D01*
X92257452Y-64782689D01*
X92264811Y-64768920D01*
X92274187Y-64746281D01*
X92278967Y-64722247D01*
X92278966Y-64697743D01*
X92274184Y-64673710D01*
X92264811Y-64651080D01*
X92257452Y-64637311D01*
X92255323Y-64630293D01*
X92254000Y-64616860D01*
X92254000Y-64303140D01*
X92255323Y-64289707D01*
X92257452Y-64282689D01*
X92264811Y-64268920D01*
X92274187Y-64246281D01*
X92278967Y-64222247D01*
X92278966Y-64197743D01*
X92274184Y-64173710D01*
X92264811Y-64151080D01*
X92257452Y-64137311D01*
X92255323Y-64130293D01*
X92254000Y-64116860D01*
X92254000Y-63803140D01*
X92255323Y-63789707D01*
X92257452Y-63782689D01*
X92264811Y-63768920D01*
X92274187Y-63746281D01*
X92278967Y-63722247D01*
X92278966Y-63697743D01*
X92274184Y-63673710D01*
X92264811Y-63651080D01*
X92257452Y-63637311D01*
X92255323Y-63630293D01*
X92254000Y-63616860D01*
X92254000Y-63303140D01*
X92255323Y-63289707D01*
X92257452Y-63282689D01*
X92264811Y-63268920D01*
X92274187Y-63246281D01*
X92278967Y-63222247D01*
X92278966Y-63197743D01*
X92274184Y-63173710D01*
X92264811Y-63151080D01*
X92257452Y-63137311D01*
X92255323Y-63130293D01*
X92254000Y-63116860D01*
X92254000Y-62803140D01*
X92255323Y-62789707D01*
X92257452Y-62782689D01*
X92264811Y-62768920D01*
X92274187Y-62746281D01*
X92278967Y-62722247D01*
X92278966Y-62697743D01*
X92274184Y-62673710D01*
X92264811Y-62651080D01*
X92257452Y-62637311D01*
X92255323Y-62630293D01*
X92254000Y-62616860D01*
X92254000Y-62303140D01*
X92255323Y-62289707D01*
X92257452Y-62282689D01*
X92264811Y-62268920D01*
X92274187Y-62246281D01*
X92278967Y-62222247D01*
X92278966Y-62197743D01*
X92274184Y-62173710D01*
X92264811Y-62151080D01*
X92257452Y-62137311D01*
X92255323Y-62130293D01*
X92254000Y-62116860D01*
X92254000Y-61803140D01*
X92255323Y-61789707D01*
X92257452Y-61782689D01*
X92264811Y-61768920D01*
X92274187Y-61746281D01*
X92278967Y-61722247D01*
X92278966Y-61697743D01*
X92274184Y-61673710D01*
X92264811Y-61651080D01*
X92257452Y-61637311D01*
X92255323Y-61630293D01*
X92254000Y-61616860D01*
X92254000Y-61303140D01*
X92255323Y-61289707D01*
X92257452Y-61282689D01*
X92264811Y-61268920D01*
X92274187Y-61246281D01*
X92278967Y-61222247D01*
X92278966Y-61197743D01*
X92274184Y-61173710D01*
X92264811Y-61151080D01*
X92257452Y-61137311D01*
X92255323Y-61130293D01*
X92254000Y-61116860D01*
X92254000Y-60803140D01*
X92255323Y-60789707D01*
X92257452Y-60782689D01*
X92264811Y-60768920D01*
X92274187Y-60746281D01*
X92278967Y-60722247D01*
X92278966Y-60697743D01*
X92274184Y-60673710D01*
X92264811Y-60651080D01*
X92257452Y-60637311D01*
X92255323Y-60630293D01*
X92254000Y-60616860D01*
X92254000Y-60303140D01*
X92255323Y-60289707D01*
X92257452Y-60282689D01*
X92264811Y-60268920D01*
X92274187Y-60246281D01*
X92278967Y-60222247D01*
X92278966Y-60197743D01*
X92274184Y-60173710D01*
X92264811Y-60151080D01*
X92257452Y-60137311D01*
X92255323Y-60130293D01*
X92254000Y-60116860D01*
X92254000Y-59803140D01*
X92255323Y-59789707D01*
X92257452Y-59782689D01*
X92264811Y-59768920D01*
X92274187Y-59746281D01*
X92278967Y-59722247D01*
X92278966Y-59697743D01*
X92274184Y-59673710D01*
X92264811Y-59651080D01*
X92257452Y-59637311D01*
X92255323Y-59630293D01*
X92254000Y-59616860D01*
X92254000Y-59303140D01*
X92255323Y-59289707D01*
X92257452Y-59282689D01*
X92264811Y-59268920D01*
X92274187Y-59246281D01*
X92278967Y-59222247D01*
X92278966Y-59197743D01*
X92274184Y-59173710D01*
X92264811Y-59151080D01*
X92257452Y-59137311D01*
X92255323Y-59130293D01*
X92254000Y-59116860D01*
X92254000Y-58803140D01*
X92255323Y-58789707D01*
X92257452Y-58782689D01*
X92264811Y-58768920D01*
X92274187Y-58746281D01*
X92278967Y-58722247D01*
X92278966Y-58697743D01*
X92274184Y-58673710D01*
X92264811Y-58651080D01*
X92257452Y-58637311D01*
X92255323Y-58630293D01*
X92254000Y-58616860D01*
X92254000Y-58303140D01*
X92255323Y-58289707D01*
X92257452Y-58282688D01*
X92260907Y-58276225D01*
X92265558Y-58270558D01*
X92271225Y-58265907D01*
X92277688Y-58262452D01*
X92284707Y-58260323D01*
X92298140Y-58259000D01*
X93911860Y-58259000D01*
X93925293Y-58260323D01*
X93925293Y-58260323D01*
G37*
G36*
X78575293Y-58260323D02*
X78582312Y-58262452D01*
X78588775Y-58265907D01*
X78594442Y-58270558D01*
X78599093Y-58276225D01*
X78602548Y-58282688D01*
X78604677Y-58289707D01*
X78606000Y-58303140D01*
X78606000Y-58616860D01*
X78604677Y-58630293D01*
X78602548Y-58637311D01*
X78595189Y-58651080D01*
X78585813Y-58673719D01*
X78581033Y-58697753D01*
X78581034Y-58722257D01*
X78585816Y-58746290D01*
X78595189Y-58768920D01*
X78602548Y-58782689D01*
X78604677Y-58789707D01*
X78606000Y-58803140D01*
X78606000Y-59116860D01*
X78604677Y-59130293D01*
X78602548Y-59137311D01*
X78595189Y-59151080D01*
X78585813Y-59173719D01*
X78581033Y-59197753D01*
X78581034Y-59222257D01*
X78585816Y-59246290D01*
X78595189Y-59268920D01*
X78602548Y-59282689D01*
X78604677Y-59289707D01*
X78606000Y-59303140D01*
X78606000Y-59616860D01*
X78604677Y-59630293D01*
X78602548Y-59637311D01*
X78595189Y-59651080D01*
X78585813Y-59673719D01*
X78581033Y-59697753D01*
X78581034Y-59722257D01*
X78585816Y-59746290D01*
X78595189Y-59768920D01*
X78602548Y-59782689D01*
X78604677Y-59789707D01*
X78606000Y-59803140D01*
X78606000Y-60116860D01*
X78604677Y-60130293D01*
X78602548Y-60137311D01*
X78595189Y-60151080D01*
X78585813Y-60173719D01*
X78581033Y-60197753D01*
X78581034Y-60222257D01*
X78585816Y-60246290D01*
X78595189Y-60268920D01*
X78602548Y-60282689D01*
X78604677Y-60289707D01*
X78606000Y-60303140D01*
X78606000Y-60616860D01*
X78604677Y-60630293D01*
X78602548Y-60637311D01*
X78595189Y-60651080D01*
X78585813Y-60673719D01*
X78581033Y-60697753D01*
X78581034Y-60722257D01*
X78585816Y-60746290D01*
X78595189Y-60768920D01*
X78602548Y-60782689D01*
X78604677Y-60789707D01*
X78606000Y-60803140D01*
X78606000Y-61116860D01*
X78604677Y-61130293D01*
X78602548Y-61137311D01*
X78595189Y-61151080D01*
X78585813Y-61173719D01*
X78581033Y-61197753D01*
X78581034Y-61222257D01*
X78585816Y-61246290D01*
X78595189Y-61268920D01*
X78602548Y-61282689D01*
X78604677Y-61289707D01*
X78606000Y-61303140D01*
X78606000Y-61616860D01*
X78604677Y-61630293D01*
X78602548Y-61637311D01*
X78595189Y-61651080D01*
X78585813Y-61673719D01*
X78581033Y-61697753D01*
X78581034Y-61722257D01*
X78585816Y-61746290D01*
X78595189Y-61768920D01*
X78602548Y-61782689D01*
X78604677Y-61789707D01*
X78606000Y-61803140D01*
X78606000Y-62116860D01*
X78604677Y-62130293D01*
X78602548Y-62137311D01*
X78595189Y-62151080D01*
X78585813Y-62173719D01*
X78581033Y-62197753D01*
X78581034Y-62222257D01*
X78585816Y-62246290D01*
X78595189Y-62268920D01*
X78602548Y-62282689D01*
X78604677Y-62289707D01*
X78606000Y-62303140D01*
X78606000Y-62616860D01*
X78604677Y-62630293D01*
X78602548Y-62637311D01*
X78595189Y-62651080D01*
X78585813Y-62673719D01*
X78581033Y-62697753D01*
X78581034Y-62722257D01*
X78585816Y-62746290D01*
X78595189Y-62768920D01*
X78602548Y-62782689D01*
X78604677Y-62789707D01*
X78606000Y-62803140D01*
X78606000Y-63116860D01*
X78604677Y-63130293D01*
X78602548Y-63137311D01*
X78595189Y-63151080D01*
X78585813Y-63173719D01*
X78581033Y-63197753D01*
X78581034Y-63222257D01*
X78585816Y-63246290D01*
X78595189Y-63268920D01*
X78602548Y-63282689D01*
X78604677Y-63289707D01*
X78606000Y-63303140D01*
X78606000Y-63616860D01*
X78604677Y-63630293D01*
X78602548Y-63637311D01*
X78595189Y-63651080D01*
X78585813Y-63673719D01*
X78581033Y-63697753D01*
X78581034Y-63722257D01*
X78585816Y-63746290D01*
X78595189Y-63768920D01*
X78602548Y-63782689D01*
X78604677Y-63789707D01*
X78606000Y-63803140D01*
X78606000Y-64116860D01*
X78604677Y-64130293D01*
X78602548Y-64137311D01*
X78595189Y-64151080D01*
X78585813Y-64173719D01*
X78581033Y-64197753D01*
X78581034Y-64222257D01*
X78585816Y-64246290D01*
X78595189Y-64268920D01*
X78602548Y-64282689D01*
X78604677Y-64289707D01*
X78606000Y-64303140D01*
X78606000Y-64616860D01*
X78604677Y-64630293D01*
X78602548Y-64637311D01*
X78595189Y-64651080D01*
X78585813Y-64673719D01*
X78581033Y-64697753D01*
X78581034Y-64722257D01*
X78585816Y-64746290D01*
X78595189Y-64768920D01*
X78602548Y-64782689D01*
X78604677Y-64789707D01*
X78606000Y-64803140D01*
X78606000Y-65116860D01*
X78604677Y-65130293D01*
X78602548Y-65137311D01*
X78595189Y-65151080D01*
X78585813Y-65173719D01*
X78581033Y-65197753D01*
X78581034Y-65222257D01*
X78585816Y-65246290D01*
X78595189Y-65268920D01*
X78602548Y-65282689D01*
X78604677Y-65289707D01*
X78606000Y-65303140D01*
X78606000Y-65616860D01*
X78604677Y-65630293D01*
X78602548Y-65637311D01*
X78595189Y-65651080D01*
X78585813Y-65673719D01*
X78581033Y-65697753D01*
X78581034Y-65722257D01*
X78585816Y-65746290D01*
X78595189Y-65768920D01*
X78602548Y-65782689D01*
X78604677Y-65789707D01*
X78606000Y-65803140D01*
X78606000Y-66116860D01*
X78604677Y-66130293D01*
X78602548Y-66137311D01*
X78595189Y-66151080D01*
X78585813Y-66173719D01*
X78581033Y-66197753D01*
X78581034Y-66222257D01*
X78585816Y-66246290D01*
X78595189Y-66268920D01*
X78602548Y-66282689D01*
X78604677Y-66289707D01*
X78606000Y-66303140D01*
X78606000Y-66616860D01*
X78604677Y-66630293D01*
X78602548Y-66637311D01*
X78595189Y-66651080D01*
X78585813Y-66673719D01*
X78581033Y-66697753D01*
X78581034Y-66722257D01*
X78585816Y-66746290D01*
X78595189Y-66768920D01*
X78602548Y-66782689D01*
X78604677Y-66789707D01*
X78606000Y-66803140D01*
X78606000Y-67116860D01*
X78604677Y-67130293D01*
X78602548Y-67137311D01*
X78595189Y-67151080D01*
X78585813Y-67173719D01*
X78581033Y-67197753D01*
X78581034Y-67222257D01*
X78585816Y-67246290D01*
X78595189Y-67268920D01*
X78602548Y-67282689D01*
X78604677Y-67289707D01*
X78606000Y-67303140D01*
X78606000Y-67616860D01*
X78604677Y-67630293D01*
X78602548Y-67637311D01*
X78595189Y-67651080D01*
X78585813Y-67673719D01*
X78581033Y-67697753D01*
X78581034Y-67722257D01*
X78585816Y-67746290D01*
X78595189Y-67768920D01*
X78602548Y-67782689D01*
X78604677Y-67789707D01*
X78606000Y-67803140D01*
X78606000Y-68116860D01*
X78604677Y-68130293D01*
X78602548Y-68137311D01*
X78595189Y-68151080D01*
X78585813Y-68173719D01*
X78581033Y-68197753D01*
X78581034Y-68222257D01*
X78585816Y-68246290D01*
X78595189Y-68268920D01*
X78602548Y-68282689D01*
X78604677Y-68289707D01*
X78606000Y-68303140D01*
X78606000Y-68616860D01*
X78604677Y-68630293D01*
X78602548Y-68637311D01*
X78595189Y-68651080D01*
X78585813Y-68673719D01*
X78581033Y-68697753D01*
X78581034Y-68722257D01*
X78585816Y-68746290D01*
X78595189Y-68768920D01*
X78602548Y-68782689D01*
X78604677Y-68789707D01*
X78606000Y-68803140D01*
X78606000Y-69116860D01*
X78604677Y-69130293D01*
X78602548Y-69137311D01*
X78595189Y-69151080D01*
X78585813Y-69173719D01*
X78581033Y-69197753D01*
X78581034Y-69222257D01*
X78585816Y-69246290D01*
X78595189Y-69268920D01*
X78602548Y-69282689D01*
X78604677Y-69289707D01*
X78606000Y-69303140D01*
X78606000Y-69616860D01*
X78604677Y-69630293D01*
X78602548Y-69637311D01*
X78595189Y-69651080D01*
X78585813Y-69673719D01*
X78581033Y-69697753D01*
X78581034Y-69722257D01*
X78585816Y-69746290D01*
X78595189Y-69768920D01*
X78602548Y-69782689D01*
X78604677Y-69789707D01*
X78606000Y-69803140D01*
X78606000Y-70116860D01*
X78604677Y-70130293D01*
X78602548Y-70137311D01*
X78595189Y-70151080D01*
X78585813Y-70173719D01*
X78581033Y-70197753D01*
X78581034Y-70222257D01*
X78585816Y-70246290D01*
X78595189Y-70268920D01*
X78602548Y-70282689D01*
X78604677Y-70289707D01*
X78606000Y-70303140D01*
X78606000Y-70616860D01*
X78604677Y-70630293D01*
X78602548Y-70637312D01*
X78599093Y-70643775D01*
X78594442Y-70649442D01*
X78588775Y-70654093D01*
X78582312Y-70657548D01*
X78575293Y-70659677D01*
X78561860Y-70661000D01*
X76948140Y-70661000D01*
X76934707Y-70659677D01*
X76927688Y-70657548D01*
X76921225Y-70654093D01*
X76915558Y-70649442D01*
X76910907Y-70643775D01*
X76907452Y-70637312D01*
X76905323Y-70630293D01*
X76904000Y-70616860D01*
X76904000Y-70303140D01*
X76905323Y-70289707D01*
X76907452Y-70282689D01*
X76914811Y-70268920D01*
X76924187Y-70246281D01*
X76928967Y-70222247D01*
X76928966Y-70197743D01*
X76924184Y-70173710D01*
X76914811Y-70151080D01*
X76907452Y-70137311D01*
X76905323Y-70130293D01*
X76904000Y-70116860D01*
X76904000Y-69803140D01*
X76905323Y-69789707D01*
X76907452Y-69782689D01*
X76914811Y-69768920D01*
X76924187Y-69746281D01*
X76928967Y-69722247D01*
X76928966Y-69697743D01*
X76924184Y-69673710D01*
X76914811Y-69651080D01*
X76907452Y-69637311D01*
X76905323Y-69630293D01*
X76904000Y-69616860D01*
X76904000Y-69303140D01*
X76905323Y-69289707D01*
X76907452Y-69282689D01*
X76914811Y-69268920D01*
X76924187Y-69246281D01*
X76928967Y-69222247D01*
X76928966Y-69197743D01*
X76924184Y-69173710D01*
X76914811Y-69151080D01*
X76907452Y-69137311D01*
X76905323Y-69130293D01*
X76904000Y-69116860D01*
X76904000Y-68803140D01*
X76905323Y-68789707D01*
X76907452Y-68782689D01*
X76914811Y-68768920D01*
X76924187Y-68746281D01*
X76928967Y-68722247D01*
X76928966Y-68697743D01*
X76924184Y-68673710D01*
X76914811Y-68651080D01*
X76907452Y-68637311D01*
X76905323Y-68630293D01*
X76904000Y-68616860D01*
X76904000Y-68303140D01*
X76905323Y-68289707D01*
X76907452Y-68282689D01*
X76914811Y-68268920D01*
X76924187Y-68246281D01*
X76928967Y-68222247D01*
X76928966Y-68197743D01*
X76924184Y-68173710D01*
X76914811Y-68151080D01*
X76907452Y-68137311D01*
X76905323Y-68130293D01*
X76904000Y-68116860D01*
X76904000Y-67803140D01*
X76905323Y-67789707D01*
X76907452Y-67782689D01*
X76914811Y-67768920D01*
X76924187Y-67746281D01*
X76928967Y-67722247D01*
X76928966Y-67697743D01*
X76924184Y-67673710D01*
X76914811Y-67651080D01*
X76907452Y-67637311D01*
X76905323Y-67630293D01*
X76904000Y-67616860D01*
X76904000Y-67303140D01*
X76905323Y-67289707D01*
X76907452Y-67282689D01*
X76914811Y-67268920D01*
X76924187Y-67246281D01*
X76928967Y-67222247D01*
X76928966Y-67197743D01*
X76924184Y-67173710D01*
X76914811Y-67151080D01*
X76907452Y-67137311D01*
X76905323Y-67130293D01*
X76904000Y-67116860D01*
X76904000Y-66803140D01*
X76905323Y-66789707D01*
X76907452Y-66782689D01*
X76914811Y-66768920D01*
X76924187Y-66746281D01*
X76928967Y-66722247D01*
X76928966Y-66697743D01*
X76924184Y-66673710D01*
X76914811Y-66651080D01*
X76907452Y-66637311D01*
X76905323Y-66630293D01*
X76904000Y-66616860D01*
X76904000Y-66303140D01*
X76905323Y-66289707D01*
X76907452Y-66282689D01*
X76914811Y-66268920D01*
X76924187Y-66246281D01*
X76928967Y-66222247D01*
X76928966Y-66197743D01*
X76924184Y-66173710D01*
X76914811Y-66151080D01*
X76907452Y-66137311D01*
X76905323Y-66130293D01*
X76904000Y-66116860D01*
X76904000Y-65803140D01*
X76905323Y-65789707D01*
X76907452Y-65782689D01*
X76914811Y-65768920D01*
X76924187Y-65746281D01*
X76928967Y-65722247D01*
X76928966Y-65697743D01*
X76924184Y-65673710D01*
X76914811Y-65651080D01*
X76907452Y-65637311D01*
X76905323Y-65630293D01*
X76904000Y-65616860D01*
X76904000Y-65303140D01*
X76905323Y-65289707D01*
X76907452Y-65282689D01*
X76914811Y-65268920D01*
X76924187Y-65246281D01*
X76928967Y-65222247D01*
X76928966Y-65197743D01*
X76924184Y-65173710D01*
X76914811Y-65151080D01*
X76907452Y-65137311D01*
X76905323Y-65130293D01*
X76904000Y-65116860D01*
X76904000Y-64803140D01*
X76905323Y-64789707D01*
X76907452Y-64782689D01*
X76914811Y-64768920D01*
X76924187Y-64746281D01*
X76928967Y-64722247D01*
X76928966Y-64697743D01*
X76924184Y-64673710D01*
X76914811Y-64651080D01*
X76907452Y-64637311D01*
X76905323Y-64630293D01*
X76904000Y-64616860D01*
X76904000Y-64303140D01*
X76905323Y-64289707D01*
X76907452Y-64282689D01*
X76914811Y-64268920D01*
X76924187Y-64246281D01*
X76928967Y-64222247D01*
X76928966Y-64197743D01*
X76924184Y-64173710D01*
X76914811Y-64151080D01*
X76907452Y-64137311D01*
X76905323Y-64130293D01*
X76904000Y-64116860D01*
X76904000Y-63803140D01*
X76905323Y-63789707D01*
X76907452Y-63782689D01*
X76914811Y-63768920D01*
X76924187Y-63746281D01*
X76928967Y-63722247D01*
X76928966Y-63697743D01*
X76924184Y-63673710D01*
X76914811Y-63651080D01*
X76907452Y-63637311D01*
X76905323Y-63630293D01*
X76904000Y-63616860D01*
X76904000Y-63303140D01*
X76905323Y-63289707D01*
X76907452Y-63282689D01*
X76914811Y-63268920D01*
X76924187Y-63246281D01*
X76928967Y-63222247D01*
X76928966Y-63197743D01*
X76924184Y-63173710D01*
X76914811Y-63151080D01*
X76907452Y-63137311D01*
X76905323Y-63130293D01*
X76904000Y-63116860D01*
X76904000Y-62803140D01*
X76905323Y-62789707D01*
X76907452Y-62782689D01*
X76914811Y-62768920D01*
X76924187Y-62746281D01*
X76928967Y-62722247D01*
X76928966Y-62697743D01*
X76924184Y-62673710D01*
X76914811Y-62651080D01*
X76907452Y-62637311D01*
X76905323Y-62630293D01*
X76904000Y-62616860D01*
X76904000Y-62303140D01*
X76905323Y-62289707D01*
X76907452Y-62282689D01*
X76914811Y-62268920D01*
X76924187Y-62246281D01*
X76928967Y-62222247D01*
X76928966Y-62197743D01*
X76924184Y-62173710D01*
X76914811Y-62151080D01*
X76907452Y-62137311D01*
X76905323Y-62130293D01*
X76904000Y-62116860D01*
X76904000Y-61803140D01*
X76905323Y-61789707D01*
X76907452Y-61782689D01*
X76914811Y-61768920D01*
X76924187Y-61746281D01*
X76928967Y-61722247D01*
X76928966Y-61697743D01*
X76924184Y-61673710D01*
X76914811Y-61651080D01*
X76907452Y-61637311D01*
X76905323Y-61630293D01*
X76904000Y-61616860D01*
X76904000Y-61303140D01*
X76905323Y-61289707D01*
X76907452Y-61282689D01*
X76914811Y-61268920D01*
X76924187Y-61246281D01*
X76928967Y-61222247D01*
X76928966Y-61197743D01*
X76924184Y-61173710D01*
X76914811Y-61151080D01*
X76907452Y-61137311D01*
X76905323Y-61130293D01*
X76904000Y-61116860D01*
X76904000Y-60803140D01*
X76905323Y-60789707D01*
X76907452Y-60782689D01*
X76914811Y-60768920D01*
X76924187Y-60746281D01*
X76928967Y-60722247D01*
X76928966Y-60697743D01*
X76924184Y-60673710D01*
X76914811Y-60651080D01*
X76907452Y-60637311D01*
X76905323Y-60630293D01*
X76904000Y-60616860D01*
X76904000Y-60303140D01*
X76905323Y-60289707D01*
X76907452Y-60282689D01*
X76914811Y-60268920D01*
X76924187Y-60246281D01*
X76928967Y-60222247D01*
X76928966Y-60197743D01*
X76924184Y-60173710D01*
X76914811Y-60151080D01*
X76907452Y-60137311D01*
X76905323Y-60130293D01*
X76904000Y-60116860D01*
X76904000Y-59803140D01*
X76905323Y-59789707D01*
X76907452Y-59782689D01*
X76914811Y-59768920D01*
X76924187Y-59746281D01*
X76928967Y-59722247D01*
X76928966Y-59697743D01*
X76924184Y-59673710D01*
X76914811Y-59651080D01*
X76907452Y-59637311D01*
X76905323Y-59630293D01*
X76904000Y-59616860D01*
X76904000Y-59303140D01*
X76905323Y-59289707D01*
X76907452Y-59282689D01*
X76914811Y-59268920D01*
X76924187Y-59246281D01*
X76928967Y-59222247D01*
X76928966Y-59197743D01*
X76924184Y-59173710D01*
X76914811Y-59151080D01*
X76907452Y-59137311D01*
X76905323Y-59130293D01*
X76904000Y-59116860D01*
X76904000Y-58803140D01*
X76905323Y-58789707D01*
X76907452Y-58782689D01*
X76914811Y-58768920D01*
X76924187Y-58746281D01*
X76928967Y-58722247D01*
X76928966Y-58697743D01*
X76924184Y-58673710D01*
X76914811Y-58651080D01*
X76907452Y-58637311D01*
X76905323Y-58630293D01*
X76904000Y-58616860D01*
X76904000Y-58303140D01*
X76905323Y-58289707D01*
X76907452Y-58282688D01*
X76910907Y-58276225D01*
X76915558Y-58270558D01*
X76921225Y-58265907D01*
X76927688Y-58262452D01*
X76934707Y-58260323D01*
X76948140Y-58259000D01*
X78561860Y-58259000D01*
X78575293Y-58260323D01*
X78575293Y-58260323D01*
G37*
G36*
X96061000Y-58491000D02*
X95059000Y-58491000D01*
X95059000Y-57589000D01*
X96061000Y-57589000D01*
X96061000Y-58491000D01*
X96061000Y-58491000D01*
G37*
G36*
X97861000Y-58491000D02*
X96859000Y-58491000D01*
X96859000Y-57589000D01*
X97861000Y-57589000D01*
X97861000Y-58491000D01*
X97861000Y-58491000D01*
G37*
G36*
X79600293Y-55935323D02*
X79607311Y-55937452D01*
X79621080Y-55944811D01*
X79643719Y-55954187D01*
X79667753Y-55958967D01*
X79692257Y-55958966D01*
X79716290Y-55954184D01*
X79738920Y-55944811D01*
X79752689Y-55937452D01*
X79759707Y-55935323D01*
X79773140Y-55934000D01*
X80086860Y-55934000D01*
X80100293Y-55935323D01*
X80107311Y-55937452D01*
X80121080Y-55944811D01*
X80143719Y-55954187D01*
X80167753Y-55958967D01*
X80192257Y-55958966D01*
X80216290Y-55954184D01*
X80238920Y-55944811D01*
X80252689Y-55937452D01*
X80259707Y-55935323D01*
X80273140Y-55934000D01*
X80586860Y-55934000D01*
X80600293Y-55935323D01*
X80607311Y-55937452D01*
X80621080Y-55944811D01*
X80643719Y-55954187D01*
X80667753Y-55958967D01*
X80692257Y-55958966D01*
X80716290Y-55954184D01*
X80738920Y-55944811D01*
X80752689Y-55937452D01*
X80759707Y-55935323D01*
X80773140Y-55934000D01*
X81086860Y-55934000D01*
X81100293Y-55935323D01*
X81107311Y-55937452D01*
X81121080Y-55944811D01*
X81143719Y-55954187D01*
X81167753Y-55958967D01*
X81192257Y-55958966D01*
X81216290Y-55954184D01*
X81238920Y-55944811D01*
X81252689Y-55937452D01*
X81259707Y-55935323D01*
X81273140Y-55934000D01*
X81586860Y-55934000D01*
X81600293Y-55935323D01*
X81607311Y-55937452D01*
X81621080Y-55944811D01*
X81643719Y-55954187D01*
X81667753Y-55958967D01*
X81692257Y-55958966D01*
X81716290Y-55954184D01*
X81738920Y-55944811D01*
X81752689Y-55937452D01*
X81759707Y-55935323D01*
X81773140Y-55934000D01*
X82086860Y-55934000D01*
X82100293Y-55935323D01*
X82107311Y-55937452D01*
X82121080Y-55944811D01*
X82143719Y-55954187D01*
X82167753Y-55958967D01*
X82192257Y-55958966D01*
X82216290Y-55954184D01*
X82238920Y-55944811D01*
X82252689Y-55937452D01*
X82259707Y-55935323D01*
X82273140Y-55934000D01*
X82586860Y-55934000D01*
X82600293Y-55935323D01*
X82607311Y-55937452D01*
X82621080Y-55944811D01*
X82643719Y-55954187D01*
X82667753Y-55958967D01*
X82692257Y-55958966D01*
X82716290Y-55954184D01*
X82738920Y-55944811D01*
X82752689Y-55937452D01*
X82759707Y-55935323D01*
X82773140Y-55934000D01*
X83086860Y-55934000D01*
X83100293Y-55935323D01*
X83107311Y-55937452D01*
X83121080Y-55944811D01*
X83143719Y-55954187D01*
X83167753Y-55958967D01*
X83192257Y-55958966D01*
X83216290Y-55954184D01*
X83238920Y-55944811D01*
X83252689Y-55937452D01*
X83259707Y-55935323D01*
X83273140Y-55934000D01*
X83586860Y-55934000D01*
X83600293Y-55935323D01*
X83607311Y-55937452D01*
X83621080Y-55944811D01*
X83643719Y-55954187D01*
X83667753Y-55958967D01*
X83692257Y-55958966D01*
X83716290Y-55954184D01*
X83738920Y-55944811D01*
X83752689Y-55937452D01*
X83759707Y-55935323D01*
X83773140Y-55934000D01*
X84086860Y-55934000D01*
X84100293Y-55935323D01*
X84107311Y-55937452D01*
X84121080Y-55944811D01*
X84143719Y-55954187D01*
X84167753Y-55958967D01*
X84192257Y-55958966D01*
X84216290Y-55954184D01*
X84238920Y-55944811D01*
X84252689Y-55937452D01*
X84259707Y-55935323D01*
X84273140Y-55934000D01*
X84586860Y-55934000D01*
X84600293Y-55935323D01*
X84607311Y-55937452D01*
X84621080Y-55944811D01*
X84643719Y-55954187D01*
X84667753Y-55958967D01*
X84692257Y-55958966D01*
X84716290Y-55954184D01*
X84738920Y-55944811D01*
X84752689Y-55937452D01*
X84759707Y-55935323D01*
X84773140Y-55934000D01*
X85086860Y-55934000D01*
X85100293Y-55935323D01*
X85107311Y-55937452D01*
X85121080Y-55944811D01*
X85143719Y-55954187D01*
X85167753Y-55958967D01*
X85192257Y-55958966D01*
X85216290Y-55954184D01*
X85238920Y-55944811D01*
X85252689Y-55937452D01*
X85259707Y-55935323D01*
X85273140Y-55934000D01*
X85586860Y-55934000D01*
X85600293Y-55935323D01*
X85607311Y-55937452D01*
X85621080Y-55944811D01*
X85643719Y-55954187D01*
X85667753Y-55958967D01*
X85692257Y-55958966D01*
X85716290Y-55954184D01*
X85738920Y-55944811D01*
X85752689Y-55937452D01*
X85759707Y-55935323D01*
X85773140Y-55934000D01*
X86086860Y-55934000D01*
X86100293Y-55935323D01*
X86107311Y-55937452D01*
X86121080Y-55944811D01*
X86143719Y-55954187D01*
X86167753Y-55958967D01*
X86192257Y-55958966D01*
X86216290Y-55954184D01*
X86238920Y-55944811D01*
X86252689Y-55937452D01*
X86259707Y-55935323D01*
X86273140Y-55934000D01*
X86586860Y-55934000D01*
X86600293Y-55935323D01*
X86607311Y-55937452D01*
X86621080Y-55944811D01*
X86643719Y-55954187D01*
X86667753Y-55958967D01*
X86692257Y-55958966D01*
X86716290Y-55954184D01*
X86738920Y-55944811D01*
X86752689Y-55937452D01*
X86759707Y-55935323D01*
X86773140Y-55934000D01*
X87086860Y-55934000D01*
X87100293Y-55935323D01*
X87107311Y-55937452D01*
X87121080Y-55944811D01*
X87143719Y-55954187D01*
X87167753Y-55958967D01*
X87192257Y-55958966D01*
X87216290Y-55954184D01*
X87238920Y-55944811D01*
X87252689Y-55937452D01*
X87259707Y-55935323D01*
X87273140Y-55934000D01*
X87586860Y-55934000D01*
X87600293Y-55935323D01*
X87607311Y-55937452D01*
X87621080Y-55944811D01*
X87643719Y-55954187D01*
X87667753Y-55958967D01*
X87692257Y-55958966D01*
X87716290Y-55954184D01*
X87738920Y-55944811D01*
X87752689Y-55937452D01*
X87759707Y-55935323D01*
X87773140Y-55934000D01*
X88086860Y-55934000D01*
X88100293Y-55935323D01*
X88107311Y-55937452D01*
X88121080Y-55944811D01*
X88143719Y-55954187D01*
X88167753Y-55958967D01*
X88192257Y-55958966D01*
X88216290Y-55954184D01*
X88238920Y-55944811D01*
X88252689Y-55937452D01*
X88259707Y-55935323D01*
X88273140Y-55934000D01*
X88586860Y-55934000D01*
X88600293Y-55935323D01*
X88607311Y-55937452D01*
X88621080Y-55944811D01*
X88643719Y-55954187D01*
X88667753Y-55958967D01*
X88692257Y-55958966D01*
X88716290Y-55954184D01*
X88738920Y-55944811D01*
X88752689Y-55937452D01*
X88759707Y-55935323D01*
X88773140Y-55934000D01*
X89086860Y-55934000D01*
X89100293Y-55935323D01*
X89107311Y-55937452D01*
X89121080Y-55944811D01*
X89143719Y-55954187D01*
X89167753Y-55958967D01*
X89192257Y-55958966D01*
X89216290Y-55954184D01*
X89238920Y-55944811D01*
X89252689Y-55937452D01*
X89259707Y-55935323D01*
X89273140Y-55934000D01*
X89586860Y-55934000D01*
X89600293Y-55935323D01*
X89607311Y-55937452D01*
X89621080Y-55944811D01*
X89643719Y-55954187D01*
X89667753Y-55958967D01*
X89692257Y-55958966D01*
X89716290Y-55954184D01*
X89738920Y-55944811D01*
X89752689Y-55937452D01*
X89759707Y-55935323D01*
X89773140Y-55934000D01*
X90086860Y-55934000D01*
X90100293Y-55935323D01*
X90107311Y-55937452D01*
X90121080Y-55944811D01*
X90143719Y-55954187D01*
X90167753Y-55958967D01*
X90192257Y-55958966D01*
X90216290Y-55954184D01*
X90238920Y-55944811D01*
X90252689Y-55937452D01*
X90259707Y-55935323D01*
X90273140Y-55934000D01*
X90586860Y-55934000D01*
X90600293Y-55935323D01*
X90607311Y-55937452D01*
X90621080Y-55944811D01*
X90643719Y-55954187D01*
X90667753Y-55958967D01*
X90692257Y-55958966D01*
X90716290Y-55954184D01*
X90738920Y-55944811D01*
X90752689Y-55937452D01*
X90759707Y-55935323D01*
X90773140Y-55934000D01*
X91086860Y-55934000D01*
X91100293Y-55935323D01*
X91107311Y-55937452D01*
X91121080Y-55944811D01*
X91143719Y-55954187D01*
X91167753Y-55958967D01*
X91192257Y-55958966D01*
X91216290Y-55954184D01*
X91238920Y-55944811D01*
X91252689Y-55937452D01*
X91259707Y-55935323D01*
X91273140Y-55934000D01*
X91586860Y-55934000D01*
X91600293Y-55935323D01*
X91607312Y-55937452D01*
X91613775Y-55940907D01*
X91619442Y-55945558D01*
X91624093Y-55951225D01*
X91627548Y-55957688D01*
X91629677Y-55964707D01*
X91631000Y-55978140D01*
X91631000Y-57591860D01*
X91629677Y-57605293D01*
X91627548Y-57612312D01*
X91624093Y-57618775D01*
X91619442Y-57624442D01*
X91613775Y-57629093D01*
X91607312Y-57632548D01*
X91600293Y-57634677D01*
X91586860Y-57636000D01*
X91273140Y-57636000D01*
X91259707Y-57634677D01*
X91252689Y-57632548D01*
X91238920Y-57625189D01*
X91216281Y-57615813D01*
X91192247Y-57611033D01*
X91167743Y-57611034D01*
X91143710Y-57615816D01*
X91121080Y-57625189D01*
X91107311Y-57632548D01*
X91100293Y-57634677D01*
X91086860Y-57636000D01*
X90773140Y-57636000D01*
X90759707Y-57634677D01*
X90752689Y-57632548D01*
X90738920Y-57625189D01*
X90716281Y-57615813D01*
X90692247Y-57611033D01*
X90667743Y-57611034D01*
X90643710Y-57615816D01*
X90621080Y-57625189D01*
X90607311Y-57632548D01*
X90600293Y-57634677D01*
X90586860Y-57636000D01*
X90273140Y-57636000D01*
X90259707Y-57634677D01*
X90252689Y-57632548D01*
X90238920Y-57625189D01*
X90216281Y-57615813D01*
X90192247Y-57611033D01*
X90167743Y-57611034D01*
X90143710Y-57615816D01*
X90121080Y-57625189D01*
X90107311Y-57632548D01*
X90100293Y-57634677D01*
X90086860Y-57636000D01*
X89773140Y-57636000D01*
X89759707Y-57634677D01*
X89752689Y-57632548D01*
X89738920Y-57625189D01*
X89716281Y-57615813D01*
X89692247Y-57611033D01*
X89667743Y-57611034D01*
X89643710Y-57615816D01*
X89621080Y-57625189D01*
X89607311Y-57632548D01*
X89600293Y-57634677D01*
X89586860Y-57636000D01*
X89273140Y-57636000D01*
X89259707Y-57634677D01*
X89252689Y-57632548D01*
X89238920Y-57625189D01*
X89216281Y-57615813D01*
X89192247Y-57611033D01*
X89167743Y-57611034D01*
X89143710Y-57615816D01*
X89121080Y-57625189D01*
X89107311Y-57632548D01*
X89100293Y-57634677D01*
X89086860Y-57636000D01*
X88773140Y-57636000D01*
X88759707Y-57634677D01*
X88752689Y-57632548D01*
X88738920Y-57625189D01*
X88716281Y-57615813D01*
X88692247Y-57611033D01*
X88667743Y-57611034D01*
X88643710Y-57615816D01*
X88621080Y-57625189D01*
X88607311Y-57632548D01*
X88600293Y-57634677D01*
X88586860Y-57636000D01*
X88273140Y-57636000D01*
X88259707Y-57634677D01*
X88252689Y-57632548D01*
X88238920Y-57625189D01*
X88216281Y-57615813D01*
X88192247Y-57611033D01*
X88167743Y-57611034D01*
X88143710Y-57615816D01*
X88121080Y-57625189D01*
X88107311Y-57632548D01*
X88100293Y-57634677D01*
X88086860Y-57636000D01*
X87773140Y-57636000D01*
X87759707Y-57634677D01*
X87752689Y-57632548D01*
X87738920Y-57625189D01*
X87716281Y-57615813D01*
X87692247Y-57611033D01*
X87667743Y-57611034D01*
X87643710Y-57615816D01*
X87621080Y-57625189D01*
X87607311Y-57632548D01*
X87600293Y-57634677D01*
X87586860Y-57636000D01*
X87273140Y-57636000D01*
X87259707Y-57634677D01*
X87252689Y-57632548D01*
X87238920Y-57625189D01*
X87216281Y-57615813D01*
X87192247Y-57611033D01*
X87167743Y-57611034D01*
X87143710Y-57615816D01*
X87121080Y-57625189D01*
X87107311Y-57632548D01*
X87100293Y-57634677D01*
X87086860Y-57636000D01*
X86773140Y-57636000D01*
X86759707Y-57634677D01*
X86752689Y-57632548D01*
X86738920Y-57625189D01*
X86716281Y-57615813D01*
X86692247Y-57611033D01*
X86667743Y-57611034D01*
X86643710Y-57615816D01*
X86621080Y-57625189D01*
X86607311Y-57632548D01*
X86600293Y-57634677D01*
X86586860Y-57636000D01*
X86273140Y-57636000D01*
X86259707Y-57634677D01*
X86252689Y-57632548D01*
X86238920Y-57625189D01*
X86216281Y-57615813D01*
X86192247Y-57611033D01*
X86167743Y-57611034D01*
X86143710Y-57615816D01*
X86121080Y-57625189D01*
X86107311Y-57632548D01*
X86100293Y-57634677D01*
X86086860Y-57636000D01*
X85773140Y-57636000D01*
X85759707Y-57634677D01*
X85752689Y-57632548D01*
X85738920Y-57625189D01*
X85716281Y-57615813D01*
X85692247Y-57611033D01*
X85667743Y-57611034D01*
X85643710Y-57615816D01*
X85621080Y-57625189D01*
X85607311Y-57632548D01*
X85600293Y-57634677D01*
X85586860Y-57636000D01*
X85273140Y-57636000D01*
X85259707Y-57634677D01*
X85252689Y-57632548D01*
X85238920Y-57625189D01*
X85216281Y-57615813D01*
X85192247Y-57611033D01*
X85167743Y-57611034D01*
X85143710Y-57615816D01*
X85121080Y-57625189D01*
X85107311Y-57632548D01*
X85100293Y-57634677D01*
X85086860Y-57636000D01*
X84773140Y-57636000D01*
X84759707Y-57634677D01*
X84752689Y-57632548D01*
X84738920Y-57625189D01*
X84716281Y-57615813D01*
X84692247Y-57611033D01*
X84667743Y-57611034D01*
X84643710Y-57615816D01*
X84621080Y-57625189D01*
X84607311Y-57632548D01*
X84600293Y-57634677D01*
X84586860Y-57636000D01*
X84273140Y-57636000D01*
X84259707Y-57634677D01*
X84252689Y-57632548D01*
X84238920Y-57625189D01*
X84216281Y-57615813D01*
X84192247Y-57611033D01*
X84167743Y-57611034D01*
X84143710Y-57615816D01*
X84121080Y-57625189D01*
X84107311Y-57632548D01*
X84100293Y-57634677D01*
X84086860Y-57636000D01*
X83773140Y-57636000D01*
X83759707Y-57634677D01*
X83752689Y-57632548D01*
X83738920Y-57625189D01*
X83716281Y-57615813D01*
X83692247Y-57611033D01*
X83667743Y-57611034D01*
X83643710Y-57615816D01*
X83621080Y-57625189D01*
X83607311Y-57632548D01*
X83600293Y-57634677D01*
X83586860Y-57636000D01*
X83273140Y-57636000D01*
X83259707Y-57634677D01*
X83252689Y-57632548D01*
X83238920Y-57625189D01*
X83216281Y-57615813D01*
X83192247Y-57611033D01*
X83167743Y-57611034D01*
X83143710Y-57615816D01*
X83121080Y-57625189D01*
X83107311Y-57632548D01*
X83100293Y-57634677D01*
X83086860Y-57636000D01*
X82773140Y-57636000D01*
X82759707Y-57634677D01*
X82752689Y-57632548D01*
X82738920Y-57625189D01*
X82716281Y-57615813D01*
X82692247Y-57611033D01*
X82667743Y-57611034D01*
X82643710Y-57615816D01*
X82621080Y-57625189D01*
X82607311Y-57632548D01*
X82600293Y-57634677D01*
X82586860Y-57636000D01*
X82273140Y-57636000D01*
X82259707Y-57634677D01*
X82252689Y-57632548D01*
X82238920Y-57625189D01*
X82216281Y-57615813D01*
X82192247Y-57611033D01*
X82167743Y-57611034D01*
X82143710Y-57615816D01*
X82121080Y-57625189D01*
X82107311Y-57632548D01*
X82100293Y-57634677D01*
X82086860Y-57636000D01*
X81773140Y-57636000D01*
X81759707Y-57634677D01*
X81752689Y-57632548D01*
X81738920Y-57625189D01*
X81716281Y-57615813D01*
X81692247Y-57611033D01*
X81667743Y-57611034D01*
X81643710Y-57615816D01*
X81621080Y-57625189D01*
X81607311Y-57632548D01*
X81600293Y-57634677D01*
X81586860Y-57636000D01*
X81273140Y-57636000D01*
X81259707Y-57634677D01*
X81252689Y-57632548D01*
X81238920Y-57625189D01*
X81216281Y-57615813D01*
X81192247Y-57611033D01*
X81167743Y-57611034D01*
X81143710Y-57615816D01*
X81121080Y-57625189D01*
X81107311Y-57632548D01*
X81100293Y-57634677D01*
X81086860Y-57636000D01*
X80773140Y-57636000D01*
X80759707Y-57634677D01*
X80752689Y-57632548D01*
X80738920Y-57625189D01*
X80716281Y-57615813D01*
X80692247Y-57611033D01*
X80667743Y-57611034D01*
X80643710Y-57615816D01*
X80621080Y-57625189D01*
X80607311Y-57632548D01*
X80600293Y-57634677D01*
X80586860Y-57636000D01*
X80273140Y-57636000D01*
X80259707Y-57634677D01*
X80252689Y-57632548D01*
X80238920Y-57625189D01*
X80216281Y-57615813D01*
X80192247Y-57611033D01*
X80167743Y-57611034D01*
X80143710Y-57615816D01*
X80121080Y-57625189D01*
X80107311Y-57632548D01*
X80100293Y-57634677D01*
X80086860Y-57636000D01*
X79773140Y-57636000D01*
X79759707Y-57634677D01*
X79752689Y-57632548D01*
X79738920Y-57625189D01*
X79716281Y-57615813D01*
X79692247Y-57611033D01*
X79667743Y-57611034D01*
X79643710Y-57615816D01*
X79621080Y-57625189D01*
X79607311Y-57632548D01*
X79600293Y-57634677D01*
X79586860Y-57636000D01*
X79273140Y-57636000D01*
X79259707Y-57634677D01*
X79252688Y-57632548D01*
X79246225Y-57629093D01*
X79240558Y-57624442D01*
X79235907Y-57618775D01*
X79232452Y-57612312D01*
X79230323Y-57605293D01*
X79229000Y-57591860D01*
X79229000Y-55978140D01*
X79230323Y-55964707D01*
X79232452Y-55957688D01*
X79235907Y-55951225D01*
X79240558Y-55945558D01*
X79246225Y-55940907D01*
X79252688Y-55937452D01*
X79259707Y-55935323D01*
X79273140Y-55934000D01*
X79586860Y-55934000D01*
X79600293Y-55935323D01*
X79600293Y-55935323D01*
G37*
G36*
X89631000Y-54591000D02*
X88729000Y-54591000D01*
X88729000Y-53589000D01*
X89631000Y-53589000D01*
X89631000Y-54591000D01*
X89631000Y-54591000D01*
G37*
G36*
X81371000Y-54591000D02*
X80469000Y-54591000D01*
X80469000Y-53589000D01*
X81371000Y-53589000D01*
X81371000Y-54591000D01*
X81371000Y-54591000D01*
G37*
G36*
X86851000Y-54581000D02*
X85949000Y-54581000D01*
X85949000Y-53579000D01*
X86851000Y-53579000D01*
X86851000Y-54581000D01*
X86851000Y-54581000D01*
G37*
G36*
X81371000Y-52791000D02*
X80469000Y-52791000D01*
X80469000Y-51789000D01*
X81371000Y-51789000D01*
X81371000Y-52791000D01*
X81371000Y-52791000D01*
G37*
G36*
X89631000Y-52791000D02*
X88729000Y-52791000D01*
X88729000Y-51789000D01*
X89631000Y-51789000D01*
X89631000Y-52791000D01*
X89631000Y-52791000D01*
G37*
G36*
X86851000Y-52781000D02*
X85949000Y-52781000D01*
X85949000Y-51779000D01*
X86851000Y-51779000D01*
X86851000Y-52781000D01*
X86851000Y-52781000D01*
G37*
G36*
X104251000Y-52101000D02*
X102449000Y-52101000D01*
X102449000Y-50299000D01*
X104251000Y-50299000D01*
X104251000Y-52101000D01*
X104251000Y-52101000D01*
G37*
G36*
X106000442Y-50305518D02*
X106066627Y-50312037D01*
X106179853Y-50346384D01*
X106236467Y-50363557D01*
X106375087Y-50437652D01*
X106392991Y-50447222D01*
X106428729Y-50476552D01*
X106530186Y-50559814D01*
X106613226Y-50661000D01*
X106642778Y-50697009D01*
X106642779Y-50697011D01*
X106726443Y-50853533D01*
X106726443Y-50853534D01*
X106777963Y-51023373D01*
X106795359Y-51200000D01*
X106777963Y-51376627D01*
X106743616Y-51489853D01*
X106726443Y-51546467D01*
X106652348Y-51685087D01*
X106642778Y-51702991D01*
X106613448Y-51738729D01*
X106530186Y-51840186D01*
X106428729Y-51923448D01*
X106392991Y-51952778D01*
X106392989Y-51952779D01*
X106236467Y-52036443D01*
X106179853Y-52053616D01*
X106066627Y-52087963D01*
X106000442Y-52094482D01*
X105934260Y-52101000D01*
X105845740Y-52101000D01*
X105779558Y-52094482D01*
X105713373Y-52087963D01*
X105600147Y-52053616D01*
X105543533Y-52036443D01*
X105387011Y-51952779D01*
X105387009Y-51952778D01*
X105351271Y-51923448D01*
X105249814Y-51840186D01*
X105166552Y-51738729D01*
X105137222Y-51702991D01*
X105127652Y-51685087D01*
X105053557Y-51546467D01*
X105036384Y-51489853D01*
X105002037Y-51376627D01*
X104984641Y-51200000D01*
X105002037Y-51023373D01*
X105053557Y-50853534D01*
X105053557Y-50853533D01*
X105137221Y-50697011D01*
X105137222Y-50697009D01*
X105166774Y-50661000D01*
X105249814Y-50559814D01*
X105351271Y-50476552D01*
X105387009Y-50447222D01*
X105404913Y-50437652D01*
X105543533Y-50363557D01*
X105600147Y-50346384D01*
X105713373Y-50312037D01*
X105779558Y-50305518D01*
X105845740Y-50299000D01*
X105934260Y-50299000D01*
X106000442Y-50305518D01*
X106000442Y-50305518D01*
G37*
G36*
X69951000Y-51831000D02*
X68949000Y-51831000D01*
X68949000Y-50929000D01*
X69951000Y-50929000D01*
X69951000Y-51831000D01*
X69951000Y-51831000D01*
G37*
G36*
X68151000Y-51831000D02*
X67149000Y-51831000D01*
X67149000Y-50929000D01*
X68151000Y-50929000D01*
X68151000Y-51831000D01*
X68151000Y-51831000D01*
G37*
G36*
X75691000Y-51821000D02*
X74689000Y-51821000D01*
X74689000Y-50919000D01*
X75691000Y-50919000D01*
X75691000Y-51821000D01*
X75691000Y-51821000D01*
G37*
G36*
X77491000Y-51821000D02*
X76489000Y-51821000D01*
X76489000Y-50919000D01*
X77491000Y-50919000D01*
X77491000Y-51821000D01*
X77491000Y-51821000D01*
G37*
G36*
X66411000Y-51821000D02*
X65409000Y-51821000D01*
X65409000Y-50919000D01*
X66411000Y-50919000D01*
X66411000Y-51821000D01*
X66411000Y-51821000D01*
G37*
G36*
X64611000Y-51821000D02*
X63609000Y-51821000D01*
X63609000Y-50919000D01*
X64611000Y-50919000D01*
X64611000Y-51821000D01*
X64611000Y-51821000D01*
G37*
G36*
X81301000Y-50661000D02*
X79499000Y-50661000D01*
X79499000Y-48159000D01*
X81301000Y-48159000D01*
X81301000Y-50661000D01*
X81301000Y-50661000D01*
G37*
G36*
X85001000Y-50661000D02*
X83199000Y-50661000D01*
X83199000Y-48159000D01*
X85001000Y-48159000D01*
X85001000Y-50661000D01*
X85001000Y-50661000D01*
G37*
G36*
X86801500Y-50401000D02*
X85699500Y-50401000D01*
X85699500Y-48499000D01*
X86801500Y-48499000D01*
X86801500Y-50401000D01*
X86801500Y-50401000D01*
G37*
G36*
X89301500Y-50401000D02*
X88199500Y-50401000D01*
X88199500Y-48499000D01*
X89301500Y-48499000D01*
X89301500Y-50401000D01*
X89301500Y-50401000D01*
G37*
G36*
X75421000Y-49291000D02*
X74519000Y-49291000D01*
X74519000Y-48289000D01*
X75421000Y-48289000D01*
X75421000Y-49291000D01*
X75421000Y-49291000D01*
G37*
G36*
X65959928Y-47756764D02*
X65981011Y-47763160D01*
X66000442Y-47773546D01*
X66017475Y-47787525D01*
X66031454Y-47804558D01*
X66041840Y-47823989D01*
X66048236Y-47845072D01*
X66051000Y-47873140D01*
X66051000Y-48336860D01*
X66048236Y-48364928D01*
X66041840Y-48386011D01*
X66031454Y-48405442D01*
X66017475Y-48422475D01*
X66000442Y-48436454D01*
X65981011Y-48446840D01*
X65959928Y-48453236D01*
X65931860Y-48456000D01*
X64468140Y-48456000D01*
X64440072Y-48453236D01*
X64418989Y-48446840D01*
X64399558Y-48436454D01*
X64382525Y-48422475D01*
X64368546Y-48405442D01*
X64358160Y-48386011D01*
X64351764Y-48364928D01*
X64349000Y-48336860D01*
X64349000Y-47873140D01*
X64351764Y-47845072D01*
X64358160Y-47823989D01*
X64368546Y-47804558D01*
X64382525Y-47787525D01*
X64399558Y-47773546D01*
X64418989Y-47763160D01*
X64440072Y-47756764D01*
X64468140Y-47754000D01*
X65931860Y-47754000D01*
X65959928Y-47756764D01*
X65959928Y-47756764D01*
G37*
G36*
X73159928Y-47756764D02*
X73181011Y-47763160D01*
X73200442Y-47773546D01*
X73217475Y-47787525D01*
X73231454Y-47804558D01*
X73241840Y-47823989D01*
X73248236Y-47845072D01*
X73251000Y-47873140D01*
X73251000Y-48336860D01*
X73248236Y-48364928D01*
X73241840Y-48386011D01*
X73231454Y-48405442D01*
X73217475Y-48422475D01*
X73200442Y-48436454D01*
X73181011Y-48446840D01*
X73159928Y-48453236D01*
X73131860Y-48456000D01*
X71668140Y-48456000D01*
X71640072Y-48453236D01*
X71618989Y-48446840D01*
X71599558Y-48436454D01*
X71582525Y-48422475D01*
X71568546Y-48405442D01*
X71558160Y-48386011D01*
X71551764Y-48364928D01*
X71549000Y-48336860D01*
X71549000Y-47873140D01*
X71551764Y-47845072D01*
X71558160Y-47823989D01*
X71568546Y-47804558D01*
X71582525Y-47787525D01*
X71599558Y-47773546D01*
X71618989Y-47763160D01*
X71640072Y-47756764D01*
X71668140Y-47754000D01*
X73131860Y-47754000D01*
X73159928Y-47756764D01*
X73159928Y-47756764D01*
G37*
G36*
X75421000Y-47491000D02*
X74519000Y-47491000D01*
X74519000Y-46489000D01*
X75421000Y-46489000D01*
X75421000Y-47491000D01*
X75421000Y-47491000D01*
G37*
G36*
X89121000Y-47441000D02*
X88219000Y-47441000D01*
X88219000Y-46439000D01*
X89121000Y-46439000D01*
X89121000Y-47441000D01*
X89121000Y-47441000D01*
G37*
G36*
X86782000Y-47431131D02*
X85880000Y-47431131D01*
X85880000Y-46429131D01*
X86782000Y-46429131D01*
X86782000Y-47431131D01*
X86782000Y-47431131D01*
G37*
G36*
X80741501Y-47301000D02*
X79839501Y-47301000D01*
X79839501Y-46299000D01*
X80741501Y-46299000D01*
X80741501Y-47301000D01*
X80741501Y-47301000D01*
G37*
G36*
X84870500Y-47291131D02*
X83968500Y-47291131D01*
X83968500Y-46289131D01*
X84870500Y-46289131D01*
X84870500Y-47291131D01*
X84870500Y-47291131D01*
G37*
G36*
X82741000Y-47290631D02*
X81839000Y-47290631D01*
X81839000Y-46288631D01*
X82741000Y-46288631D01*
X82741000Y-47290631D01*
X82741000Y-47290631D01*
G37*
G36*
X65959928Y-46486764D02*
X65981011Y-46493160D01*
X66000442Y-46503546D01*
X66017475Y-46517525D01*
X66031454Y-46534558D01*
X66041840Y-46553989D01*
X66048236Y-46575072D01*
X66051000Y-46603140D01*
X66051000Y-47066860D01*
X66048236Y-47094928D01*
X66041840Y-47116011D01*
X66031454Y-47135442D01*
X66017475Y-47152475D01*
X66000442Y-47166454D01*
X65981011Y-47176840D01*
X65959928Y-47183236D01*
X65931860Y-47186000D01*
X64468140Y-47186000D01*
X64440072Y-47183236D01*
X64418989Y-47176840D01*
X64399558Y-47166454D01*
X64382525Y-47152475D01*
X64368546Y-47135442D01*
X64358160Y-47116011D01*
X64351764Y-47094928D01*
X64349000Y-47066860D01*
X64349000Y-46603140D01*
X64351764Y-46575072D01*
X64358160Y-46553989D01*
X64368546Y-46534558D01*
X64382525Y-46517525D01*
X64399558Y-46503546D01*
X64418989Y-46493160D01*
X64440072Y-46486764D01*
X64468140Y-46484000D01*
X65931860Y-46484000D01*
X65959928Y-46486764D01*
X65959928Y-46486764D01*
G37*
G36*
X73159928Y-46486764D02*
X73181011Y-46493160D01*
X73200442Y-46503546D01*
X73217475Y-46517525D01*
X73231454Y-46534558D01*
X73241840Y-46553989D01*
X73248236Y-46575072D01*
X73251000Y-46603140D01*
X73251000Y-47066860D01*
X73248236Y-47094928D01*
X73241840Y-47116011D01*
X73231454Y-47135442D01*
X73217475Y-47152475D01*
X73200442Y-47166454D01*
X73181011Y-47176840D01*
X73159928Y-47183236D01*
X73131860Y-47186000D01*
X71668140Y-47186000D01*
X71640072Y-47183236D01*
X71618989Y-47176840D01*
X71599558Y-47166454D01*
X71582525Y-47152475D01*
X71568546Y-47135442D01*
X71558160Y-47116011D01*
X71551764Y-47094928D01*
X71549000Y-47066860D01*
X71549000Y-46603140D01*
X71551764Y-46575072D01*
X71558160Y-46553989D01*
X71568546Y-46534558D01*
X71582525Y-46517525D01*
X71599558Y-46503546D01*
X71618989Y-46493160D01*
X71640072Y-46486764D01*
X71668140Y-46484000D01*
X73131860Y-46484000D01*
X73159928Y-46486764D01*
X73159928Y-46486764D01*
G37*
G36*
X137541000Y-47161000D02*
X136639000Y-47161000D01*
X136639000Y-46159000D01*
X137541000Y-46159000D01*
X137541000Y-47161000D01*
X137541000Y-47161000D01*
G37*
G36*
X75421000Y-46081000D02*
X74519000Y-46081000D01*
X74519000Y-45079000D01*
X75421000Y-45079000D01*
X75421000Y-46081000D01*
X75421000Y-46081000D01*
G37*
G36*
X73159928Y-45216764D02*
X73181011Y-45223160D01*
X73200442Y-45233546D01*
X73217475Y-45247525D01*
X73231454Y-45264558D01*
X73241840Y-45283989D01*
X73248236Y-45305072D01*
X73251000Y-45333140D01*
X73251000Y-45796860D01*
X73248236Y-45824928D01*
X73241840Y-45846011D01*
X73231454Y-45865442D01*
X73217475Y-45882475D01*
X73200442Y-45896454D01*
X73181011Y-45906840D01*
X73159928Y-45913236D01*
X73131860Y-45916000D01*
X71668140Y-45916000D01*
X71640072Y-45913236D01*
X71618989Y-45906840D01*
X71599558Y-45896454D01*
X71582525Y-45882475D01*
X71568546Y-45865442D01*
X71558160Y-45846011D01*
X71551764Y-45824928D01*
X71549000Y-45796860D01*
X71549000Y-45333140D01*
X71551764Y-45305072D01*
X71558160Y-45283989D01*
X71568546Y-45264558D01*
X71582525Y-45247525D01*
X71599558Y-45233546D01*
X71618989Y-45223160D01*
X71640072Y-45216764D01*
X71668140Y-45214000D01*
X73131860Y-45214000D01*
X73159928Y-45216764D01*
X73159928Y-45216764D01*
G37*
G36*
X65959928Y-45216764D02*
X65981011Y-45223160D01*
X66000442Y-45233546D01*
X66017475Y-45247525D01*
X66031454Y-45264558D01*
X66041840Y-45283989D01*
X66048236Y-45305072D01*
X66051000Y-45333140D01*
X66051000Y-45796860D01*
X66048236Y-45824928D01*
X66041840Y-45846011D01*
X66031454Y-45865442D01*
X66017475Y-45882475D01*
X66000442Y-45896454D01*
X65981011Y-45906840D01*
X65959928Y-45913236D01*
X65931860Y-45916000D01*
X64468140Y-45916000D01*
X64440072Y-45913236D01*
X64418989Y-45906840D01*
X64399558Y-45896454D01*
X64382525Y-45882475D01*
X64368546Y-45865442D01*
X64358160Y-45846011D01*
X64351764Y-45824928D01*
X64349000Y-45796860D01*
X64349000Y-45333140D01*
X64351764Y-45305072D01*
X64358160Y-45283989D01*
X64368546Y-45264558D01*
X64382525Y-45247525D01*
X64399558Y-45233546D01*
X64418989Y-45223160D01*
X64440072Y-45216764D01*
X64468140Y-45214000D01*
X65931860Y-45214000D01*
X65959928Y-45216764D01*
X65959928Y-45216764D01*
G37*
G36*
X89121000Y-45641000D02*
X88219000Y-45641000D01*
X88219000Y-44639000D01*
X89121000Y-44639000D01*
X89121000Y-45641000D01*
X89121000Y-45641000D01*
G37*
G36*
X86782000Y-45631131D02*
X85880000Y-45631131D01*
X85880000Y-44629131D01*
X86782000Y-44629131D01*
X86782000Y-45631131D01*
X86782000Y-45631131D01*
G37*
G36*
X80741501Y-45501000D02*
X79839501Y-45501000D01*
X79839501Y-44499000D01*
X80741501Y-44499000D01*
X80741501Y-45501000D01*
X80741501Y-45501000D01*
G37*
G36*
X84870500Y-45491131D02*
X83968500Y-45491131D01*
X83968500Y-44489131D01*
X84870500Y-44489131D01*
X84870500Y-45491131D01*
X84870500Y-45491131D01*
G37*
G36*
X82741000Y-45490631D02*
X81839000Y-45490631D01*
X81839000Y-44488631D01*
X82741000Y-44488631D01*
X82741000Y-45490631D01*
X82741000Y-45490631D01*
G37*
G36*
X137541000Y-45361000D02*
X136639000Y-45361000D01*
X136639000Y-44359000D01*
X137541000Y-44359000D01*
X137541000Y-45361000D01*
X137541000Y-45361000D01*
G37*
G36*
X140701000Y-44786000D02*
X139039000Y-44786000D01*
X139039000Y-42134000D01*
X140701000Y-42134000D01*
X140701000Y-44786000D01*
X140701000Y-44786000D01*
G37*
G36*
X143401000Y-44786000D02*
X141739000Y-44786000D01*
X141739000Y-42134000D01*
X143401000Y-42134000D01*
X143401000Y-44786000D01*
X143401000Y-44786000D01*
G37*
G36*
X145871000Y-44691000D02*
X144969000Y-44691000D01*
X144969000Y-43689000D01*
X145871000Y-43689000D01*
X145871000Y-44691000D01*
X145871000Y-44691000D01*
G37*
G36*
X73159928Y-43946764D02*
X73181011Y-43953160D01*
X73200442Y-43963546D01*
X73217475Y-43977525D01*
X73231454Y-43994558D01*
X73241840Y-44013989D01*
X73248236Y-44035072D01*
X73251000Y-44063140D01*
X73251000Y-44526860D01*
X73248236Y-44554928D01*
X73241840Y-44576011D01*
X73231454Y-44595442D01*
X73217475Y-44612475D01*
X73200442Y-44626454D01*
X73181011Y-44636840D01*
X73159928Y-44643236D01*
X73131860Y-44646000D01*
X71668140Y-44646000D01*
X71640072Y-44643236D01*
X71618989Y-44636840D01*
X71599558Y-44626454D01*
X71582525Y-44612475D01*
X71568546Y-44595442D01*
X71558160Y-44576011D01*
X71551764Y-44554928D01*
X71549000Y-44526860D01*
X71549000Y-44063140D01*
X71551764Y-44035072D01*
X71558160Y-44013989D01*
X71568546Y-43994558D01*
X71582525Y-43977525D01*
X71599558Y-43963546D01*
X71618989Y-43953160D01*
X71640072Y-43946764D01*
X71668140Y-43944000D01*
X73131860Y-43944000D01*
X73159928Y-43946764D01*
X73159928Y-43946764D01*
G37*
G36*
X65959928Y-43946764D02*
X65981011Y-43953160D01*
X66000442Y-43963546D01*
X66017475Y-43977525D01*
X66031454Y-43994558D01*
X66041840Y-44013989D01*
X66048236Y-44035072D01*
X66051000Y-44063140D01*
X66051000Y-44526860D01*
X66048236Y-44554928D01*
X66041840Y-44576011D01*
X66031454Y-44595442D01*
X66017475Y-44612475D01*
X66000442Y-44626454D01*
X65981011Y-44636840D01*
X65959928Y-44643236D01*
X65931860Y-44646000D01*
X64468140Y-44646000D01*
X64440072Y-44643236D01*
X64418989Y-44636840D01*
X64399558Y-44626454D01*
X64382525Y-44612475D01*
X64368546Y-44595442D01*
X64358160Y-44576011D01*
X64351764Y-44554928D01*
X64349000Y-44526860D01*
X64349000Y-44063140D01*
X64351764Y-44035072D01*
X64358160Y-44013989D01*
X64368546Y-43994558D01*
X64382525Y-43977525D01*
X64399558Y-43963546D01*
X64418989Y-43953160D01*
X64440072Y-43946764D01*
X64468140Y-43944000D01*
X65931860Y-43944000D01*
X65959928Y-43946764D01*
X65959928Y-43946764D01*
G37*
G36*
X75421000Y-44281000D02*
X74519000Y-44281000D01*
X74519000Y-43279000D01*
X75421000Y-43279000D01*
X75421000Y-44281000D01*
X75421000Y-44281000D01*
G37*
G36*
X137541000Y-43951000D02*
X136639000Y-43951000D01*
X136639000Y-42949000D01*
X137541000Y-42949000D01*
X137541000Y-43951000D01*
X137541000Y-43951000D01*
G37*
G36*
X121401000Y-43921000D02*
X119499000Y-43921000D01*
X119499000Y-40319000D01*
X121401000Y-40319000D01*
X121401000Y-43921000D01*
X121401000Y-43921000D01*
G37*
G36*
X125411000Y-43911000D02*
X123309000Y-43911000D01*
X123309000Y-42109000D01*
X125411000Y-42109000D01*
X125411000Y-43911000D01*
X125411000Y-43911000D01*
G37*
G36*
X129411000Y-43911000D02*
X127309000Y-43911000D01*
X127309000Y-42109000D01*
X129411000Y-42109000D01*
X129411000Y-43911000D01*
X129411000Y-43911000D01*
G37*
G36*
X114171000Y-43901000D02*
X107769000Y-43901000D01*
X107769000Y-40799000D01*
X114171000Y-40799000D01*
X114171000Y-43901000D01*
X114171000Y-43901000D01*
G37*
G36*
X145871000Y-42891000D02*
X144969000Y-42891000D01*
X144969000Y-41889000D01*
X145871000Y-41889000D01*
X145871000Y-42891000D01*
X145871000Y-42891000D01*
G37*
G36*
X137541000Y-42151000D02*
X136639000Y-42151000D01*
X136639000Y-41149000D01*
X137541000Y-41149000D01*
X137541000Y-42151000D01*
X137541000Y-42151000D01*
G37*
G36*
X128781000Y-40941000D02*
X127879000Y-40941000D01*
X127879000Y-39939000D01*
X128781000Y-39939000D01*
X128781000Y-40941000D01*
X128781000Y-40941000D01*
G37*
G36*
X130141000Y-40931000D02*
X129239000Y-40931000D01*
X129239000Y-39929000D01*
X130141000Y-39929000D01*
X130141000Y-40931000D01*
X130141000Y-40931000D01*
G37*
G36*
X146011000Y-40541000D02*
X145009000Y-40541000D01*
X145009000Y-39639000D01*
X146011000Y-39639000D01*
X146011000Y-40541000D01*
X146011000Y-40541000D01*
G37*
G36*
X147811000Y-40541000D02*
X146809000Y-40541000D01*
X146809000Y-39639000D01*
X147811000Y-39639000D01*
X147811000Y-40541000D01*
X147811000Y-40541000D01*
G37*
G36*
X143716000Y-39781000D02*
X142164000Y-39781000D01*
X142164000Y-37279000D01*
X143716000Y-37279000D01*
X143716000Y-39781000D01*
X143716000Y-39781000D01*
G37*
G36*
X137816000Y-39781000D02*
X136264000Y-39781000D01*
X136264000Y-37279000D01*
X137816000Y-37279000D01*
X137816000Y-39781000D01*
X137816000Y-39781000D01*
G37*
G36*
X126296000Y-39651000D02*
X123644000Y-39651000D01*
X123644000Y-37989000D01*
X126296000Y-37989000D01*
X126296000Y-39651000D01*
X126296000Y-39651000D01*
G37*
G36*
X147801000Y-39181000D02*
X146799000Y-39181000D01*
X146799000Y-38279000D01*
X147801000Y-38279000D01*
X147801000Y-39181000D01*
X147801000Y-39181000D01*
G37*
G36*
X146001000Y-39181000D02*
X144999000Y-39181000D01*
X144999000Y-38279000D01*
X146001000Y-38279000D01*
X146001000Y-39181000D01*
X146001000Y-39181000D01*
G37*
G36*
X128781000Y-39141000D02*
X127879000Y-39141000D01*
X127879000Y-38139000D01*
X128781000Y-38139000D01*
X128781000Y-39141000D01*
X128781000Y-39141000D01*
G37*
G36*
X130141000Y-39131000D02*
X129239000Y-39131000D01*
X129239000Y-38129000D01*
X130141000Y-38129000D01*
X130141000Y-39131000D01*
X130141000Y-39131000D01*
G37*
G36*
X121401000Y-38921000D02*
X119499000Y-38921000D01*
X119499000Y-35319000D01*
X121401000Y-35319000D01*
X121401000Y-38921000D01*
X121401000Y-38921000D01*
G37*
G36*
X114171000Y-38911000D02*
X107769000Y-38911000D01*
X107769000Y-35809000D01*
X114171000Y-35809000D01*
X114171000Y-38911000D01*
X114171000Y-38911000D01*
G37*
G36*
X106831000Y-38121000D02*
X105029000Y-38121000D01*
X105029000Y-36019000D01*
X106831000Y-36019000D01*
X106831000Y-38121000D01*
X106831000Y-38121000D01*
G37*
G36*
X145991000Y-37821000D02*
X144989000Y-37821000D01*
X144989000Y-36919000D01*
X145991000Y-36919000D01*
X145991000Y-37821000D01*
X145991000Y-37821000D01*
G37*
G36*
X147791000Y-37821000D02*
X146789000Y-37821000D01*
X146789000Y-36919000D01*
X147791000Y-36919000D01*
X147791000Y-37821000D01*
X147791000Y-37821000D01*
G37*
G36*
X129571000Y-37331000D02*
X127769000Y-37331000D01*
X127769000Y-35229000D01*
X129571000Y-35229000D01*
X129571000Y-37331000D01*
X129571000Y-37331000D01*
G37*
G36*
X126296000Y-36951000D02*
X123644000Y-36951000D01*
X123644000Y-35289000D01*
X126296000Y-35289000D01*
X126296000Y-36951000D01*
X126296000Y-36951000D01*
G37*
G36*
X76251000Y-35611000D02*
X75349000Y-35611000D01*
X75349000Y-34609000D01*
X76251000Y-34609000D01*
X76251000Y-35611000D01*
X76251000Y-35611000D01*
G37*
G36*
X77651000Y-35611000D02*
X76749000Y-35611000D01*
X76749000Y-34609000D01*
X77651000Y-34609000D01*
X77651000Y-35611000D01*
X77651000Y-35611000D01*
G37*
G36*
X110271000Y-34396000D02*
X108169000Y-34396000D01*
X108169000Y-31744000D01*
X110271000Y-31744000D01*
X110271000Y-34396000D01*
X110271000Y-34396000D01*
G37*
G36*
X113691000Y-34396000D02*
X111589000Y-34396000D01*
X111589000Y-33644000D01*
X113691000Y-33644000D01*
X113691000Y-34396000D01*
X113691000Y-34396000D01*
G37*
G36*
X106831000Y-34121000D02*
X105029000Y-34121000D01*
X105029000Y-32019000D01*
X106831000Y-32019000D01*
X106831000Y-34121000D01*
X106831000Y-34121000D01*
G37*
G36*
X145880443Y-32225519D02*
X145946627Y-32232037D01*
X146059853Y-32266384D01*
X146116467Y-32283557D01*
X146255087Y-32357652D01*
X146272991Y-32367222D01*
X146308729Y-32396552D01*
X146410186Y-32479814D01*
X146493448Y-32581271D01*
X146522778Y-32617009D01*
X146522779Y-32617011D01*
X146606443Y-32773533D01*
X146623616Y-32830147D01*
X146657963Y-32943373D01*
X146675359Y-33120000D01*
X146657963Y-33296627D01*
X146647536Y-33331000D01*
X146606443Y-33466467D01*
X146555913Y-33561000D01*
X146522778Y-33622991D01*
X146505536Y-33644000D01*
X146410186Y-33760186D01*
X146308729Y-33843448D01*
X146272991Y-33872778D01*
X146272989Y-33872779D01*
X146116467Y-33956443D01*
X146059853Y-33973616D01*
X145946627Y-34007963D01*
X145880442Y-34014482D01*
X145814260Y-34021000D01*
X145725740Y-34021000D01*
X145659558Y-34014482D01*
X145593373Y-34007963D01*
X145480147Y-33973616D01*
X145423533Y-33956443D01*
X145267011Y-33872779D01*
X145267009Y-33872778D01*
X145231271Y-33843448D01*
X145129814Y-33760186D01*
X145034464Y-33644000D01*
X145017222Y-33622991D01*
X144984087Y-33561000D01*
X144933557Y-33466467D01*
X144892464Y-33331000D01*
X144882037Y-33296627D01*
X144864641Y-33120000D01*
X144882037Y-32943373D01*
X144916384Y-32830147D01*
X144933557Y-32773533D01*
X145017221Y-32617011D01*
X145017222Y-32617009D01*
X145046552Y-32581271D01*
X145129814Y-32479814D01*
X145231271Y-32396552D01*
X145267009Y-32367222D01*
X145284913Y-32357652D01*
X145423533Y-32283557D01*
X145480147Y-32266384D01*
X145593373Y-32232037D01*
X145659557Y-32225519D01*
X145725740Y-32219000D01*
X145814260Y-32219000D01*
X145880443Y-32225519D01*
X145880443Y-32225519D01*
G37*
G36*
X76251000Y-33811000D02*
X75349000Y-33811000D01*
X75349000Y-32809000D01*
X76251000Y-32809000D01*
X76251000Y-33811000D01*
X76251000Y-33811000D01*
G37*
G36*
X77651000Y-33811000D02*
X76749000Y-33811000D01*
X76749000Y-32809000D01*
X77651000Y-32809000D01*
X77651000Y-33811000D01*
X77651000Y-33811000D01*
G37*
G36*
X121725999Y-33561000D02*
X118623999Y-33561000D01*
X118623999Y-27159000D01*
X121725999Y-27159000D01*
X121725999Y-33561000D01*
X121725999Y-33561000D01*
G37*
G36*
X126715999Y-33561000D02*
X123613999Y-33561000D01*
X123613999Y-27159000D01*
X126715999Y-27159000D01*
X126715999Y-33561000D01*
X126715999Y-33561000D01*
G37*
G36*
X129571000Y-33331000D02*
X127769000Y-33331000D01*
X127769000Y-31229000D01*
X129571000Y-31229000D01*
X129571000Y-33331000D01*
X129571000Y-33331000D01*
G37*
G36*
X113691000Y-32496000D02*
X111589000Y-32496000D01*
X111589000Y-31744000D01*
X113691000Y-31744000D01*
X113691000Y-32496000D01*
X113691000Y-32496000D01*
G37*
G36*
X146671000Y-31481000D02*
X144869000Y-31481000D01*
X144869000Y-29679000D01*
X146671000Y-29679000D01*
X146671000Y-31481000D01*
X146671000Y-31481000D01*
G37*
G36*
X73235091Y-29306528D02*
X73294420Y-29331103D01*
X73347814Y-29366780D01*
X73388422Y-29407388D01*
X73407364Y-29422934D01*
X73428975Y-29434485D01*
X73452424Y-29441598D01*
X73476810Y-29444000D01*
X76803190Y-29444000D01*
X76827576Y-29441598D01*
X76851025Y-29434485D01*
X76872636Y-29422934D01*
X76891578Y-29407388D01*
X76932186Y-29366780D01*
X76985580Y-29331103D01*
X77044909Y-29306528D01*
X77107892Y-29294000D01*
X77172108Y-29294000D01*
X77235091Y-29306528D01*
X77294420Y-29331103D01*
X77347814Y-29366780D01*
X77393220Y-29412186D01*
X77428897Y-29465580D01*
X77453472Y-29524909D01*
X77466000Y-29587892D01*
X77466000Y-29652108D01*
X77453472Y-29715091D01*
X77428897Y-29774420D01*
X77393220Y-29827814D01*
X77347814Y-29873220D01*
X77294420Y-29908897D01*
X77235091Y-29933472D01*
X77172108Y-29946000D01*
X77107892Y-29946000D01*
X77044909Y-29933472D01*
X76985580Y-29908897D01*
X76932186Y-29873220D01*
X76904388Y-29845422D01*
X76885446Y-29829876D01*
X76863835Y-29818325D01*
X76840386Y-29811212D01*
X76816000Y-29808810D01*
X76791614Y-29811212D01*
X76768165Y-29818325D01*
X76746554Y-29829876D01*
X76727612Y-29845422D01*
X76712066Y-29864364D01*
X76700515Y-29885975D01*
X76693402Y-29909424D01*
X76691000Y-29933810D01*
X76691000Y-30896000D01*
X73589000Y-30896000D01*
X73589000Y-29933810D01*
X73586598Y-29909424D01*
X73579485Y-29885975D01*
X73567934Y-29864364D01*
X73552388Y-29845422D01*
X73533446Y-29829876D01*
X73511835Y-29818325D01*
X73488386Y-29811212D01*
X73464000Y-29808810D01*
X73439614Y-29811212D01*
X73416165Y-29818325D01*
X73394554Y-29829876D01*
X73375612Y-29845422D01*
X73347814Y-29873220D01*
X73294420Y-29908897D01*
X73235091Y-29933472D01*
X73172108Y-29946000D01*
X73107892Y-29946000D01*
X73044909Y-29933472D01*
X72985580Y-29908897D01*
X72932186Y-29873220D01*
X72886780Y-29827814D01*
X72851103Y-29774420D01*
X72826528Y-29715091D01*
X72814000Y-29652108D01*
X72814000Y-29587892D01*
X72826528Y-29524909D01*
X72851103Y-29465580D01*
X72886780Y-29412186D01*
X72932186Y-29366780D01*
X72985580Y-29331103D01*
X73044909Y-29306528D01*
X73107892Y-29294000D01*
X73172108Y-29294000D01*
X73235091Y-29306528D01*
X73235091Y-29306528D01*
G37*
G36*
X64265331Y-26868211D02*
X64593092Y-27003974D01*
X64888073Y-27201074D01*
X65138926Y-27451927D01*
X65336026Y-27746908D01*
X65471789Y-28074669D01*
X65541000Y-28422616D01*
X65541000Y-28777384D01*
X65471789Y-29125331D01*
X65336026Y-29453092D01*
X65138926Y-29748073D01*
X64888073Y-29998926D01*
X64593092Y-30196026D01*
X64265331Y-30331789D01*
X63917384Y-30401000D01*
X63562616Y-30401000D01*
X63214669Y-30331789D01*
X62886908Y-30196026D01*
X62591927Y-29998926D01*
X62341074Y-29748073D01*
X62143974Y-29453092D01*
X62008211Y-29125331D01*
X61939000Y-28777384D01*
X61939000Y-28422616D01*
X62008211Y-28074669D01*
X62143974Y-27746908D01*
X62341074Y-27451927D01*
X62591927Y-27201074D01*
X62886908Y-27003974D01*
X63214669Y-26868211D01*
X63562616Y-26799000D01*
X63917384Y-26799000D01*
X64265331Y-26868211D01*
X64265331Y-26868211D01*
G37*
G36*
X152265331Y-26868211D02*
X152593092Y-27003974D01*
X152888073Y-27201074D01*
X153138926Y-27451927D01*
X153336026Y-27746908D01*
X153471789Y-28074669D01*
X153541000Y-28422616D01*
X153541000Y-28777384D01*
X153471789Y-29125331D01*
X153336026Y-29453092D01*
X153138926Y-29748073D01*
X152888073Y-29998926D01*
X152593092Y-30196026D01*
X152265331Y-30331789D01*
X151917384Y-30401000D01*
X151562616Y-30401000D01*
X151214669Y-30331789D01*
X150886908Y-30196026D01*
X150591927Y-29998926D01*
X150341074Y-29748073D01*
X150143974Y-29453092D01*
X150008211Y-29125331D01*
X149939000Y-28777384D01*
X149939000Y-28422616D01*
X150008211Y-28074669D01*
X150143974Y-27746908D01*
X150341074Y-27451927D01*
X150591927Y-27201074D01*
X150886908Y-27003974D01*
X151214669Y-26868211D01*
X151562616Y-26799000D01*
X151917384Y-26799000D01*
X152265331Y-26868211D01*
X152265331Y-26868211D01*
G37*
G36*
X112231000Y-30041000D02*
X111329000Y-30041000D01*
X111329000Y-29039000D01*
X112231000Y-29039000D01*
X112231000Y-30041000D01*
X112231000Y-30041000D01*
G37*
G36*
X113591000Y-30031000D02*
X112689000Y-30031000D01*
X112689000Y-29029000D01*
X113591000Y-29029000D01*
X113591000Y-30031000D01*
X113591000Y-30031000D01*
G37*
G36*
X72641000Y-28546000D02*
X70539000Y-28546000D01*
X70539000Y-26444000D01*
X72641000Y-26444000D01*
X72641000Y-28546000D01*
X72641000Y-28546000D01*
G37*
G36*
X79741000Y-28546000D02*
X77639000Y-28546000D01*
X77639000Y-26444000D01*
X79741000Y-26444000D01*
X79741000Y-28546000D01*
X79741000Y-28546000D01*
G37*
G36*
X112231000Y-28241000D02*
X111329000Y-28241000D01*
X111329000Y-27239000D01*
X112231000Y-27239000D01*
X112231000Y-28241000D01*
X112231000Y-28241000D01*
G37*
G36*
X113591000Y-28231000D02*
X112689000Y-28231000D01*
X112689000Y-27229000D01*
X113591000Y-27229000D01*
X113591000Y-28231000D01*
X113591000Y-28231000D01*
G37*
M02*
