G04 #@! TF.GenerationSoftware,KiCad,Pcbnew,5.0.2+dfsg1-1~bpo9+1*
G04 #@! TF.CreationDate,2019-07-30T16:59:57+07:00*
G04 #@! TF.ProjectId,edukate,6564756b-6174-4652-9e6b-696361645f70,rev?*
G04 #@! TF.SameCoordinates,Original*
G04 #@! TF.FileFunction,Soldermask,Bot*
G04 #@! TF.FilePolarity,Negative*
%FSLAX46Y46*%
G04 Gerber Fmt 4.6, Leading zero omitted, Abs format (unit mm)*
G04 Created by KiCad (PCBNEW 5.0.2+dfsg1-1~bpo9+1) date Tue 30 Jul 2019 04:59:57 PM +07*
%MOMM*%
%LPD*%
G01*
G04 APERTURE LIST*
%ADD10C,0.100000*%
G04 APERTURE END LIST*
D10*
G36*
X139340442Y-103395518D02*
X139406627Y-103402037D01*
X139519853Y-103436384D01*
X139576467Y-103453557D01*
X139715087Y-103527652D01*
X139732991Y-103537222D01*
X139768729Y-103566552D01*
X139870186Y-103649814D01*
X139953448Y-103751271D01*
X139982778Y-103787009D01*
X139982779Y-103787011D01*
X140066443Y-103943533D01*
X140066443Y-103943534D01*
X140117963Y-104113373D01*
X140135359Y-104290000D01*
X140117963Y-104466627D01*
X140083616Y-104579853D01*
X140066443Y-104636467D01*
X139992348Y-104775087D01*
X139982778Y-104792991D01*
X139953448Y-104828729D01*
X139870186Y-104930186D01*
X139768729Y-105013448D01*
X139732991Y-105042778D01*
X139732989Y-105042779D01*
X139576467Y-105126443D01*
X139519853Y-105143616D01*
X139406627Y-105177963D01*
X139340443Y-105184481D01*
X139274260Y-105191000D01*
X139185740Y-105191000D01*
X139119557Y-105184481D01*
X139053373Y-105177963D01*
X138940147Y-105143616D01*
X138883533Y-105126443D01*
X138727011Y-105042779D01*
X138727009Y-105042778D01*
X138691271Y-105013448D01*
X138589814Y-104930186D01*
X138506552Y-104828729D01*
X138477222Y-104792991D01*
X138467652Y-104775087D01*
X138393557Y-104636467D01*
X138376384Y-104579853D01*
X138342037Y-104466627D01*
X138324641Y-104290000D01*
X138342037Y-104113373D01*
X138393557Y-103943534D01*
X138393557Y-103943533D01*
X138477221Y-103787011D01*
X138477222Y-103787009D01*
X138506552Y-103751271D01*
X138589814Y-103649814D01*
X138691271Y-103566552D01*
X138727009Y-103537222D01*
X138744913Y-103527652D01*
X138883533Y-103453557D01*
X138940147Y-103436384D01*
X139053373Y-103402037D01*
X139119558Y-103395518D01*
X139185740Y-103389000D01*
X139274260Y-103389000D01*
X139340442Y-103395518D01*
X139340442Y-103395518D01*
G37*
G36*
X132511000Y-105191000D02*
X130709000Y-105191000D01*
X130709000Y-103389000D01*
X132511000Y-103389000D01*
X132511000Y-105191000D01*
X132511000Y-105191000D01*
G37*
G36*
X134260442Y-103395518D02*
X134326627Y-103402037D01*
X134439853Y-103436384D01*
X134496467Y-103453557D01*
X134635087Y-103527652D01*
X134652991Y-103537222D01*
X134688729Y-103566552D01*
X134790186Y-103649814D01*
X134873448Y-103751271D01*
X134902778Y-103787009D01*
X134902779Y-103787011D01*
X134986443Y-103943533D01*
X134986443Y-103943534D01*
X135037963Y-104113373D01*
X135055359Y-104290000D01*
X135037963Y-104466627D01*
X135003616Y-104579853D01*
X134986443Y-104636467D01*
X134912348Y-104775087D01*
X134902778Y-104792991D01*
X134873448Y-104828729D01*
X134790186Y-104930186D01*
X134688729Y-105013448D01*
X134652991Y-105042778D01*
X134652989Y-105042779D01*
X134496467Y-105126443D01*
X134439853Y-105143616D01*
X134326627Y-105177963D01*
X134260443Y-105184481D01*
X134194260Y-105191000D01*
X134105740Y-105191000D01*
X134039557Y-105184481D01*
X133973373Y-105177963D01*
X133860147Y-105143616D01*
X133803533Y-105126443D01*
X133647011Y-105042779D01*
X133647009Y-105042778D01*
X133611271Y-105013448D01*
X133509814Y-104930186D01*
X133426552Y-104828729D01*
X133397222Y-104792991D01*
X133387652Y-104775087D01*
X133313557Y-104636467D01*
X133296384Y-104579853D01*
X133262037Y-104466627D01*
X133244641Y-104290000D01*
X133262037Y-104113373D01*
X133313557Y-103943534D01*
X133313557Y-103943533D01*
X133397221Y-103787011D01*
X133397222Y-103787009D01*
X133426552Y-103751271D01*
X133509814Y-103649814D01*
X133611271Y-103566552D01*
X133647009Y-103537222D01*
X133664913Y-103527652D01*
X133803533Y-103453557D01*
X133860147Y-103436384D01*
X133973373Y-103402037D01*
X134039558Y-103395518D01*
X134105740Y-103389000D01*
X134194260Y-103389000D01*
X134260442Y-103395518D01*
X134260442Y-103395518D01*
G37*
G36*
X136800442Y-103395518D02*
X136866627Y-103402037D01*
X136979853Y-103436384D01*
X137036467Y-103453557D01*
X137175087Y-103527652D01*
X137192991Y-103537222D01*
X137228729Y-103566552D01*
X137330186Y-103649814D01*
X137413448Y-103751271D01*
X137442778Y-103787009D01*
X137442779Y-103787011D01*
X137526443Y-103943533D01*
X137526443Y-103943534D01*
X137577963Y-104113373D01*
X137595359Y-104290000D01*
X137577963Y-104466627D01*
X137543616Y-104579853D01*
X137526443Y-104636467D01*
X137452348Y-104775087D01*
X137442778Y-104792991D01*
X137413448Y-104828729D01*
X137330186Y-104930186D01*
X137228729Y-105013448D01*
X137192991Y-105042778D01*
X137192989Y-105042779D01*
X137036467Y-105126443D01*
X136979853Y-105143616D01*
X136866627Y-105177963D01*
X136800443Y-105184481D01*
X136734260Y-105191000D01*
X136645740Y-105191000D01*
X136579557Y-105184481D01*
X136513373Y-105177963D01*
X136400147Y-105143616D01*
X136343533Y-105126443D01*
X136187011Y-105042779D01*
X136187009Y-105042778D01*
X136151271Y-105013448D01*
X136049814Y-104930186D01*
X135966552Y-104828729D01*
X135937222Y-104792991D01*
X135927652Y-104775087D01*
X135853557Y-104636467D01*
X135836384Y-104579853D01*
X135802037Y-104466627D01*
X135784641Y-104290000D01*
X135802037Y-104113373D01*
X135853557Y-103943534D01*
X135853557Y-103943533D01*
X135937221Y-103787011D01*
X135937222Y-103787009D01*
X135966552Y-103751271D01*
X136049814Y-103649814D01*
X136151271Y-103566552D01*
X136187009Y-103537222D01*
X136204913Y-103527652D01*
X136343533Y-103453557D01*
X136400147Y-103436384D01*
X136513373Y-103402037D01*
X136579558Y-103395518D01*
X136645740Y-103389000D01*
X136734260Y-103389000D01*
X136800442Y-103395518D01*
X136800442Y-103395518D01*
G37*
G36*
X123247142Y-101218242D02*
X123395102Y-101279530D01*
X123528258Y-101368502D01*
X123641498Y-101481742D01*
X123730470Y-101614898D01*
X123791758Y-101762858D01*
X123823000Y-101919925D01*
X123823000Y-102080075D01*
X123791758Y-102237142D01*
X123730470Y-102385102D01*
X123641498Y-102518258D01*
X123528258Y-102631498D01*
X123395102Y-102720470D01*
X123247142Y-102781758D01*
X123090075Y-102813000D01*
X122929925Y-102813000D01*
X122772858Y-102781758D01*
X122624898Y-102720470D01*
X122491742Y-102631498D01*
X122378502Y-102518258D01*
X122289530Y-102385102D01*
X122228242Y-102237142D01*
X122197000Y-102080075D01*
X122197000Y-101919925D01*
X122228242Y-101762858D01*
X122289530Y-101614898D01*
X122378502Y-101481742D01*
X122491742Y-101368502D01*
X122624898Y-101279530D01*
X122772858Y-101218242D01*
X122929925Y-101187000D01*
X123090075Y-101187000D01*
X123247142Y-101218242D01*
X123247142Y-101218242D01*
G37*
G36*
X118167142Y-101218242D02*
X118315102Y-101279530D01*
X118448258Y-101368502D01*
X118561498Y-101481742D01*
X118650470Y-101614898D01*
X118711758Y-101762858D01*
X118743000Y-101919925D01*
X118743000Y-102080075D01*
X118711758Y-102237142D01*
X118650470Y-102385102D01*
X118561498Y-102518258D01*
X118448258Y-102631498D01*
X118315102Y-102720470D01*
X118167142Y-102781758D01*
X118010075Y-102813000D01*
X117849925Y-102813000D01*
X117692858Y-102781758D01*
X117544898Y-102720470D01*
X117411742Y-102631498D01*
X117298502Y-102518258D01*
X117209530Y-102385102D01*
X117148242Y-102237142D01*
X117117000Y-102080075D01*
X117117000Y-101919925D01*
X117148242Y-101762858D01*
X117209530Y-101614898D01*
X117298502Y-101481742D01*
X117411742Y-101368502D01*
X117544898Y-101279530D01*
X117692858Y-101218242D01*
X117849925Y-101187000D01*
X118010075Y-101187000D01*
X118167142Y-101218242D01*
X118167142Y-101218242D01*
G37*
G36*
X120707142Y-98678242D02*
X120855102Y-98739530D01*
X120922130Y-98784317D01*
X120988257Y-98828501D01*
X121101499Y-98941743D01*
X121145683Y-99007870D01*
X121190470Y-99074898D01*
X121251758Y-99222858D01*
X121283000Y-99379925D01*
X121283000Y-99540075D01*
X121251758Y-99697142D01*
X121190470Y-99845102D01*
X121101498Y-99978258D01*
X120988258Y-100091498D01*
X120855102Y-100180470D01*
X120707142Y-100241758D01*
X120550075Y-100273000D01*
X120389925Y-100273000D01*
X120232858Y-100241758D01*
X120084898Y-100180470D01*
X119951742Y-100091498D01*
X119838502Y-99978258D01*
X119749530Y-99845102D01*
X119688242Y-99697142D01*
X119657000Y-99540075D01*
X119657000Y-99379925D01*
X119688242Y-99222858D01*
X119749530Y-99074898D01*
X119794317Y-99007870D01*
X119838501Y-98941743D01*
X119951743Y-98828501D01*
X120017870Y-98784317D01*
X120084898Y-98739530D01*
X120232858Y-98678242D01*
X120389925Y-98647000D01*
X120550075Y-98647000D01*
X120707142Y-98678242D01*
X120707142Y-98678242D01*
G37*
G36*
X139240442Y-98075518D02*
X139306627Y-98082037D01*
X139419853Y-98116384D01*
X139476467Y-98133557D01*
X139615087Y-98207652D01*
X139632991Y-98217222D01*
X139668729Y-98246552D01*
X139770186Y-98329814D01*
X139853448Y-98431271D01*
X139882778Y-98467009D01*
X139882779Y-98467011D01*
X139966443Y-98623533D01*
X139966443Y-98623534D01*
X140017963Y-98793373D01*
X140035359Y-98970000D01*
X140017963Y-99146627D01*
X139983616Y-99259853D01*
X139966443Y-99316467D01*
X139932523Y-99379925D01*
X139882778Y-99472991D01*
X139853448Y-99508729D01*
X139770186Y-99610186D01*
X139668729Y-99693448D01*
X139632991Y-99722778D01*
X139632989Y-99722779D01*
X139476467Y-99806443D01*
X139419853Y-99823616D01*
X139306627Y-99857963D01*
X139240443Y-99864481D01*
X139174260Y-99871000D01*
X139085740Y-99871000D01*
X139019557Y-99864481D01*
X138953373Y-99857963D01*
X138840147Y-99823616D01*
X138783533Y-99806443D01*
X138627011Y-99722779D01*
X138627009Y-99722778D01*
X138591271Y-99693448D01*
X138489814Y-99610186D01*
X138406552Y-99508729D01*
X138377222Y-99472991D01*
X138327477Y-99379925D01*
X138293557Y-99316467D01*
X138276384Y-99259853D01*
X138242037Y-99146627D01*
X138224641Y-98970000D01*
X138242037Y-98793373D01*
X138293557Y-98623534D01*
X138293557Y-98623533D01*
X138377221Y-98467011D01*
X138377222Y-98467009D01*
X138406552Y-98431271D01*
X138489814Y-98329814D01*
X138591271Y-98246552D01*
X138627009Y-98217222D01*
X138644913Y-98207652D01*
X138783533Y-98133557D01*
X138840147Y-98116384D01*
X138953373Y-98082037D01*
X139019558Y-98075518D01*
X139085740Y-98069000D01*
X139174260Y-98069000D01*
X139240442Y-98075518D01*
X139240442Y-98075518D01*
G37*
G36*
X136700442Y-98075518D02*
X136766627Y-98082037D01*
X136879853Y-98116384D01*
X136936467Y-98133557D01*
X137075087Y-98207652D01*
X137092991Y-98217222D01*
X137128729Y-98246552D01*
X137230186Y-98329814D01*
X137313448Y-98431271D01*
X137342778Y-98467009D01*
X137342779Y-98467011D01*
X137426443Y-98623533D01*
X137426443Y-98623534D01*
X137477963Y-98793373D01*
X137495359Y-98970000D01*
X137477963Y-99146627D01*
X137443616Y-99259853D01*
X137426443Y-99316467D01*
X137392523Y-99379925D01*
X137342778Y-99472991D01*
X137313448Y-99508729D01*
X137230186Y-99610186D01*
X137128729Y-99693448D01*
X137092991Y-99722778D01*
X137092989Y-99722779D01*
X136936467Y-99806443D01*
X136879853Y-99823616D01*
X136766627Y-99857963D01*
X136700443Y-99864481D01*
X136634260Y-99871000D01*
X136545740Y-99871000D01*
X136479557Y-99864481D01*
X136413373Y-99857963D01*
X136300147Y-99823616D01*
X136243533Y-99806443D01*
X136087011Y-99722779D01*
X136087009Y-99722778D01*
X136051271Y-99693448D01*
X135949814Y-99610186D01*
X135866552Y-99508729D01*
X135837222Y-99472991D01*
X135787477Y-99379925D01*
X135753557Y-99316467D01*
X135736384Y-99259853D01*
X135702037Y-99146627D01*
X135684641Y-98970000D01*
X135702037Y-98793373D01*
X135753557Y-98623534D01*
X135753557Y-98623533D01*
X135837221Y-98467011D01*
X135837222Y-98467009D01*
X135866552Y-98431271D01*
X135949814Y-98329814D01*
X136051271Y-98246552D01*
X136087009Y-98217222D01*
X136104913Y-98207652D01*
X136243533Y-98133557D01*
X136300147Y-98116384D01*
X136413373Y-98082037D01*
X136479558Y-98075518D01*
X136545740Y-98069000D01*
X136634260Y-98069000D01*
X136700442Y-98075518D01*
X136700442Y-98075518D01*
G37*
G36*
X134160442Y-98075518D02*
X134226627Y-98082037D01*
X134339853Y-98116384D01*
X134396467Y-98133557D01*
X134535087Y-98207652D01*
X134552991Y-98217222D01*
X134588729Y-98246552D01*
X134690186Y-98329814D01*
X134773448Y-98431271D01*
X134802778Y-98467009D01*
X134802779Y-98467011D01*
X134886443Y-98623533D01*
X134886443Y-98623534D01*
X134937963Y-98793373D01*
X134955359Y-98970000D01*
X134937963Y-99146627D01*
X134903616Y-99259853D01*
X134886443Y-99316467D01*
X134852523Y-99379925D01*
X134802778Y-99472991D01*
X134773448Y-99508729D01*
X134690186Y-99610186D01*
X134588729Y-99693448D01*
X134552991Y-99722778D01*
X134552989Y-99722779D01*
X134396467Y-99806443D01*
X134339853Y-99823616D01*
X134226627Y-99857963D01*
X134160443Y-99864481D01*
X134094260Y-99871000D01*
X134005740Y-99871000D01*
X133939557Y-99864481D01*
X133873373Y-99857963D01*
X133760147Y-99823616D01*
X133703533Y-99806443D01*
X133547011Y-99722779D01*
X133547009Y-99722778D01*
X133511271Y-99693448D01*
X133409814Y-99610186D01*
X133326552Y-99508729D01*
X133297222Y-99472991D01*
X133247477Y-99379925D01*
X133213557Y-99316467D01*
X133196384Y-99259853D01*
X133162037Y-99146627D01*
X133144641Y-98970000D01*
X133162037Y-98793373D01*
X133213557Y-98623534D01*
X133213557Y-98623533D01*
X133297221Y-98467011D01*
X133297222Y-98467009D01*
X133326552Y-98431271D01*
X133409814Y-98329814D01*
X133511271Y-98246552D01*
X133547009Y-98217222D01*
X133564913Y-98207652D01*
X133703533Y-98133557D01*
X133760147Y-98116384D01*
X133873373Y-98082037D01*
X133939558Y-98075518D01*
X134005740Y-98069000D01*
X134094260Y-98069000D01*
X134160442Y-98075518D01*
X134160442Y-98075518D01*
G37*
G36*
X132411000Y-99871000D02*
X130609000Y-99871000D01*
X130609000Y-98069000D01*
X132411000Y-98069000D01*
X132411000Y-99871000D01*
X132411000Y-99871000D01*
G37*
G36*
X64265331Y-91868211D02*
X64593092Y-92003974D01*
X64888073Y-92201074D01*
X65138926Y-92451927D01*
X65336026Y-92746908D01*
X65471789Y-93074669D01*
X65541000Y-93422616D01*
X65541000Y-93777384D01*
X65471789Y-94125331D01*
X65336026Y-94453092D01*
X65138926Y-94748073D01*
X64888073Y-94998926D01*
X64593092Y-95196026D01*
X64265331Y-95331789D01*
X63917384Y-95401000D01*
X63562616Y-95401000D01*
X63214669Y-95331789D01*
X62886908Y-95196026D01*
X62591927Y-94998926D01*
X62341074Y-94748073D01*
X62143974Y-94453092D01*
X62008211Y-94125331D01*
X61939000Y-93777384D01*
X61939000Y-93422616D01*
X62008211Y-93074669D01*
X62143974Y-92746908D01*
X62341074Y-92451927D01*
X62591927Y-92201074D01*
X62886908Y-92003974D01*
X63214669Y-91868211D01*
X63562616Y-91799000D01*
X63917384Y-91799000D01*
X64265331Y-91868211D01*
X64265331Y-91868211D01*
G37*
G36*
X152265331Y-91868211D02*
X152593092Y-92003974D01*
X152888073Y-92201074D01*
X153138926Y-92451927D01*
X153336026Y-92746908D01*
X153471789Y-93074669D01*
X153541000Y-93422616D01*
X153541000Y-93777384D01*
X153471789Y-94125331D01*
X153336026Y-94453092D01*
X153138926Y-94748073D01*
X152888073Y-94998926D01*
X152593092Y-95196026D01*
X152265331Y-95331789D01*
X151917384Y-95401000D01*
X151562616Y-95401000D01*
X151214669Y-95331789D01*
X150886908Y-95196026D01*
X150591927Y-94998926D01*
X150341074Y-94748073D01*
X150143974Y-94453092D01*
X150008211Y-94125331D01*
X149939000Y-93777384D01*
X149939000Y-93422616D01*
X150008211Y-93074669D01*
X150143974Y-92746908D01*
X150341074Y-92451927D01*
X150591927Y-92201074D01*
X150886908Y-92003974D01*
X151214669Y-91868211D01*
X151562616Y-91799000D01*
X151917384Y-91799000D01*
X152265331Y-91868211D01*
X152265331Y-91868211D01*
G37*
G36*
X121186820Y-92061313D02*
X121186823Y-92061314D01*
X121186824Y-92061314D01*
X121347238Y-92109975D01*
X121347240Y-92109976D01*
X121347243Y-92109977D01*
X121495078Y-92188995D01*
X121624659Y-92295341D01*
X121731005Y-92424922D01*
X121810023Y-92572756D01*
X121858687Y-92733179D01*
X121871000Y-92858196D01*
X121871000Y-94341804D01*
X121858687Y-94466821D01*
X121810023Y-94627244D01*
X121731005Y-94775078D01*
X121624659Y-94904659D01*
X121495078Y-95011005D01*
X121347244Y-95090023D01*
X121347241Y-95090024D01*
X121347239Y-95090025D01*
X121186825Y-95138686D01*
X121186824Y-95138686D01*
X121186821Y-95138687D01*
X121020000Y-95155117D01*
X120853180Y-95138687D01*
X120853177Y-95138686D01*
X120853176Y-95138686D01*
X120692762Y-95090025D01*
X120692760Y-95090024D01*
X120692757Y-95090023D01*
X120544923Y-95011005D01*
X120415342Y-94904659D01*
X120308996Y-94775078D01*
X120229978Y-94627244D01*
X120181314Y-94466821D01*
X120169001Y-94341804D01*
X120169000Y-92858197D01*
X120181313Y-92733180D01*
X120181314Y-92733176D01*
X120229975Y-92572762D01*
X120229976Y-92572760D01*
X120229977Y-92572757D01*
X120308995Y-92424922D01*
X120415341Y-92295341D01*
X120544922Y-92188995D01*
X120692756Y-92109977D01*
X120692759Y-92109976D01*
X120692761Y-92109975D01*
X120853175Y-92061314D01*
X120853176Y-92061314D01*
X120853179Y-92061313D01*
X121020000Y-92044883D01*
X121186820Y-92061313D01*
X121186820Y-92061313D01*
G37*
G36*
X118646820Y-92061313D02*
X118646823Y-92061314D01*
X118646824Y-92061314D01*
X118807238Y-92109975D01*
X118807240Y-92109976D01*
X118807243Y-92109977D01*
X118955078Y-92188995D01*
X119084659Y-92295341D01*
X119191005Y-92424922D01*
X119270023Y-92572756D01*
X119318687Y-92733179D01*
X119331000Y-92858196D01*
X119331000Y-94341804D01*
X119318687Y-94466821D01*
X119270023Y-94627244D01*
X119191005Y-94775078D01*
X119084659Y-94904659D01*
X118955078Y-95011005D01*
X118807244Y-95090023D01*
X118807241Y-95090024D01*
X118807239Y-95090025D01*
X118646825Y-95138686D01*
X118646824Y-95138686D01*
X118646821Y-95138687D01*
X118480000Y-95155117D01*
X118313180Y-95138687D01*
X118313177Y-95138686D01*
X118313176Y-95138686D01*
X118152762Y-95090025D01*
X118152760Y-95090024D01*
X118152757Y-95090023D01*
X118004923Y-95011005D01*
X117875342Y-94904659D01*
X117768996Y-94775078D01*
X117689978Y-94627244D01*
X117641314Y-94466821D01*
X117629001Y-94341804D01*
X117629000Y-92858197D01*
X117641313Y-92733180D01*
X117641314Y-92733176D01*
X117689975Y-92572762D01*
X117689976Y-92572760D01*
X117689977Y-92572757D01*
X117768995Y-92424922D01*
X117875341Y-92295341D01*
X118004922Y-92188995D01*
X118152756Y-92109977D01*
X118152759Y-92109976D01*
X118152761Y-92109975D01*
X118313175Y-92061314D01*
X118313176Y-92061314D01*
X118313179Y-92061313D01*
X118480000Y-92044883D01*
X118646820Y-92061313D01*
X118646820Y-92061313D01*
G37*
G36*
X75466820Y-92061313D02*
X75466823Y-92061314D01*
X75466824Y-92061314D01*
X75627238Y-92109975D01*
X75627240Y-92109976D01*
X75627243Y-92109977D01*
X75775078Y-92188995D01*
X75904659Y-92295341D01*
X76011005Y-92424922D01*
X76090023Y-92572756D01*
X76138687Y-92733179D01*
X76151000Y-92858196D01*
X76151000Y-94341804D01*
X76138687Y-94466821D01*
X76090023Y-94627244D01*
X76011005Y-94775078D01*
X75904659Y-94904659D01*
X75775078Y-95011005D01*
X75627244Y-95090023D01*
X75627241Y-95090024D01*
X75627239Y-95090025D01*
X75466825Y-95138686D01*
X75466824Y-95138686D01*
X75466821Y-95138687D01*
X75300000Y-95155117D01*
X75133180Y-95138687D01*
X75133177Y-95138686D01*
X75133176Y-95138686D01*
X74972762Y-95090025D01*
X74972760Y-95090024D01*
X74972757Y-95090023D01*
X74824923Y-95011005D01*
X74695342Y-94904659D01*
X74588996Y-94775078D01*
X74509978Y-94627244D01*
X74461314Y-94466821D01*
X74449001Y-94341804D01*
X74449000Y-92858197D01*
X74461313Y-92733180D01*
X74461314Y-92733176D01*
X74509975Y-92572762D01*
X74509976Y-92572760D01*
X74509977Y-92572757D01*
X74588995Y-92424922D01*
X74695341Y-92295341D01*
X74824922Y-92188995D01*
X74972756Y-92109977D01*
X74972759Y-92109976D01*
X74972761Y-92109975D01*
X75133175Y-92061314D01*
X75133176Y-92061314D01*
X75133179Y-92061313D01*
X75300000Y-92044883D01*
X75466820Y-92061313D01*
X75466820Y-92061313D01*
G37*
G36*
X78006820Y-92061313D02*
X78006823Y-92061314D01*
X78006824Y-92061314D01*
X78167238Y-92109975D01*
X78167240Y-92109976D01*
X78167243Y-92109977D01*
X78315078Y-92188995D01*
X78444659Y-92295341D01*
X78551005Y-92424922D01*
X78630023Y-92572756D01*
X78678687Y-92733179D01*
X78691000Y-92858196D01*
X78691000Y-94341804D01*
X78678687Y-94466821D01*
X78630023Y-94627244D01*
X78551005Y-94775078D01*
X78444659Y-94904659D01*
X78315078Y-95011005D01*
X78167244Y-95090023D01*
X78167241Y-95090024D01*
X78167239Y-95090025D01*
X78006825Y-95138686D01*
X78006824Y-95138686D01*
X78006821Y-95138687D01*
X77840000Y-95155117D01*
X77673180Y-95138687D01*
X77673177Y-95138686D01*
X77673176Y-95138686D01*
X77512762Y-95090025D01*
X77512760Y-95090024D01*
X77512757Y-95090023D01*
X77364923Y-95011005D01*
X77235342Y-94904659D01*
X77128996Y-94775078D01*
X77049978Y-94627244D01*
X77001314Y-94466821D01*
X76989001Y-94341804D01*
X76989000Y-92858197D01*
X77001313Y-92733180D01*
X77001314Y-92733176D01*
X77049975Y-92572762D01*
X77049976Y-92572760D01*
X77049977Y-92572757D01*
X77128995Y-92424922D01*
X77235341Y-92295341D01*
X77364922Y-92188995D01*
X77512756Y-92109977D01*
X77512759Y-92109976D01*
X77512761Y-92109975D01*
X77673175Y-92061314D01*
X77673176Y-92061314D01*
X77673179Y-92061313D01*
X77840000Y-92044883D01*
X78006820Y-92061313D01*
X78006820Y-92061313D01*
G37*
G36*
X80546820Y-92061313D02*
X80546823Y-92061314D01*
X80546824Y-92061314D01*
X80707238Y-92109975D01*
X80707240Y-92109976D01*
X80707243Y-92109977D01*
X80855078Y-92188995D01*
X80984659Y-92295341D01*
X81091005Y-92424922D01*
X81170023Y-92572756D01*
X81218687Y-92733179D01*
X81231000Y-92858196D01*
X81231000Y-94341804D01*
X81218687Y-94466821D01*
X81170023Y-94627244D01*
X81091005Y-94775078D01*
X80984659Y-94904659D01*
X80855078Y-95011005D01*
X80707244Y-95090023D01*
X80707241Y-95090024D01*
X80707239Y-95090025D01*
X80546825Y-95138686D01*
X80546824Y-95138686D01*
X80546821Y-95138687D01*
X80380000Y-95155117D01*
X80213180Y-95138687D01*
X80213177Y-95138686D01*
X80213176Y-95138686D01*
X80052762Y-95090025D01*
X80052760Y-95090024D01*
X80052757Y-95090023D01*
X79904923Y-95011005D01*
X79775342Y-94904659D01*
X79668996Y-94775078D01*
X79589978Y-94627244D01*
X79541314Y-94466821D01*
X79529001Y-94341804D01*
X79529000Y-92858197D01*
X79541313Y-92733180D01*
X79541314Y-92733176D01*
X79589975Y-92572762D01*
X79589976Y-92572760D01*
X79589977Y-92572757D01*
X79668995Y-92424922D01*
X79775341Y-92295341D01*
X79904922Y-92188995D01*
X80052756Y-92109977D01*
X80052759Y-92109976D01*
X80052761Y-92109975D01*
X80213175Y-92061314D01*
X80213176Y-92061314D01*
X80213179Y-92061313D01*
X80380000Y-92044883D01*
X80546820Y-92061313D01*
X80546820Y-92061313D01*
G37*
G36*
X83086820Y-92061313D02*
X83086823Y-92061314D01*
X83086824Y-92061314D01*
X83247238Y-92109975D01*
X83247240Y-92109976D01*
X83247243Y-92109977D01*
X83395078Y-92188995D01*
X83524659Y-92295341D01*
X83631005Y-92424922D01*
X83710023Y-92572756D01*
X83758687Y-92733179D01*
X83771000Y-92858196D01*
X83771000Y-94341804D01*
X83758687Y-94466821D01*
X83710023Y-94627244D01*
X83631005Y-94775078D01*
X83524659Y-94904659D01*
X83395078Y-95011005D01*
X83247244Y-95090023D01*
X83247241Y-95090024D01*
X83247239Y-95090025D01*
X83086825Y-95138686D01*
X83086824Y-95138686D01*
X83086821Y-95138687D01*
X82920000Y-95155117D01*
X82753180Y-95138687D01*
X82753177Y-95138686D01*
X82753176Y-95138686D01*
X82592762Y-95090025D01*
X82592760Y-95090024D01*
X82592757Y-95090023D01*
X82444923Y-95011005D01*
X82315342Y-94904659D01*
X82208996Y-94775078D01*
X82129978Y-94627244D01*
X82081314Y-94466821D01*
X82069001Y-94341804D01*
X82069000Y-92858197D01*
X82081313Y-92733180D01*
X82081314Y-92733176D01*
X82129975Y-92572762D01*
X82129976Y-92572760D01*
X82129977Y-92572757D01*
X82208995Y-92424922D01*
X82315341Y-92295341D01*
X82444922Y-92188995D01*
X82592756Y-92109977D01*
X82592759Y-92109976D01*
X82592761Y-92109975D01*
X82753175Y-92061314D01*
X82753176Y-92061314D01*
X82753179Y-92061313D01*
X82920000Y-92044883D01*
X83086820Y-92061313D01*
X83086820Y-92061313D01*
G37*
G36*
X85626820Y-92061313D02*
X85626823Y-92061314D01*
X85626824Y-92061314D01*
X85787238Y-92109975D01*
X85787240Y-92109976D01*
X85787243Y-92109977D01*
X85935078Y-92188995D01*
X86064659Y-92295341D01*
X86171005Y-92424922D01*
X86250023Y-92572756D01*
X86298687Y-92733179D01*
X86311000Y-92858196D01*
X86311000Y-94341804D01*
X86298687Y-94466821D01*
X86250023Y-94627244D01*
X86171005Y-94775078D01*
X86064659Y-94904659D01*
X85935078Y-95011005D01*
X85787244Y-95090023D01*
X85787241Y-95090024D01*
X85787239Y-95090025D01*
X85626825Y-95138686D01*
X85626824Y-95138686D01*
X85626821Y-95138687D01*
X85460000Y-95155117D01*
X85293180Y-95138687D01*
X85293177Y-95138686D01*
X85293176Y-95138686D01*
X85132762Y-95090025D01*
X85132760Y-95090024D01*
X85132757Y-95090023D01*
X84984923Y-95011005D01*
X84855342Y-94904659D01*
X84748996Y-94775078D01*
X84669978Y-94627244D01*
X84621314Y-94466821D01*
X84609001Y-94341804D01*
X84609000Y-92858197D01*
X84621313Y-92733180D01*
X84621314Y-92733176D01*
X84669975Y-92572762D01*
X84669976Y-92572760D01*
X84669977Y-92572757D01*
X84748995Y-92424922D01*
X84855341Y-92295341D01*
X84984922Y-92188995D01*
X85132756Y-92109977D01*
X85132759Y-92109976D01*
X85132761Y-92109975D01*
X85293175Y-92061314D01*
X85293176Y-92061314D01*
X85293179Y-92061313D01*
X85460000Y-92044883D01*
X85626820Y-92061313D01*
X85626820Y-92061313D01*
G37*
G36*
X98326820Y-92061313D02*
X98326823Y-92061314D01*
X98326824Y-92061314D01*
X98487238Y-92109975D01*
X98487240Y-92109976D01*
X98487243Y-92109977D01*
X98635078Y-92188995D01*
X98764659Y-92295341D01*
X98871005Y-92424922D01*
X98950023Y-92572756D01*
X98998687Y-92733179D01*
X99011000Y-92858196D01*
X99011000Y-94341804D01*
X98998687Y-94466821D01*
X98950023Y-94627244D01*
X98871005Y-94775078D01*
X98764659Y-94904659D01*
X98635078Y-95011005D01*
X98487244Y-95090023D01*
X98487241Y-95090024D01*
X98487239Y-95090025D01*
X98326825Y-95138686D01*
X98326824Y-95138686D01*
X98326821Y-95138687D01*
X98160000Y-95155117D01*
X97993180Y-95138687D01*
X97993177Y-95138686D01*
X97993176Y-95138686D01*
X97832762Y-95090025D01*
X97832760Y-95090024D01*
X97832757Y-95090023D01*
X97684923Y-95011005D01*
X97555342Y-94904659D01*
X97448996Y-94775078D01*
X97369978Y-94627244D01*
X97321314Y-94466821D01*
X97309001Y-94341804D01*
X97309000Y-92858197D01*
X97321313Y-92733180D01*
X97321314Y-92733176D01*
X97369975Y-92572762D01*
X97369976Y-92572760D01*
X97369977Y-92572757D01*
X97448995Y-92424922D01*
X97555341Y-92295341D01*
X97684922Y-92188995D01*
X97832756Y-92109977D01*
X97832759Y-92109976D01*
X97832761Y-92109975D01*
X97993175Y-92061314D01*
X97993176Y-92061314D01*
X97993179Y-92061313D01*
X98160000Y-92044883D01*
X98326820Y-92061313D01*
X98326820Y-92061313D01*
G37*
G36*
X88166820Y-92061313D02*
X88166823Y-92061314D01*
X88166824Y-92061314D01*
X88327238Y-92109975D01*
X88327240Y-92109976D01*
X88327243Y-92109977D01*
X88475078Y-92188995D01*
X88604659Y-92295341D01*
X88711005Y-92424922D01*
X88790023Y-92572756D01*
X88838687Y-92733179D01*
X88851000Y-92858196D01*
X88851000Y-94341804D01*
X88838687Y-94466821D01*
X88790023Y-94627244D01*
X88711005Y-94775078D01*
X88604659Y-94904659D01*
X88475078Y-95011005D01*
X88327244Y-95090023D01*
X88327241Y-95090024D01*
X88327239Y-95090025D01*
X88166825Y-95138686D01*
X88166824Y-95138686D01*
X88166821Y-95138687D01*
X88000000Y-95155117D01*
X87833180Y-95138687D01*
X87833177Y-95138686D01*
X87833176Y-95138686D01*
X87672762Y-95090025D01*
X87672760Y-95090024D01*
X87672757Y-95090023D01*
X87524923Y-95011005D01*
X87395342Y-94904659D01*
X87288996Y-94775078D01*
X87209978Y-94627244D01*
X87161314Y-94466821D01*
X87149001Y-94341804D01*
X87149000Y-92858197D01*
X87161313Y-92733180D01*
X87161314Y-92733176D01*
X87209975Y-92572762D01*
X87209976Y-92572760D01*
X87209977Y-92572757D01*
X87288995Y-92424922D01*
X87395341Y-92295341D01*
X87524922Y-92188995D01*
X87672756Y-92109977D01*
X87672759Y-92109976D01*
X87672761Y-92109975D01*
X87833175Y-92061314D01*
X87833176Y-92061314D01*
X87833179Y-92061313D01*
X88000000Y-92044883D01*
X88166820Y-92061313D01*
X88166820Y-92061313D01*
G37*
G36*
X90706820Y-92061313D02*
X90706823Y-92061314D01*
X90706824Y-92061314D01*
X90867238Y-92109975D01*
X90867240Y-92109976D01*
X90867243Y-92109977D01*
X91015078Y-92188995D01*
X91144659Y-92295341D01*
X91251005Y-92424922D01*
X91330023Y-92572756D01*
X91378687Y-92733179D01*
X91391000Y-92858196D01*
X91391000Y-94341804D01*
X91378687Y-94466821D01*
X91330023Y-94627244D01*
X91251005Y-94775078D01*
X91144659Y-94904659D01*
X91015078Y-95011005D01*
X90867244Y-95090023D01*
X90867241Y-95090024D01*
X90867239Y-95090025D01*
X90706825Y-95138686D01*
X90706824Y-95138686D01*
X90706821Y-95138687D01*
X90540000Y-95155117D01*
X90373180Y-95138687D01*
X90373177Y-95138686D01*
X90373176Y-95138686D01*
X90212762Y-95090025D01*
X90212760Y-95090024D01*
X90212757Y-95090023D01*
X90064923Y-95011005D01*
X89935342Y-94904659D01*
X89828996Y-94775078D01*
X89749978Y-94627244D01*
X89701314Y-94466821D01*
X89689001Y-94341804D01*
X89689000Y-92858197D01*
X89701313Y-92733180D01*
X89701314Y-92733176D01*
X89749975Y-92572762D01*
X89749976Y-92572760D01*
X89749977Y-92572757D01*
X89828995Y-92424922D01*
X89935341Y-92295341D01*
X90064922Y-92188995D01*
X90212756Y-92109977D01*
X90212759Y-92109976D01*
X90212761Y-92109975D01*
X90373175Y-92061314D01*
X90373176Y-92061314D01*
X90373179Y-92061313D01*
X90540000Y-92044883D01*
X90706820Y-92061313D01*
X90706820Y-92061313D01*
G37*
G36*
X95786820Y-92061313D02*
X95786823Y-92061314D01*
X95786824Y-92061314D01*
X95947238Y-92109975D01*
X95947240Y-92109976D01*
X95947243Y-92109977D01*
X96095078Y-92188995D01*
X96224659Y-92295341D01*
X96331005Y-92424922D01*
X96410023Y-92572756D01*
X96458687Y-92733179D01*
X96471000Y-92858196D01*
X96471000Y-94341804D01*
X96458687Y-94466821D01*
X96410023Y-94627244D01*
X96331005Y-94775078D01*
X96224659Y-94904659D01*
X96095078Y-95011005D01*
X95947244Y-95090023D01*
X95947241Y-95090024D01*
X95947239Y-95090025D01*
X95786825Y-95138686D01*
X95786824Y-95138686D01*
X95786821Y-95138687D01*
X95620000Y-95155117D01*
X95453180Y-95138687D01*
X95453177Y-95138686D01*
X95453176Y-95138686D01*
X95292762Y-95090025D01*
X95292760Y-95090024D01*
X95292757Y-95090023D01*
X95144923Y-95011005D01*
X95015342Y-94904659D01*
X94908996Y-94775078D01*
X94829978Y-94627244D01*
X94781314Y-94466821D01*
X94769001Y-94341804D01*
X94769000Y-92858197D01*
X94781313Y-92733180D01*
X94781314Y-92733176D01*
X94829975Y-92572762D01*
X94829976Y-92572760D01*
X94829977Y-92572757D01*
X94908995Y-92424922D01*
X95015341Y-92295341D01*
X95144922Y-92188995D01*
X95292756Y-92109977D01*
X95292759Y-92109976D01*
X95292761Y-92109975D01*
X95453175Y-92061314D01*
X95453176Y-92061314D01*
X95453179Y-92061313D01*
X95620000Y-92044883D01*
X95786820Y-92061313D01*
X95786820Y-92061313D01*
G37*
G36*
X100866820Y-92061313D02*
X100866823Y-92061314D01*
X100866824Y-92061314D01*
X101027238Y-92109975D01*
X101027240Y-92109976D01*
X101027243Y-92109977D01*
X101175078Y-92188995D01*
X101304659Y-92295341D01*
X101411005Y-92424922D01*
X101490023Y-92572756D01*
X101538687Y-92733179D01*
X101551000Y-92858196D01*
X101551000Y-94341804D01*
X101538687Y-94466821D01*
X101490023Y-94627244D01*
X101411005Y-94775078D01*
X101304659Y-94904659D01*
X101175078Y-95011005D01*
X101027244Y-95090023D01*
X101027241Y-95090024D01*
X101027239Y-95090025D01*
X100866825Y-95138686D01*
X100866824Y-95138686D01*
X100866821Y-95138687D01*
X100700000Y-95155117D01*
X100533180Y-95138687D01*
X100533177Y-95138686D01*
X100533176Y-95138686D01*
X100372762Y-95090025D01*
X100372760Y-95090024D01*
X100372757Y-95090023D01*
X100224923Y-95011005D01*
X100095342Y-94904659D01*
X99988996Y-94775078D01*
X99909978Y-94627244D01*
X99861314Y-94466821D01*
X99849001Y-94341804D01*
X99849000Y-92858197D01*
X99861313Y-92733180D01*
X99861314Y-92733176D01*
X99909975Y-92572762D01*
X99909976Y-92572760D01*
X99909977Y-92572757D01*
X99988995Y-92424922D01*
X100095341Y-92295341D01*
X100224922Y-92188995D01*
X100372756Y-92109977D01*
X100372759Y-92109976D01*
X100372761Y-92109975D01*
X100533175Y-92061314D01*
X100533176Y-92061314D01*
X100533179Y-92061313D01*
X100700000Y-92044883D01*
X100866820Y-92061313D01*
X100866820Y-92061313D01*
G37*
G36*
X103406820Y-92061313D02*
X103406823Y-92061314D01*
X103406824Y-92061314D01*
X103567238Y-92109975D01*
X103567240Y-92109976D01*
X103567243Y-92109977D01*
X103715078Y-92188995D01*
X103844659Y-92295341D01*
X103951005Y-92424922D01*
X104030023Y-92572756D01*
X104078687Y-92733179D01*
X104091000Y-92858196D01*
X104091000Y-94341804D01*
X104078687Y-94466821D01*
X104030023Y-94627244D01*
X103951005Y-94775078D01*
X103844659Y-94904659D01*
X103715078Y-95011005D01*
X103567244Y-95090023D01*
X103567241Y-95090024D01*
X103567239Y-95090025D01*
X103406825Y-95138686D01*
X103406824Y-95138686D01*
X103406821Y-95138687D01*
X103240000Y-95155117D01*
X103073180Y-95138687D01*
X103073177Y-95138686D01*
X103073176Y-95138686D01*
X102912762Y-95090025D01*
X102912760Y-95090024D01*
X102912757Y-95090023D01*
X102764923Y-95011005D01*
X102635342Y-94904659D01*
X102528996Y-94775078D01*
X102449978Y-94627244D01*
X102401314Y-94466821D01*
X102389001Y-94341804D01*
X102389000Y-92858197D01*
X102401313Y-92733180D01*
X102401314Y-92733176D01*
X102449975Y-92572762D01*
X102449976Y-92572760D01*
X102449977Y-92572757D01*
X102528995Y-92424922D01*
X102635341Y-92295341D01*
X102764922Y-92188995D01*
X102912756Y-92109977D01*
X102912759Y-92109976D01*
X102912761Y-92109975D01*
X103073175Y-92061314D01*
X103073176Y-92061314D01*
X103073179Y-92061313D01*
X103240000Y-92044883D01*
X103406820Y-92061313D01*
X103406820Y-92061313D01*
G37*
G36*
X105946820Y-92061313D02*
X105946823Y-92061314D01*
X105946824Y-92061314D01*
X106107238Y-92109975D01*
X106107240Y-92109976D01*
X106107243Y-92109977D01*
X106255078Y-92188995D01*
X106384659Y-92295341D01*
X106491005Y-92424922D01*
X106570023Y-92572756D01*
X106618687Y-92733179D01*
X106631000Y-92858196D01*
X106631000Y-94341804D01*
X106618687Y-94466821D01*
X106570023Y-94627244D01*
X106491005Y-94775078D01*
X106384659Y-94904659D01*
X106255078Y-95011005D01*
X106107244Y-95090023D01*
X106107241Y-95090024D01*
X106107239Y-95090025D01*
X105946825Y-95138686D01*
X105946824Y-95138686D01*
X105946821Y-95138687D01*
X105780000Y-95155117D01*
X105613180Y-95138687D01*
X105613177Y-95138686D01*
X105613176Y-95138686D01*
X105452762Y-95090025D01*
X105452760Y-95090024D01*
X105452757Y-95090023D01*
X105304923Y-95011005D01*
X105175342Y-94904659D01*
X105068996Y-94775078D01*
X104989978Y-94627244D01*
X104941314Y-94466821D01*
X104929001Y-94341804D01*
X104929000Y-92858197D01*
X104941313Y-92733180D01*
X104941314Y-92733176D01*
X104989975Y-92572762D01*
X104989976Y-92572760D01*
X104989977Y-92572757D01*
X105068995Y-92424922D01*
X105175341Y-92295341D01*
X105304922Y-92188995D01*
X105452756Y-92109977D01*
X105452759Y-92109976D01*
X105452761Y-92109975D01*
X105613175Y-92061314D01*
X105613176Y-92061314D01*
X105613179Y-92061313D01*
X105780000Y-92044883D01*
X105946820Y-92061313D01*
X105946820Y-92061313D01*
G37*
G36*
X111026820Y-92061313D02*
X111026823Y-92061314D01*
X111026824Y-92061314D01*
X111187238Y-92109975D01*
X111187240Y-92109976D01*
X111187243Y-92109977D01*
X111335078Y-92188995D01*
X111464659Y-92295341D01*
X111571005Y-92424922D01*
X111650023Y-92572756D01*
X111698687Y-92733179D01*
X111711000Y-92858196D01*
X111711000Y-94341804D01*
X111698687Y-94466821D01*
X111650023Y-94627244D01*
X111571005Y-94775078D01*
X111464659Y-94904659D01*
X111335078Y-95011005D01*
X111187244Y-95090023D01*
X111187241Y-95090024D01*
X111187239Y-95090025D01*
X111026825Y-95138686D01*
X111026824Y-95138686D01*
X111026821Y-95138687D01*
X110860000Y-95155117D01*
X110693180Y-95138687D01*
X110693177Y-95138686D01*
X110693176Y-95138686D01*
X110532762Y-95090025D01*
X110532760Y-95090024D01*
X110532757Y-95090023D01*
X110384923Y-95011005D01*
X110255342Y-94904659D01*
X110148996Y-94775078D01*
X110069978Y-94627244D01*
X110021314Y-94466821D01*
X110009001Y-94341804D01*
X110009000Y-92858197D01*
X110021313Y-92733180D01*
X110021314Y-92733176D01*
X110069975Y-92572762D01*
X110069976Y-92572760D01*
X110069977Y-92572757D01*
X110148995Y-92424922D01*
X110255341Y-92295341D01*
X110384922Y-92188995D01*
X110532756Y-92109977D01*
X110532759Y-92109976D01*
X110532761Y-92109975D01*
X110693175Y-92061314D01*
X110693176Y-92061314D01*
X110693179Y-92061313D01*
X110860000Y-92044883D01*
X111026820Y-92061313D01*
X111026820Y-92061313D01*
G37*
G36*
X113566820Y-92061313D02*
X113566823Y-92061314D01*
X113566824Y-92061314D01*
X113727238Y-92109975D01*
X113727240Y-92109976D01*
X113727243Y-92109977D01*
X113875078Y-92188995D01*
X114004659Y-92295341D01*
X114111005Y-92424922D01*
X114190023Y-92572756D01*
X114238687Y-92733179D01*
X114251000Y-92858196D01*
X114251000Y-94341804D01*
X114238687Y-94466821D01*
X114190023Y-94627244D01*
X114111005Y-94775078D01*
X114004659Y-94904659D01*
X113875078Y-95011005D01*
X113727244Y-95090023D01*
X113727241Y-95090024D01*
X113727239Y-95090025D01*
X113566825Y-95138686D01*
X113566824Y-95138686D01*
X113566821Y-95138687D01*
X113400000Y-95155117D01*
X113233180Y-95138687D01*
X113233177Y-95138686D01*
X113233176Y-95138686D01*
X113072762Y-95090025D01*
X113072760Y-95090024D01*
X113072757Y-95090023D01*
X112924923Y-95011005D01*
X112795342Y-94904659D01*
X112688996Y-94775078D01*
X112609978Y-94627244D01*
X112561314Y-94466821D01*
X112549001Y-94341804D01*
X112549000Y-92858197D01*
X112561313Y-92733180D01*
X112561314Y-92733176D01*
X112609975Y-92572762D01*
X112609976Y-92572760D01*
X112609977Y-92572757D01*
X112688995Y-92424922D01*
X112795341Y-92295341D01*
X112924922Y-92188995D01*
X113072756Y-92109977D01*
X113072759Y-92109976D01*
X113072761Y-92109975D01*
X113233175Y-92061314D01*
X113233176Y-92061314D01*
X113233179Y-92061313D01*
X113400000Y-92044883D01*
X113566820Y-92061313D01*
X113566820Y-92061313D01*
G37*
G36*
X108486820Y-92061313D02*
X108486823Y-92061314D01*
X108486824Y-92061314D01*
X108647238Y-92109975D01*
X108647240Y-92109976D01*
X108647243Y-92109977D01*
X108795078Y-92188995D01*
X108924659Y-92295341D01*
X109031005Y-92424922D01*
X109110023Y-92572756D01*
X109158687Y-92733179D01*
X109171000Y-92858196D01*
X109171000Y-94341804D01*
X109158687Y-94466821D01*
X109110023Y-94627244D01*
X109031005Y-94775078D01*
X108924659Y-94904659D01*
X108795078Y-95011005D01*
X108647244Y-95090023D01*
X108647241Y-95090024D01*
X108647239Y-95090025D01*
X108486825Y-95138686D01*
X108486824Y-95138686D01*
X108486821Y-95138687D01*
X108320000Y-95155117D01*
X108153180Y-95138687D01*
X108153177Y-95138686D01*
X108153176Y-95138686D01*
X107992762Y-95090025D01*
X107992760Y-95090024D01*
X107992757Y-95090023D01*
X107844923Y-95011005D01*
X107715342Y-94904659D01*
X107608996Y-94775078D01*
X107529978Y-94627244D01*
X107481314Y-94466821D01*
X107469001Y-94341804D01*
X107469000Y-92858197D01*
X107481313Y-92733180D01*
X107481314Y-92733176D01*
X107529975Y-92572762D01*
X107529976Y-92572760D01*
X107529977Y-92572757D01*
X107608995Y-92424922D01*
X107715341Y-92295341D01*
X107844922Y-92188995D01*
X107992756Y-92109977D01*
X107992759Y-92109976D01*
X107992761Y-92109975D01*
X108153175Y-92061314D01*
X108153176Y-92061314D01*
X108153179Y-92061313D01*
X108320000Y-92044883D01*
X108486820Y-92061313D01*
X108486820Y-92061313D01*
G37*
G36*
X116106820Y-92061313D02*
X116106823Y-92061314D01*
X116106824Y-92061314D01*
X116267238Y-92109975D01*
X116267240Y-92109976D01*
X116267243Y-92109977D01*
X116415078Y-92188995D01*
X116544659Y-92295341D01*
X116651005Y-92424922D01*
X116730023Y-92572756D01*
X116778687Y-92733179D01*
X116791000Y-92858196D01*
X116791000Y-94341804D01*
X116778687Y-94466821D01*
X116730023Y-94627244D01*
X116651005Y-94775078D01*
X116544659Y-94904659D01*
X116415078Y-95011005D01*
X116267244Y-95090023D01*
X116267241Y-95090024D01*
X116267239Y-95090025D01*
X116106825Y-95138686D01*
X116106824Y-95138686D01*
X116106821Y-95138687D01*
X115940000Y-95155117D01*
X115773180Y-95138687D01*
X115773177Y-95138686D01*
X115773176Y-95138686D01*
X115612762Y-95090025D01*
X115612760Y-95090024D01*
X115612757Y-95090023D01*
X115464923Y-95011005D01*
X115335342Y-94904659D01*
X115228996Y-94775078D01*
X115149978Y-94627244D01*
X115101314Y-94466821D01*
X115089001Y-94341804D01*
X115089000Y-92858197D01*
X115101313Y-92733180D01*
X115101314Y-92733176D01*
X115149975Y-92572762D01*
X115149976Y-92572760D01*
X115149977Y-92572757D01*
X115228995Y-92424922D01*
X115335341Y-92295341D01*
X115464922Y-92188995D01*
X115612756Y-92109977D01*
X115612759Y-92109976D01*
X115612761Y-92109975D01*
X115773175Y-92061314D01*
X115773176Y-92061314D01*
X115773179Y-92061313D01*
X115940000Y-92044883D01*
X116106820Y-92061313D01*
X116106820Y-92061313D01*
G37*
G36*
X93246820Y-92061313D02*
X93246823Y-92061314D01*
X93246824Y-92061314D01*
X93407238Y-92109975D01*
X93407240Y-92109976D01*
X93407243Y-92109977D01*
X93555078Y-92188995D01*
X93684659Y-92295341D01*
X93791005Y-92424922D01*
X93870023Y-92572756D01*
X93918687Y-92733179D01*
X93931000Y-92858196D01*
X93931000Y-94341804D01*
X93918687Y-94466821D01*
X93870023Y-94627244D01*
X93791005Y-94775078D01*
X93684659Y-94904659D01*
X93555078Y-95011005D01*
X93407244Y-95090023D01*
X93407241Y-95090024D01*
X93407239Y-95090025D01*
X93246825Y-95138686D01*
X93246824Y-95138686D01*
X93246821Y-95138687D01*
X93080000Y-95155117D01*
X92913180Y-95138687D01*
X92913177Y-95138686D01*
X92913176Y-95138686D01*
X92752762Y-95090025D01*
X92752760Y-95090024D01*
X92752757Y-95090023D01*
X92604923Y-95011005D01*
X92475342Y-94904659D01*
X92368996Y-94775078D01*
X92289978Y-94627244D01*
X92241314Y-94466821D01*
X92229001Y-94341804D01*
X92229000Y-92858197D01*
X92241313Y-92733180D01*
X92241314Y-92733176D01*
X92289975Y-92572762D01*
X92289976Y-92572760D01*
X92289977Y-92572757D01*
X92368995Y-92424922D01*
X92475341Y-92295341D01*
X92604922Y-92188995D01*
X92752756Y-92109977D01*
X92752759Y-92109976D01*
X92752761Y-92109975D01*
X92913175Y-92061314D01*
X92913176Y-92061314D01*
X92913179Y-92061313D01*
X93080000Y-92044883D01*
X93246820Y-92061313D01*
X93246820Y-92061313D01*
G37*
G36*
X124411000Y-95151000D02*
X122709000Y-95151000D01*
X122709000Y-92049000D01*
X124411000Y-92049000D01*
X124411000Y-95151000D01*
X124411000Y-95151000D01*
G37*
G36*
X104251000Y-52101000D02*
X102449000Y-52101000D01*
X102449000Y-50299000D01*
X104251000Y-50299000D01*
X104251000Y-52101000D01*
X104251000Y-52101000D01*
G37*
G36*
X106000442Y-50305518D02*
X106066627Y-50312037D01*
X106179853Y-50346384D01*
X106236467Y-50363557D01*
X106375087Y-50437652D01*
X106392991Y-50447222D01*
X106428729Y-50476552D01*
X106530186Y-50559814D01*
X106613448Y-50661271D01*
X106642778Y-50697009D01*
X106642779Y-50697011D01*
X106726443Y-50853533D01*
X106726443Y-50853534D01*
X106777963Y-51023373D01*
X106795359Y-51200000D01*
X106777963Y-51376627D01*
X106743616Y-51489853D01*
X106726443Y-51546467D01*
X106652348Y-51685087D01*
X106642778Y-51702991D01*
X106613448Y-51738729D01*
X106530186Y-51840186D01*
X106428729Y-51923448D01*
X106392991Y-51952778D01*
X106392989Y-51952779D01*
X106236467Y-52036443D01*
X106179853Y-52053616D01*
X106066627Y-52087963D01*
X106000442Y-52094482D01*
X105934260Y-52101000D01*
X105845740Y-52101000D01*
X105779558Y-52094482D01*
X105713373Y-52087963D01*
X105600147Y-52053616D01*
X105543533Y-52036443D01*
X105387011Y-51952779D01*
X105387009Y-51952778D01*
X105351271Y-51923448D01*
X105249814Y-51840186D01*
X105166552Y-51738729D01*
X105137222Y-51702991D01*
X105127652Y-51685087D01*
X105053557Y-51546467D01*
X105036384Y-51489853D01*
X105002037Y-51376627D01*
X104984641Y-51200000D01*
X105002037Y-51023373D01*
X105053557Y-50853534D01*
X105053557Y-50853533D01*
X105137221Y-50697011D01*
X105137222Y-50697009D01*
X105166552Y-50661271D01*
X105249814Y-50559814D01*
X105351271Y-50476552D01*
X105387009Y-50447222D01*
X105404913Y-50437652D01*
X105543533Y-50363557D01*
X105600147Y-50346384D01*
X105713373Y-50312037D01*
X105779558Y-50305518D01*
X105845740Y-50299000D01*
X105934260Y-50299000D01*
X106000442Y-50305518D01*
X106000442Y-50305518D01*
G37*
G36*
X145880443Y-32225519D02*
X145946627Y-32232037D01*
X146059853Y-32266384D01*
X146116467Y-32283557D01*
X146255087Y-32357652D01*
X146272991Y-32367222D01*
X146308729Y-32396552D01*
X146410186Y-32479814D01*
X146493448Y-32581271D01*
X146522778Y-32617009D01*
X146522779Y-32617011D01*
X146606443Y-32773533D01*
X146606443Y-32773534D01*
X146657963Y-32943373D01*
X146675359Y-33120000D01*
X146657963Y-33296627D01*
X146623616Y-33409853D01*
X146606443Y-33466467D01*
X146532348Y-33605087D01*
X146522778Y-33622991D01*
X146493448Y-33658729D01*
X146410186Y-33760186D01*
X146308729Y-33843448D01*
X146272991Y-33872778D01*
X146272989Y-33872779D01*
X146116467Y-33956443D01*
X146059853Y-33973616D01*
X145946627Y-34007963D01*
X145880442Y-34014482D01*
X145814260Y-34021000D01*
X145725740Y-34021000D01*
X145659558Y-34014482D01*
X145593373Y-34007963D01*
X145480147Y-33973616D01*
X145423533Y-33956443D01*
X145267011Y-33872779D01*
X145267009Y-33872778D01*
X145231271Y-33843448D01*
X145129814Y-33760186D01*
X145046552Y-33658729D01*
X145017222Y-33622991D01*
X145007652Y-33605087D01*
X144933557Y-33466467D01*
X144916384Y-33409853D01*
X144882037Y-33296627D01*
X144864641Y-33120000D01*
X144882037Y-32943373D01*
X144933557Y-32773534D01*
X144933557Y-32773533D01*
X145017221Y-32617011D01*
X145017222Y-32617009D01*
X145046552Y-32581271D01*
X145129814Y-32479814D01*
X145231271Y-32396552D01*
X145267009Y-32367222D01*
X145284913Y-32357652D01*
X145423533Y-32283557D01*
X145480147Y-32266384D01*
X145593373Y-32232037D01*
X145659557Y-32225519D01*
X145725740Y-32219000D01*
X145814260Y-32219000D01*
X145880443Y-32225519D01*
X145880443Y-32225519D01*
G37*
G36*
X146671000Y-31481000D02*
X144869000Y-31481000D01*
X144869000Y-29679000D01*
X146671000Y-29679000D01*
X146671000Y-31481000D01*
X146671000Y-31481000D01*
G37*
G36*
X152265331Y-26868211D02*
X152593092Y-27003974D01*
X152888073Y-27201074D01*
X153138926Y-27451927D01*
X153336026Y-27746908D01*
X153471789Y-28074669D01*
X153541000Y-28422616D01*
X153541000Y-28777384D01*
X153471789Y-29125331D01*
X153336026Y-29453092D01*
X153138926Y-29748073D01*
X152888073Y-29998926D01*
X152593092Y-30196026D01*
X152265331Y-30331789D01*
X151917384Y-30401000D01*
X151562616Y-30401000D01*
X151214669Y-30331789D01*
X150886908Y-30196026D01*
X150591927Y-29998926D01*
X150341074Y-29748073D01*
X150143974Y-29453092D01*
X150008211Y-29125331D01*
X149939000Y-28777384D01*
X149939000Y-28422616D01*
X150008211Y-28074669D01*
X150143974Y-27746908D01*
X150341074Y-27451927D01*
X150591927Y-27201074D01*
X150886908Y-27003974D01*
X151214669Y-26868211D01*
X151562616Y-26799000D01*
X151917384Y-26799000D01*
X152265331Y-26868211D01*
X152265331Y-26868211D01*
G37*
G36*
X64265331Y-26868211D02*
X64593092Y-27003974D01*
X64888073Y-27201074D01*
X65138926Y-27451927D01*
X65336026Y-27746908D01*
X65471789Y-28074669D01*
X65541000Y-28422616D01*
X65541000Y-28777384D01*
X65471789Y-29125331D01*
X65336026Y-29453092D01*
X65138926Y-29748073D01*
X64888073Y-29998926D01*
X64593092Y-30196026D01*
X64265331Y-30331789D01*
X63917384Y-30401000D01*
X63562616Y-30401000D01*
X63214669Y-30331789D01*
X62886908Y-30196026D01*
X62591927Y-29998926D01*
X62341074Y-29748073D01*
X62143974Y-29453092D01*
X62008211Y-29125331D01*
X61939000Y-28777384D01*
X61939000Y-28422616D01*
X62008211Y-28074669D01*
X62143974Y-27746908D01*
X62341074Y-27451927D01*
X62591927Y-27201074D01*
X62886908Y-27003974D01*
X63214669Y-26868211D01*
X63562616Y-26799000D01*
X63917384Y-26799000D01*
X64265331Y-26868211D01*
X64265331Y-26868211D01*
G37*
G36*
X77235091Y-29306528D02*
X77294420Y-29331103D01*
X77347814Y-29366780D01*
X77393220Y-29412186D01*
X77428897Y-29465580D01*
X77453472Y-29524909D01*
X77466000Y-29587892D01*
X77466000Y-29652108D01*
X77453472Y-29715091D01*
X77428897Y-29774420D01*
X77393220Y-29827814D01*
X77347814Y-29873220D01*
X77294420Y-29908897D01*
X77235091Y-29933472D01*
X77172108Y-29946000D01*
X77107892Y-29946000D01*
X77044909Y-29933472D01*
X76985580Y-29908897D01*
X76932186Y-29873220D01*
X76886780Y-29827814D01*
X76851103Y-29774420D01*
X76826528Y-29715091D01*
X76814000Y-29652108D01*
X76814000Y-29587892D01*
X76826528Y-29524909D01*
X76851103Y-29465580D01*
X76886780Y-29412186D01*
X76932186Y-29366780D01*
X76985580Y-29331103D01*
X77044909Y-29306528D01*
X77107892Y-29294000D01*
X77172108Y-29294000D01*
X77235091Y-29306528D01*
X77235091Y-29306528D01*
G37*
G36*
X73235091Y-29306528D02*
X73294420Y-29331103D01*
X73347814Y-29366780D01*
X73393220Y-29412186D01*
X73428897Y-29465580D01*
X73453472Y-29524909D01*
X73466000Y-29587892D01*
X73466000Y-29652108D01*
X73453472Y-29715091D01*
X73428897Y-29774420D01*
X73393220Y-29827814D01*
X73347814Y-29873220D01*
X73294420Y-29908897D01*
X73235091Y-29933472D01*
X73172108Y-29946000D01*
X73107892Y-29946000D01*
X73044909Y-29933472D01*
X72985580Y-29908897D01*
X72932186Y-29873220D01*
X72886780Y-29827814D01*
X72851103Y-29774420D01*
X72826528Y-29715091D01*
X72814000Y-29652108D01*
X72814000Y-29587892D01*
X72826528Y-29524909D01*
X72851103Y-29465580D01*
X72886780Y-29412186D01*
X72932186Y-29366780D01*
X72985580Y-29331103D01*
X73044909Y-29306528D01*
X73107892Y-29294000D01*
X73172108Y-29294000D01*
X73235091Y-29306528D01*
X73235091Y-29306528D01*
G37*
M02*
