G04 #@! TF.GenerationSoftware,KiCad,Pcbnew,5.0.2+dfsg1-1~bpo9+1*
G04 #@! TF.CreationDate,2019-07-30T16:59:57+07:00*
G04 #@! TF.ProjectId,edukate,6564756b-6174-4652-9e6b-696361645f70,rev?*
G04 #@! TF.SameCoordinates,Original*
G04 #@! TF.FileFunction,Paste,Top*
G04 #@! TF.FilePolarity,Positive*
%FSLAX46Y46*%
G04 Gerber Fmt 4.6, Leading zero omitted, Abs format (unit mm)*
G04 Created by KiCad (PCBNEW 5.0.2+dfsg1-1~bpo9+1) date Tue 30 Jul 2019 04:59:57 PM +07*
%MOMM*%
%LPD*%
G01*
G04 APERTURE LIST*
%ADD10R,1.500000X1.600000*%
%ADD11R,2.300000X2.300000*%
%ADD12R,0.900000X0.800000*%
%ADD13R,0.800000X0.900000*%
%ADD14R,1.700000X2.000000*%
%ADD15R,2.000000X1.700000*%
%ADD16R,1.800000X3.500000*%
%ADD17R,0.400000X1.350000*%
%ADD18R,2.000000X2.000000*%
%ADD19R,3.000000X6.300000*%
%ADD20R,6.300000X3.000000*%
%ADD21R,0.500000X0.800000*%
%ADD22R,0.400000X0.800000*%
%ADD23C,0.100000*%
%ADD24C,0.600000*%
%ADD25C,0.300000*%
%ADD26R,0.650000X1.560000*%
%ADD27R,2.000000X0.650000*%
%ADD28R,1.560000X0.650000*%
%ADD29R,1.450000X0.450000*%
%ADD30R,1.700000X2.400000*%
%ADD31R,1.000000X1.800000*%
G04 APERTURE END LIST*
D10*
G04 #@! TO.C,BOOT0*
X108750000Y-102540000D03*
X101660000Y-102540000D03*
G04 #@! TD*
D11*
G04 #@! TO.C,BZ1*
X150230000Y-81260000D03*
X143130000Y-81260000D03*
X150230000Y-88360000D03*
X143130000Y-88360000D03*
G04 #@! TD*
D12*
G04 #@! TO.C,C1*
X85370000Y-98090000D03*
X87170000Y-98090000D03*
G04 #@! TD*
D13*
G04 #@! TO.C,C2*
X84419500Y-44990131D03*
X84419500Y-46790131D03*
G04 #@! TD*
G04 #@! TO.C,C3*
X80290501Y-46800000D03*
X80290501Y-45000000D03*
G04 #@! TD*
G04 #@! TO.C,C4*
X74970000Y-45580000D03*
X74970000Y-43780000D03*
G04 #@! TD*
G04 #@! TO.C,C5*
X86400000Y-52280000D03*
X86400000Y-54080000D03*
G04 #@! TD*
G04 #@! TO.C,C6*
X80920000Y-52290000D03*
X80920000Y-54090000D03*
G04 #@! TD*
D12*
G04 #@! TO.C,C7*
X76990000Y-51370000D03*
X75190000Y-51370000D03*
G04 #@! TD*
G04 #@! TO.C,C8*
X65910000Y-51370000D03*
X64110000Y-51370000D03*
G04 #@! TD*
G04 #@! TO.C,C9*
X92350000Y-76020000D03*
X90550000Y-76020000D03*
G04 #@! TD*
G04 #@! TO.C,C10*
X95560000Y-58040000D03*
X97360000Y-58040000D03*
G04 #@! TD*
D13*
G04 #@! TO.C,C11*
X89180000Y-52290000D03*
X89180000Y-54090000D03*
G04 #@! TD*
G04 #@! TO.C,C12*
X88670000Y-46940000D03*
X88670000Y-45140000D03*
G04 #@! TD*
G04 #@! TO.C,C13*
X86331000Y-46930131D03*
X86331000Y-45130131D03*
G04 #@! TD*
D14*
G04 #@! TO.C,C14*
X128670000Y-36280000D03*
X128670000Y-32280000D03*
G04 #@! TD*
D15*
G04 #@! TO.C,C15*
X124360000Y-43010000D03*
X128360000Y-43010000D03*
G04 #@! TD*
D14*
G04 #@! TO.C,C16*
X105930000Y-37070000D03*
X105930000Y-33070000D03*
G04 #@! TD*
D13*
G04 #@! TO.C,C19*
X137090000Y-44860000D03*
X137090000Y-46660000D03*
G04 #@! TD*
D12*
G04 #@! TO.C,C20*
X145510000Y-40090000D03*
X147310000Y-40090000D03*
G04 #@! TD*
G04 #@! TO.C,C21*
X147300000Y-38730000D03*
X145500000Y-38730000D03*
G04 #@! TD*
G04 #@! TO.C,C22*
X145490000Y-37370000D03*
X147290000Y-37370000D03*
G04 #@! TD*
D13*
G04 #@! TO.C,C23*
X77200000Y-33310000D03*
X77200000Y-35110000D03*
G04 #@! TD*
D16*
G04 #@! TO.C,D1*
X120450000Y-42120000D03*
X120450000Y-37120000D03*
G04 #@! TD*
D17*
G04 #@! TO.C,J2*
X75140000Y-30170000D03*
X74490000Y-30170000D03*
X73840000Y-30170000D03*
X75790000Y-30170000D03*
X76440000Y-30170000D03*
D18*
X71590000Y-27495000D03*
X78690000Y-27495000D03*
G04 #@! TD*
D19*
G04 #@! TO.C,L1*
X120174999Y-30360000D03*
X125164999Y-30360000D03*
G04 #@! TD*
D20*
G04 #@! TO.C,L2*
X110970000Y-37360000D03*
X110970000Y-42350000D03*
G04 #@! TD*
D13*
G04 #@! TO.C,R1*
X74970000Y-48790000D03*
X74970000Y-46990000D03*
G04 #@! TD*
G04 #@! TO.C,R2*
X146290000Y-76830000D03*
X146290000Y-78630000D03*
G04 #@! TD*
D12*
G04 #@! TO.C,R3*
X69450000Y-51380000D03*
X67650000Y-51380000D03*
G04 #@! TD*
D13*
G04 #@! TO.C,R4*
X82290000Y-46789631D03*
X82290000Y-44989631D03*
G04 #@! TD*
G04 #@! TO.C,R5*
X129690000Y-38630000D03*
X129690000Y-40430000D03*
G04 #@! TD*
G04 #@! TO.C,R6*
X128330000Y-40440000D03*
X128330000Y-38640000D03*
G04 #@! TD*
G04 #@! TO.C,R7*
X87970000Y-86730000D03*
X87970000Y-84930000D03*
G04 #@! TD*
G04 #@! TO.C,R8*
X89370000Y-86730000D03*
X89370000Y-84930000D03*
G04 #@! TD*
G04 #@! TO.C,R9*
X95040000Y-86720000D03*
X95040000Y-84920000D03*
G04 #@! TD*
G04 #@! TO.C,R10*
X111780000Y-27740000D03*
X111780000Y-29540000D03*
G04 #@! TD*
G04 #@! TO.C,R11*
X145420000Y-42390000D03*
X145420000Y-44190000D03*
G04 #@! TD*
G04 #@! TO.C,R12*
X137090000Y-43450000D03*
X137090000Y-41650000D03*
G04 #@! TD*
G04 #@! TO.C,R13*
X75800000Y-35110000D03*
X75800000Y-33310000D03*
G04 #@! TD*
G04 #@! TO.C,R14*
X113140000Y-27730000D03*
X113140000Y-29530000D03*
G04 #@! TD*
D10*
G04 #@! TO.C,RESET*
X82710000Y-102540000D03*
X89800000Y-102540000D03*
G04 #@! TD*
D21*
G04 #@! TO.C,RN1*
X76430000Y-103320000D03*
D22*
X78030000Y-103320000D03*
X77230000Y-103320000D03*
D21*
X78830000Y-103320000D03*
D22*
X77230000Y-101520000D03*
D21*
X76430000Y-101520000D03*
D22*
X78030000Y-101520000D03*
D21*
X78830000Y-101520000D03*
G04 #@! TD*
D18*
G04 #@! TO.C,SW1*
X87240000Y-117100000D03*
X87240000Y-112100000D03*
X72740000Y-117100000D03*
X72740000Y-112100000D03*
G04 #@! TD*
G04 #@! TO.C,SW2*
X87240000Y-135700000D03*
X87240000Y-130700000D03*
X72740000Y-135700000D03*
X72740000Y-130700000D03*
G04 #@! TD*
G04 #@! TO.C,SW3*
X87240000Y-154300000D03*
X87240000Y-149300000D03*
X72740000Y-154300000D03*
X72740000Y-149300000D03*
G04 #@! TD*
G04 #@! TO.C,SW4*
X87240000Y-172900000D03*
X87240000Y-167900000D03*
X72740000Y-172900000D03*
X72740000Y-167900000D03*
G04 #@! TD*
G04 #@! TO.C,SW5*
X91330000Y-112100000D03*
X91330000Y-117100000D03*
X105830000Y-112100000D03*
X105830000Y-117100000D03*
G04 #@! TD*
G04 #@! TO.C,SW6*
X91330000Y-130700000D03*
X91330000Y-135700000D03*
X105830000Y-130700000D03*
X105830000Y-135700000D03*
G04 #@! TD*
G04 #@! TO.C,SW7*
X91330000Y-149300000D03*
X91330000Y-154300000D03*
X105830000Y-149300000D03*
X105830000Y-154300000D03*
G04 #@! TD*
G04 #@! TO.C,SW8*
X91330000Y-167900000D03*
X91330000Y-172900000D03*
X105830000Y-167900000D03*
X105830000Y-172900000D03*
G04 #@! TD*
G04 #@! TO.C,SW9*
X124440000Y-117100000D03*
X124440000Y-112100000D03*
X109940000Y-117100000D03*
X109940000Y-112100000D03*
G04 #@! TD*
G04 #@! TO.C,SW10*
X109940000Y-130700000D03*
X109940000Y-135700000D03*
X124440000Y-130700000D03*
X124440000Y-135700000D03*
G04 #@! TD*
G04 #@! TO.C,SW11*
X124440000Y-154300000D03*
X124440000Y-149300000D03*
X109940000Y-154300000D03*
X109940000Y-149300000D03*
G04 #@! TD*
G04 #@! TO.C,SW12*
X124440000Y-172900000D03*
X124440000Y-167900000D03*
X109940000Y-172900000D03*
X109940000Y-167900000D03*
G04 #@! TD*
G04 #@! TO.C,SW13*
X128540000Y-112100000D03*
X128540000Y-117100000D03*
X143040000Y-112100000D03*
X143040000Y-117100000D03*
G04 #@! TD*
G04 #@! TO.C,SW14*
X143040000Y-135700000D03*
X143040000Y-130700000D03*
X128540000Y-135700000D03*
X128540000Y-130700000D03*
G04 #@! TD*
G04 #@! TO.C,SW15*
X128540000Y-149300000D03*
X128540000Y-154300000D03*
X143040000Y-149300000D03*
X143040000Y-154300000D03*
G04 #@! TD*
G04 #@! TO.C,SW16*
X128540000Y-167900000D03*
X128540000Y-172900000D03*
X143040000Y-167900000D03*
X143040000Y-172900000D03*
G04 #@! TD*
D10*
G04 #@! TO.C,SW_MNU*
X92160000Y-102540000D03*
X99250000Y-102540000D03*
G04 #@! TD*
D23*
G04 #@! TO.C,U1*
G36*
X73064703Y-47805722D02*
X73079264Y-47807882D01*
X73093543Y-47811459D01*
X73107403Y-47816418D01*
X73120710Y-47822712D01*
X73133336Y-47830280D01*
X73145159Y-47839048D01*
X73156066Y-47848934D01*
X73165952Y-47859841D01*
X73174720Y-47871664D01*
X73182288Y-47884290D01*
X73188582Y-47897597D01*
X73193541Y-47911457D01*
X73197118Y-47925736D01*
X73199278Y-47940297D01*
X73200000Y-47955000D01*
X73200000Y-48255000D01*
X73199278Y-48269703D01*
X73197118Y-48284264D01*
X73193541Y-48298543D01*
X73188582Y-48312403D01*
X73182288Y-48325710D01*
X73174720Y-48338336D01*
X73165952Y-48350159D01*
X73156066Y-48361066D01*
X73145159Y-48370952D01*
X73133336Y-48379720D01*
X73120710Y-48387288D01*
X73107403Y-48393582D01*
X73093543Y-48398541D01*
X73079264Y-48402118D01*
X73064703Y-48404278D01*
X73050000Y-48405000D01*
X71750000Y-48405000D01*
X71735297Y-48404278D01*
X71720736Y-48402118D01*
X71706457Y-48398541D01*
X71692597Y-48393582D01*
X71679290Y-48387288D01*
X71666664Y-48379720D01*
X71654841Y-48370952D01*
X71643934Y-48361066D01*
X71634048Y-48350159D01*
X71625280Y-48338336D01*
X71617712Y-48325710D01*
X71611418Y-48312403D01*
X71606459Y-48298543D01*
X71602882Y-48284264D01*
X71600722Y-48269703D01*
X71600000Y-48255000D01*
X71600000Y-47955000D01*
X71600722Y-47940297D01*
X71602882Y-47925736D01*
X71606459Y-47911457D01*
X71611418Y-47897597D01*
X71617712Y-47884290D01*
X71625280Y-47871664D01*
X71634048Y-47859841D01*
X71643934Y-47848934D01*
X71654841Y-47839048D01*
X71666664Y-47830280D01*
X71679290Y-47822712D01*
X71692597Y-47816418D01*
X71706457Y-47811459D01*
X71720736Y-47807882D01*
X71735297Y-47805722D01*
X71750000Y-47805000D01*
X73050000Y-47805000D01*
X73064703Y-47805722D01*
X73064703Y-47805722D01*
G37*
D24*
X72400000Y-48105000D03*
D23*
G36*
X73064703Y-46535722D02*
X73079264Y-46537882D01*
X73093543Y-46541459D01*
X73107403Y-46546418D01*
X73120710Y-46552712D01*
X73133336Y-46560280D01*
X73145159Y-46569048D01*
X73156066Y-46578934D01*
X73165952Y-46589841D01*
X73174720Y-46601664D01*
X73182288Y-46614290D01*
X73188582Y-46627597D01*
X73193541Y-46641457D01*
X73197118Y-46655736D01*
X73199278Y-46670297D01*
X73200000Y-46685000D01*
X73200000Y-46985000D01*
X73199278Y-46999703D01*
X73197118Y-47014264D01*
X73193541Y-47028543D01*
X73188582Y-47042403D01*
X73182288Y-47055710D01*
X73174720Y-47068336D01*
X73165952Y-47080159D01*
X73156066Y-47091066D01*
X73145159Y-47100952D01*
X73133336Y-47109720D01*
X73120710Y-47117288D01*
X73107403Y-47123582D01*
X73093543Y-47128541D01*
X73079264Y-47132118D01*
X73064703Y-47134278D01*
X73050000Y-47135000D01*
X71750000Y-47135000D01*
X71735297Y-47134278D01*
X71720736Y-47132118D01*
X71706457Y-47128541D01*
X71692597Y-47123582D01*
X71679290Y-47117288D01*
X71666664Y-47109720D01*
X71654841Y-47100952D01*
X71643934Y-47091066D01*
X71634048Y-47080159D01*
X71625280Y-47068336D01*
X71617712Y-47055710D01*
X71611418Y-47042403D01*
X71606459Y-47028543D01*
X71602882Y-47014264D01*
X71600722Y-46999703D01*
X71600000Y-46985000D01*
X71600000Y-46685000D01*
X71600722Y-46670297D01*
X71602882Y-46655736D01*
X71606459Y-46641457D01*
X71611418Y-46627597D01*
X71617712Y-46614290D01*
X71625280Y-46601664D01*
X71634048Y-46589841D01*
X71643934Y-46578934D01*
X71654841Y-46569048D01*
X71666664Y-46560280D01*
X71679290Y-46552712D01*
X71692597Y-46546418D01*
X71706457Y-46541459D01*
X71720736Y-46537882D01*
X71735297Y-46535722D01*
X71750000Y-46535000D01*
X73050000Y-46535000D01*
X73064703Y-46535722D01*
X73064703Y-46535722D01*
G37*
D24*
X72400000Y-46835000D03*
D23*
G36*
X73064703Y-45265722D02*
X73079264Y-45267882D01*
X73093543Y-45271459D01*
X73107403Y-45276418D01*
X73120710Y-45282712D01*
X73133336Y-45290280D01*
X73145159Y-45299048D01*
X73156066Y-45308934D01*
X73165952Y-45319841D01*
X73174720Y-45331664D01*
X73182288Y-45344290D01*
X73188582Y-45357597D01*
X73193541Y-45371457D01*
X73197118Y-45385736D01*
X73199278Y-45400297D01*
X73200000Y-45415000D01*
X73200000Y-45715000D01*
X73199278Y-45729703D01*
X73197118Y-45744264D01*
X73193541Y-45758543D01*
X73188582Y-45772403D01*
X73182288Y-45785710D01*
X73174720Y-45798336D01*
X73165952Y-45810159D01*
X73156066Y-45821066D01*
X73145159Y-45830952D01*
X73133336Y-45839720D01*
X73120710Y-45847288D01*
X73107403Y-45853582D01*
X73093543Y-45858541D01*
X73079264Y-45862118D01*
X73064703Y-45864278D01*
X73050000Y-45865000D01*
X71750000Y-45865000D01*
X71735297Y-45864278D01*
X71720736Y-45862118D01*
X71706457Y-45858541D01*
X71692597Y-45853582D01*
X71679290Y-45847288D01*
X71666664Y-45839720D01*
X71654841Y-45830952D01*
X71643934Y-45821066D01*
X71634048Y-45810159D01*
X71625280Y-45798336D01*
X71617712Y-45785710D01*
X71611418Y-45772403D01*
X71606459Y-45758543D01*
X71602882Y-45744264D01*
X71600722Y-45729703D01*
X71600000Y-45715000D01*
X71600000Y-45415000D01*
X71600722Y-45400297D01*
X71602882Y-45385736D01*
X71606459Y-45371457D01*
X71611418Y-45357597D01*
X71617712Y-45344290D01*
X71625280Y-45331664D01*
X71634048Y-45319841D01*
X71643934Y-45308934D01*
X71654841Y-45299048D01*
X71666664Y-45290280D01*
X71679290Y-45282712D01*
X71692597Y-45276418D01*
X71706457Y-45271459D01*
X71720736Y-45267882D01*
X71735297Y-45265722D01*
X71750000Y-45265000D01*
X73050000Y-45265000D01*
X73064703Y-45265722D01*
X73064703Y-45265722D01*
G37*
D24*
X72400000Y-45565000D03*
D23*
G36*
X73064703Y-43995722D02*
X73079264Y-43997882D01*
X73093543Y-44001459D01*
X73107403Y-44006418D01*
X73120710Y-44012712D01*
X73133336Y-44020280D01*
X73145159Y-44029048D01*
X73156066Y-44038934D01*
X73165952Y-44049841D01*
X73174720Y-44061664D01*
X73182288Y-44074290D01*
X73188582Y-44087597D01*
X73193541Y-44101457D01*
X73197118Y-44115736D01*
X73199278Y-44130297D01*
X73200000Y-44145000D01*
X73200000Y-44445000D01*
X73199278Y-44459703D01*
X73197118Y-44474264D01*
X73193541Y-44488543D01*
X73188582Y-44502403D01*
X73182288Y-44515710D01*
X73174720Y-44528336D01*
X73165952Y-44540159D01*
X73156066Y-44551066D01*
X73145159Y-44560952D01*
X73133336Y-44569720D01*
X73120710Y-44577288D01*
X73107403Y-44583582D01*
X73093543Y-44588541D01*
X73079264Y-44592118D01*
X73064703Y-44594278D01*
X73050000Y-44595000D01*
X71750000Y-44595000D01*
X71735297Y-44594278D01*
X71720736Y-44592118D01*
X71706457Y-44588541D01*
X71692597Y-44583582D01*
X71679290Y-44577288D01*
X71666664Y-44569720D01*
X71654841Y-44560952D01*
X71643934Y-44551066D01*
X71634048Y-44540159D01*
X71625280Y-44528336D01*
X71617712Y-44515710D01*
X71611418Y-44502403D01*
X71606459Y-44488543D01*
X71602882Y-44474264D01*
X71600722Y-44459703D01*
X71600000Y-44445000D01*
X71600000Y-44145000D01*
X71600722Y-44130297D01*
X71602882Y-44115736D01*
X71606459Y-44101457D01*
X71611418Y-44087597D01*
X71617712Y-44074290D01*
X71625280Y-44061664D01*
X71634048Y-44049841D01*
X71643934Y-44038934D01*
X71654841Y-44029048D01*
X71666664Y-44020280D01*
X71679290Y-44012712D01*
X71692597Y-44006418D01*
X71706457Y-44001459D01*
X71720736Y-43997882D01*
X71735297Y-43995722D01*
X71750000Y-43995000D01*
X73050000Y-43995000D01*
X73064703Y-43995722D01*
X73064703Y-43995722D01*
G37*
D24*
X72400000Y-44295000D03*
D23*
G36*
X65864703Y-43995722D02*
X65879264Y-43997882D01*
X65893543Y-44001459D01*
X65907403Y-44006418D01*
X65920710Y-44012712D01*
X65933336Y-44020280D01*
X65945159Y-44029048D01*
X65956066Y-44038934D01*
X65965952Y-44049841D01*
X65974720Y-44061664D01*
X65982288Y-44074290D01*
X65988582Y-44087597D01*
X65993541Y-44101457D01*
X65997118Y-44115736D01*
X65999278Y-44130297D01*
X66000000Y-44145000D01*
X66000000Y-44445000D01*
X65999278Y-44459703D01*
X65997118Y-44474264D01*
X65993541Y-44488543D01*
X65988582Y-44502403D01*
X65982288Y-44515710D01*
X65974720Y-44528336D01*
X65965952Y-44540159D01*
X65956066Y-44551066D01*
X65945159Y-44560952D01*
X65933336Y-44569720D01*
X65920710Y-44577288D01*
X65907403Y-44583582D01*
X65893543Y-44588541D01*
X65879264Y-44592118D01*
X65864703Y-44594278D01*
X65850000Y-44595000D01*
X64550000Y-44595000D01*
X64535297Y-44594278D01*
X64520736Y-44592118D01*
X64506457Y-44588541D01*
X64492597Y-44583582D01*
X64479290Y-44577288D01*
X64466664Y-44569720D01*
X64454841Y-44560952D01*
X64443934Y-44551066D01*
X64434048Y-44540159D01*
X64425280Y-44528336D01*
X64417712Y-44515710D01*
X64411418Y-44502403D01*
X64406459Y-44488543D01*
X64402882Y-44474264D01*
X64400722Y-44459703D01*
X64400000Y-44445000D01*
X64400000Y-44145000D01*
X64400722Y-44130297D01*
X64402882Y-44115736D01*
X64406459Y-44101457D01*
X64411418Y-44087597D01*
X64417712Y-44074290D01*
X64425280Y-44061664D01*
X64434048Y-44049841D01*
X64443934Y-44038934D01*
X64454841Y-44029048D01*
X64466664Y-44020280D01*
X64479290Y-44012712D01*
X64492597Y-44006418D01*
X64506457Y-44001459D01*
X64520736Y-43997882D01*
X64535297Y-43995722D01*
X64550000Y-43995000D01*
X65850000Y-43995000D01*
X65864703Y-43995722D01*
X65864703Y-43995722D01*
G37*
D24*
X65200000Y-44295000D03*
D23*
G36*
X65864703Y-45265722D02*
X65879264Y-45267882D01*
X65893543Y-45271459D01*
X65907403Y-45276418D01*
X65920710Y-45282712D01*
X65933336Y-45290280D01*
X65945159Y-45299048D01*
X65956066Y-45308934D01*
X65965952Y-45319841D01*
X65974720Y-45331664D01*
X65982288Y-45344290D01*
X65988582Y-45357597D01*
X65993541Y-45371457D01*
X65997118Y-45385736D01*
X65999278Y-45400297D01*
X66000000Y-45415000D01*
X66000000Y-45715000D01*
X65999278Y-45729703D01*
X65997118Y-45744264D01*
X65993541Y-45758543D01*
X65988582Y-45772403D01*
X65982288Y-45785710D01*
X65974720Y-45798336D01*
X65965952Y-45810159D01*
X65956066Y-45821066D01*
X65945159Y-45830952D01*
X65933336Y-45839720D01*
X65920710Y-45847288D01*
X65907403Y-45853582D01*
X65893543Y-45858541D01*
X65879264Y-45862118D01*
X65864703Y-45864278D01*
X65850000Y-45865000D01*
X64550000Y-45865000D01*
X64535297Y-45864278D01*
X64520736Y-45862118D01*
X64506457Y-45858541D01*
X64492597Y-45853582D01*
X64479290Y-45847288D01*
X64466664Y-45839720D01*
X64454841Y-45830952D01*
X64443934Y-45821066D01*
X64434048Y-45810159D01*
X64425280Y-45798336D01*
X64417712Y-45785710D01*
X64411418Y-45772403D01*
X64406459Y-45758543D01*
X64402882Y-45744264D01*
X64400722Y-45729703D01*
X64400000Y-45715000D01*
X64400000Y-45415000D01*
X64400722Y-45400297D01*
X64402882Y-45385736D01*
X64406459Y-45371457D01*
X64411418Y-45357597D01*
X64417712Y-45344290D01*
X64425280Y-45331664D01*
X64434048Y-45319841D01*
X64443934Y-45308934D01*
X64454841Y-45299048D01*
X64466664Y-45290280D01*
X64479290Y-45282712D01*
X64492597Y-45276418D01*
X64506457Y-45271459D01*
X64520736Y-45267882D01*
X64535297Y-45265722D01*
X64550000Y-45265000D01*
X65850000Y-45265000D01*
X65864703Y-45265722D01*
X65864703Y-45265722D01*
G37*
D24*
X65200000Y-45565000D03*
D23*
G36*
X65864703Y-46535722D02*
X65879264Y-46537882D01*
X65893543Y-46541459D01*
X65907403Y-46546418D01*
X65920710Y-46552712D01*
X65933336Y-46560280D01*
X65945159Y-46569048D01*
X65956066Y-46578934D01*
X65965952Y-46589841D01*
X65974720Y-46601664D01*
X65982288Y-46614290D01*
X65988582Y-46627597D01*
X65993541Y-46641457D01*
X65997118Y-46655736D01*
X65999278Y-46670297D01*
X66000000Y-46685000D01*
X66000000Y-46985000D01*
X65999278Y-46999703D01*
X65997118Y-47014264D01*
X65993541Y-47028543D01*
X65988582Y-47042403D01*
X65982288Y-47055710D01*
X65974720Y-47068336D01*
X65965952Y-47080159D01*
X65956066Y-47091066D01*
X65945159Y-47100952D01*
X65933336Y-47109720D01*
X65920710Y-47117288D01*
X65907403Y-47123582D01*
X65893543Y-47128541D01*
X65879264Y-47132118D01*
X65864703Y-47134278D01*
X65850000Y-47135000D01*
X64550000Y-47135000D01*
X64535297Y-47134278D01*
X64520736Y-47132118D01*
X64506457Y-47128541D01*
X64492597Y-47123582D01*
X64479290Y-47117288D01*
X64466664Y-47109720D01*
X64454841Y-47100952D01*
X64443934Y-47091066D01*
X64434048Y-47080159D01*
X64425280Y-47068336D01*
X64417712Y-47055710D01*
X64411418Y-47042403D01*
X64406459Y-47028543D01*
X64402882Y-47014264D01*
X64400722Y-46999703D01*
X64400000Y-46985000D01*
X64400000Y-46685000D01*
X64400722Y-46670297D01*
X64402882Y-46655736D01*
X64406459Y-46641457D01*
X64411418Y-46627597D01*
X64417712Y-46614290D01*
X64425280Y-46601664D01*
X64434048Y-46589841D01*
X64443934Y-46578934D01*
X64454841Y-46569048D01*
X64466664Y-46560280D01*
X64479290Y-46552712D01*
X64492597Y-46546418D01*
X64506457Y-46541459D01*
X64520736Y-46537882D01*
X64535297Y-46535722D01*
X64550000Y-46535000D01*
X65850000Y-46535000D01*
X65864703Y-46535722D01*
X65864703Y-46535722D01*
G37*
D24*
X65200000Y-46835000D03*
D23*
G36*
X65864703Y-47805722D02*
X65879264Y-47807882D01*
X65893543Y-47811459D01*
X65907403Y-47816418D01*
X65920710Y-47822712D01*
X65933336Y-47830280D01*
X65945159Y-47839048D01*
X65956066Y-47848934D01*
X65965952Y-47859841D01*
X65974720Y-47871664D01*
X65982288Y-47884290D01*
X65988582Y-47897597D01*
X65993541Y-47911457D01*
X65997118Y-47925736D01*
X65999278Y-47940297D01*
X66000000Y-47955000D01*
X66000000Y-48255000D01*
X65999278Y-48269703D01*
X65997118Y-48284264D01*
X65993541Y-48298543D01*
X65988582Y-48312403D01*
X65982288Y-48325710D01*
X65974720Y-48338336D01*
X65965952Y-48350159D01*
X65956066Y-48361066D01*
X65945159Y-48370952D01*
X65933336Y-48379720D01*
X65920710Y-48387288D01*
X65907403Y-48393582D01*
X65893543Y-48398541D01*
X65879264Y-48402118D01*
X65864703Y-48404278D01*
X65850000Y-48405000D01*
X64550000Y-48405000D01*
X64535297Y-48404278D01*
X64520736Y-48402118D01*
X64506457Y-48398541D01*
X64492597Y-48393582D01*
X64479290Y-48387288D01*
X64466664Y-48379720D01*
X64454841Y-48370952D01*
X64443934Y-48361066D01*
X64434048Y-48350159D01*
X64425280Y-48338336D01*
X64417712Y-48325710D01*
X64411418Y-48312403D01*
X64406459Y-48298543D01*
X64402882Y-48284264D01*
X64400722Y-48269703D01*
X64400000Y-48255000D01*
X64400000Y-47955000D01*
X64400722Y-47940297D01*
X64402882Y-47925736D01*
X64406459Y-47911457D01*
X64411418Y-47897597D01*
X64417712Y-47884290D01*
X64425280Y-47871664D01*
X64434048Y-47859841D01*
X64443934Y-47848934D01*
X64454841Y-47839048D01*
X64466664Y-47830280D01*
X64479290Y-47822712D01*
X64492597Y-47816418D01*
X64506457Y-47811459D01*
X64520736Y-47807882D01*
X64535297Y-47805722D01*
X64550000Y-47805000D01*
X65850000Y-47805000D01*
X65864703Y-47805722D01*
X65864703Y-47805722D01*
G37*
D24*
X65200000Y-48105000D03*
G04 #@! TD*
D23*
G04 #@! TO.C,U2*
G36*
X91512351Y-55985361D02*
X91519632Y-55986441D01*
X91526771Y-55988229D01*
X91533701Y-55990709D01*
X91540355Y-55993856D01*
X91546668Y-55997640D01*
X91552579Y-56002024D01*
X91558033Y-56006967D01*
X91562976Y-56012421D01*
X91567360Y-56018332D01*
X91571144Y-56024645D01*
X91574291Y-56031299D01*
X91576771Y-56038229D01*
X91578559Y-56045368D01*
X91579639Y-56052649D01*
X91580000Y-56060000D01*
X91580000Y-57510000D01*
X91579639Y-57517351D01*
X91578559Y-57524632D01*
X91576771Y-57531771D01*
X91574291Y-57538701D01*
X91571144Y-57545355D01*
X91567360Y-57551668D01*
X91562976Y-57557579D01*
X91558033Y-57563033D01*
X91552579Y-57567976D01*
X91546668Y-57572360D01*
X91540355Y-57576144D01*
X91533701Y-57579291D01*
X91526771Y-57581771D01*
X91519632Y-57583559D01*
X91512351Y-57584639D01*
X91505000Y-57585000D01*
X91355000Y-57585000D01*
X91347649Y-57584639D01*
X91340368Y-57583559D01*
X91333229Y-57581771D01*
X91326299Y-57579291D01*
X91319645Y-57576144D01*
X91313332Y-57572360D01*
X91307421Y-57567976D01*
X91301967Y-57563033D01*
X91297024Y-57557579D01*
X91292640Y-57551668D01*
X91288856Y-57545355D01*
X91285709Y-57538701D01*
X91283229Y-57531771D01*
X91281441Y-57524632D01*
X91280361Y-57517351D01*
X91280000Y-57510000D01*
X91280000Y-56060000D01*
X91280361Y-56052649D01*
X91281441Y-56045368D01*
X91283229Y-56038229D01*
X91285709Y-56031299D01*
X91288856Y-56024645D01*
X91292640Y-56018332D01*
X91297024Y-56012421D01*
X91301967Y-56006967D01*
X91307421Y-56002024D01*
X91313332Y-55997640D01*
X91319645Y-55993856D01*
X91326299Y-55990709D01*
X91333229Y-55988229D01*
X91340368Y-55986441D01*
X91347649Y-55985361D01*
X91355000Y-55985000D01*
X91505000Y-55985000D01*
X91512351Y-55985361D01*
X91512351Y-55985361D01*
G37*
D25*
X91430000Y-56785000D03*
D23*
G36*
X91012351Y-55985361D02*
X91019632Y-55986441D01*
X91026771Y-55988229D01*
X91033701Y-55990709D01*
X91040355Y-55993856D01*
X91046668Y-55997640D01*
X91052579Y-56002024D01*
X91058033Y-56006967D01*
X91062976Y-56012421D01*
X91067360Y-56018332D01*
X91071144Y-56024645D01*
X91074291Y-56031299D01*
X91076771Y-56038229D01*
X91078559Y-56045368D01*
X91079639Y-56052649D01*
X91080000Y-56060000D01*
X91080000Y-57510000D01*
X91079639Y-57517351D01*
X91078559Y-57524632D01*
X91076771Y-57531771D01*
X91074291Y-57538701D01*
X91071144Y-57545355D01*
X91067360Y-57551668D01*
X91062976Y-57557579D01*
X91058033Y-57563033D01*
X91052579Y-57567976D01*
X91046668Y-57572360D01*
X91040355Y-57576144D01*
X91033701Y-57579291D01*
X91026771Y-57581771D01*
X91019632Y-57583559D01*
X91012351Y-57584639D01*
X91005000Y-57585000D01*
X90855000Y-57585000D01*
X90847649Y-57584639D01*
X90840368Y-57583559D01*
X90833229Y-57581771D01*
X90826299Y-57579291D01*
X90819645Y-57576144D01*
X90813332Y-57572360D01*
X90807421Y-57567976D01*
X90801967Y-57563033D01*
X90797024Y-57557579D01*
X90792640Y-57551668D01*
X90788856Y-57545355D01*
X90785709Y-57538701D01*
X90783229Y-57531771D01*
X90781441Y-57524632D01*
X90780361Y-57517351D01*
X90780000Y-57510000D01*
X90780000Y-56060000D01*
X90780361Y-56052649D01*
X90781441Y-56045368D01*
X90783229Y-56038229D01*
X90785709Y-56031299D01*
X90788856Y-56024645D01*
X90792640Y-56018332D01*
X90797024Y-56012421D01*
X90801967Y-56006967D01*
X90807421Y-56002024D01*
X90813332Y-55997640D01*
X90819645Y-55993856D01*
X90826299Y-55990709D01*
X90833229Y-55988229D01*
X90840368Y-55986441D01*
X90847649Y-55985361D01*
X90855000Y-55985000D01*
X91005000Y-55985000D01*
X91012351Y-55985361D01*
X91012351Y-55985361D01*
G37*
D25*
X90930000Y-56785000D03*
D23*
G36*
X90512351Y-55985361D02*
X90519632Y-55986441D01*
X90526771Y-55988229D01*
X90533701Y-55990709D01*
X90540355Y-55993856D01*
X90546668Y-55997640D01*
X90552579Y-56002024D01*
X90558033Y-56006967D01*
X90562976Y-56012421D01*
X90567360Y-56018332D01*
X90571144Y-56024645D01*
X90574291Y-56031299D01*
X90576771Y-56038229D01*
X90578559Y-56045368D01*
X90579639Y-56052649D01*
X90580000Y-56060000D01*
X90580000Y-57510000D01*
X90579639Y-57517351D01*
X90578559Y-57524632D01*
X90576771Y-57531771D01*
X90574291Y-57538701D01*
X90571144Y-57545355D01*
X90567360Y-57551668D01*
X90562976Y-57557579D01*
X90558033Y-57563033D01*
X90552579Y-57567976D01*
X90546668Y-57572360D01*
X90540355Y-57576144D01*
X90533701Y-57579291D01*
X90526771Y-57581771D01*
X90519632Y-57583559D01*
X90512351Y-57584639D01*
X90505000Y-57585000D01*
X90355000Y-57585000D01*
X90347649Y-57584639D01*
X90340368Y-57583559D01*
X90333229Y-57581771D01*
X90326299Y-57579291D01*
X90319645Y-57576144D01*
X90313332Y-57572360D01*
X90307421Y-57567976D01*
X90301967Y-57563033D01*
X90297024Y-57557579D01*
X90292640Y-57551668D01*
X90288856Y-57545355D01*
X90285709Y-57538701D01*
X90283229Y-57531771D01*
X90281441Y-57524632D01*
X90280361Y-57517351D01*
X90280000Y-57510000D01*
X90280000Y-56060000D01*
X90280361Y-56052649D01*
X90281441Y-56045368D01*
X90283229Y-56038229D01*
X90285709Y-56031299D01*
X90288856Y-56024645D01*
X90292640Y-56018332D01*
X90297024Y-56012421D01*
X90301967Y-56006967D01*
X90307421Y-56002024D01*
X90313332Y-55997640D01*
X90319645Y-55993856D01*
X90326299Y-55990709D01*
X90333229Y-55988229D01*
X90340368Y-55986441D01*
X90347649Y-55985361D01*
X90355000Y-55985000D01*
X90505000Y-55985000D01*
X90512351Y-55985361D01*
X90512351Y-55985361D01*
G37*
D25*
X90430000Y-56785000D03*
D23*
G36*
X90012351Y-55985361D02*
X90019632Y-55986441D01*
X90026771Y-55988229D01*
X90033701Y-55990709D01*
X90040355Y-55993856D01*
X90046668Y-55997640D01*
X90052579Y-56002024D01*
X90058033Y-56006967D01*
X90062976Y-56012421D01*
X90067360Y-56018332D01*
X90071144Y-56024645D01*
X90074291Y-56031299D01*
X90076771Y-56038229D01*
X90078559Y-56045368D01*
X90079639Y-56052649D01*
X90080000Y-56060000D01*
X90080000Y-57510000D01*
X90079639Y-57517351D01*
X90078559Y-57524632D01*
X90076771Y-57531771D01*
X90074291Y-57538701D01*
X90071144Y-57545355D01*
X90067360Y-57551668D01*
X90062976Y-57557579D01*
X90058033Y-57563033D01*
X90052579Y-57567976D01*
X90046668Y-57572360D01*
X90040355Y-57576144D01*
X90033701Y-57579291D01*
X90026771Y-57581771D01*
X90019632Y-57583559D01*
X90012351Y-57584639D01*
X90005000Y-57585000D01*
X89855000Y-57585000D01*
X89847649Y-57584639D01*
X89840368Y-57583559D01*
X89833229Y-57581771D01*
X89826299Y-57579291D01*
X89819645Y-57576144D01*
X89813332Y-57572360D01*
X89807421Y-57567976D01*
X89801967Y-57563033D01*
X89797024Y-57557579D01*
X89792640Y-57551668D01*
X89788856Y-57545355D01*
X89785709Y-57538701D01*
X89783229Y-57531771D01*
X89781441Y-57524632D01*
X89780361Y-57517351D01*
X89780000Y-57510000D01*
X89780000Y-56060000D01*
X89780361Y-56052649D01*
X89781441Y-56045368D01*
X89783229Y-56038229D01*
X89785709Y-56031299D01*
X89788856Y-56024645D01*
X89792640Y-56018332D01*
X89797024Y-56012421D01*
X89801967Y-56006967D01*
X89807421Y-56002024D01*
X89813332Y-55997640D01*
X89819645Y-55993856D01*
X89826299Y-55990709D01*
X89833229Y-55988229D01*
X89840368Y-55986441D01*
X89847649Y-55985361D01*
X89855000Y-55985000D01*
X90005000Y-55985000D01*
X90012351Y-55985361D01*
X90012351Y-55985361D01*
G37*
D25*
X89930000Y-56785000D03*
D23*
G36*
X89512351Y-55985361D02*
X89519632Y-55986441D01*
X89526771Y-55988229D01*
X89533701Y-55990709D01*
X89540355Y-55993856D01*
X89546668Y-55997640D01*
X89552579Y-56002024D01*
X89558033Y-56006967D01*
X89562976Y-56012421D01*
X89567360Y-56018332D01*
X89571144Y-56024645D01*
X89574291Y-56031299D01*
X89576771Y-56038229D01*
X89578559Y-56045368D01*
X89579639Y-56052649D01*
X89580000Y-56060000D01*
X89580000Y-57510000D01*
X89579639Y-57517351D01*
X89578559Y-57524632D01*
X89576771Y-57531771D01*
X89574291Y-57538701D01*
X89571144Y-57545355D01*
X89567360Y-57551668D01*
X89562976Y-57557579D01*
X89558033Y-57563033D01*
X89552579Y-57567976D01*
X89546668Y-57572360D01*
X89540355Y-57576144D01*
X89533701Y-57579291D01*
X89526771Y-57581771D01*
X89519632Y-57583559D01*
X89512351Y-57584639D01*
X89505000Y-57585000D01*
X89355000Y-57585000D01*
X89347649Y-57584639D01*
X89340368Y-57583559D01*
X89333229Y-57581771D01*
X89326299Y-57579291D01*
X89319645Y-57576144D01*
X89313332Y-57572360D01*
X89307421Y-57567976D01*
X89301967Y-57563033D01*
X89297024Y-57557579D01*
X89292640Y-57551668D01*
X89288856Y-57545355D01*
X89285709Y-57538701D01*
X89283229Y-57531771D01*
X89281441Y-57524632D01*
X89280361Y-57517351D01*
X89280000Y-57510000D01*
X89280000Y-56060000D01*
X89280361Y-56052649D01*
X89281441Y-56045368D01*
X89283229Y-56038229D01*
X89285709Y-56031299D01*
X89288856Y-56024645D01*
X89292640Y-56018332D01*
X89297024Y-56012421D01*
X89301967Y-56006967D01*
X89307421Y-56002024D01*
X89313332Y-55997640D01*
X89319645Y-55993856D01*
X89326299Y-55990709D01*
X89333229Y-55988229D01*
X89340368Y-55986441D01*
X89347649Y-55985361D01*
X89355000Y-55985000D01*
X89505000Y-55985000D01*
X89512351Y-55985361D01*
X89512351Y-55985361D01*
G37*
D25*
X89430000Y-56785000D03*
D23*
G36*
X89012351Y-55985361D02*
X89019632Y-55986441D01*
X89026771Y-55988229D01*
X89033701Y-55990709D01*
X89040355Y-55993856D01*
X89046668Y-55997640D01*
X89052579Y-56002024D01*
X89058033Y-56006967D01*
X89062976Y-56012421D01*
X89067360Y-56018332D01*
X89071144Y-56024645D01*
X89074291Y-56031299D01*
X89076771Y-56038229D01*
X89078559Y-56045368D01*
X89079639Y-56052649D01*
X89080000Y-56060000D01*
X89080000Y-57510000D01*
X89079639Y-57517351D01*
X89078559Y-57524632D01*
X89076771Y-57531771D01*
X89074291Y-57538701D01*
X89071144Y-57545355D01*
X89067360Y-57551668D01*
X89062976Y-57557579D01*
X89058033Y-57563033D01*
X89052579Y-57567976D01*
X89046668Y-57572360D01*
X89040355Y-57576144D01*
X89033701Y-57579291D01*
X89026771Y-57581771D01*
X89019632Y-57583559D01*
X89012351Y-57584639D01*
X89005000Y-57585000D01*
X88855000Y-57585000D01*
X88847649Y-57584639D01*
X88840368Y-57583559D01*
X88833229Y-57581771D01*
X88826299Y-57579291D01*
X88819645Y-57576144D01*
X88813332Y-57572360D01*
X88807421Y-57567976D01*
X88801967Y-57563033D01*
X88797024Y-57557579D01*
X88792640Y-57551668D01*
X88788856Y-57545355D01*
X88785709Y-57538701D01*
X88783229Y-57531771D01*
X88781441Y-57524632D01*
X88780361Y-57517351D01*
X88780000Y-57510000D01*
X88780000Y-56060000D01*
X88780361Y-56052649D01*
X88781441Y-56045368D01*
X88783229Y-56038229D01*
X88785709Y-56031299D01*
X88788856Y-56024645D01*
X88792640Y-56018332D01*
X88797024Y-56012421D01*
X88801967Y-56006967D01*
X88807421Y-56002024D01*
X88813332Y-55997640D01*
X88819645Y-55993856D01*
X88826299Y-55990709D01*
X88833229Y-55988229D01*
X88840368Y-55986441D01*
X88847649Y-55985361D01*
X88855000Y-55985000D01*
X89005000Y-55985000D01*
X89012351Y-55985361D01*
X89012351Y-55985361D01*
G37*
D25*
X88930000Y-56785000D03*
D23*
G36*
X88512351Y-55985361D02*
X88519632Y-55986441D01*
X88526771Y-55988229D01*
X88533701Y-55990709D01*
X88540355Y-55993856D01*
X88546668Y-55997640D01*
X88552579Y-56002024D01*
X88558033Y-56006967D01*
X88562976Y-56012421D01*
X88567360Y-56018332D01*
X88571144Y-56024645D01*
X88574291Y-56031299D01*
X88576771Y-56038229D01*
X88578559Y-56045368D01*
X88579639Y-56052649D01*
X88580000Y-56060000D01*
X88580000Y-57510000D01*
X88579639Y-57517351D01*
X88578559Y-57524632D01*
X88576771Y-57531771D01*
X88574291Y-57538701D01*
X88571144Y-57545355D01*
X88567360Y-57551668D01*
X88562976Y-57557579D01*
X88558033Y-57563033D01*
X88552579Y-57567976D01*
X88546668Y-57572360D01*
X88540355Y-57576144D01*
X88533701Y-57579291D01*
X88526771Y-57581771D01*
X88519632Y-57583559D01*
X88512351Y-57584639D01*
X88505000Y-57585000D01*
X88355000Y-57585000D01*
X88347649Y-57584639D01*
X88340368Y-57583559D01*
X88333229Y-57581771D01*
X88326299Y-57579291D01*
X88319645Y-57576144D01*
X88313332Y-57572360D01*
X88307421Y-57567976D01*
X88301967Y-57563033D01*
X88297024Y-57557579D01*
X88292640Y-57551668D01*
X88288856Y-57545355D01*
X88285709Y-57538701D01*
X88283229Y-57531771D01*
X88281441Y-57524632D01*
X88280361Y-57517351D01*
X88280000Y-57510000D01*
X88280000Y-56060000D01*
X88280361Y-56052649D01*
X88281441Y-56045368D01*
X88283229Y-56038229D01*
X88285709Y-56031299D01*
X88288856Y-56024645D01*
X88292640Y-56018332D01*
X88297024Y-56012421D01*
X88301967Y-56006967D01*
X88307421Y-56002024D01*
X88313332Y-55997640D01*
X88319645Y-55993856D01*
X88326299Y-55990709D01*
X88333229Y-55988229D01*
X88340368Y-55986441D01*
X88347649Y-55985361D01*
X88355000Y-55985000D01*
X88505000Y-55985000D01*
X88512351Y-55985361D01*
X88512351Y-55985361D01*
G37*
D25*
X88430000Y-56785000D03*
D23*
G36*
X88012351Y-55985361D02*
X88019632Y-55986441D01*
X88026771Y-55988229D01*
X88033701Y-55990709D01*
X88040355Y-55993856D01*
X88046668Y-55997640D01*
X88052579Y-56002024D01*
X88058033Y-56006967D01*
X88062976Y-56012421D01*
X88067360Y-56018332D01*
X88071144Y-56024645D01*
X88074291Y-56031299D01*
X88076771Y-56038229D01*
X88078559Y-56045368D01*
X88079639Y-56052649D01*
X88080000Y-56060000D01*
X88080000Y-57510000D01*
X88079639Y-57517351D01*
X88078559Y-57524632D01*
X88076771Y-57531771D01*
X88074291Y-57538701D01*
X88071144Y-57545355D01*
X88067360Y-57551668D01*
X88062976Y-57557579D01*
X88058033Y-57563033D01*
X88052579Y-57567976D01*
X88046668Y-57572360D01*
X88040355Y-57576144D01*
X88033701Y-57579291D01*
X88026771Y-57581771D01*
X88019632Y-57583559D01*
X88012351Y-57584639D01*
X88005000Y-57585000D01*
X87855000Y-57585000D01*
X87847649Y-57584639D01*
X87840368Y-57583559D01*
X87833229Y-57581771D01*
X87826299Y-57579291D01*
X87819645Y-57576144D01*
X87813332Y-57572360D01*
X87807421Y-57567976D01*
X87801967Y-57563033D01*
X87797024Y-57557579D01*
X87792640Y-57551668D01*
X87788856Y-57545355D01*
X87785709Y-57538701D01*
X87783229Y-57531771D01*
X87781441Y-57524632D01*
X87780361Y-57517351D01*
X87780000Y-57510000D01*
X87780000Y-56060000D01*
X87780361Y-56052649D01*
X87781441Y-56045368D01*
X87783229Y-56038229D01*
X87785709Y-56031299D01*
X87788856Y-56024645D01*
X87792640Y-56018332D01*
X87797024Y-56012421D01*
X87801967Y-56006967D01*
X87807421Y-56002024D01*
X87813332Y-55997640D01*
X87819645Y-55993856D01*
X87826299Y-55990709D01*
X87833229Y-55988229D01*
X87840368Y-55986441D01*
X87847649Y-55985361D01*
X87855000Y-55985000D01*
X88005000Y-55985000D01*
X88012351Y-55985361D01*
X88012351Y-55985361D01*
G37*
D25*
X87930000Y-56785000D03*
D23*
G36*
X87512351Y-55985361D02*
X87519632Y-55986441D01*
X87526771Y-55988229D01*
X87533701Y-55990709D01*
X87540355Y-55993856D01*
X87546668Y-55997640D01*
X87552579Y-56002024D01*
X87558033Y-56006967D01*
X87562976Y-56012421D01*
X87567360Y-56018332D01*
X87571144Y-56024645D01*
X87574291Y-56031299D01*
X87576771Y-56038229D01*
X87578559Y-56045368D01*
X87579639Y-56052649D01*
X87580000Y-56060000D01*
X87580000Y-57510000D01*
X87579639Y-57517351D01*
X87578559Y-57524632D01*
X87576771Y-57531771D01*
X87574291Y-57538701D01*
X87571144Y-57545355D01*
X87567360Y-57551668D01*
X87562976Y-57557579D01*
X87558033Y-57563033D01*
X87552579Y-57567976D01*
X87546668Y-57572360D01*
X87540355Y-57576144D01*
X87533701Y-57579291D01*
X87526771Y-57581771D01*
X87519632Y-57583559D01*
X87512351Y-57584639D01*
X87505000Y-57585000D01*
X87355000Y-57585000D01*
X87347649Y-57584639D01*
X87340368Y-57583559D01*
X87333229Y-57581771D01*
X87326299Y-57579291D01*
X87319645Y-57576144D01*
X87313332Y-57572360D01*
X87307421Y-57567976D01*
X87301967Y-57563033D01*
X87297024Y-57557579D01*
X87292640Y-57551668D01*
X87288856Y-57545355D01*
X87285709Y-57538701D01*
X87283229Y-57531771D01*
X87281441Y-57524632D01*
X87280361Y-57517351D01*
X87280000Y-57510000D01*
X87280000Y-56060000D01*
X87280361Y-56052649D01*
X87281441Y-56045368D01*
X87283229Y-56038229D01*
X87285709Y-56031299D01*
X87288856Y-56024645D01*
X87292640Y-56018332D01*
X87297024Y-56012421D01*
X87301967Y-56006967D01*
X87307421Y-56002024D01*
X87313332Y-55997640D01*
X87319645Y-55993856D01*
X87326299Y-55990709D01*
X87333229Y-55988229D01*
X87340368Y-55986441D01*
X87347649Y-55985361D01*
X87355000Y-55985000D01*
X87505000Y-55985000D01*
X87512351Y-55985361D01*
X87512351Y-55985361D01*
G37*
D25*
X87430000Y-56785000D03*
D23*
G36*
X87012351Y-55985361D02*
X87019632Y-55986441D01*
X87026771Y-55988229D01*
X87033701Y-55990709D01*
X87040355Y-55993856D01*
X87046668Y-55997640D01*
X87052579Y-56002024D01*
X87058033Y-56006967D01*
X87062976Y-56012421D01*
X87067360Y-56018332D01*
X87071144Y-56024645D01*
X87074291Y-56031299D01*
X87076771Y-56038229D01*
X87078559Y-56045368D01*
X87079639Y-56052649D01*
X87080000Y-56060000D01*
X87080000Y-57510000D01*
X87079639Y-57517351D01*
X87078559Y-57524632D01*
X87076771Y-57531771D01*
X87074291Y-57538701D01*
X87071144Y-57545355D01*
X87067360Y-57551668D01*
X87062976Y-57557579D01*
X87058033Y-57563033D01*
X87052579Y-57567976D01*
X87046668Y-57572360D01*
X87040355Y-57576144D01*
X87033701Y-57579291D01*
X87026771Y-57581771D01*
X87019632Y-57583559D01*
X87012351Y-57584639D01*
X87005000Y-57585000D01*
X86855000Y-57585000D01*
X86847649Y-57584639D01*
X86840368Y-57583559D01*
X86833229Y-57581771D01*
X86826299Y-57579291D01*
X86819645Y-57576144D01*
X86813332Y-57572360D01*
X86807421Y-57567976D01*
X86801967Y-57563033D01*
X86797024Y-57557579D01*
X86792640Y-57551668D01*
X86788856Y-57545355D01*
X86785709Y-57538701D01*
X86783229Y-57531771D01*
X86781441Y-57524632D01*
X86780361Y-57517351D01*
X86780000Y-57510000D01*
X86780000Y-56060000D01*
X86780361Y-56052649D01*
X86781441Y-56045368D01*
X86783229Y-56038229D01*
X86785709Y-56031299D01*
X86788856Y-56024645D01*
X86792640Y-56018332D01*
X86797024Y-56012421D01*
X86801967Y-56006967D01*
X86807421Y-56002024D01*
X86813332Y-55997640D01*
X86819645Y-55993856D01*
X86826299Y-55990709D01*
X86833229Y-55988229D01*
X86840368Y-55986441D01*
X86847649Y-55985361D01*
X86855000Y-55985000D01*
X87005000Y-55985000D01*
X87012351Y-55985361D01*
X87012351Y-55985361D01*
G37*
D25*
X86930000Y-56785000D03*
D23*
G36*
X86512351Y-55985361D02*
X86519632Y-55986441D01*
X86526771Y-55988229D01*
X86533701Y-55990709D01*
X86540355Y-55993856D01*
X86546668Y-55997640D01*
X86552579Y-56002024D01*
X86558033Y-56006967D01*
X86562976Y-56012421D01*
X86567360Y-56018332D01*
X86571144Y-56024645D01*
X86574291Y-56031299D01*
X86576771Y-56038229D01*
X86578559Y-56045368D01*
X86579639Y-56052649D01*
X86580000Y-56060000D01*
X86580000Y-57510000D01*
X86579639Y-57517351D01*
X86578559Y-57524632D01*
X86576771Y-57531771D01*
X86574291Y-57538701D01*
X86571144Y-57545355D01*
X86567360Y-57551668D01*
X86562976Y-57557579D01*
X86558033Y-57563033D01*
X86552579Y-57567976D01*
X86546668Y-57572360D01*
X86540355Y-57576144D01*
X86533701Y-57579291D01*
X86526771Y-57581771D01*
X86519632Y-57583559D01*
X86512351Y-57584639D01*
X86505000Y-57585000D01*
X86355000Y-57585000D01*
X86347649Y-57584639D01*
X86340368Y-57583559D01*
X86333229Y-57581771D01*
X86326299Y-57579291D01*
X86319645Y-57576144D01*
X86313332Y-57572360D01*
X86307421Y-57567976D01*
X86301967Y-57563033D01*
X86297024Y-57557579D01*
X86292640Y-57551668D01*
X86288856Y-57545355D01*
X86285709Y-57538701D01*
X86283229Y-57531771D01*
X86281441Y-57524632D01*
X86280361Y-57517351D01*
X86280000Y-57510000D01*
X86280000Y-56060000D01*
X86280361Y-56052649D01*
X86281441Y-56045368D01*
X86283229Y-56038229D01*
X86285709Y-56031299D01*
X86288856Y-56024645D01*
X86292640Y-56018332D01*
X86297024Y-56012421D01*
X86301967Y-56006967D01*
X86307421Y-56002024D01*
X86313332Y-55997640D01*
X86319645Y-55993856D01*
X86326299Y-55990709D01*
X86333229Y-55988229D01*
X86340368Y-55986441D01*
X86347649Y-55985361D01*
X86355000Y-55985000D01*
X86505000Y-55985000D01*
X86512351Y-55985361D01*
X86512351Y-55985361D01*
G37*
D25*
X86430000Y-56785000D03*
D23*
G36*
X86012351Y-55985361D02*
X86019632Y-55986441D01*
X86026771Y-55988229D01*
X86033701Y-55990709D01*
X86040355Y-55993856D01*
X86046668Y-55997640D01*
X86052579Y-56002024D01*
X86058033Y-56006967D01*
X86062976Y-56012421D01*
X86067360Y-56018332D01*
X86071144Y-56024645D01*
X86074291Y-56031299D01*
X86076771Y-56038229D01*
X86078559Y-56045368D01*
X86079639Y-56052649D01*
X86080000Y-56060000D01*
X86080000Y-57510000D01*
X86079639Y-57517351D01*
X86078559Y-57524632D01*
X86076771Y-57531771D01*
X86074291Y-57538701D01*
X86071144Y-57545355D01*
X86067360Y-57551668D01*
X86062976Y-57557579D01*
X86058033Y-57563033D01*
X86052579Y-57567976D01*
X86046668Y-57572360D01*
X86040355Y-57576144D01*
X86033701Y-57579291D01*
X86026771Y-57581771D01*
X86019632Y-57583559D01*
X86012351Y-57584639D01*
X86005000Y-57585000D01*
X85855000Y-57585000D01*
X85847649Y-57584639D01*
X85840368Y-57583559D01*
X85833229Y-57581771D01*
X85826299Y-57579291D01*
X85819645Y-57576144D01*
X85813332Y-57572360D01*
X85807421Y-57567976D01*
X85801967Y-57563033D01*
X85797024Y-57557579D01*
X85792640Y-57551668D01*
X85788856Y-57545355D01*
X85785709Y-57538701D01*
X85783229Y-57531771D01*
X85781441Y-57524632D01*
X85780361Y-57517351D01*
X85780000Y-57510000D01*
X85780000Y-56060000D01*
X85780361Y-56052649D01*
X85781441Y-56045368D01*
X85783229Y-56038229D01*
X85785709Y-56031299D01*
X85788856Y-56024645D01*
X85792640Y-56018332D01*
X85797024Y-56012421D01*
X85801967Y-56006967D01*
X85807421Y-56002024D01*
X85813332Y-55997640D01*
X85819645Y-55993856D01*
X85826299Y-55990709D01*
X85833229Y-55988229D01*
X85840368Y-55986441D01*
X85847649Y-55985361D01*
X85855000Y-55985000D01*
X86005000Y-55985000D01*
X86012351Y-55985361D01*
X86012351Y-55985361D01*
G37*
D25*
X85930000Y-56785000D03*
D23*
G36*
X85512351Y-55985361D02*
X85519632Y-55986441D01*
X85526771Y-55988229D01*
X85533701Y-55990709D01*
X85540355Y-55993856D01*
X85546668Y-55997640D01*
X85552579Y-56002024D01*
X85558033Y-56006967D01*
X85562976Y-56012421D01*
X85567360Y-56018332D01*
X85571144Y-56024645D01*
X85574291Y-56031299D01*
X85576771Y-56038229D01*
X85578559Y-56045368D01*
X85579639Y-56052649D01*
X85580000Y-56060000D01*
X85580000Y-57510000D01*
X85579639Y-57517351D01*
X85578559Y-57524632D01*
X85576771Y-57531771D01*
X85574291Y-57538701D01*
X85571144Y-57545355D01*
X85567360Y-57551668D01*
X85562976Y-57557579D01*
X85558033Y-57563033D01*
X85552579Y-57567976D01*
X85546668Y-57572360D01*
X85540355Y-57576144D01*
X85533701Y-57579291D01*
X85526771Y-57581771D01*
X85519632Y-57583559D01*
X85512351Y-57584639D01*
X85505000Y-57585000D01*
X85355000Y-57585000D01*
X85347649Y-57584639D01*
X85340368Y-57583559D01*
X85333229Y-57581771D01*
X85326299Y-57579291D01*
X85319645Y-57576144D01*
X85313332Y-57572360D01*
X85307421Y-57567976D01*
X85301967Y-57563033D01*
X85297024Y-57557579D01*
X85292640Y-57551668D01*
X85288856Y-57545355D01*
X85285709Y-57538701D01*
X85283229Y-57531771D01*
X85281441Y-57524632D01*
X85280361Y-57517351D01*
X85280000Y-57510000D01*
X85280000Y-56060000D01*
X85280361Y-56052649D01*
X85281441Y-56045368D01*
X85283229Y-56038229D01*
X85285709Y-56031299D01*
X85288856Y-56024645D01*
X85292640Y-56018332D01*
X85297024Y-56012421D01*
X85301967Y-56006967D01*
X85307421Y-56002024D01*
X85313332Y-55997640D01*
X85319645Y-55993856D01*
X85326299Y-55990709D01*
X85333229Y-55988229D01*
X85340368Y-55986441D01*
X85347649Y-55985361D01*
X85355000Y-55985000D01*
X85505000Y-55985000D01*
X85512351Y-55985361D01*
X85512351Y-55985361D01*
G37*
D25*
X85430000Y-56785000D03*
D23*
G36*
X85012351Y-55985361D02*
X85019632Y-55986441D01*
X85026771Y-55988229D01*
X85033701Y-55990709D01*
X85040355Y-55993856D01*
X85046668Y-55997640D01*
X85052579Y-56002024D01*
X85058033Y-56006967D01*
X85062976Y-56012421D01*
X85067360Y-56018332D01*
X85071144Y-56024645D01*
X85074291Y-56031299D01*
X85076771Y-56038229D01*
X85078559Y-56045368D01*
X85079639Y-56052649D01*
X85080000Y-56060000D01*
X85080000Y-57510000D01*
X85079639Y-57517351D01*
X85078559Y-57524632D01*
X85076771Y-57531771D01*
X85074291Y-57538701D01*
X85071144Y-57545355D01*
X85067360Y-57551668D01*
X85062976Y-57557579D01*
X85058033Y-57563033D01*
X85052579Y-57567976D01*
X85046668Y-57572360D01*
X85040355Y-57576144D01*
X85033701Y-57579291D01*
X85026771Y-57581771D01*
X85019632Y-57583559D01*
X85012351Y-57584639D01*
X85005000Y-57585000D01*
X84855000Y-57585000D01*
X84847649Y-57584639D01*
X84840368Y-57583559D01*
X84833229Y-57581771D01*
X84826299Y-57579291D01*
X84819645Y-57576144D01*
X84813332Y-57572360D01*
X84807421Y-57567976D01*
X84801967Y-57563033D01*
X84797024Y-57557579D01*
X84792640Y-57551668D01*
X84788856Y-57545355D01*
X84785709Y-57538701D01*
X84783229Y-57531771D01*
X84781441Y-57524632D01*
X84780361Y-57517351D01*
X84780000Y-57510000D01*
X84780000Y-56060000D01*
X84780361Y-56052649D01*
X84781441Y-56045368D01*
X84783229Y-56038229D01*
X84785709Y-56031299D01*
X84788856Y-56024645D01*
X84792640Y-56018332D01*
X84797024Y-56012421D01*
X84801967Y-56006967D01*
X84807421Y-56002024D01*
X84813332Y-55997640D01*
X84819645Y-55993856D01*
X84826299Y-55990709D01*
X84833229Y-55988229D01*
X84840368Y-55986441D01*
X84847649Y-55985361D01*
X84855000Y-55985000D01*
X85005000Y-55985000D01*
X85012351Y-55985361D01*
X85012351Y-55985361D01*
G37*
D25*
X84930000Y-56785000D03*
D23*
G36*
X84512351Y-55985361D02*
X84519632Y-55986441D01*
X84526771Y-55988229D01*
X84533701Y-55990709D01*
X84540355Y-55993856D01*
X84546668Y-55997640D01*
X84552579Y-56002024D01*
X84558033Y-56006967D01*
X84562976Y-56012421D01*
X84567360Y-56018332D01*
X84571144Y-56024645D01*
X84574291Y-56031299D01*
X84576771Y-56038229D01*
X84578559Y-56045368D01*
X84579639Y-56052649D01*
X84580000Y-56060000D01*
X84580000Y-57510000D01*
X84579639Y-57517351D01*
X84578559Y-57524632D01*
X84576771Y-57531771D01*
X84574291Y-57538701D01*
X84571144Y-57545355D01*
X84567360Y-57551668D01*
X84562976Y-57557579D01*
X84558033Y-57563033D01*
X84552579Y-57567976D01*
X84546668Y-57572360D01*
X84540355Y-57576144D01*
X84533701Y-57579291D01*
X84526771Y-57581771D01*
X84519632Y-57583559D01*
X84512351Y-57584639D01*
X84505000Y-57585000D01*
X84355000Y-57585000D01*
X84347649Y-57584639D01*
X84340368Y-57583559D01*
X84333229Y-57581771D01*
X84326299Y-57579291D01*
X84319645Y-57576144D01*
X84313332Y-57572360D01*
X84307421Y-57567976D01*
X84301967Y-57563033D01*
X84297024Y-57557579D01*
X84292640Y-57551668D01*
X84288856Y-57545355D01*
X84285709Y-57538701D01*
X84283229Y-57531771D01*
X84281441Y-57524632D01*
X84280361Y-57517351D01*
X84280000Y-57510000D01*
X84280000Y-56060000D01*
X84280361Y-56052649D01*
X84281441Y-56045368D01*
X84283229Y-56038229D01*
X84285709Y-56031299D01*
X84288856Y-56024645D01*
X84292640Y-56018332D01*
X84297024Y-56012421D01*
X84301967Y-56006967D01*
X84307421Y-56002024D01*
X84313332Y-55997640D01*
X84319645Y-55993856D01*
X84326299Y-55990709D01*
X84333229Y-55988229D01*
X84340368Y-55986441D01*
X84347649Y-55985361D01*
X84355000Y-55985000D01*
X84505000Y-55985000D01*
X84512351Y-55985361D01*
X84512351Y-55985361D01*
G37*
D25*
X84430000Y-56785000D03*
D23*
G36*
X84012351Y-55985361D02*
X84019632Y-55986441D01*
X84026771Y-55988229D01*
X84033701Y-55990709D01*
X84040355Y-55993856D01*
X84046668Y-55997640D01*
X84052579Y-56002024D01*
X84058033Y-56006967D01*
X84062976Y-56012421D01*
X84067360Y-56018332D01*
X84071144Y-56024645D01*
X84074291Y-56031299D01*
X84076771Y-56038229D01*
X84078559Y-56045368D01*
X84079639Y-56052649D01*
X84080000Y-56060000D01*
X84080000Y-57510000D01*
X84079639Y-57517351D01*
X84078559Y-57524632D01*
X84076771Y-57531771D01*
X84074291Y-57538701D01*
X84071144Y-57545355D01*
X84067360Y-57551668D01*
X84062976Y-57557579D01*
X84058033Y-57563033D01*
X84052579Y-57567976D01*
X84046668Y-57572360D01*
X84040355Y-57576144D01*
X84033701Y-57579291D01*
X84026771Y-57581771D01*
X84019632Y-57583559D01*
X84012351Y-57584639D01*
X84005000Y-57585000D01*
X83855000Y-57585000D01*
X83847649Y-57584639D01*
X83840368Y-57583559D01*
X83833229Y-57581771D01*
X83826299Y-57579291D01*
X83819645Y-57576144D01*
X83813332Y-57572360D01*
X83807421Y-57567976D01*
X83801967Y-57563033D01*
X83797024Y-57557579D01*
X83792640Y-57551668D01*
X83788856Y-57545355D01*
X83785709Y-57538701D01*
X83783229Y-57531771D01*
X83781441Y-57524632D01*
X83780361Y-57517351D01*
X83780000Y-57510000D01*
X83780000Y-56060000D01*
X83780361Y-56052649D01*
X83781441Y-56045368D01*
X83783229Y-56038229D01*
X83785709Y-56031299D01*
X83788856Y-56024645D01*
X83792640Y-56018332D01*
X83797024Y-56012421D01*
X83801967Y-56006967D01*
X83807421Y-56002024D01*
X83813332Y-55997640D01*
X83819645Y-55993856D01*
X83826299Y-55990709D01*
X83833229Y-55988229D01*
X83840368Y-55986441D01*
X83847649Y-55985361D01*
X83855000Y-55985000D01*
X84005000Y-55985000D01*
X84012351Y-55985361D01*
X84012351Y-55985361D01*
G37*
D25*
X83930000Y-56785000D03*
D23*
G36*
X83512351Y-55985361D02*
X83519632Y-55986441D01*
X83526771Y-55988229D01*
X83533701Y-55990709D01*
X83540355Y-55993856D01*
X83546668Y-55997640D01*
X83552579Y-56002024D01*
X83558033Y-56006967D01*
X83562976Y-56012421D01*
X83567360Y-56018332D01*
X83571144Y-56024645D01*
X83574291Y-56031299D01*
X83576771Y-56038229D01*
X83578559Y-56045368D01*
X83579639Y-56052649D01*
X83580000Y-56060000D01*
X83580000Y-57510000D01*
X83579639Y-57517351D01*
X83578559Y-57524632D01*
X83576771Y-57531771D01*
X83574291Y-57538701D01*
X83571144Y-57545355D01*
X83567360Y-57551668D01*
X83562976Y-57557579D01*
X83558033Y-57563033D01*
X83552579Y-57567976D01*
X83546668Y-57572360D01*
X83540355Y-57576144D01*
X83533701Y-57579291D01*
X83526771Y-57581771D01*
X83519632Y-57583559D01*
X83512351Y-57584639D01*
X83505000Y-57585000D01*
X83355000Y-57585000D01*
X83347649Y-57584639D01*
X83340368Y-57583559D01*
X83333229Y-57581771D01*
X83326299Y-57579291D01*
X83319645Y-57576144D01*
X83313332Y-57572360D01*
X83307421Y-57567976D01*
X83301967Y-57563033D01*
X83297024Y-57557579D01*
X83292640Y-57551668D01*
X83288856Y-57545355D01*
X83285709Y-57538701D01*
X83283229Y-57531771D01*
X83281441Y-57524632D01*
X83280361Y-57517351D01*
X83280000Y-57510000D01*
X83280000Y-56060000D01*
X83280361Y-56052649D01*
X83281441Y-56045368D01*
X83283229Y-56038229D01*
X83285709Y-56031299D01*
X83288856Y-56024645D01*
X83292640Y-56018332D01*
X83297024Y-56012421D01*
X83301967Y-56006967D01*
X83307421Y-56002024D01*
X83313332Y-55997640D01*
X83319645Y-55993856D01*
X83326299Y-55990709D01*
X83333229Y-55988229D01*
X83340368Y-55986441D01*
X83347649Y-55985361D01*
X83355000Y-55985000D01*
X83505000Y-55985000D01*
X83512351Y-55985361D01*
X83512351Y-55985361D01*
G37*
D25*
X83430000Y-56785000D03*
D23*
G36*
X83012351Y-55985361D02*
X83019632Y-55986441D01*
X83026771Y-55988229D01*
X83033701Y-55990709D01*
X83040355Y-55993856D01*
X83046668Y-55997640D01*
X83052579Y-56002024D01*
X83058033Y-56006967D01*
X83062976Y-56012421D01*
X83067360Y-56018332D01*
X83071144Y-56024645D01*
X83074291Y-56031299D01*
X83076771Y-56038229D01*
X83078559Y-56045368D01*
X83079639Y-56052649D01*
X83080000Y-56060000D01*
X83080000Y-57510000D01*
X83079639Y-57517351D01*
X83078559Y-57524632D01*
X83076771Y-57531771D01*
X83074291Y-57538701D01*
X83071144Y-57545355D01*
X83067360Y-57551668D01*
X83062976Y-57557579D01*
X83058033Y-57563033D01*
X83052579Y-57567976D01*
X83046668Y-57572360D01*
X83040355Y-57576144D01*
X83033701Y-57579291D01*
X83026771Y-57581771D01*
X83019632Y-57583559D01*
X83012351Y-57584639D01*
X83005000Y-57585000D01*
X82855000Y-57585000D01*
X82847649Y-57584639D01*
X82840368Y-57583559D01*
X82833229Y-57581771D01*
X82826299Y-57579291D01*
X82819645Y-57576144D01*
X82813332Y-57572360D01*
X82807421Y-57567976D01*
X82801967Y-57563033D01*
X82797024Y-57557579D01*
X82792640Y-57551668D01*
X82788856Y-57545355D01*
X82785709Y-57538701D01*
X82783229Y-57531771D01*
X82781441Y-57524632D01*
X82780361Y-57517351D01*
X82780000Y-57510000D01*
X82780000Y-56060000D01*
X82780361Y-56052649D01*
X82781441Y-56045368D01*
X82783229Y-56038229D01*
X82785709Y-56031299D01*
X82788856Y-56024645D01*
X82792640Y-56018332D01*
X82797024Y-56012421D01*
X82801967Y-56006967D01*
X82807421Y-56002024D01*
X82813332Y-55997640D01*
X82819645Y-55993856D01*
X82826299Y-55990709D01*
X82833229Y-55988229D01*
X82840368Y-55986441D01*
X82847649Y-55985361D01*
X82855000Y-55985000D01*
X83005000Y-55985000D01*
X83012351Y-55985361D01*
X83012351Y-55985361D01*
G37*
D25*
X82930000Y-56785000D03*
D23*
G36*
X82512351Y-55985361D02*
X82519632Y-55986441D01*
X82526771Y-55988229D01*
X82533701Y-55990709D01*
X82540355Y-55993856D01*
X82546668Y-55997640D01*
X82552579Y-56002024D01*
X82558033Y-56006967D01*
X82562976Y-56012421D01*
X82567360Y-56018332D01*
X82571144Y-56024645D01*
X82574291Y-56031299D01*
X82576771Y-56038229D01*
X82578559Y-56045368D01*
X82579639Y-56052649D01*
X82580000Y-56060000D01*
X82580000Y-57510000D01*
X82579639Y-57517351D01*
X82578559Y-57524632D01*
X82576771Y-57531771D01*
X82574291Y-57538701D01*
X82571144Y-57545355D01*
X82567360Y-57551668D01*
X82562976Y-57557579D01*
X82558033Y-57563033D01*
X82552579Y-57567976D01*
X82546668Y-57572360D01*
X82540355Y-57576144D01*
X82533701Y-57579291D01*
X82526771Y-57581771D01*
X82519632Y-57583559D01*
X82512351Y-57584639D01*
X82505000Y-57585000D01*
X82355000Y-57585000D01*
X82347649Y-57584639D01*
X82340368Y-57583559D01*
X82333229Y-57581771D01*
X82326299Y-57579291D01*
X82319645Y-57576144D01*
X82313332Y-57572360D01*
X82307421Y-57567976D01*
X82301967Y-57563033D01*
X82297024Y-57557579D01*
X82292640Y-57551668D01*
X82288856Y-57545355D01*
X82285709Y-57538701D01*
X82283229Y-57531771D01*
X82281441Y-57524632D01*
X82280361Y-57517351D01*
X82280000Y-57510000D01*
X82280000Y-56060000D01*
X82280361Y-56052649D01*
X82281441Y-56045368D01*
X82283229Y-56038229D01*
X82285709Y-56031299D01*
X82288856Y-56024645D01*
X82292640Y-56018332D01*
X82297024Y-56012421D01*
X82301967Y-56006967D01*
X82307421Y-56002024D01*
X82313332Y-55997640D01*
X82319645Y-55993856D01*
X82326299Y-55990709D01*
X82333229Y-55988229D01*
X82340368Y-55986441D01*
X82347649Y-55985361D01*
X82355000Y-55985000D01*
X82505000Y-55985000D01*
X82512351Y-55985361D01*
X82512351Y-55985361D01*
G37*
D25*
X82430000Y-56785000D03*
D23*
G36*
X82012351Y-55985361D02*
X82019632Y-55986441D01*
X82026771Y-55988229D01*
X82033701Y-55990709D01*
X82040355Y-55993856D01*
X82046668Y-55997640D01*
X82052579Y-56002024D01*
X82058033Y-56006967D01*
X82062976Y-56012421D01*
X82067360Y-56018332D01*
X82071144Y-56024645D01*
X82074291Y-56031299D01*
X82076771Y-56038229D01*
X82078559Y-56045368D01*
X82079639Y-56052649D01*
X82080000Y-56060000D01*
X82080000Y-57510000D01*
X82079639Y-57517351D01*
X82078559Y-57524632D01*
X82076771Y-57531771D01*
X82074291Y-57538701D01*
X82071144Y-57545355D01*
X82067360Y-57551668D01*
X82062976Y-57557579D01*
X82058033Y-57563033D01*
X82052579Y-57567976D01*
X82046668Y-57572360D01*
X82040355Y-57576144D01*
X82033701Y-57579291D01*
X82026771Y-57581771D01*
X82019632Y-57583559D01*
X82012351Y-57584639D01*
X82005000Y-57585000D01*
X81855000Y-57585000D01*
X81847649Y-57584639D01*
X81840368Y-57583559D01*
X81833229Y-57581771D01*
X81826299Y-57579291D01*
X81819645Y-57576144D01*
X81813332Y-57572360D01*
X81807421Y-57567976D01*
X81801967Y-57563033D01*
X81797024Y-57557579D01*
X81792640Y-57551668D01*
X81788856Y-57545355D01*
X81785709Y-57538701D01*
X81783229Y-57531771D01*
X81781441Y-57524632D01*
X81780361Y-57517351D01*
X81780000Y-57510000D01*
X81780000Y-56060000D01*
X81780361Y-56052649D01*
X81781441Y-56045368D01*
X81783229Y-56038229D01*
X81785709Y-56031299D01*
X81788856Y-56024645D01*
X81792640Y-56018332D01*
X81797024Y-56012421D01*
X81801967Y-56006967D01*
X81807421Y-56002024D01*
X81813332Y-55997640D01*
X81819645Y-55993856D01*
X81826299Y-55990709D01*
X81833229Y-55988229D01*
X81840368Y-55986441D01*
X81847649Y-55985361D01*
X81855000Y-55985000D01*
X82005000Y-55985000D01*
X82012351Y-55985361D01*
X82012351Y-55985361D01*
G37*
D25*
X81930000Y-56785000D03*
D23*
G36*
X81512351Y-55985361D02*
X81519632Y-55986441D01*
X81526771Y-55988229D01*
X81533701Y-55990709D01*
X81540355Y-55993856D01*
X81546668Y-55997640D01*
X81552579Y-56002024D01*
X81558033Y-56006967D01*
X81562976Y-56012421D01*
X81567360Y-56018332D01*
X81571144Y-56024645D01*
X81574291Y-56031299D01*
X81576771Y-56038229D01*
X81578559Y-56045368D01*
X81579639Y-56052649D01*
X81580000Y-56060000D01*
X81580000Y-57510000D01*
X81579639Y-57517351D01*
X81578559Y-57524632D01*
X81576771Y-57531771D01*
X81574291Y-57538701D01*
X81571144Y-57545355D01*
X81567360Y-57551668D01*
X81562976Y-57557579D01*
X81558033Y-57563033D01*
X81552579Y-57567976D01*
X81546668Y-57572360D01*
X81540355Y-57576144D01*
X81533701Y-57579291D01*
X81526771Y-57581771D01*
X81519632Y-57583559D01*
X81512351Y-57584639D01*
X81505000Y-57585000D01*
X81355000Y-57585000D01*
X81347649Y-57584639D01*
X81340368Y-57583559D01*
X81333229Y-57581771D01*
X81326299Y-57579291D01*
X81319645Y-57576144D01*
X81313332Y-57572360D01*
X81307421Y-57567976D01*
X81301967Y-57563033D01*
X81297024Y-57557579D01*
X81292640Y-57551668D01*
X81288856Y-57545355D01*
X81285709Y-57538701D01*
X81283229Y-57531771D01*
X81281441Y-57524632D01*
X81280361Y-57517351D01*
X81280000Y-57510000D01*
X81280000Y-56060000D01*
X81280361Y-56052649D01*
X81281441Y-56045368D01*
X81283229Y-56038229D01*
X81285709Y-56031299D01*
X81288856Y-56024645D01*
X81292640Y-56018332D01*
X81297024Y-56012421D01*
X81301967Y-56006967D01*
X81307421Y-56002024D01*
X81313332Y-55997640D01*
X81319645Y-55993856D01*
X81326299Y-55990709D01*
X81333229Y-55988229D01*
X81340368Y-55986441D01*
X81347649Y-55985361D01*
X81355000Y-55985000D01*
X81505000Y-55985000D01*
X81512351Y-55985361D01*
X81512351Y-55985361D01*
G37*
D25*
X81430000Y-56785000D03*
D23*
G36*
X81012351Y-55985361D02*
X81019632Y-55986441D01*
X81026771Y-55988229D01*
X81033701Y-55990709D01*
X81040355Y-55993856D01*
X81046668Y-55997640D01*
X81052579Y-56002024D01*
X81058033Y-56006967D01*
X81062976Y-56012421D01*
X81067360Y-56018332D01*
X81071144Y-56024645D01*
X81074291Y-56031299D01*
X81076771Y-56038229D01*
X81078559Y-56045368D01*
X81079639Y-56052649D01*
X81080000Y-56060000D01*
X81080000Y-57510000D01*
X81079639Y-57517351D01*
X81078559Y-57524632D01*
X81076771Y-57531771D01*
X81074291Y-57538701D01*
X81071144Y-57545355D01*
X81067360Y-57551668D01*
X81062976Y-57557579D01*
X81058033Y-57563033D01*
X81052579Y-57567976D01*
X81046668Y-57572360D01*
X81040355Y-57576144D01*
X81033701Y-57579291D01*
X81026771Y-57581771D01*
X81019632Y-57583559D01*
X81012351Y-57584639D01*
X81005000Y-57585000D01*
X80855000Y-57585000D01*
X80847649Y-57584639D01*
X80840368Y-57583559D01*
X80833229Y-57581771D01*
X80826299Y-57579291D01*
X80819645Y-57576144D01*
X80813332Y-57572360D01*
X80807421Y-57567976D01*
X80801967Y-57563033D01*
X80797024Y-57557579D01*
X80792640Y-57551668D01*
X80788856Y-57545355D01*
X80785709Y-57538701D01*
X80783229Y-57531771D01*
X80781441Y-57524632D01*
X80780361Y-57517351D01*
X80780000Y-57510000D01*
X80780000Y-56060000D01*
X80780361Y-56052649D01*
X80781441Y-56045368D01*
X80783229Y-56038229D01*
X80785709Y-56031299D01*
X80788856Y-56024645D01*
X80792640Y-56018332D01*
X80797024Y-56012421D01*
X80801967Y-56006967D01*
X80807421Y-56002024D01*
X80813332Y-55997640D01*
X80819645Y-55993856D01*
X80826299Y-55990709D01*
X80833229Y-55988229D01*
X80840368Y-55986441D01*
X80847649Y-55985361D01*
X80855000Y-55985000D01*
X81005000Y-55985000D01*
X81012351Y-55985361D01*
X81012351Y-55985361D01*
G37*
D25*
X80930000Y-56785000D03*
D23*
G36*
X80512351Y-55985361D02*
X80519632Y-55986441D01*
X80526771Y-55988229D01*
X80533701Y-55990709D01*
X80540355Y-55993856D01*
X80546668Y-55997640D01*
X80552579Y-56002024D01*
X80558033Y-56006967D01*
X80562976Y-56012421D01*
X80567360Y-56018332D01*
X80571144Y-56024645D01*
X80574291Y-56031299D01*
X80576771Y-56038229D01*
X80578559Y-56045368D01*
X80579639Y-56052649D01*
X80580000Y-56060000D01*
X80580000Y-57510000D01*
X80579639Y-57517351D01*
X80578559Y-57524632D01*
X80576771Y-57531771D01*
X80574291Y-57538701D01*
X80571144Y-57545355D01*
X80567360Y-57551668D01*
X80562976Y-57557579D01*
X80558033Y-57563033D01*
X80552579Y-57567976D01*
X80546668Y-57572360D01*
X80540355Y-57576144D01*
X80533701Y-57579291D01*
X80526771Y-57581771D01*
X80519632Y-57583559D01*
X80512351Y-57584639D01*
X80505000Y-57585000D01*
X80355000Y-57585000D01*
X80347649Y-57584639D01*
X80340368Y-57583559D01*
X80333229Y-57581771D01*
X80326299Y-57579291D01*
X80319645Y-57576144D01*
X80313332Y-57572360D01*
X80307421Y-57567976D01*
X80301967Y-57563033D01*
X80297024Y-57557579D01*
X80292640Y-57551668D01*
X80288856Y-57545355D01*
X80285709Y-57538701D01*
X80283229Y-57531771D01*
X80281441Y-57524632D01*
X80280361Y-57517351D01*
X80280000Y-57510000D01*
X80280000Y-56060000D01*
X80280361Y-56052649D01*
X80281441Y-56045368D01*
X80283229Y-56038229D01*
X80285709Y-56031299D01*
X80288856Y-56024645D01*
X80292640Y-56018332D01*
X80297024Y-56012421D01*
X80301967Y-56006967D01*
X80307421Y-56002024D01*
X80313332Y-55997640D01*
X80319645Y-55993856D01*
X80326299Y-55990709D01*
X80333229Y-55988229D01*
X80340368Y-55986441D01*
X80347649Y-55985361D01*
X80355000Y-55985000D01*
X80505000Y-55985000D01*
X80512351Y-55985361D01*
X80512351Y-55985361D01*
G37*
D25*
X80430000Y-56785000D03*
D23*
G36*
X80012351Y-55985361D02*
X80019632Y-55986441D01*
X80026771Y-55988229D01*
X80033701Y-55990709D01*
X80040355Y-55993856D01*
X80046668Y-55997640D01*
X80052579Y-56002024D01*
X80058033Y-56006967D01*
X80062976Y-56012421D01*
X80067360Y-56018332D01*
X80071144Y-56024645D01*
X80074291Y-56031299D01*
X80076771Y-56038229D01*
X80078559Y-56045368D01*
X80079639Y-56052649D01*
X80080000Y-56060000D01*
X80080000Y-57510000D01*
X80079639Y-57517351D01*
X80078559Y-57524632D01*
X80076771Y-57531771D01*
X80074291Y-57538701D01*
X80071144Y-57545355D01*
X80067360Y-57551668D01*
X80062976Y-57557579D01*
X80058033Y-57563033D01*
X80052579Y-57567976D01*
X80046668Y-57572360D01*
X80040355Y-57576144D01*
X80033701Y-57579291D01*
X80026771Y-57581771D01*
X80019632Y-57583559D01*
X80012351Y-57584639D01*
X80005000Y-57585000D01*
X79855000Y-57585000D01*
X79847649Y-57584639D01*
X79840368Y-57583559D01*
X79833229Y-57581771D01*
X79826299Y-57579291D01*
X79819645Y-57576144D01*
X79813332Y-57572360D01*
X79807421Y-57567976D01*
X79801967Y-57563033D01*
X79797024Y-57557579D01*
X79792640Y-57551668D01*
X79788856Y-57545355D01*
X79785709Y-57538701D01*
X79783229Y-57531771D01*
X79781441Y-57524632D01*
X79780361Y-57517351D01*
X79780000Y-57510000D01*
X79780000Y-56060000D01*
X79780361Y-56052649D01*
X79781441Y-56045368D01*
X79783229Y-56038229D01*
X79785709Y-56031299D01*
X79788856Y-56024645D01*
X79792640Y-56018332D01*
X79797024Y-56012421D01*
X79801967Y-56006967D01*
X79807421Y-56002024D01*
X79813332Y-55997640D01*
X79819645Y-55993856D01*
X79826299Y-55990709D01*
X79833229Y-55988229D01*
X79840368Y-55986441D01*
X79847649Y-55985361D01*
X79855000Y-55985000D01*
X80005000Y-55985000D01*
X80012351Y-55985361D01*
X80012351Y-55985361D01*
G37*
D25*
X79930000Y-56785000D03*
D23*
G36*
X79512351Y-55985361D02*
X79519632Y-55986441D01*
X79526771Y-55988229D01*
X79533701Y-55990709D01*
X79540355Y-55993856D01*
X79546668Y-55997640D01*
X79552579Y-56002024D01*
X79558033Y-56006967D01*
X79562976Y-56012421D01*
X79567360Y-56018332D01*
X79571144Y-56024645D01*
X79574291Y-56031299D01*
X79576771Y-56038229D01*
X79578559Y-56045368D01*
X79579639Y-56052649D01*
X79580000Y-56060000D01*
X79580000Y-57510000D01*
X79579639Y-57517351D01*
X79578559Y-57524632D01*
X79576771Y-57531771D01*
X79574291Y-57538701D01*
X79571144Y-57545355D01*
X79567360Y-57551668D01*
X79562976Y-57557579D01*
X79558033Y-57563033D01*
X79552579Y-57567976D01*
X79546668Y-57572360D01*
X79540355Y-57576144D01*
X79533701Y-57579291D01*
X79526771Y-57581771D01*
X79519632Y-57583559D01*
X79512351Y-57584639D01*
X79505000Y-57585000D01*
X79355000Y-57585000D01*
X79347649Y-57584639D01*
X79340368Y-57583559D01*
X79333229Y-57581771D01*
X79326299Y-57579291D01*
X79319645Y-57576144D01*
X79313332Y-57572360D01*
X79307421Y-57567976D01*
X79301967Y-57563033D01*
X79297024Y-57557579D01*
X79292640Y-57551668D01*
X79288856Y-57545355D01*
X79285709Y-57538701D01*
X79283229Y-57531771D01*
X79281441Y-57524632D01*
X79280361Y-57517351D01*
X79280000Y-57510000D01*
X79280000Y-56060000D01*
X79280361Y-56052649D01*
X79281441Y-56045368D01*
X79283229Y-56038229D01*
X79285709Y-56031299D01*
X79288856Y-56024645D01*
X79292640Y-56018332D01*
X79297024Y-56012421D01*
X79301967Y-56006967D01*
X79307421Y-56002024D01*
X79313332Y-55997640D01*
X79319645Y-55993856D01*
X79326299Y-55990709D01*
X79333229Y-55988229D01*
X79340368Y-55986441D01*
X79347649Y-55985361D01*
X79355000Y-55985000D01*
X79505000Y-55985000D01*
X79512351Y-55985361D01*
X79512351Y-55985361D01*
G37*
D25*
X79430000Y-56785000D03*
D23*
G36*
X78487351Y-58310361D02*
X78494632Y-58311441D01*
X78501771Y-58313229D01*
X78508701Y-58315709D01*
X78515355Y-58318856D01*
X78521668Y-58322640D01*
X78527579Y-58327024D01*
X78533033Y-58331967D01*
X78537976Y-58337421D01*
X78542360Y-58343332D01*
X78546144Y-58349645D01*
X78549291Y-58356299D01*
X78551771Y-58363229D01*
X78553559Y-58370368D01*
X78554639Y-58377649D01*
X78555000Y-58385000D01*
X78555000Y-58535000D01*
X78554639Y-58542351D01*
X78553559Y-58549632D01*
X78551771Y-58556771D01*
X78549291Y-58563701D01*
X78546144Y-58570355D01*
X78542360Y-58576668D01*
X78537976Y-58582579D01*
X78533033Y-58588033D01*
X78527579Y-58592976D01*
X78521668Y-58597360D01*
X78515355Y-58601144D01*
X78508701Y-58604291D01*
X78501771Y-58606771D01*
X78494632Y-58608559D01*
X78487351Y-58609639D01*
X78480000Y-58610000D01*
X77030000Y-58610000D01*
X77022649Y-58609639D01*
X77015368Y-58608559D01*
X77008229Y-58606771D01*
X77001299Y-58604291D01*
X76994645Y-58601144D01*
X76988332Y-58597360D01*
X76982421Y-58592976D01*
X76976967Y-58588033D01*
X76972024Y-58582579D01*
X76967640Y-58576668D01*
X76963856Y-58570355D01*
X76960709Y-58563701D01*
X76958229Y-58556771D01*
X76956441Y-58549632D01*
X76955361Y-58542351D01*
X76955000Y-58535000D01*
X76955000Y-58385000D01*
X76955361Y-58377649D01*
X76956441Y-58370368D01*
X76958229Y-58363229D01*
X76960709Y-58356299D01*
X76963856Y-58349645D01*
X76967640Y-58343332D01*
X76972024Y-58337421D01*
X76976967Y-58331967D01*
X76982421Y-58327024D01*
X76988332Y-58322640D01*
X76994645Y-58318856D01*
X77001299Y-58315709D01*
X77008229Y-58313229D01*
X77015368Y-58311441D01*
X77022649Y-58310361D01*
X77030000Y-58310000D01*
X78480000Y-58310000D01*
X78487351Y-58310361D01*
X78487351Y-58310361D01*
G37*
D25*
X77755000Y-58460000D03*
D23*
G36*
X78487351Y-58810361D02*
X78494632Y-58811441D01*
X78501771Y-58813229D01*
X78508701Y-58815709D01*
X78515355Y-58818856D01*
X78521668Y-58822640D01*
X78527579Y-58827024D01*
X78533033Y-58831967D01*
X78537976Y-58837421D01*
X78542360Y-58843332D01*
X78546144Y-58849645D01*
X78549291Y-58856299D01*
X78551771Y-58863229D01*
X78553559Y-58870368D01*
X78554639Y-58877649D01*
X78555000Y-58885000D01*
X78555000Y-59035000D01*
X78554639Y-59042351D01*
X78553559Y-59049632D01*
X78551771Y-59056771D01*
X78549291Y-59063701D01*
X78546144Y-59070355D01*
X78542360Y-59076668D01*
X78537976Y-59082579D01*
X78533033Y-59088033D01*
X78527579Y-59092976D01*
X78521668Y-59097360D01*
X78515355Y-59101144D01*
X78508701Y-59104291D01*
X78501771Y-59106771D01*
X78494632Y-59108559D01*
X78487351Y-59109639D01*
X78480000Y-59110000D01*
X77030000Y-59110000D01*
X77022649Y-59109639D01*
X77015368Y-59108559D01*
X77008229Y-59106771D01*
X77001299Y-59104291D01*
X76994645Y-59101144D01*
X76988332Y-59097360D01*
X76982421Y-59092976D01*
X76976967Y-59088033D01*
X76972024Y-59082579D01*
X76967640Y-59076668D01*
X76963856Y-59070355D01*
X76960709Y-59063701D01*
X76958229Y-59056771D01*
X76956441Y-59049632D01*
X76955361Y-59042351D01*
X76955000Y-59035000D01*
X76955000Y-58885000D01*
X76955361Y-58877649D01*
X76956441Y-58870368D01*
X76958229Y-58863229D01*
X76960709Y-58856299D01*
X76963856Y-58849645D01*
X76967640Y-58843332D01*
X76972024Y-58837421D01*
X76976967Y-58831967D01*
X76982421Y-58827024D01*
X76988332Y-58822640D01*
X76994645Y-58818856D01*
X77001299Y-58815709D01*
X77008229Y-58813229D01*
X77015368Y-58811441D01*
X77022649Y-58810361D01*
X77030000Y-58810000D01*
X78480000Y-58810000D01*
X78487351Y-58810361D01*
X78487351Y-58810361D01*
G37*
D25*
X77755000Y-58960000D03*
D23*
G36*
X78487351Y-59310361D02*
X78494632Y-59311441D01*
X78501771Y-59313229D01*
X78508701Y-59315709D01*
X78515355Y-59318856D01*
X78521668Y-59322640D01*
X78527579Y-59327024D01*
X78533033Y-59331967D01*
X78537976Y-59337421D01*
X78542360Y-59343332D01*
X78546144Y-59349645D01*
X78549291Y-59356299D01*
X78551771Y-59363229D01*
X78553559Y-59370368D01*
X78554639Y-59377649D01*
X78555000Y-59385000D01*
X78555000Y-59535000D01*
X78554639Y-59542351D01*
X78553559Y-59549632D01*
X78551771Y-59556771D01*
X78549291Y-59563701D01*
X78546144Y-59570355D01*
X78542360Y-59576668D01*
X78537976Y-59582579D01*
X78533033Y-59588033D01*
X78527579Y-59592976D01*
X78521668Y-59597360D01*
X78515355Y-59601144D01*
X78508701Y-59604291D01*
X78501771Y-59606771D01*
X78494632Y-59608559D01*
X78487351Y-59609639D01*
X78480000Y-59610000D01*
X77030000Y-59610000D01*
X77022649Y-59609639D01*
X77015368Y-59608559D01*
X77008229Y-59606771D01*
X77001299Y-59604291D01*
X76994645Y-59601144D01*
X76988332Y-59597360D01*
X76982421Y-59592976D01*
X76976967Y-59588033D01*
X76972024Y-59582579D01*
X76967640Y-59576668D01*
X76963856Y-59570355D01*
X76960709Y-59563701D01*
X76958229Y-59556771D01*
X76956441Y-59549632D01*
X76955361Y-59542351D01*
X76955000Y-59535000D01*
X76955000Y-59385000D01*
X76955361Y-59377649D01*
X76956441Y-59370368D01*
X76958229Y-59363229D01*
X76960709Y-59356299D01*
X76963856Y-59349645D01*
X76967640Y-59343332D01*
X76972024Y-59337421D01*
X76976967Y-59331967D01*
X76982421Y-59327024D01*
X76988332Y-59322640D01*
X76994645Y-59318856D01*
X77001299Y-59315709D01*
X77008229Y-59313229D01*
X77015368Y-59311441D01*
X77022649Y-59310361D01*
X77030000Y-59310000D01*
X78480000Y-59310000D01*
X78487351Y-59310361D01*
X78487351Y-59310361D01*
G37*
D25*
X77755000Y-59460000D03*
D23*
G36*
X78487351Y-59810361D02*
X78494632Y-59811441D01*
X78501771Y-59813229D01*
X78508701Y-59815709D01*
X78515355Y-59818856D01*
X78521668Y-59822640D01*
X78527579Y-59827024D01*
X78533033Y-59831967D01*
X78537976Y-59837421D01*
X78542360Y-59843332D01*
X78546144Y-59849645D01*
X78549291Y-59856299D01*
X78551771Y-59863229D01*
X78553559Y-59870368D01*
X78554639Y-59877649D01*
X78555000Y-59885000D01*
X78555000Y-60035000D01*
X78554639Y-60042351D01*
X78553559Y-60049632D01*
X78551771Y-60056771D01*
X78549291Y-60063701D01*
X78546144Y-60070355D01*
X78542360Y-60076668D01*
X78537976Y-60082579D01*
X78533033Y-60088033D01*
X78527579Y-60092976D01*
X78521668Y-60097360D01*
X78515355Y-60101144D01*
X78508701Y-60104291D01*
X78501771Y-60106771D01*
X78494632Y-60108559D01*
X78487351Y-60109639D01*
X78480000Y-60110000D01*
X77030000Y-60110000D01*
X77022649Y-60109639D01*
X77015368Y-60108559D01*
X77008229Y-60106771D01*
X77001299Y-60104291D01*
X76994645Y-60101144D01*
X76988332Y-60097360D01*
X76982421Y-60092976D01*
X76976967Y-60088033D01*
X76972024Y-60082579D01*
X76967640Y-60076668D01*
X76963856Y-60070355D01*
X76960709Y-60063701D01*
X76958229Y-60056771D01*
X76956441Y-60049632D01*
X76955361Y-60042351D01*
X76955000Y-60035000D01*
X76955000Y-59885000D01*
X76955361Y-59877649D01*
X76956441Y-59870368D01*
X76958229Y-59863229D01*
X76960709Y-59856299D01*
X76963856Y-59849645D01*
X76967640Y-59843332D01*
X76972024Y-59837421D01*
X76976967Y-59831967D01*
X76982421Y-59827024D01*
X76988332Y-59822640D01*
X76994645Y-59818856D01*
X77001299Y-59815709D01*
X77008229Y-59813229D01*
X77015368Y-59811441D01*
X77022649Y-59810361D01*
X77030000Y-59810000D01*
X78480000Y-59810000D01*
X78487351Y-59810361D01*
X78487351Y-59810361D01*
G37*
D25*
X77755000Y-59960000D03*
D23*
G36*
X78487351Y-60310361D02*
X78494632Y-60311441D01*
X78501771Y-60313229D01*
X78508701Y-60315709D01*
X78515355Y-60318856D01*
X78521668Y-60322640D01*
X78527579Y-60327024D01*
X78533033Y-60331967D01*
X78537976Y-60337421D01*
X78542360Y-60343332D01*
X78546144Y-60349645D01*
X78549291Y-60356299D01*
X78551771Y-60363229D01*
X78553559Y-60370368D01*
X78554639Y-60377649D01*
X78555000Y-60385000D01*
X78555000Y-60535000D01*
X78554639Y-60542351D01*
X78553559Y-60549632D01*
X78551771Y-60556771D01*
X78549291Y-60563701D01*
X78546144Y-60570355D01*
X78542360Y-60576668D01*
X78537976Y-60582579D01*
X78533033Y-60588033D01*
X78527579Y-60592976D01*
X78521668Y-60597360D01*
X78515355Y-60601144D01*
X78508701Y-60604291D01*
X78501771Y-60606771D01*
X78494632Y-60608559D01*
X78487351Y-60609639D01*
X78480000Y-60610000D01*
X77030000Y-60610000D01*
X77022649Y-60609639D01*
X77015368Y-60608559D01*
X77008229Y-60606771D01*
X77001299Y-60604291D01*
X76994645Y-60601144D01*
X76988332Y-60597360D01*
X76982421Y-60592976D01*
X76976967Y-60588033D01*
X76972024Y-60582579D01*
X76967640Y-60576668D01*
X76963856Y-60570355D01*
X76960709Y-60563701D01*
X76958229Y-60556771D01*
X76956441Y-60549632D01*
X76955361Y-60542351D01*
X76955000Y-60535000D01*
X76955000Y-60385000D01*
X76955361Y-60377649D01*
X76956441Y-60370368D01*
X76958229Y-60363229D01*
X76960709Y-60356299D01*
X76963856Y-60349645D01*
X76967640Y-60343332D01*
X76972024Y-60337421D01*
X76976967Y-60331967D01*
X76982421Y-60327024D01*
X76988332Y-60322640D01*
X76994645Y-60318856D01*
X77001299Y-60315709D01*
X77008229Y-60313229D01*
X77015368Y-60311441D01*
X77022649Y-60310361D01*
X77030000Y-60310000D01*
X78480000Y-60310000D01*
X78487351Y-60310361D01*
X78487351Y-60310361D01*
G37*
D25*
X77755000Y-60460000D03*
D23*
G36*
X78487351Y-60810361D02*
X78494632Y-60811441D01*
X78501771Y-60813229D01*
X78508701Y-60815709D01*
X78515355Y-60818856D01*
X78521668Y-60822640D01*
X78527579Y-60827024D01*
X78533033Y-60831967D01*
X78537976Y-60837421D01*
X78542360Y-60843332D01*
X78546144Y-60849645D01*
X78549291Y-60856299D01*
X78551771Y-60863229D01*
X78553559Y-60870368D01*
X78554639Y-60877649D01*
X78555000Y-60885000D01*
X78555000Y-61035000D01*
X78554639Y-61042351D01*
X78553559Y-61049632D01*
X78551771Y-61056771D01*
X78549291Y-61063701D01*
X78546144Y-61070355D01*
X78542360Y-61076668D01*
X78537976Y-61082579D01*
X78533033Y-61088033D01*
X78527579Y-61092976D01*
X78521668Y-61097360D01*
X78515355Y-61101144D01*
X78508701Y-61104291D01*
X78501771Y-61106771D01*
X78494632Y-61108559D01*
X78487351Y-61109639D01*
X78480000Y-61110000D01*
X77030000Y-61110000D01*
X77022649Y-61109639D01*
X77015368Y-61108559D01*
X77008229Y-61106771D01*
X77001299Y-61104291D01*
X76994645Y-61101144D01*
X76988332Y-61097360D01*
X76982421Y-61092976D01*
X76976967Y-61088033D01*
X76972024Y-61082579D01*
X76967640Y-61076668D01*
X76963856Y-61070355D01*
X76960709Y-61063701D01*
X76958229Y-61056771D01*
X76956441Y-61049632D01*
X76955361Y-61042351D01*
X76955000Y-61035000D01*
X76955000Y-60885000D01*
X76955361Y-60877649D01*
X76956441Y-60870368D01*
X76958229Y-60863229D01*
X76960709Y-60856299D01*
X76963856Y-60849645D01*
X76967640Y-60843332D01*
X76972024Y-60837421D01*
X76976967Y-60831967D01*
X76982421Y-60827024D01*
X76988332Y-60822640D01*
X76994645Y-60818856D01*
X77001299Y-60815709D01*
X77008229Y-60813229D01*
X77015368Y-60811441D01*
X77022649Y-60810361D01*
X77030000Y-60810000D01*
X78480000Y-60810000D01*
X78487351Y-60810361D01*
X78487351Y-60810361D01*
G37*
D25*
X77755000Y-60960000D03*
D23*
G36*
X78487351Y-61310361D02*
X78494632Y-61311441D01*
X78501771Y-61313229D01*
X78508701Y-61315709D01*
X78515355Y-61318856D01*
X78521668Y-61322640D01*
X78527579Y-61327024D01*
X78533033Y-61331967D01*
X78537976Y-61337421D01*
X78542360Y-61343332D01*
X78546144Y-61349645D01*
X78549291Y-61356299D01*
X78551771Y-61363229D01*
X78553559Y-61370368D01*
X78554639Y-61377649D01*
X78555000Y-61385000D01*
X78555000Y-61535000D01*
X78554639Y-61542351D01*
X78553559Y-61549632D01*
X78551771Y-61556771D01*
X78549291Y-61563701D01*
X78546144Y-61570355D01*
X78542360Y-61576668D01*
X78537976Y-61582579D01*
X78533033Y-61588033D01*
X78527579Y-61592976D01*
X78521668Y-61597360D01*
X78515355Y-61601144D01*
X78508701Y-61604291D01*
X78501771Y-61606771D01*
X78494632Y-61608559D01*
X78487351Y-61609639D01*
X78480000Y-61610000D01*
X77030000Y-61610000D01*
X77022649Y-61609639D01*
X77015368Y-61608559D01*
X77008229Y-61606771D01*
X77001299Y-61604291D01*
X76994645Y-61601144D01*
X76988332Y-61597360D01*
X76982421Y-61592976D01*
X76976967Y-61588033D01*
X76972024Y-61582579D01*
X76967640Y-61576668D01*
X76963856Y-61570355D01*
X76960709Y-61563701D01*
X76958229Y-61556771D01*
X76956441Y-61549632D01*
X76955361Y-61542351D01*
X76955000Y-61535000D01*
X76955000Y-61385000D01*
X76955361Y-61377649D01*
X76956441Y-61370368D01*
X76958229Y-61363229D01*
X76960709Y-61356299D01*
X76963856Y-61349645D01*
X76967640Y-61343332D01*
X76972024Y-61337421D01*
X76976967Y-61331967D01*
X76982421Y-61327024D01*
X76988332Y-61322640D01*
X76994645Y-61318856D01*
X77001299Y-61315709D01*
X77008229Y-61313229D01*
X77015368Y-61311441D01*
X77022649Y-61310361D01*
X77030000Y-61310000D01*
X78480000Y-61310000D01*
X78487351Y-61310361D01*
X78487351Y-61310361D01*
G37*
D25*
X77755000Y-61460000D03*
D23*
G36*
X78487351Y-61810361D02*
X78494632Y-61811441D01*
X78501771Y-61813229D01*
X78508701Y-61815709D01*
X78515355Y-61818856D01*
X78521668Y-61822640D01*
X78527579Y-61827024D01*
X78533033Y-61831967D01*
X78537976Y-61837421D01*
X78542360Y-61843332D01*
X78546144Y-61849645D01*
X78549291Y-61856299D01*
X78551771Y-61863229D01*
X78553559Y-61870368D01*
X78554639Y-61877649D01*
X78555000Y-61885000D01*
X78555000Y-62035000D01*
X78554639Y-62042351D01*
X78553559Y-62049632D01*
X78551771Y-62056771D01*
X78549291Y-62063701D01*
X78546144Y-62070355D01*
X78542360Y-62076668D01*
X78537976Y-62082579D01*
X78533033Y-62088033D01*
X78527579Y-62092976D01*
X78521668Y-62097360D01*
X78515355Y-62101144D01*
X78508701Y-62104291D01*
X78501771Y-62106771D01*
X78494632Y-62108559D01*
X78487351Y-62109639D01*
X78480000Y-62110000D01*
X77030000Y-62110000D01*
X77022649Y-62109639D01*
X77015368Y-62108559D01*
X77008229Y-62106771D01*
X77001299Y-62104291D01*
X76994645Y-62101144D01*
X76988332Y-62097360D01*
X76982421Y-62092976D01*
X76976967Y-62088033D01*
X76972024Y-62082579D01*
X76967640Y-62076668D01*
X76963856Y-62070355D01*
X76960709Y-62063701D01*
X76958229Y-62056771D01*
X76956441Y-62049632D01*
X76955361Y-62042351D01*
X76955000Y-62035000D01*
X76955000Y-61885000D01*
X76955361Y-61877649D01*
X76956441Y-61870368D01*
X76958229Y-61863229D01*
X76960709Y-61856299D01*
X76963856Y-61849645D01*
X76967640Y-61843332D01*
X76972024Y-61837421D01*
X76976967Y-61831967D01*
X76982421Y-61827024D01*
X76988332Y-61822640D01*
X76994645Y-61818856D01*
X77001299Y-61815709D01*
X77008229Y-61813229D01*
X77015368Y-61811441D01*
X77022649Y-61810361D01*
X77030000Y-61810000D01*
X78480000Y-61810000D01*
X78487351Y-61810361D01*
X78487351Y-61810361D01*
G37*
D25*
X77755000Y-61960000D03*
D23*
G36*
X78487351Y-62310361D02*
X78494632Y-62311441D01*
X78501771Y-62313229D01*
X78508701Y-62315709D01*
X78515355Y-62318856D01*
X78521668Y-62322640D01*
X78527579Y-62327024D01*
X78533033Y-62331967D01*
X78537976Y-62337421D01*
X78542360Y-62343332D01*
X78546144Y-62349645D01*
X78549291Y-62356299D01*
X78551771Y-62363229D01*
X78553559Y-62370368D01*
X78554639Y-62377649D01*
X78555000Y-62385000D01*
X78555000Y-62535000D01*
X78554639Y-62542351D01*
X78553559Y-62549632D01*
X78551771Y-62556771D01*
X78549291Y-62563701D01*
X78546144Y-62570355D01*
X78542360Y-62576668D01*
X78537976Y-62582579D01*
X78533033Y-62588033D01*
X78527579Y-62592976D01*
X78521668Y-62597360D01*
X78515355Y-62601144D01*
X78508701Y-62604291D01*
X78501771Y-62606771D01*
X78494632Y-62608559D01*
X78487351Y-62609639D01*
X78480000Y-62610000D01*
X77030000Y-62610000D01*
X77022649Y-62609639D01*
X77015368Y-62608559D01*
X77008229Y-62606771D01*
X77001299Y-62604291D01*
X76994645Y-62601144D01*
X76988332Y-62597360D01*
X76982421Y-62592976D01*
X76976967Y-62588033D01*
X76972024Y-62582579D01*
X76967640Y-62576668D01*
X76963856Y-62570355D01*
X76960709Y-62563701D01*
X76958229Y-62556771D01*
X76956441Y-62549632D01*
X76955361Y-62542351D01*
X76955000Y-62535000D01*
X76955000Y-62385000D01*
X76955361Y-62377649D01*
X76956441Y-62370368D01*
X76958229Y-62363229D01*
X76960709Y-62356299D01*
X76963856Y-62349645D01*
X76967640Y-62343332D01*
X76972024Y-62337421D01*
X76976967Y-62331967D01*
X76982421Y-62327024D01*
X76988332Y-62322640D01*
X76994645Y-62318856D01*
X77001299Y-62315709D01*
X77008229Y-62313229D01*
X77015368Y-62311441D01*
X77022649Y-62310361D01*
X77030000Y-62310000D01*
X78480000Y-62310000D01*
X78487351Y-62310361D01*
X78487351Y-62310361D01*
G37*
D25*
X77755000Y-62460000D03*
D23*
G36*
X78487351Y-62810361D02*
X78494632Y-62811441D01*
X78501771Y-62813229D01*
X78508701Y-62815709D01*
X78515355Y-62818856D01*
X78521668Y-62822640D01*
X78527579Y-62827024D01*
X78533033Y-62831967D01*
X78537976Y-62837421D01*
X78542360Y-62843332D01*
X78546144Y-62849645D01*
X78549291Y-62856299D01*
X78551771Y-62863229D01*
X78553559Y-62870368D01*
X78554639Y-62877649D01*
X78555000Y-62885000D01*
X78555000Y-63035000D01*
X78554639Y-63042351D01*
X78553559Y-63049632D01*
X78551771Y-63056771D01*
X78549291Y-63063701D01*
X78546144Y-63070355D01*
X78542360Y-63076668D01*
X78537976Y-63082579D01*
X78533033Y-63088033D01*
X78527579Y-63092976D01*
X78521668Y-63097360D01*
X78515355Y-63101144D01*
X78508701Y-63104291D01*
X78501771Y-63106771D01*
X78494632Y-63108559D01*
X78487351Y-63109639D01*
X78480000Y-63110000D01*
X77030000Y-63110000D01*
X77022649Y-63109639D01*
X77015368Y-63108559D01*
X77008229Y-63106771D01*
X77001299Y-63104291D01*
X76994645Y-63101144D01*
X76988332Y-63097360D01*
X76982421Y-63092976D01*
X76976967Y-63088033D01*
X76972024Y-63082579D01*
X76967640Y-63076668D01*
X76963856Y-63070355D01*
X76960709Y-63063701D01*
X76958229Y-63056771D01*
X76956441Y-63049632D01*
X76955361Y-63042351D01*
X76955000Y-63035000D01*
X76955000Y-62885000D01*
X76955361Y-62877649D01*
X76956441Y-62870368D01*
X76958229Y-62863229D01*
X76960709Y-62856299D01*
X76963856Y-62849645D01*
X76967640Y-62843332D01*
X76972024Y-62837421D01*
X76976967Y-62831967D01*
X76982421Y-62827024D01*
X76988332Y-62822640D01*
X76994645Y-62818856D01*
X77001299Y-62815709D01*
X77008229Y-62813229D01*
X77015368Y-62811441D01*
X77022649Y-62810361D01*
X77030000Y-62810000D01*
X78480000Y-62810000D01*
X78487351Y-62810361D01*
X78487351Y-62810361D01*
G37*
D25*
X77755000Y-62960000D03*
D23*
G36*
X78487351Y-63310361D02*
X78494632Y-63311441D01*
X78501771Y-63313229D01*
X78508701Y-63315709D01*
X78515355Y-63318856D01*
X78521668Y-63322640D01*
X78527579Y-63327024D01*
X78533033Y-63331967D01*
X78537976Y-63337421D01*
X78542360Y-63343332D01*
X78546144Y-63349645D01*
X78549291Y-63356299D01*
X78551771Y-63363229D01*
X78553559Y-63370368D01*
X78554639Y-63377649D01*
X78555000Y-63385000D01*
X78555000Y-63535000D01*
X78554639Y-63542351D01*
X78553559Y-63549632D01*
X78551771Y-63556771D01*
X78549291Y-63563701D01*
X78546144Y-63570355D01*
X78542360Y-63576668D01*
X78537976Y-63582579D01*
X78533033Y-63588033D01*
X78527579Y-63592976D01*
X78521668Y-63597360D01*
X78515355Y-63601144D01*
X78508701Y-63604291D01*
X78501771Y-63606771D01*
X78494632Y-63608559D01*
X78487351Y-63609639D01*
X78480000Y-63610000D01*
X77030000Y-63610000D01*
X77022649Y-63609639D01*
X77015368Y-63608559D01*
X77008229Y-63606771D01*
X77001299Y-63604291D01*
X76994645Y-63601144D01*
X76988332Y-63597360D01*
X76982421Y-63592976D01*
X76976967Y-63588033D01*
X76972024Y-63582579D01*
X76967640Y-63576668D01*
X76963856Y-63570355D01*
X76960709Y-63563701D01*
X76958229Y-63556771D01*
X76956441Y-63549632D01*
X76955361Y-63542351D01*
X76955000Y-63535000D01*
X76955000Y-63385000D01*
X76955361Y-63377649D01*
X76956441Y-63370368D01*
X76958229Y-63363229D01*
X76960709Y-63356299D01*
X76963856Y-63349645D01*
X76967640Y-63343332D01*
X76972024Y-63337421D01*
X76976967Y-63331967D01*
X76982421Y-63327024D01*
X76988332Y-63322640D01*
X76994645Y-63318856D01*
X77001299Y-63315709D01*
X77008229Y-63313229D01*
X77015368Y-63311441D01*
X77022649Y-63310361D01*
X77030000Y-63310000D01*
X78480000Y-63310000D01*
X78487351Y-63310361D01*
X78487351Y-63310361D01*
G37*
D25*
X77755000Y-63460000D03*
D23*
G36*
X78487351Y-63810361D02*
X78494632Y-63811441D01*
X78501771Y-63813229D01*
X78508701Y-63815709D01*
X78515355Y-63818856D01*
X78521668Y-63822640D01*
X78527579Y-63827024D01*
X78533033Y-63831967D01*
X78537976Y-63837421D01*
X78542360Y-63843332D01*
X78546144Y-63849645D01*
X78549291Y-63856299D01*
X78551771Y-63863229D01*
X78553559Y-63870368D01*
X78554639Y-63877649D01*
X78555000Y-63885000D01*
X78555000Y-64035000D01*
X78554639Y-64042351D01*
X78553559Y-64049632D01*
X78551771Y-64056771D01*
X78549291Y-64063701D01*
X78546144Y-64070355D01*
X78542360Y-64076668D01*
X78537976Y-64082579D01*
X78533033Y-64088033D01*
X78527579Y-64092976D01*
X78521668Y-64097360D01*
X78515355Y-64101144D01*
X78508701Y-64104291D01*
X78501771Y-64106771D01*
X78494632Y-64108559D01*
X78487351Y-64109639D01*
X78480000Y-64110000D01*
X77030000Y-64110000D01*
X77022649Y-64109639D01*
X77015368Y-64108559D01*
X77008229Y-64106771D01*
X77001299Y-64104291D01*
X76994645Y-64101144D01*
X76988332Y-64097360D01*
X76982421Y-64092976D01*
X76976967Y-64088033D01*
X76972024Y-64082579D01*
X76967640Y-64076668D01*
X76963856Y-64070355D01*
X76960709Y-64063701D01*
X76958229Y-64056771D01*
X76956441Y-64049632D01*
X76955361Y-64042351D01*
X76955000Y-64035000D01*
X76955000Y-63885000D01*
X76955361Y-63877649D01*
X76956441Y-63870368D01*
X76958229Y-63863229D01*
X76960709Y-63856299D01*
X76963856Y-63849645D01*
X76967640Y-63843332D01*
X76972024Y-63837421D01*
X76976967Y-63831967D01*
X76982421Y-63827024D01*
X76988332Y-63822640D01*
X76994645Y-63818856D01*
X77001299Y-63815709D01*
X77008229Y-63813229D01*
X77015368Y-63811441D01*
X77022649Y-63810361D01*
X77030000Y-63810000D01*
X78480000Y-63810000D01*
X78487351Y-63810361D01*
X78487351Y-63810361D01*
G37*
D25*
X77755000Y-63960000D03*
D23*
G36*
X78487351Y-64310361D02*
X78494632Y-64311441D01*
X78501771Y-64313229D01*
X78508701Y-64315709D01*
X78515355Y-64318856D01*
X78521668Y-64322640D01*
X78527579Y-64327024D01*
X78533033Y-64331967D01*
X78537976Y-64337421D01*
X78542360Y-64343332D01*
X78546144Y-64349645D01*
X78549291Y-64356299D01*
X78551771Y-64363229D01*
X78553559Y-64370368D01*
X78554639Y-64377649D01*
X78555000Y-64385000D01*
X78555000Y-64535000D01*
X78554639Y-64542351D01*
X78553559Y-64549632D01*
X78551771Y-64556771D01*
X78549291Y-64563701D01*
X78546144Y-64570355D01*
X78542360Y-64576668D01*
X78537976Y-64582579D01*
X78533033Y-64588033D01*
X78527579Y-64592976D01*
X78521668Y-64597360D01*
X78515355Y-64601144D01*
X78508701Y-64604291D01*
X78501771Y-64606771D01*
X78494632Y-64608559D01*
X78487351Y-64609639D01*
X78480000Y-64610000D01*
X77030000Y-64610000D01*
X77022649Y-64609639D01*
X77015368Y-64608559D01*
X77008229Y-64606771D01*
X77001299Y-64604291D01*
X76994645Y-64601144D01*
X76988332Y-64597360D01*
X76982421Y-64592976D01*
X76976967Y-64588033D01*
X76972024Y-64582579D01*
X76967640Y-64576668D01*
X76963856Y-64570355D01*
X76960709Y-64563701D01*
X76958229Y-64556771D01*
X76956441Y-64549632D01*
X76955361Y-64542351D01*
X76955000Y-64535000D01*
X76955000Y-64385000D01*
X76955361Y-64377649D01*
X76956441Y-64370368D01*
X76958229Y-64363229D01*
X76960709Y-64356299D01*
X76963856Y-64349645D01*
X76967640Y-64343332D01*
X76972024Y-64337421D01*
X76976967Y-64331967D01*
X76982421Y-64327024D01*
X76988332Y-64322640D01*
X76994645Y-64318856D01*
X77001299Y-64315709D01*
X77008229Y-64313229D01*
X77015368Y-64311441D01*
X77022649Y-64310361D01*
X77030000Y-64310000D01*
X78480000Y-64310000D01*
X78487351Y-64310361D01*
X78487351Y-64310361D01*
G37*
D25*
X77755000Y-64460000D03*
D23*
G36*
X78487351Y-64810361D02*
X78494632Y-64811441D01*
X78501771Y-64813229D01*
X78508701Y-64815709D01*
X78515355Y-64818856D01*
X78521668Y-64822640D01*
X78527579Y-64827024D01*
X78533033Y-64831967D01*
X78537976Y-64837421D01*
X78542360Y-64843332D01*
X78546144Y-64849645D01*
X78549291Y-64856299D01*
X78551771Y-64863229D01*
X78553559Y-64870368D01*
X78554639Y-64877649D01*
X78555000Y-64885000D01*
X78555000Y-65035000D01*
X78554639Y-65042351D01*
X78553559Y-65049632D01*
X78551771Y-65056771D01*
X78549291Y-65063701D01*
X78546144Y-65070355D01*
X78542360Y-65076668D01*
X78537976Y-65082579D01*
X78533033Y-65088033D01*
X78527579Y-65092976D01*
X78521668Y-65097360D01*
X78515355Y-65101144D01*
X78508701Y-65104291D01*
X78501771Y-65106771D01*
X78494632Y-65108559D01*
X78487351Y-65109639D01*
X78480000Y-65110000D01*
X77030000Y-65110000D01*
X77022649Y-65109639D01*
X77015368Y-65108559D01*
X77008229Y-65106771D01*
X77001299Y-65104291D01*
X76994645Y-65101144D01*
X76988332Y-65097360D01*
X76982421Y-65092976D01*
X76976967Y-65088033D01*
X76972024Y-65082579D01*
X76967640Y-65076668D01*
X76963856Y-65070355D01*
X76960709Y-65063701D01*
X76958229Y-65056771D01*
X76956441Y-65049632D01*
X76955361Y-65042351D01*
X76955000Y-65035000D01*
X76955000Y-64885000D01*
X76955361Y-64877649D01*
X76956441Y-64870368D01*
X76958229Y-64863229D01*
X76960709Y-64856299D01*
X76963856Y-64849645D01*
X76967640Y-64843332D01*
X76972024Y-64837421D01*
X76976967Y-64831967D01*
X76982421Y-64827024D01*
X76988332Y-64822640D01*
X76994645Y-64818856D01*
X77001299Y-64815709D01*
X77008229Y-64813229D01*
X77015368Y-64811441D01*
X77022649Y-64810361D01*
X77030000Y-64810000D01*
X78480000Y-64810000D01*
X78487351Y-64810361D01*
X78487351Y-64810361D01*
G37*
D25*
X77755000Y-64960000D03*
D23*
G36*
X78487351Y-65310361D02*
X78494632Y-65311441D01*
X78501771Y-65313229D01*
X78508701Y-65315709D01*
X78515355Y-65318856D01*
X78521668Y-65322640D01*
X78527579Y-65327024D01*
X78533033Y-65331967D01*
X78537976Y-65337421D01*
X78542360Y-65343332D01*
X78546144Y-65349645D01*
X78549291Y-65356299D01*
X78551771Y-65363229D01*
X78553559Y-65370368D01*
X78554639Y-65377649D01*
X78555000Y-65385000D01*
X78555000Y-65535000D01*
X78554639Y-65542351D01*
X78553559Y-65549632D01*
X78551771Y-65556771D01*
X78549291Y-65563701D01*
X78546144Y-65570355D01*
X78542360Y-65576668D01*
X78537976Y-65582579D01*
X78533033Y-65588033D01*
X78527579Y-65592976D01*
X78521668Y-65597360D01*
X78515355Y-65601144D01*
X78508701Y-65604291D01*
X78501771Y-65606771D01*
X78494632Y-65608559D01*
X78487351Y-65609639D01*
X78480000Y-65610000D01*
X77030000Y-65610000D01*
X77022649Y-65609639D01*
X77015368Y-65608559D01*
X77008229Y-65606771D01*
X77001299Y-65604291D01*
X76994645Y-65601144D01*
X76988332Y-65597360D01*
X76982421Y-65592976D01*
X76976967Y-65588033D01*
X76972024Y-65582579D01*
X76967640Y-65576668D01*
X76963856Y-65570355D01*
X76960709Y-65563701D01*
X76958229Y-65556771D01*
X76956441Y-65549632D01*
X76955361Y-65542351D01*
X76955000Y-65535000D01*
X76955000Y-65385000D01*
X76955361Y-65377649D01*
X76956441Y-65370368D01*
X76958229Y-65363229D01*
X76960709Y-65356299D01*
X76963856Y-65349645D01*
X76967640Y-65343332D01*
X76972024Y-65337421D01*
X76976967Y-65331967D01*
X76982421Y-65327024D01*
X76988332Y-65322640D01*
X76994645Y-65318856D01*
X77001299Y-65315709D01*
X77008229Y-65313229D01*
X77015368Y-65311441D01*
X77022649Y-65310361D01*
X77030000Y-65310000D01*
X78480000Y-65310000D01*
X78487351Y-65310361D01*
X78487351Y-65310361D01*
G37*
D25*
X77755000Y-65460000D03*
D23*
G36*
X78487351Y-65810361D02*
X78494632Y-65811441D01*
X78501771Y-65813229D01*
X78508701Y-65815709D01*
X78515355Y-65818856D01*
X78521668Y-65822640D01*
X78527579Y-65827024D01*
X78533033Y-65831967D01*
X78537976Y-65837421D01*
X78542360Y-65843332D01*
X78546144Y-65849645D01*
X78549291Y-65856299D01*
X78551771Y-65863229D01*
X78553559Y-65870368D01*
X78554639Y-65877649D01*
X78555000Y-65885000D01*
X78555000Y-66035000D01*
X78554639Y-66042351D01*
X78553559Y-66049632D01*
X78551771Y-66056771D01*
X78549291Y-66063701D01*
X78546144Y-66070355D01*
X78542360Y-66076668D01*
X78537976Y-66082579D01*
X78533033Y-66088033D01*
X78527579Y-66092976D01*
X78521668Y-66097360D01*
X78515355Y-66101144D01*
X78508701Y-66104291D01*
X78501771Y-66106771D01*
X78494632Y-66108559D01*
X78487351Y-66109639D01*
X78480000Y-66110000D01*
X77030000Y-66110000D01*
X77022649Y-66109639D01*
X77015368Y-66108559D01*
X77008229Y-66106771D01*
X77001299Y-66104291D01*
X76994645Y-66101144D01*
X76988332Y-66097360D01*
X76982421Y-66092976D01*
X76976967Y-66088033D01*
X76972024Y-66082579D01*
X76967640Y-66076668D01*
X76963856Y-66070355D01*
X76960709Y-66063701D01*
X76958229Y-66056771D01*
X76956441Y-66049632D01*
X76955361Y-66042351D01*
X76955000Y-66035000D01*
X76955000Y-65885000D01*
X76955361Y-65877649D01*
X76956441Y-65870368D01*
X76958229Y-65863229D01*
X76960709Y-65856299D01*
X76963856Y-65849645D01*
X76967640Y-65843332D01*
X76972024Y-65837421D01*
X76976967Y-65831967D01*
X76982421Y-65827024D01*
X76988332Y-65822640D01*
X76994645Y-65818856D01*
X77001299Y-65815709D01*
X77008229Y-65813229D01*
X77015368Y-65811441D01*
X77022649Y-65810361D01*
X77030000Y-65810000D01*
X78480000Y-65810000D01*
X78487351Y-65810361D01*
X78487351Y-65810361D01*
G37*
D25*
X77755000Y-65960000D03*
D23*
G36*
X78487351Y-66310361D02*
X78494632Y-66311441D01*
X78501771Y-66313229D01*
X78508701Y-66315709D01*
X78515355Y-66318856D01*
X78521668Y-66322640D01*
X78527579Y-66327024D01*
X78533033Y-66331967D01*
X78537976Y-66337421D01*
X78542360Y-66343332D01*
X78546144Y-66349645D01*
X78549291Y-66356299D01*
X78551771Y-66363229D01*
X78553559Y-66370368D01*
X78554639Y-66377649D01*
X78555000Y-66385000D01*
X78555000Y-66535000D01*
X78554639Y-66542351D01*
X78553559Y-66549632D01*
X78551771Y-66556771D01*
X78549291Y-66563701D01*
X78546144Y-66570355D01*
X78542360Y-66576668D01*
X78537976Y-66582579D01*
X78533033Y-66588033D01*
X78527579Y-66592976D01*
X78521668Y-66597360D01*
X78515355Y-66601144D01*
X78508701Y-66604291D01*
X78501771Y-66606771D01*
X78494632Y-66608559D01*
X78487351Y-66609639D01*
X78480000Y-66610000D01*
X77030000Y-66610000D01*
X77022649Y-66609639D01*
X77015368Y-66608559D01*
X77008229Y-66606771D01*
X77001299Y-66604291D01*
X76994645Y-66601144D01*
X76988332Y-66597360D01*
X76982421Y-66592976D01*
X76976967Y-66588033D01*
X76972024Y-66582579D01*
X76967640Y-66576668D01*
X76963856Y-66570355D01*
X76960709Y-66563701D01*
X76958229Y-66556771D01*
X76956441Y-66549632D01*
X76955361Y-66542351D01*
X76955000Y-66535000D01*
X76955000Y-66385000D01*
X76955361Y-66377649D01*
X76956441Y-66370368D01*
X76958229Y-66363229D01*
X76960709Y-66356299D01*
X76963856Y-66349645D01*
X76967640Y-66343332D01*
X76972024Y-66337421D01*
X76976967Y-66331967D01*
X76982421Y-66327024D01*
X76988332Y-66322640D01*
X76994645Y-66318856D01*
X77001299Y-66315709D01*
X77008229Y-66313229D01*
X77015368Y-66311441D01*
X77022649Y-66310361D01*
X77030000Y-66310000D01*
X78480000Y-66310000D01*
X78487351Y-66310361D01*
X78487351Y-66310361D01*
G37*
D25*
X77755000Y-66460000D03*
D23*
G36*
X78487351Y-66810361D02*
X78494632Y-66811441D01*
X78501771Y-66813229D01*
X78508701Y-66815709D01*
X78515355Y-66818856D01*
X78521668Y-66822640D01*
X78527579Y-66827024D01*
X78533033Y-66831967D01*
X78537976Y-66837421D01*
X78542360Y-66843332D01*
X78546144Y-66849645D01*
X78549291Y-66856299D01*
X78551771Y-66863229D01*
X78553559Y-66870368D01*
X78554639Y-66877649D01*
X78555000Y-66885000D01*
X78555000Y-67035000D01*
X78554639Y-67042351D01*
X78553559Y-67049632D01*
X78551771Y-67056771D01*
X78549291Y-67063701D01*
X78546144Y-67070355D01*
X78542360Y-67076668D01*
X78537976Y-67082579D01*
X78533033Y-67088033D01*
X78527579Y-67092976D01*
X78521668Y-67097360D01*
X78515355Y-67101144D01*
X78508701Y-67104291D01*
X78501771Y-67106771D01*
X78494632Y-67108559D01*
X78487351Y-67109639D01*
X78480000Y-67110000D01*
X77030000Y-67110000D01*
X77022649Y-67109639D01*
X77015368Y-67108559D01*
X77008229Y-67106771D01*
X77001299Y-67104291D01*
X76994645Y-67101144D01*
X76988332Y-67097360D01*
X76982421Y-67092976D01*
X76976967Y-67088033D01*
X76972024Y-67082579D01*
X76967640Y-67076668D01*
X76963856Y-67070355D01*
X76960709Y-67063701D01*
X76958229Y-67056771D01*
X76956441Y-67049632D01*
X76955361Y-67042351D01*
X76955000Y-67035000D01*
X76955000Y-66885000D01*
X76955361Y-66877649D01*
X76956441Y-66870368D01*
X76958229Y-66863229D01*
X76960709Y-66856299D01*
X76963856Y-66849645D01*
X76967640Y-66843332D01*
X76972024Y-66837421D01*
X76976967Y-66831967D01*
X76982421Y-66827024D01*
X76988332Y-66822640D01*
X76994645Y-66818856D01*
X77001299Y-66815709D01*
X77008229Y-66813229D01*
X77015368Y-66811441D01*
X77022649Y-66810361D01*
X77030000Y-66810000D01*
X78480000Y-66810000D01*
X78487351Y-66810361D01*
X78487351Y-66810361D01*
G37*
D25*
X77755000Y-66960000D03*
D23*
G36*
X78487351Y-67310361D02*
X78494632Y-67311441D01*
X78501771Y-67313229D01*
X78508701Y-67315709D01*
X78515355Y-67318856D01*
X78521668Y-67322640D01*
X78527579Y-67327024D01*
X78533033Y-67331967D01*
X78537976Y-67337421D01*
X78542360Y-67343332D01*
X78546144Y-67349645D01*
X78549291Y-67356299D01*
X78551771Y-67363229D01*
X78553559Y-67370368D01*
X78554639Y-67377649D01*
X78555000Y-67385000D01*
X78555000Y-67535000D01*
X78554639Y-67542351D01*
X78553559Y-67549632D01*
X78551771Y-67556771D01*
X78549291Y-67563701D01*
X78546144Y-67570355D01*
X78542360Y-67576668D01*
X78537976Y-67582579D01*
X78533033Y-67588033D01*
X78527579Y-67592976D01*
X78521668Y-67597360D01*
X78515355Y-67601144D01*
X78508701Y-67604291D01*
X78501771Y-67606771D01*
X78494632Y-67608559D01*
X78487351Y-67609639D01*
X78480000Y-67610000D01*
X77030000Y-67610000D01*
X77022649Y-67609639D01*
X77015368Y-67608559D01*
X77008229Y-67606771D01*
X77001299Y-67604291D01*
X76994645Y-67601144D01*
X76988332Y-67597360D01*
X76982421Y-67592976D01*
X76976967Y-67588033D01*
X76972024Y-67582579D01*
X76967640Y-67576668D01*
X76963856Y-67570355D01*
X76960709Y-67563701D01*
X76958229Y-67556771D01*
X76956441Y-67549632D01*
X76955361Y-67542351D01*
X76955000Y-67535000D01*
X76955000Y-67385000D01*
X76955361Y-67377649D01*
X76956441Y-67370368D01*
X76958229Y-67363229D01*
X76960709Y-67356299D01*
X76963856Y-67349645D01*
X76967640Y-67343332D01*
X76972024Y-67337421D01*
X76976967Y-67331967D01*
X76982421Y-67327024D01*
X76988332Y-67322640D01*
X76994645Y-67318856D01*
X77001299Y-67315709D01*
X77008229Y-67313229D01*
X77015368Y-67311441D01*
X77022649Y-67310361D01*
X77030000Y-67310000D01*
X78480000Y-67310000D01*
X78487351Y-67310361D01*
X78487351Y-67310361D01*
G37*
D25*
X77755000Y-67460000D03*
D23*
G36*
X78487351Y-67810361D02*
X78494632Y-67811441D01*
X78501771Y-67813229D01*
X78508701Y-67815709D01*
X78515355Y-67818856D01*
X78521668Y-67822640D01*
X78527579Y-67827024D01*
X78533033Y-67831967D01*
X78537976Y-67837421D01*
X78542360Y-67843332D01*
X78546144Y-67849645D01*
X78549291Y-67856299D01*
X78551771Y-67863229D01*
X78553559Y-67870368D01*
X78554639Y-67877649D01*
X78555000Y-67885000D01*
X78555000Y-68035000D01*
X78554639Y-68042351D01*
X78553559Y-68049632D01*
X78551771Y-68056771D01*
X78549291Y-68063701D01*
X78546144Y-68070355D01*
X78542360Y-68076668D01*
X78537976Y-68082579D01*
X78533033Y-68088033D01*
X78527579Y-68092976D01*
X78521668Y-68097360D01*
X78515355Y-68101144D01*
X78508701Y-68104291D01*
X78501771Y-68106771D01*
X78494632Y-68108559D01*
X78487351Y-68109639D01*
X78480000Y-68110000D01*
X77030000Y-68110000D01*
X77022649Y-68109639D01*
X77015368Y-68108559D01*
X77008229Y-68106771D01*
X77001299Y-68104291D01*
X76994645Y-68101144D01*
X76988332Y-68097360D01*
X76982421Y-68092976D01*
X76976967Y-68088033D01*
X76972024Y-68082579D01*
X76967640Y-68076668D01*
X76963856Y-68070355D01*
X76960709Y-68063701D01*
X76958229Y-68056771D01*
X76956441Y-68049632D01*
X76955361Y-68042351D01*
X76955000Y-68035000D01*
X76955000Y-67885000D01*
X76955361Y-67877649D01*
X76956441Y-67870368D01*
X76958229Y-67863229D01*
X76960709Y-67856299D01*
X76963856Y-67849645D01*
X76967640Y-67843332D01*
X76972024Y-67837421D01*
X76976967Y-67831967D01*
X76982421Y-67827024D01*
X76988332Y-67822640D01*
X76994645Y-67818856D01*
X77001299Y-67815709D01*
X77008229Y-67813229D01*
X77015368Y-67811441D01*
X77022649Y-67810361D01*
X77030000Y-67810000D01*
X78480000Y-67810000D01*
X78487351Y-67810361D01*
X78487351Y-67810361D01*
G37*
D25*
X77755000Y-67960000D03*
D23*
G36*
X78487351Y-68310361D02*
X78494632Y-68311441D01*
X78501771Y-68313229D01*
X78508701Y-68315709D01*
X78515355Y-68318856D01*
X78521668Y-68322640D01*
X78527579Y-68327024D01*
X78533033Y-68331967D01*
X78537976Y-68337421D01*
X78542360Y-68343332D01*
X78546144Y-68349645D01*
X78549291Y-68356299D01*
X78551771Y-68363229D01*
X78553559Y-68370368D01*
X78554639Y-68377649D01*
X78555000Y-68385000D01*
X78555000Y-68535000D01*
X78554639Y-68542351D01*
X78553559Y-68549632D01*
X78551771Y-68556771D01*
X78549291Y-68563701D01*
X78546144Y-68570355D01*
X78542360Y-68576668D01*
X78537976Y-68582579D01*
X78533033Y-68588033D01*
X78527579Y-68592976D01*
X78521668Y-68597360D01*
X78515355Y-68601144D01*
X78508701Y-68604291D01*
X78501771Y-68606771D01*
X78494632Y-68608559D01*
X78487351Y-68609639D01*
X78480000Y-68610000D01*
X77030000Y-68610000D01*
X77022649Y-68609639D01*
X77015368Y-68608559D01*
X77008229Y-68606771D01*
X77001299Y-68604291D01*
X76994645Y-68601144D01*
X76988332Y-68597360D01*
X76982421Y-68592976D01*
X76976967Y-68588033D01*
X76972024Y-68582579D01*
X76967640Y-68576668D01*
X76963856Y-68570355D01*
X76960709Y-68563701D01*
X76958229Y-68556771D01*
X76956441Y-68549632D01*
X76955361Y-68542351D01*
X76955000Y-68535000D01*
X76955000Y-68385000D01*
X76955361Y-68377649D01*
X76956441Y-68370368D01*
X76958229Y-68363229D01*
X76960709Y-68356299D01*
X76963856Y-68349645D01*
X76967640Y-68343332D01*
X76972024Y-68337421D01*
X76976967Y-68331967D01*
X76982421Y-68327024D01*
X76988332Y-68322640D01*
X76994645Y-68318856D01*
X77001299Y-68315709D01*
X77008229Y-68313229D01*
X77015368Y-68311441D01*
X77022649Y-68310361D01*
X77030000Y-68310000D01*
X78480000Y-68310000D01*
X78487351Y-68310361D01*
X78487351Y-68310361D01*
G37*
D25*
X77755000Y-68460000D03*
D23*
G36*
X78487351Y-68810361D02*
X78494632Y-68811441D01*
X78501771Y-68813229D01*
X78508701Y-68815709D01*
X78515355Y-68818856D01*
X78521668Y-68822640D01*
X78527579Y-68827024D01*
X78533033Y-68831967D01*
X78537976Y-68837421D01*
X78542360Y-68843332D01*
X78546144Y-68849645D01*
X78549291Y-68856299D01*
X78551771Y-68863229D01*
X78553559Y-68870368D01*
X78554639Y-68877649D01*
X78555000Y-68885000D01*
X78555000Y-69035000D01*
X78554639Y-69042351D01*
X78553559Y-69049632D01*
X78551771Y-69056771D01*
X78549291Y-69063701D01*
X78546144Y-69070355D01*
X78542360Y-69076668D01*
X78537976Y-69082579D01*
X78533033Y-69088033D01*
X78527579Y-69092976D01*
X78521668Y-69097360D01*
X78515355Y-69101144D01*
X78508701Y-69104291D01*
X78501771Y-69106771D01*
X78494632Y-69108559D01*
X78487351Y-69109639D01*
X78480000Y-69110000D01*
X77030000Y-69110000D01*
X77022649Y-69109639D01*
X77015368Y-69108559D01*
X77008229Y-69106771D01*
X77001299Y-69104291D01*
X76994645Y-69101144D01*
X76988332Y-69097360D01*
X76982421Y-69092976D01*
X76976967Y-69088033D01*
X76972024Y-69082579D01*
X76967640Y-69076668D01*
X76963856Y-69070355D01*
X76960709Y-69063701D01*
X76958229Y-69056771D01*
X76956441Y-69049632D01*
X76955361Y-69042351D01*
X76955000Y-69035000D01*
X76955000Y-68885000D01*
X76955361Y-68877649D01*
X76956441Y-68870368D01*
X76958229Y-68863229D01*
X76960709Y-68856299D01*
X76963856Y-68849645D01*
X76967640Y-68843332D01*
X76972024Y-68837421D01*
X76976967Y-68831967D01*
X76982421Y-68827024D01*
X76988332Y-68822640D01*
X76994645Y-68818856D01*
X77001299Y-68815709D01*
X77008229Y-68813229D01*
X77015368Y-68811441D01*
X77022649Y-68810361D01*
X77030000Y-68810000D01*
X78480000Y-68810000D01*
X78487351Y-68810361D01*
X78487351Y-68810361D01*
G37*
D25*
X77755000Y-68960000D03*
D23*
G36*
X78487351Y-69310361D02*
X78494632Y-69311441D01*
X78501771Y-69313229D01*
X78508701Y-69315709D01*
X78515355Y-69318856D01*
X78521668Y-69322640D01*
X78527579Y-69327024D01*
X78533033Y-69331967D01*
X78537976Y-69337421D01*
X78542360Y-69343332D01*
X78546144Y-69349645D01*
X78549291Y-69356299D01*
X78551771Y-69363229D01*
X78553559Y-69370368D01*
X78554639Y-69377649D01*
X78555000Y-69385000D01*
X78555000Y-69535000D01*
X78554639Y-69542351D01*
X78553559Y-69549632D01*
X78551771Y-69556771D01*
X78549291Y-69563701D01*
X78546144Y-69570355D01*
X78542360Y-69576668D01*
X78537976Y-69582579D01*
X78533033Y-69588033D01*
X78527579Y-69592976D01*
X78521668Y-69597360D01*
X78515355Y-69601144D01*
X78508701Y-69604291D01*
X78501771Y-69606771D01*
X78494632Y-69608559D01*
X78487351Y-69609639D01*
X78480000Y-69610000D01*
X77030000Y-69610000D01*
X77022649Y-69609639D01*
X77015368Y-69608559D01*
X77008229Y-69606771D01*
X77001299Y-69604291D01*
X76994645Y-69601144D01*
X76988332Y-69597360D01*
X76982421Y-69592976D01*
X76976967Y-69588033D01*
X76972024Y-69582579D01*
X76967640Y-69576668D01*
X76963856Y-69570355D01*
X76960709Y-69563701D01*
X76958229Y-69556771D01*
X76956441Y-69549632D01*
X76955361Y-69542351D01*
X76955000Y-69535000D01*
X76955000Y-69385000D01*
X76955361Y-69377649D01*
X76956441Y-69370368D01*
X76958229Y-69363229D01*
X76960709Y-69356299D01*
X76963856Y-69349645D01*
X76967640Y-69343332D01*
X76972024Y-69337421D01*
X76976967Y-69331967D01*
X76982421Y-69327024D01*
X76988332Y-69322640D01*
X76994645Y-69318856D01*
X77001299Y-69315709D01*
X77008229Y-69313229D01*
X77015368Y-69311441D01*
X77022649Y-69310361D01*
X77030000Y-69310000D01*
X78480000Y-69310000D01*
X78487351Y-69310361D01*
X78487351Y-69310361D01*
G37*
D25*
X77755000Y-69460000D03*
D23*
G36*
X78487351Y-69810361D02*
X78494632Y-69811441D01*
X78501771Y-69813229D01*
X78508701Y-69815709D01*
X78515355Y-69818856D01*
X78521668Y-69822640D01*
X78527579Y-69827024D01*
X78533033Y-69831967D01*
X78537976Y-69837421D01*
X78542360Y-69843332D01*
X78546144Y-69849645D01*
X78549291Y-69856299D01*
X78551771Y-69863229D01*
X78553559Y-69870368D01*
X78554639Y-69877649D01*
X78555000Y-69885000D01*
X78555000Y-70035000D01*
X78554639Y-70042351D01*
X78553559Y-70049632D01*
X78551771Y-70056771D01*
X78549291Y-70063701D01*
X78546144Y-70070355D01*
X78542360Y-70076668D01*
X78537976Y-70082579D01*
X78533033Y-70088033D01*
X78527579Y-70092976D01*
X78521668Y-70097360D01*
X78515355Y-70101144D01*
X78508701Y-70104291D01*
X78501771Y-70106771D01*
X78494632Y-70108559D01*
X78487351Y-70109639D01*
X78480000Y-70110000D01*
X77030000Y-70110000D01*
X77022649Y-70109639D01*
X77015368Y-70108559D01*
X77008229Y-70106771D01*
X77001299Y-70104291D01*
X76994645Y-70101144D01*
X76988332Y-70097360D01*
X76982421Y-70092976D01*
X76976967Y-70088033D01*
X76972024Y-70082579D01*
X76967640Y-70076668D01*
X76963856Y-70070355D01*
X76960709Y-70063701D01*
X76958229Y-70056771D01*
X76956441Y-70049632D01*
X76955361Y-70042351D01*
X76955000Y-70035000D01*
X76955000Y-69885000D01*
X76955361Y-69877649D01*
X76956441Y-69870368D01*
X76958229Y-69863229D01*
X76960709Y-69856299D01*
X76963856Y-69849645D01*
X76967640Y-69843332D01*
X76972024Y-69837421D01*
X76976967Y-69831967D01*
X76982421Y-69827024D01*
X76988332Y-69822640D01*
X76994645Y-69818856D01*
X77001299Y-69815709D01*
X77008229Y-69813229D01*
X77015368Y-69811441D01*
X77022649Y-69810361D01*
X77030000Y-69810000D01*
X78480000Y-69810000D01*
X78487351Y-69810361D01*
X78487351Y-69810361D01*
G37*
D25*
X77755000Y-69960000D03*
D23*
G36*
X78487351Y-70310361D02*
X78494632Y-70311441D01*
X78501771Y-70313229D01*
X78508701Y-70315709D01*
X78515355Y-70318856D01*
X78521668Y-70322640D01*
X78527579Y-70327024D01*
X78533033Y-70331967D01*
X78537976Y-70337421D01*
X78542360Y-70343332D01*
X78546144Y-70349645D01*
X78549291Y-70356299D01*
X78551771Y-70363229D01*
X78553559Y-70370368D01*
X78554639Y-70377649D01*
X78555000Y-70385000D01*
X78555000Y-70535000D01*
X78554639Y-70542351D01*
X78553559Y-70549632D01*
X78551771Y-70556771D01*
X78549291Y-70563701D01*
X78546144Y-70570355D01*
X78542360Y-70576668D01*
X78537976Y-70582579D01*
X78533033Y-70588033D01*
X78527579Y-70592976D01*
X78521668Y-70597360D01*
X78515355Y-70601144D01*
X78508701Y-70604291D01*
X78501771Y-70606771D01*
X78494632Y-70608559D01*
X78487351Y-70609639D01*
X78480000Y-70610000D01*
X77030000Y-70610000D01*
X77022649Y-70609639D01*
X77015368Y-70608559D01*
X77008229Y-70606771D01*
X77001299Y-70604291D01*
X76994645Y-70601144D01*
X76988332Y-70597360D01*
X76982421Y-70592976D01*
X76976967Y-70588033D01*
X76972024Y-70582579D01*
X76967640Y-70576668D01*
X76963856Y-70570355D01*
X76960709Y-70563701D01*
X76958229Y-70556771D01*
X76956441Y-70549632D01*
X76955361Y-70542351D01*
X76955000Y-70535000D01*
X76955000Y-70385000D01*
X76955361Y-70377649D01*
X76956441Y-70370368D01*
X76958229Y-70363229D01*
X76960709Y-70356299D01*
X76963856Y-70349645D01*
X76967640Y-70343332D01*
X76972024Y-70337421D01*
X76976967Y-70331967D01*
X76982421Y-70327024D01*
X76988332Y-70322640D01*
X76994645Y-70318856D01*
X77001299Y-70315709D01*
X77008229Y-70313229D01*
X77015368Y-70311441D01*
X77022649Y-70310361D01*
X77030000Y-70310000D01*
X78480000Y-70310000D01*
X78487351Y-70310361D01*
X78487351Y-70310361D01*
G37*
D25*
X77755000Y-70460000D03*
D23*
G36*
X79512351Y-71335361D02*
X79519632Y-71336441D01*
X79526771Y-71338229D01*
X79533701Y-71340709D01*
X79540355Y-71343856D01*
X79546668Y-71347640D01*
X79552579Y-71352024D01*
X79558033Y-71356967D01*
X79562976Y-71362421D01*
X79567360Y-71368332D01*
X79571144Y-71374645D01*
X79574291Y-71381299D01*
X79576771Y-71388229D01*
X79578559Y-71395368D01*
X79579639Y-71402649D01*
X79580000Y-71410000D01*
X79580000Y-72860000D01*
X79579639Y-72867351D01*
X79578559Y-72874632D01*
X79576771Y-72881771D01*
X79574291Y-72888701D01*
X79571144Y-72895355D01*
X79567360Y-72901668D01*
X79562976Y-72907579D01*
X79558033Y-72913033D01*
X79552579Y-72917976D01*
X79546668Y-72922360D01*
X79540355Y-72926144D01*
X79533701Y-72929291D01*
X79526771Y-72931771D01*
X79519632Y-72933559D01*
X79512351Y-72934639D01*
X79505000Y-72935000D01*
X79355000Y-72935000D01*
X79347649Y-72934639D01*
X79340368Y-72933559D01*
X79333229Y-72931771D01*
X79326299Y-72929291D01*
X79319645Y-72926144D01*
X79313332Y-72922360D01*
X79307421Y-72917976D01*
X79301967Y-72913033D01*
X79297024Y-72907579D01*
X79292640Y-72901668D01*
X79288856Y-72895355D01*
X79285709Y-72888701D01*
X79283229Y-72881771D01*
X79281441Y-72874632D01*
X79280361Y-72867351D01*
X79280000Y-72860000D01*
X79280000Y-71410000D01*
X79280361Y-71402649D01*
X79281441Y-71395368D01*
X79283229Y-71388229D01*
X79285709Y-71381299D01*
X79288856Y-71374645D01*
X79292640Y-71368332D01*
X79297024Y-71362421D01*
X79301967Y-71356967D01*
X79307421Y-71352024D01*
X79313332Y-71347640D01*
X79319645Y-71343856D01*
X79326299Y-71340709D01*
X79333229Y-71338229D01*
X79340368Y-71336441D01*
X79347649Y-71335361D01*
X79355000Y-71335000D01*
X79505000Y-71335000D01*
X79512351Y-71335361D01*
X79512351Y-71335361D01*
G37*
D25*
X79430000Y-72135000D03*
D23*
G36*
X80012351Y-71335361D02*
X80019632Y-71336441D01*
X80026771Y-71338229D01*
X80033701Y-71340709D01*
X80040355Y-71343856D01*
X80046668Y-71347640D01*
X80052579Y-71352024D01*
X80058033Y-71356967D01*
X80062976Y-71362421D01*
X80067360Y-71368332D01*
X80071144Y-71374645D01*
X80074291Y-71381299D01*
X80076771Y-71388229D01*
X80078559Y-71395368D01*
X80079639Y-71402649D01*
X80080000Y-71410000D01*
X80080000Y-72860000D01*
X80079639Y-72867351D01*
X80078559Y-72874632D01*
X80076771Y-72881771D01*
X80074291Y-72888701D01*
X80071144Y-72895355D01*
X80067360Y-72901668D01*
X80062976Y-72907579D01*
X80058033Y-72913033D01*
X80052579Y-72917976D01*
X80046668Y-72922360D01*
X80040355Y-72926144D01*
X80033701Y-72929291D01*
X80026771Y-72931771D01*
X80019632Y-72933559D01*
X80012351Y-72934639D01*
X80005000Y-72935000D01*
X79855000Y-72935000D01*
X79847649Y-72934639D01*
X79840368Y-72933559D01*
X79833229Y-72931771D01*
X79826299Y-72929291D01*
X79819645Y-72926144D01*
X79813332Y-72922360D01*
X79807421Y-72917976D01*
X79801967Y-72913033D01*
X79797024Y-72907579D01*
X79792640Y-72901668D01*
X79788856Y-72895355D01*
X79785709Y-72888701D01*
X79783229Y-72881771D01*
X79781441Y-72874632D01*
X79780361Y-72867351D01*
X79780000Y-72860000D01*
X79780000Y-71410000D01*
X79780361Y-71402649D01*
X79781441Y-71395368D01*
X79783229Y-71388229D01*
X79785709Y-71381299D01*
X79788856Y-71374645D01*
X79792640Y-71368332D01*
X79797024Y-71362421D01*
X79801967Y-71356967D01*
X79807421Y-71352024D01*
X79813332Y-71347640D01*
X79819645Y-71343856D01*
X79826299Y-71340709D01*
X79833229Y-71338229D01*
X79840368Y-71336441D01*
X79847649Y-71335361D01*
X79855000Y-71335000D01*
X80005000Y-71335000D01*
X80012351Y-71335361D01*
X80012351Y-71335361D01*
G37*
D25*
X79930000Y-72135000D03*
D23*
G36*
X80512351Y-71335361D02*
X80519632Y-71336441D01*
X80526771Y-71338229D01*
X80533701Y-71340709D01*
X80540355Y-71343856D01*
X80546668Y-71347640D01*
X80552579Y-71352024D01*
X80558033Y-71356967D01*
X80562976Y-71362421D01*
X80567360Y-71368332D01*
X80571144Y-71374645D01*
X80574291Y-71381299D01*
X80576771Y-71388229D01*
X80578559Y-71395368D01*
X80579639Y-71402649D01*
X80580000Y-71410000D01*
X80580000Y-72860000D01*
X80579639Y-72867351D01*
X80578559Y-72874632D01*
X80576771Y-72881771D01*
X80574291Y-72888701D01*
X80571144Y-72895355D01*
X80567360Y-72901668D01*
X80562976Y-72907579D01*
X80558033Y-72913033D01*
X80552579Y-72917976D01*
X80546668Y-72922360D01*
X80540355Y-72926144D01*
X80533701Y-72929291D01*
X80526771Y-72931771D01*
X80519632Y-72933559D01*
X80512351Y-72934639D01*
X80505000Y-72935000D01*
X80355000Y-72935000D01*
X80347649Y-72934639D01*
X80340368Y-72933559D01*
X80333229Y-72931771D01*
X80326299Y-72929291D01*
X80319645Y-72926144D01*
X80313332Y-72922360D01*
X80307421Y-72917976D01*
X80301967Y-72913033D01*
X80297024Y-72907579D01*
X80292640Y-72901668D01*
X80288856Y-72895355D01*
X80285709Y-72888701D01*
X80283229Y-72881771D01*
X80281441Y-72874632D01*
X80280361Y-72867351D01*
X80280000Y-72860000D01*
X80280000Y-71410000D01*
X80280361Y-71402649D01*
X80281441Y-71395368D01*
X80283229Y-71388229D01*
X80285709Y-71381299D01*
X80288856Y-71374645D01*
X80292640Y-71368332D01*
X80297024Y-71362421D01*
X80301967Y-71356967D01*
X80307421Y-71352024D01*
X80313332Y-71347640D01*
X80319645Y-71343856D01*
X80326299Y-71340709D01*
X80333229Y-71338229D01*
X80340368Y-71336441D01*
X80347649Y-71335361D01*
X80355000Y-71335000D01*
X80505000Y-71335000D01*
X80512351Y-71335361D01*
X80512351Y-71335361D01*
G37*
D25*
X80430000Y-72135000D03*
D23*
G36*
X81012351Y-71335361D02*
X81019632Y-71336441D01*
X81026771Y-71338229D01*
X81033701Y-71340709D01*
X81040355Y-71343856D01*
X81046668Y-71347640D01*
X81052579Y-71352024D01*
X81058033Y-71356967D01*
X81062976Y-71362421D01*
X81067360Y-71368332D01*
X81071144Y-71374645D01*
X81074291Y-71381299D01*
X81076771Y-71388229D01*
X81078559Y-71395368D01*
X81079639Y-71402649D01*
X81080000Y-71410000D01*
X81080000Y-72860000D01*
X81079639Y-72867351D01*
X81078559Y-72874632D01*
X81076771Y-72881771D01*
X81074291Y-72888701D01*
X81071144Y-72895355D01*
X81067360Y-72901668D01*
X81062976Y-72907579D01*
X81058033Y-72913033D01*
X81052579Y-72917976D01*
X81046668Y-72922360D01*
X81040355Y-72926144D01*
X81033701Y-72929291D01*
X81026771Y-72931771D01*
X81019632Y-72933559D01*
X81012351Y-72934639D01*
X81005000Y-72935000D01*
X80855000Y-72935000D01*
X80847649Y-72934639D01*
X80840368Y-72933559D01*
X80833229Y-72931771D01*
X80826299Y-72929291D01*
X80819645Y-72926144D01*
X80813332Y-72922360D01*
X80807421Y-72917976D01*
X80801967Y-72913033D01*
X80797024Y-72907579D01*
X80792640Y-72901668D01*
X80788856Y-72895355D01*
X80785709Y-72888701D01*
X80783229Y-72881771D01*
X80781441Y-72874632D01*
X80780361Y-72867351D01*
X80780000Y-72860000D01*
X80780000Y-71410000D01*
X80780361Y-71402649D01*
X80781441Y-71395368D01*
X80783229Y-71388229D01*
X80785709Y-71381299D01*
X80788856Y-71374645D01*
X80792640Y-71368332D01*
X80797024Y-71362421D01*
X80801967Y-71356967D01*
X80807421Y-71352024D01*
X80813332Y-71347640D01*
X80819645Y-71343856D01*
X80826299Y-71340709D01*
X80833229Y-71338229D01*
X80840368Y-71336441D01*
X80847649Y-71335361D01*
X80855000Y-71335000D01*
X81005000Y-71335000D01*
X81012351Y-71335361D01*
X81012351Y-71335361D01*
G37*
D25*
X80930000Y-72135000D03*
D23*
G36*
X81512351Y-71335361D02*
X81519632Y-71336441D01*
X81526771Y-71338229D01*
X81533701Y-71340709D01*
X81540355Y-71343856D01*
X81546668Y-71347640D01*
X81552579Y-71352024D01*
X81558033Y-71356967D01*
X81562976Y-71362421D01*
X81567360Y-71368332D01*
X81571144Y-71374645D01*
X81574291Y-71381299D01*
X81576771Y-71388229D01*
X81578559Y-71395368D01*
X81579639Y-71402649D01*
X81580000Y-71410000D01*
X81580000Y-72860000D01*
X81579639Y-72867351D01*
X81578559Y-72874632D01*
X81576771Y-72881771D01*
X81574291Y-72888701D01*
X81571144Y-72895355D01*
X81567360Y-72901668D01*
X81562976Y-72907579D01*
X81558033Y-72913033D01*
X81552579Y-72917976D01*
X81546668Y-72922360D01*
X81540355Y-72926144D01*
X81533701Y-72929291D01*
X81526771Y-72931771D01*
X81519632Y-72933559D01*
X81512351Y-72934639D01*
X81505000Y-72935000D01*
X81355000Y-72935000D01*
X81347649Y-72934639D01*
X81340368Y-72933559D01*
X81333229Y-72931771D01*
X81326299Y-72929291D01*
X81319645Y-72926144D01*
X81313332Y-72922360D01*
X81307421Y-72917976D01*
X81301967Y-72913033D01*
X81297024Y-72907579D01*
X81292640Y-72901668D01*
X81288856Y-72895355D01*
X81285709Y-72888701D01*
X81283229Y-72881771D01*
X81281441Y-72874632D01*
X81280361Y-72867351D01*
X81280000Y-72860000D01*
X81280000Y-71410000D01*
X81280361Y-71402649D01*
X81281441Y-71395368D01*
X81283229Y-71388229D01*
X81285709Y-71381299D01*
X81288856Y-71374645D01*
X81292640Y-71368332D01*
X81297024Y-71362421D01*
X81301967Y-71356967D01*
X81307421Y-71352024D01*
X81313332Y-71347640D01*
X81319645Y-71343856D01*
X81326299Y-71340709D01*
X81333229Y-71338229D01*
X81340368Y-71336441D01*
X81347649Y-71335361D01*
X81355000Y-71335000D01*
X81505000Y-71335000D01*
X81512351Y-71335361D01*
X81512351Y-71335361D01*
G37*
D25*
X81430000Y-72135000D03*
D23*
G36*
X82012351Y-71335361D02*
X82019632Y-71336441D01*
X82026771Y-71338229D01*
X82033701Y-71340709D01*
X82040355Y-71343856D01*
X82046668Y-71347640D01*
X82052579Y-71352024D01*
X82058033Y-71356967D01*
X82062976Y-71362421D01*
X82067360Y-71368332D01*
X82071144Y-71374645D01*
X82074291Y-71381299D01*
X82076771Y-71388229D01*
X82078559Y-71395368D01*
X82079639Y-71402649D01*
X82080000Y-71410000D01*
X82080000Y-72860000D01*
X82079639Y-72867351D01*
X82078559Y-72874632D01*
X82076771Y-72881771D01*
X82074291Y-72888701D01*
X82071144Y-72895355D01*
X82067360Y-72901668D01*
X82062976Y-72907579D01*
X82058033Y-72913033D01*
X82052579Y-72917976D01*
X82046668Y-72922360D01*
X82040355Y-72926144D01*
X82033701Y-72929291D01*
X82026771Y-72931771D01*
X82019632Y-72933559D01*
X82012351Y-72934639D01*
X82005000Y-72935000D01*
X81855000Y-72935000D01*
X81847649Y-72934639D01*
X81840368Y-72933559D01*
X81833229Y-72931771D01*
X81826299Y-72929291D01*
X81819645Y-72926144D01*
X81813332Y-72922360D01*
X81807421Y-72917976D01*
X81801967Y-72913033D01*
X81797024Y-72907579D01*
X81792640Y-72901668D01*
X81788856Y-72895355D01*
X81785709Y-72888701D01*
X81783229Y-72881771D01*
X81781441Y-72874632D01*
X81780361Y-72867351D01*
X81780000Y-72860000D01*
X81780000Y-71410000D01*
X81780361Y-71402649D01*
X81781441Y-71395368D01*
X81783229Y-71388229D01*
X81785709Y-71381299D01*
X81788856Y-71374645D01*
X81792640Y-71368332D01*
X81797024Y-71362421D01*
X81801967Y-71356967D01*
X81807421Y-71352024D01*
X81813332Y-71347640D01*
X81819645Y-71343856D01*
X81826299Y-71340709D01*
X81833229Y-71338229D01*
X81840368Y-71336441D01*
X81847649Y-71335361D01*
X81855000Y-71335000D01*
X82005000Y-71335000D01*
X82012351Y-71335361D01*
X82012351Y-71335361D01*
G37*
D25*
X81930000Y-72135000D03*
D23*
G36*
X82512351Y-71335361D02*
X82519632Y-71336441D01*
X82526771Y-71338229D01*
X82533701Y-71340709D01*
X82540355Y-71343856D01*
X82546668Y-71347640D01*
X82552579Y-71352024D01*
X82558033Y-71356967D01*
X82562976Y-71362421D01*
X82567360Y-71368332D01*
X82571144Y-71374645D01*
X82574291Y-71381299D01*
X82576771Y-71388229D01*
X82578559Y-71395368D01*
X82579639Y-71402649D01*
X82580000Y-71410000D01*
X82580000Y-72860000D01*
X82579639Y-72867351D01*
X82578559Y-72874632D01*
X82576771Y-72881771D01*
X82574291Y-72888701D01*
X82571144Y-72895355D01*
X82567360Y-72901668D01*
X82562976Y-72907579D01*
X82558033Y-72913033D01*
X82552579Y-72917976D01*
X82546668Y-72922360D01*
X82540355Y-72926144D01*
X82533701Y-72929291D01*
X82526771Y-72931771D01*
X82519632Y-72933559D01*
X82512351Y-72934639D01*
X82505000Y-72935000D01*
X82355000Y-72935000D01*
X82347649Y-72934639D01*
X82340368Y-72933559D01*
X82333229Y-72931771D01*
X82326299Y-72929291D01*
X82319645Y-72926144D01*
X82313332Y-72922360D01*
X82307421Y-72917976D01*
X82301967Y-72913033D01*
X82297024Y-72907579D01*
X82292640Y-72901668D01*
X82288856Y-72895355D01*
X82285709Y-72888701D01*
X82283229Y-72881771D01*
X82281441Y-72874632D01*
X82280361Y-72867351D01*
X82280000Y-72860000D01*
X82280000Y-71410000D01*
X82280361Y-71402649D01*
X82281441Y-71395368D01*
X82283229Y-71388229D01*
X82285709Y-71381299D01*
X82288856Y-71374645D01*
X82292640Y-71368332D01*
X82297024Y-71362421D01*
X82301967Y-71356967D01*
X82307421Y-71352024D01*
X82313332Y-71347640D01*
X82319645Y-71343856D01*
X82326299Y-71340709D01*
X82333229Y-71338229D01*
X82340368Y-71336441D01*
X82347649Y-71335361D01*
X82355000Y-71335000D01*
X82505000Y-71335000D01*
X82512351Y-71335361D01*
X82512351Y-71335361D01*
G37*
D25*
X82430000Y-72135000D03*
D23*
G36*
X83012351Y-71335361D02*
X83019632Y-71336441D01*
X83026771Y-71338229D01*
X83033701Y-71340709D01*
X83040355Y-71343856D01*
X83046668Y-71347640D01*
X83052579Y-71352024D01*
X83058033Y-71356967D01*
X83062976Y-71362421D01*
X83067360Y-71368332D01*
X83071144Y-71374645D01*
X83074291Y-71381299D01*
X83076771Y-71388229D01*
X83078559Y-71395368D01*
X83079639Y-71402649D01*
X83080000Y-71410000D01*
X83080000Y-72860000D01*
X83079639Y-72867351D01*
X83078559Y-72874632D01*
X83076771Y-72881771D01*
X83074291Y-72888701D01*
X83071144Y-72895355D01*
X83067360Y-72901668D01*
X83062976Y-72907579D01*
X83058033Y-72913033D01*
X83052579Y-72917976D01*
X83046668Y-72922360D01*
X83040355Y-72926144D01*
X83033701Y-72929291D01*
X83026771Y-72931771D01*
X83019632Y-72933559D01*
X83012351Y-72934639D01*
X83005000Y-72935000D01*
X82855000Y-72935000D01*
X82847649Y-72934639D01*
X82840368Y-72933559D01*
X82833229Y-72931771D01*
X82826299Y-72929291D01*
X82819645Y-72926144D01*
X82813332Y-72922360D01*
X82807421Y-72917976D01*
X82801967Y-72913033D01*
X82797024Y-72907579D01*
X82792640Y-72901668D01*
X82788856Y-72895355D01*
X82785709Y-72888701D01*
X82783229Y-72881771D01*
X82781441Y-72874632D01*
X82780361Y-72867351D01*
X82780000Y-72860000D01*
X82780000Y-71410000D01*
X82780361Y-71402649D01*
X82781441Y-71395368D01*
X82783229Y-71388229D01*
X82785709Y-71381299D01*
X82788856Y-71374645D01*
X82792640Y-71368332D01*
X82797024Y-71362421D01*
X82801967Y-71356967D01*
X82807421Y-71352024D01*
X82813332Y-71347640D01*
X82819645Y-71343856D01*
X82826299Y-71340709D01*
X82833229Y-71338229D01*
X82840368Y-71336441D01*
X82847649Y-71335361D01*
X82855000Y-71335000D01*
X83005000Y-71335000D01*
X83012351Y-71335361D01*
X83012351Y-71335361D01*
G37*
D25*
X82930000Y-72135000D03*
D23*
G36*
X83512351Y-71335361D02*
X83519632Y-71336441D01*
X83526771Y-71338229D01*
X83533701Y-71340709D01*
X83540355Y-71343856D01*
X83546668Y-71347640D01*
X83552579Y-71352024D01*
X83558033Y-71356967D01*
X83562976Y-71362421D01*
X83567360Y-71368332D01*
X83571144Y-71374645D01*
X83574291Y-71381299D01*
X83576771Y-71388229D01*
X83578559Y-71395368D01*
X83579639Y-71402649D01*
X83580000Y-71410000D01*
X83580000Y-72860000D01*
X83579639Y-72867351D01*
X83578559Y-72874632D01*
X83576771Y-72881771D01*
X83574291Y-72888701D01*
X83571144Y-72895355D01*
X83567360Y-72901668D01*
X83562976Y-72907579D01*
X83558033Y-72913033D01*
X83552579Y-72917976D01*
X83546668Y-72922360D01*
X83540355Y-72926144D01*
X83533701Y-72929291D01*
X83526771Y-72931771D01*
X83519632Y-72933559D01*
X83512351Y-72934639D01*
X83505000Y-72935000D01*
X83355000Y-72935000D01*
X83347649Y-72934639D01*
X83340368Y-72933559D01*
X83333229Y-72931771D01*
X83326299Y-72929291D01*
X83319645Y-72926144D01*
X83313332Y-72922360D01*
X83307421Y-72917976D01*
X83301967Y-72913033D01*
X83297024Y-72907579D01*
X83292640Y-72901668D01*
X83288856Y-72895355D01*
X83285709Y-72888701D01*
X83283229Y-72881771D01*
X83281441Y-72874632D01*
X83280361Y-72867351D01*
X83280000Y-72860000D01*
X83280000Y-71410000D01*
X83280361Y-71402649D01*
X83281441Y-71395368D01*
X83283229Y-71388229D01*
X83285709Y-71381299D01*
X83288856Y-71374645D01*
X83292640Y-71368332D01*
X83297024Y-71362421D01*
X83301967Y-71356967D01*
X83307421Y-71352024D01*
X83313332Y-71347640D01*
X83319645Y-71343856D01*
X83326299Y-71340709D01*
X83333229Y-71338229D01*
X83340368Y-71336441D01*
X83347649Y-71335361D01*
X83355000Y-71335000D01*
X83505000Y-71335000D01*
X83512351Y-71335361D01*
X83512351Y-71335361D01*
G37*
D25*
X83430000Y-72135000D03*
D23*
G36*
X84012351Y-71335361D02*
X84019632Y-71336441D01*
X84026771Y-71338229D01*
X84033701Y-71340709D01*
X84040355Y-71343856D01*
X84046668Y-71347640D01*
X84052579Y-71352024D01*
X84058033Y-71356967D01*
X84062976Y-71362421D01*
X84067360Y-71368332D01*
X84071144Y-71374645D01*
X84074291Y-71381299D01*
X84076771Y-71388229D01*
X84078559Y-71395368D01*
X84079639Y-71402649D01*
X84080000Y-71410000D01*
X84080000Y-72860000D01*
X84079639Y-72867351D01*
X84078559Y-72874632D01*
X84076771Y-72881771D01*
X84074291Y-72888701D01*
X84071144Y-72895355D01*
X84067360Y-72901668D01*
X84062976Y-72907579D01*
X84058033Y-72913033D01*
X84052579Y-72917976D01*
X84046668Y-72922360D01*
X84040355Y-72926144D01*
X84033701Y-72929291D01*
X84026771Y-72931771D01*
X84019632Y-72933559D01*
X84012351Y-72934639D01*
X84005000Y-72935000D01*
X83855000Y-72935000D01*
X83847649Y-72934639D01*
X83840368Y-72933559D01*
X83833229Y-72931771D01*
X83826299Y-72929291D01*
X83819645Y-72926144D01*
X83813332Y-72922360D01*
X83807421Y-72917976D01*
X83801967Y-72913033D01*
X83797024Y-72907579D01*
X83792640Y-72901668D01*
X83788856Y-72895355D01*
X83785709Y-72888701D01*
X83783229Y-72881771D01*
X83781441Y-72874632D01*
X83780361Y-72867351D01*
X83780000Y-72860000D01*
X83780000Y-71410000D01*
X83780361Y-71402649D01*
X83781441Y-71395368D01*
X83783229Y-71388229D01*
X83785709Y-71381299D01*
X83788856Y-71374645D01*
X83792640Y-71368332D01*
X83797024Y-71362421D01*
X83801967Y-71356967D01*
X83807421Y-71352024D01*
X83813332Y-71347640D01*
X83819645Y-71343856D01*
X83826299Y-71340709D01*
X83833229Y-71338229D01*
X83840368Y-71336441D01*
X83847649Y-71335361D01*
X83855000Y-71335000D01*
X84005000Y-71335000D01*
X84012351Y-71335361D01*
X84012351Y-71335361D01*
G37*
D25*
X83930000Y-72135000D03*
D23*
G36*
X84512351Y-71335361D02*
X84519632Y-71336441D01*
X84526771Y-71338229D01*
X84533701Y-71340709D01*
X84540355Y-71343856D01*
X84546668Y-71347640D01*
X84552579Y-71352024D01*
X84558033Y-71356967D01*
X84562976Y-71362421D01*
X84567360Y-71368332D01*
X84571144Y-71374645D01*
X84574291Y-71381299D01*
X84576771Y-71388229D01*
X84578559Y-71395368D01*
X84579639Y-71402649D01*
X84580000Y-71410000D01*
X84580000Y-72860000D01*
X84579639Y-72867351D01*
X84578559Y-72874632D01*
X84576771Y-72881771D01*
X84574291Y-72888701D01*
X84571144Y-72895355D01*
X84567360Y-72901668D01*
X84562976Y-72907579D01*
X84558033Y-72913033D01*
X84552579Y-72917976D01*
X84546668Y-72922360D01*
X84540355Y-72926144D01*
X84533701Y-72929291D01*
X84526771Y-72931771D01*
X84519632Y-72933559D01*
X84512351Y-72934639D01*
X84505000Y-72935000D01*
X84355000Y-72935000D01*
X84347649Y-72934639D01*
X84340368Y-72933559D01*
X84333229Y-72931771D01*
X84326299Y-72929291D01*
X84319645Y-72926144D01*
X84313332Y-72922360D01*
X84307421Y-72917976D01*
X84301967Y-72913033D01*
X84297024Y-72907579D01*
X84292640Y-72901668D01*
X84288856Y-72895355D01*
X84285709Y-72888701D01*
X84283229Y-72881771D01*
X84281441Y-72874632D01*
X84280361Y-72867351D01*
X84280000Y-72860000D01*
X84280000Y-71410000D01*
X84280361Y-71402649D01*
X84281441Y-71395368D01*
X84283229Y-71388229D01*
X84285709Y-71381299D01*
X84288856Y-71374645D01*
X84292640Y-71368332D01*
X84297024Y-71362421D01*
X84301967Y-71356967D01*
X84307421Y-71352024D01*
X84313332Y-71347640D01*
X84319645Y-71343856D01*
X84326299Y-71340709D01*
X84333229Y-71338229D01*
X84340368Y-71336441D01*
X84347649Y-71335361D01*
X84355000Y-71335000D01*
X84505000Y-71335000D01*
X84512351Y-71335361D01*
X84512351Y-71335361D01*
G37*
D25*
X84430000Y-72135000D03*
D23*
G36*
X85012351Y-71335361D02*
X85019632Y-71336441D01*
X85026771Y-71338229D01*
X85033701Y-71340709D01*
X85040355Y-71343856D01*
X85046668Y-71347640D01*
X85052579Y-71352024D01*
X85058033Y-71356967D01*
X85062976Y-71362421D01*
X85067360Y-71368332D01*
X85071144Y-71374645D01*
X85074291Y-71381299D01*
X85076771Y-71388229D01*
X85078559Y-71395368D01*
X85079639Y-71402649D01*
X85080000Y-71410000D01*
X85080000Y-72860000D01*
X85079639Y-72867351D01*
X85078559Y-72874632D01*
X85076771Y-72881771D01*
X85074291Y-72888701D01*
X85071144Y-72895355D01*
X85067360Y-72901668D01*
X85062976Y-72907579D01*
X85058033Y-72913033D01*
X85052579Y-72917976D01*
X85046668Y-72922360D01*
X85040355Y-72926144D01*
X85033701Y-72929291D01*
X85026771Y-72931771D01*
X85019632Y-72933559D01*
X85012351Y-72934639D01*
X85005000Y-72935000D01*
X84855000Y-72935000D01*
X84847649Y-72934639D01*
X84840368Y-72933559D01*
X84833229Y-72931771D01*
X84826299Y-72929291D01*
X84819645Y-72926144D01*
X84813332Y-72922360D01*
X84807421Y-72917976D01*
X84801967Y-72913033D01*
X84797024Y-72907579D01*
X84792640Y-72901668D01*
X84788856Y-72895355D01*
X84785709Y-72888701D01*
X84783229Y-72881771D01*
X84781441Y-72874632D01*
X84780361Y-72867351D01*
X84780000Y-72860000D01*
X84780000Y-71410000D01*
X84780361Y-71402649D01*
X84781441Y-71395368D01*
X84783229Y-71388229D01*
X84785709Y-71381299D01*
X84788856Y-71374645D01*
X84792640Y-71368332D01*
X84797024Y-71362421D01*
X84801967Y-71356967D01*
X84807421Y-71352024D01*
X84813332Y-71347640D01*
X84819645Y-71343856D01*
X84826299Y-71340709D01*
X84833229Y-71338229D01*
X84840368Y-71336441D01*
X84847649Y-71335361D01*
X84855000Y-71335000D01*
X85005000Y-71335000D01*
X85012351Y-71335361D01*
X85012351Y-71335361D01*
G37*
D25*
X84930000Y-72135000D03*
D23*
G36*
X85512351Y-71335361D02*
X85519632Y-71336441D01*
X85526771Y-71338229D01*
X85533701Y-71340709D01*
X85540355Y-71343856D01*
X85546668Y-71347640D01*
X85552579Y-71352024D01*
X85558033Y-71356967D01*
X85562976Y-71362421D01*
X85567360Y-71368332D01*
X85571144Y-71374645D01*
X85574291Y-71381299D01*
X85576771Y-71388229D01*
X85578559Y-71395368D01*
X85579639Y-71402649D01*
X85580000Y-71410000D01*
X85580000Y-72860000D01*
X85579639Y-72867351D01*
X85578559Y-72874632D01*
X85576771Y-72881771D01*
X85574291Y-72888701D01*
X85571144Y-72895355D01*
X85567360Y-72901668D01*
X85562976Y-72907579D01*
X85558033Y-72913033D01*
X85552579Y-72917976D01*
X85546668Y-72922360D01*
X85540355Y-72926144D01*
X85533701Y-72929291D01*
X85526771Y-72931771D01*
X85519632Y-72933559D01*
X85512351Y-72934639D01*
X85505000Y-72935000D01*
X85355000Y-72935000D01*
X85347649Y-72934639D01*
X85340368Y-72933559D01*
X85333229Y-72931771D01*
X85326299Y-72929291D01*
X85319645Y-72926144D01*
X85313332Y-72922360D01*
X85307421Y-72917976D01*
X85301967Y-72913033D01*
X85297024Y-72907579D01*
X85292640Y-72901668D01*
X85288856Y-72895355D01*
X85285709Y-72888701D01*
X85283229Y-72881771D01*
X85281441Y-72874632D01*
X85280361Y-72867351D01*
X85280000Y-72860000D01*
X85280000Y-71410000D01*
X85280361Y-71402649D01*
X85281441Y-71395368D01*
X85283229Y-71388229D01*
X85285709Y-71381299D01*
X85288856Y-71374645D01*
X85292640Y-71368332D01*
X85297024Y-71362421D01*
X85301967Y-71356967D01*
X85307421Y-71352024D01*
X85313332Y-71347640D01*
X85319645Y-71343856D01*
X85326299Y-71340709D01*
X85333229Y-71338229D01*
X85340368Y-71336441D01*
X85347649Y-71335361D01*
X85355000Y-71335000D01*
X85505000Y-71335000D01*
X85512351Y-71335361D01*
X85512351Y-71335361D01*
G37*
D25*
X85430000Y-72135000D03*
D23*
G36*
X86012351Y-71335361D02*
X86019632Y-71336441D01*
X86026771Y-71338229D01*
X86033701Y-71340709D01*
X86040355Y-71343856D01*
X86046668Y-71347640D01*
X86052579Y-71352024D01*
X86058033Y-71356967D01*
X86062976Y-71362421D01*
X86067360Y-71368332D01*
X86071144Y-71374645D01*
X86074291Y-71381299D01*
X86076771Y-71388229D01*
X86078559Y-71395368D01*
X86079639Y-71402649D01*
X86080000Y-71410000D01*
X86080000Y-72860000D01*
X86079639Y-72867351D01*
X86078559Y-72874632D01*
X86076771Y-72881771D01*
X86074291Y-72888701D01*
X86071144Y-72895355D01*
X86067360Y-72901668D01*
X86062976Y-72907579D01*
X86058033Y-72913033D01*
X86052579Y-72917976D01*
X86046668Y-72922360D01*
X86040355Y-72926144D01*
X86033701Y-72929291D01*
X86026771Y-72931771D01*
X86019632Y-72933559D01*
X86012351Y-72934639D01*
X86005000Y-72935000D01*
X85855000Y-72935000D01*
X85847649Y-72934639D01*
X85840368Y-72933559D01*
X85833229Y-72931771D01*
X85826299Y-72929291D01*
X85819645Y-72926144D01*
X85813332Y-72922360D01*
X85807421Y-72917976D01*
X85801967Y-72913033D01*
X85797024Y-72907579D01*
X85792640Y-72901668D01*
X85788856Y-72895355D01*
X85785709Y-72888701D01*
X85783229Y-72881771D01*
X85781441Y-72874632D01*
X85780361Y-72867351D01*
X85780000Y-72860000D01*
X85780000Y-71410000D01*
X85780361Y-71402649D01*
X85781441Y-71395368D01*
X85783229Y-71388229D01*
X85785709Y-71381299D01*
X85788856Y-71374645D01*
X85792640Y-71368332D01*
X85797024Y-71362421D01*
X85801967Y-71356967D01*
X85807421Y-71352024D01*
X85813332Y-71347640D01*
X85819645Y-71343856D01*
X85826299Y-71340709D01*
X85833229Y-71338229D01*
X85840368Y-71336441D01*
X85847649Y-71335361D01*
X85855000Y-71335000D01*
X86005000Y-71335000D01*
X86012351Y-71335361D01*
X86012351Y-71335361D01*
G37*
D25*
X85930000Y-72135000D03*
D23*
G36*
X86512351Y-71335361D02*
X86519632Y-71336441D01*
X86526771Y-71338229D01*
X86533701Y-71340709D01*
X86540355Y-71343856D01*
X86546668Y-71347640D01*
X86552579Y-71352024D01*
X86558033Y-71356967D01*
X86562976Y-71362421D01*
X86567360Y-71368332D01*
X86571144Y-71374645D01*
X86574291Y-71381299D01*
X86576771Y-71388229D01*
X86578559Y-71395368D01*
X86579639Y-71402649D01*
X86580000Y-71410000D01*
X86580000Y-72860000D01*
X86579639Y-72867351D01*
X86578559Y-72874632D01*
X86576771Y-72881771D01*
X86574291Y-72888701D01*
X86571144Y-72895355D01*
X86567360Y-72901668D01*
X86562976Y-72907579D01*
X86558033Y-72913033D01*
X86552579Y-72917976D01*
X86546668Y-72922360D01*
X86540355Y-72926144D01*
X86533701Y-72929291D01*
X86526771Y-72931771D01*
X86519632Y-72933559D01*
X86512351Y-72934639D01*
X86505000Y-72935000D01*
X86355000Y-72935000D01*
X86347649Y-72934639D01*
X86340368Y-72933559D01*
X86333229Y-72931771D01*
X86326299Y-72929291D01*
X86319645Y-72926144D01*
X86313332Y-72922360D01*
X86307421Y-72917976D01*
X86301967Y-72913033D01*
X86297024Y-72907579D01*
X86292640Y-72901668D01*
X86288856Y-72895355D01*
X86285709Y-72888701D01*
X86283229Y-72881771D01*
X86281441Y-72874632D01*
X86280361Y-72867351D01*
X86280000Y-72860000D01*
X86280000Y-71410000D01*
X86280361Y-71402649D01*
X86281441Y-71395368D01*
X86283229Y-71388229D01*
X86285709Y-71381299D01*
X86288856Y-71374645D01*
X86292640Y-71368332D01*
X86297024Y-71362421D01*
X86301967Y-71356967D01*
X86307421Y-71352024D01*
X86313332Y-71347640D01*
X86319645Y-71343856D01*
X86326299Y-71340709D01*
X86333229Y-71338229D01*
X86340368Y-71336441D01*
X86347649Y-71335361D01*
X86355000Y-71335000D01*
X86505000Y-71335000D01*
X86512351Y-71335361D01*
X86512351Y-71335361D01*
G37*
D25*
X86430000Y-72135000D03*
D23*
G36*
X87012351Y-71335361D02*
X87019632Y-71336441D01*
X87026771Y-71338229D01*
X87033701Y-71340709D01*
X87040355Y-71343856D01*
X87046668Y-71347640D01*
X87052579Y-71352024D01*
X87058033Y-71356967D01*
X87062976Y-71362421D01*
X87067360Y-71368332D01*
X87071144Y-71374645D01*
X87074291Y-71381299D01*
X87076771Y-71388229D01*
X87078559Y-71395368D01*
X87079639Y-71402649D01*
X87080000Y-71410000D01*
X87080000Y-72860000D01*
X87079639Y-72867351D01*
X87078559Y-72874632D01*
X87076771Y-72881771D01*
X87074291Y-72888701D01*
X87071144Y-72895355D01*
X87067360Y-72901668D01*
X87062976Y-72907579D01*
X87058033Y-72913033D01*
X87052579Y-72917976D01*
X87046668Y-72922360D01*
X87040355Y-72926144D01*
X87033701Y-72929291D01*
X87026771Y-72931771D01*
X87019632Y-72933559D01*
X87012351Y-72934639D01*
X87005000Y-72935000D01*
X86855000Y-72935000D01*
X86847649Y-72934639D01*
X86840368Y-72933559D01*
X86833229Y-72931771D01*
X86826299Y-72929291D01*
X86819645Y-72926144D01*
X86813332Y-72922360D01*
X86807421Y-72917976D01*
X86801967Y-72913033D01*
X86797024Y-72907579D01*
X86792640Y-72901668D01*
X86788856Y-72895355D01*
X86785709Y-72888701D01*
X86783229Y-72881771D01*
X86781441Y-72874632D01*
X86780361Y-72867351D01*
X86780000Y-72860000D01*
X86780000Y-71410000D01*
X86780361Y-71402649D01*
X86781441Y-71395368D01*
X86783229Y-71388229D01*
X86785709Y-71381299D01*
X86788856Y-71374645D01*
X86792640Y-71368332D01*
X86797024Y-71362421D01*
X86801967Y-71356967D01*
X86807421Y-71352024D01*
X86813332Y-71347640D01*
X86819645Y-71343856D01*
X86826299Y-71340709D01*
X86833229Y-71338229D01*
X86840368Y-71336441D01*
X86847649Y-71335361D01*
X86855000Y-71335000D01*
X87005000Y-71335000D01*
X87012351Y-71335361D01*
X87012351Y-71335361D01*
G37*
D25*
X86930000Y-72135000D03*
D23*
G36*
X87512351Y-71335361D02*
X87519632Y-71336441D01*
X87526771Y-71338229D01*
X87533701Y-71340709D01*
X87540355Y-71343856D01*
X87546668Y-71347640D01*
X87552579Y-71352024D01*
X87558033Y-71356967D01*
X87562976Y-71362421D01*
X87567360Y-71368332D01*
X87571144Y-71374645D01*
X87574291Y-71381299D01*
X87576771Y-71388229D01*
X87578559Y-71395368D01*
X87579639Y-71402649D01*
X87580000Y-71410000D01*
X87580000Y-72860000D01*
X87579639Y-72867351D01*
X87578559Y-72874632D01*
X87576771Y-72881771D01*
X87574291Y-72888701D01*
X87571144Y-72895355D01*
X87567360Y-72901668D01*
X87562976Y-72907579D01*
X87558033Y-72913033D01*
X87552579Y-72917976D01*
X87546668Y-72922360D01*
X87540355Y-72926144D01*
X87533701Y-72929291D01*
X87526771Y-72931771D01*
X87519632Y-72933559D01*
X87512351Y-72934639D01*
X87505000Y-72935000D01*
X87355000Y-72935000D01*
X87347649Y-72934639D01*
X87340368Y-72933559D01*
X87333229Y-72931771D01*
X87326299Y-72929291D01*
X87319645Y-72926144D01*
X87313332Y-72922360D01*
X87307421Y-72917976D01*
X87301967Y-72913033D01*
X87297024Y-72907579D01*
X87292640Y-72901668D01*
X87288856Y-72895355D01*
X87285709Y-72888701D01*
X87283229Y-72881771D01*
X87281441Y-72874632D01*
X87280361Y-72867351D01*
X87280000Y-72860000D01*
X87280000Y-71410000D01*
X87280361Y-71402649D01*
X87281441Y-71395368D01*
X87283229Y-71388229D01*
X87285709Y-71381299D01*
X87288856Y-71374645D01*
X87292640Y-71368332D01*
X87297024Y-71362421D01*
X87301967Y-71356967D01*
X87307421Y-71352024D01*
X87313332Y-71347640D01*
X87319645Y-71343856D01*
X87326299Y-71340709D01*
X87333229Y-71338229D01*
X87340368Y-71336441D01*
X87347649Y-71335361D01*
X87355000Y-71335000D01*
X87505000Y-71335000D01*
X87512351Y-71335361D01*
X87512351Y-71335361D01*
G37*
D25*
X87430000Y-72135000D03*
D23*
G36*
X88012351Y-71335361D02*
X88019632Y-71336441D01*
X88026771Y-71338229D01*
X88033701Y-71340709D01*
X88040355Y-71343856D01*
X88046668Y-71347640D01*
X88052579Y-71352024D01*
X88058033Y-71356967D01*
X88062976Y-71362421D01*
X88067360Y-71368332D01*
X88071144Y-71374645D01*
X88074291Y-71381299D01*
X88076771Y-71388229D01*
X88078559Y-71395368D01*
X88079639Y-71402649D01*
X88080000Y-71410000D01*
X88080000Y-72860000D01*
X88079639Y-72867351D01*
X88078559Y-72874632D01*
X88076771Y-72881771D01*
X88074291Y-72888701D01*
X88071144Y-72895355D01*
X88067360Y-72901668D01*
X88062976Y-72907579D01*
X88058033Y-72913033D01*
X88052579Y-72917976D01*
X88046668Y-72922360D01*
X88040355Y-72926144D01*
X88033701Y-72929291D01*
X88026771Y-72931771D01*
X88019632Y-72933559D01*
X88012351Y-72934639D01*
X88005000Y-72935000D01*
X87855000Y-72935000D01*
X87847649Y-72934639D01*
X87840368Y-72933559D01*
X87833229Y-72931771D01*
X87826299Y-72929291D01*
X87819645Y-72926144D01*
X87813332Y-72922360D01*
X87807421Y-72917976D01*
X87801967Y-72913033D01*
X87797024Y-72907579D01*
X87792640Y-72901668D01*
X87788856Y-72895355D01*
X87785709Y-72888701D01*
X87783229Y-72881771D01*
X87781441Y-72874632D01*
X87780361Y-72867351D01*
X87780000Y-72860000D01*
X87780000Y-71410000D01*
X87780361Y-71402649D01*
X87781441Y-71395368D01*
X87783229Y-71388229D01*
X87785709Y-71381299D01*
X87788856Y-71374645D01*
X87792640Y-71368332D01*
X87797024Y-71362421D01*
X87801967Y-71356967D01*
X87807421Y-71352024D01*
X87813332Y-71347640D01*
X87819645Y-71343856D01*
X87826299Y-71340709D01*
X87833229Y-71338229D01*
X87840368Y-71336441D01*
X87847649Y-71335361D01*
X87855000Y-71335000D01*
X88005000Y-71335000D01*
X88012351Y-71335361D01*
X88012351Y-71335361D01*
G37*
D25*
X87930000Y-72135000D03*
D23*
G36*
X88512351Y-71335361D02*
X88519632Y-71336441D01*
X88526771Y-71338229D01*
X88533701Y-71340709D01*
X88540355Y-71343856D01*
X88546668Y-71347640D01*
X88552579Y-71352024D01*
X88558033Y-71356967D01*
X88562976Y-71362421D01*
X88567360Y-71368332D01*
X88571144Y-71374645D01*
X88574291Y-71381299D01*
X88576771Y-71388229D01*
X88578559Y-71395368D01*
X88579639Y-71402649D01*
X88580000Y-71410000D01*
X88580000Y-72860000D01*
X88579639Y-72867351D01*
X88578559Y-72874632D01*
X88576771Y-72881771D01*
X88574291Y-72888701D01*
X88571144Y-72895355D01*
X88567360Y-72901668D01*
X88562976Y-72907579D01*
X88558033Y-72913033D01*
X88552579Y-72917976D01*
X88546668Y-72922360D01*
X88540355Y-72926144D01*
X88533701Y-72929291D01*
X88526771Y-72931771D01*
X88519632Y-72933559D01*
X88512351Y-72934639D01*
X88505000Y-72935000D01*
X88355000Y-72935000D01*
X88347649Y-72934639D01*
X88340368Y-72933559D01*
X88333229Y-72931771D01*
X88326299Y-72929291D01*
X88319645Y-72926144D01*
X88313332Y-72922360D01*
X88307421Y-72917976D01*
X88301967Y-72913033D01*
X88297024Y-72907579D01*
X88292640Y-72901668D01*
X88288856Y-72895355D01*
X88285709Y-72888701D01*
X88283229Y-72881771D01*
X88281441Y-72874632D01*
X88280361Y-72867351D01*
X88280000Y-72860000D01*
X88280000Y-71410000D01*
X88280361Y-71402649D01*
X88281441Y-71395368D01*
X88283229Y-71388229D01*
X88285709Y-71381299D01*
X88288856Y-71374645D01*
X88292640Y-71368332D01*
X88297024Y-71362421D01*
X88301967Y-71356967D01*
X88307421Y-71352024D01*
X88313332Y-71347640D01*
X88319645Y-71343856D01*
X88326299Y-71340709D01*
X88333229Y-71338229D01*
X88340368Y-71336441D01*
X88347649Y-71335361D01*
X88355000Y-71335000D01*
X88505000Y-71335000D01*
X88512351Y-71335361D01*
X88512351Y-71335361D01*
G37*
D25*
X88430000Y-72135000D03*
D23*
G36*
X89012351Y-71335361D02*
X89019632Y-71336441D01*
X89026771Y-71338229D01*
X89033701Y-71340709D01*
X89040355Y-71343856D01*
X89046668Y-71347640D01*
X89052579Y-71352024D01*
X89058033Y-71356967D01*
X89062976Y-71362421D01*
X89067360Y-71368332D01*
X89071144Y-71374645D01*
X89074291Y-71381299D01*
X89076771Y-71388229D01*
X89078559Y-71395368D01*
X89079639Y-71402649D01*
X89080000Y-71410000D01*
X89080000Y-72860000D01*
X89079639Y-72867351D01*
X89078559Y-72874632D01*
X89076771Y-72881771D01*
X89074291Y-72888701D01*
X89071144Y-72895355D01*
X89067360Y-72901668D01*
X89062976Y-72907579D01*
X89058033Y-72913033D01*
X89052579Y-72917976D01*
X89046668Y-72922360D01*
X89040355Y-72926144D01*
X89033701Y-72929291D01*
X89026771Y-72931771D01*
X89019632Y-72933559D01*
X89012351Y-72934639D01*
X89005000Y-72935000D01*
X88855000Y-72935000D01*
X88847649Y-72934639D01*
X88840368Y-72933559D01*
X88833229Y-72931771D01*
X88826299Y-72929291D01*
X88819645Y-72926144D01*
X88813332Y-72922360D01*
X88807421Y-72917976D01*
X88801967Y-72913033D01*
X88797024Y-72907579D01*
X88792640Y-72901668D01*
X88788856Y-72895355D01*
X88785709Y-72888701D01*
X88783229Y-72881771D01*
X88781441Y-72874632D01*
X88780361Y-72867351D01*
X88780000Y-72860000D01*
X88780000Y-71410000D01*
X88780361Y-71402649D01*
X88781441Y-71395368D01*
X88783229Y-71388229D01*
X88785709Y-71381299D01*
X88788856Y-71374645D01*
X88792640Y-71368332D01*
X88797024Y-71362421D01*
X88801967Y-71356967D01*
X88807421Y-71352024D01*
X88813332Y-71347640D01*
X88819645Y-71343856D01*
X88826299Y-71340709D01*
X88833229Y-71338229D01*
X88840368Y-71336441D01*
X88847649Y-71335361D01*
X88855000Y-71335000D01*
X89005000Y-71335000D01*
X89012351Y-71335361D01*
X89012351Y-71335361D01*
G37*
D25*
X88930000Y-72135000D03*
D23*
G36*
X89512351Y-71335361D02*
X89519632Y-71336441D01*
X89526771Y-71338229D01*
X89533701Y-71340709D01*
X89540355Y-71343856D01*
X89546668Y-71347640D01*
X89552579Y-71352024D01*
X89558033Y-71356967D01*
X89562976Y-71362421D01*
X89567360Y-71368332D01*
X89571144Y-71374645D01*
X89574291Y-71381299D01*
X89576771Y-71388229D01*
X89578559Y-71395368D01*
X89579639Y-71402649D01*
X89580000Y-71410000D01*
X89580000Y-72860000D01*
X89579639Y-72867351D01*
X89578559Y-72874632D01*
X89576771Y-72881771D01*
X89574291Y-72888701D01*
X89571144Y-72895355D01*
X89567360Y-72901668D01*
X89562976Y-72907579D01*
X89558033Y-72913033D01*
X89552579Y-72917976D01*
X89546668Y-72922360D01*
X89540355Y-72926144D01*
X89533701Y-72929291D01*
X89526771Y-72931771D01*
X89519632Y-72933559D01*
X89512351Y-72934639D01*
X89505000Y-72935000D01*
X89355000Y-72935000D01*
X89347649Y-72934639D01*
X89340368Y-72933559D01*
X89333229Y-72931771D01*
X89326299Y-72929291D01*
X89319645Y-72926144D01*
X89313332Y-72922360D01*
X89307421Y-72917976D01*
X89301967Y-72913033D01*
X89297024Y-72907579D01*
X89292640Y-72901668D01*
X89288856Y-72895355D01*
X89285709Y-72888701D01*
X89283229Y-72881771D01*
X89281441Y-72874632D01*
X89280361Y-72867351D01*
X89280000Y-72860000D01*
X89280000Y-71410000D01*
X89280361Y-71402649D01*
X89281441Y-71395368D01*
X89283229Y-71388229D01*
X89285709Y-71381299D01*
X89288856Y-71374645D01*
X89292640Y-71368332D01*
X89297024Y-71362421D01*
X89301967Y-71356967D01*
X89307421Y-71352024D01*
X89313332Y-71347640D01*
X89319645Y-71343856D01*
X89326299Y-71340709D01*
X89333229Y-71338229D01*
X89340368Y-71336441D01*
X89347649Y-71335361D01*
X89355000Y-71335000D01*
X89505000Y-71335000D01*
X89512351Y-71335361D01*
X89512351Y-71335361D01*
G37*
D25*
X89430000Y-72135000D03*
D23*
G36*
X90012351Y-71335361D02*
X90019632Y-71336441D01*
X90026771Y-71338229D01*
X90033701Y-71340709D01*
X90040355Y-71343856D01*
X90046668Y-71347640D01*
X90052579Y-71352024D01*
X90058033Y-71356967D01*
X90062976Y-71362421D01*
X90067360Y-71368332D01*
X90071144Y-71374645D01*
X90074291Y-71381299D01*
X90076771Y-71388229D01*
X90078559Y-71395368D01*
X90079639Y-71402649D01*
X90080000Y-71410000D01*
X90080000Y-72860000D01*
X90079639Y-72867351D01*
X90078559Y-72874632D01*
X90076771Y-72881771D01*
X90074291Y-72888701D01*
X90071144Y-72895355D01*
X90067360Y-72901668D01*
X90062976Y-72907579D01*
X90058033Y-72913033D01*
X90052579Y-72917976D01*
X90046668Y-72922360D01*
X90040355Y-72926144D01*
X90033701Y-72929291D01*
X90026771Y-72931771D01*
X90019632Y-72933559D01*
X90012351Y-72934639D01*
X90005000Y-72935000D01*
X89855000Y-72935000D01*
X89847649Y-72934639D01*
X89840368Y-72933559D01*
X89833229Y-72931771D01*
X89826299Y-72929291D01*
X89819645Y-72926144D01*
X89813332Y-72922360D01*
X89807421Y-72917976D01*
X89801967Y-72913033D01*
X89797024Y-72907579D01*
X89792640Y-72901668D01*
X89788856Y-72895355D01*
X89785709Y-72888701D01*
X89783229Y-72881771D01*
X89781441Y-72874632D01*
X89780361Y-72867351D01*
X89780000Y-72860000D01*
X89780000Y-71410000D01*
X89780361Y-71402649D01*
X89781441Y-71395368D01*
X89783229Y-71388229D01*
X89785709Y-71381299D01*
X89788856Y-71374645D01*
X89792640Y-71368332D01*
X89797024Y-71362421D01*
X89801967Y-71356967D01*
X89807421Y-71352024D01*
X89813332Y-71347640D01*
X89819645Y-71343856D01*
X89826299Y-71340709D01*
X89833229Y-71338229D01*
X89840368Y-71336441D01*
X89847649Y-71335361D01*
X89855000Y-71335000D01*
X90005000Y-71335000D01*
X90012351Y-71335361D01*
X90012351Y-71335361D01*
G37*
D25*
X89930000Y-72135000D03*
D23*
G36*
X90512351Y-71335361D02*
X90519632Y-71336441D01*
X90526771Y-71338229D01*
X90533701Y-71340709D01*
X90540355Y-71343856D01*
X90546668Y-71347640D01*
X90552579Y-71352024D01*
X90558033Y-71356967D01*
X90562976Y-71362421D01*
X90567360Y-71368332D01*
X90571144Y-71374645D01*
X90574291Y-71381299D01*
X90576771Y-71388229D01*
X90578559Y-71395368D01*
X90579639Y-71402649D01*
X90580000Y-71410000D01*
X90580000Y-72860000D01*
X90579639Y-72867351D01*
X90578559Y-72874632D01*
X90576771Y-72881771D01*
X90574291Y-72888701D01*
X90571144Y-72895355D01*
X90567360Y-72901668D01*
X90562976Y-72907579D01*
X90558033Y-72913033D01*
X90552579Y-72917976D01*
X90546668Y-72922360D01*
X90540355Y-72926144D01*
X90533701Y-72929291D01*
X90526771Y-72931771D01*
X90519632Y-72933559D01*
X90512351Y-72934639D01*
X90505000Y-72935000D01*
X90355000Y-72935000D01*
X90347649Y-72934639D01*
X90340368Y-72933559D01*
X90333229Y-72931771D01*
X90326299Y-72929291D01*
X90319645Y-72926144D01*
X90313332Y-72922360D01*
X90307421Y-72917976D01*
X90301967Y-72913033D01*
X90297024Y-72907579D01*
X90292640Y-72901668D01*
X90288856Y-72895355D01*
X90285709Y-72888701D01*
X90283229Y-72881771D01*
X90281441Y-72874632D01*
X90280361Y-72867351D01*
X90280000Y-72860000D01*
X90280000Y-71410000D01*
X90280361Y-71402649D01*
X90281441Y-71395368D01*
X90283229Y-71388229D01*
X90285709Y-71381299D01*
X90288856Y-71374645D01*
X90292640Y-71368332D01*
X90297024Y-71362421D01*
X90301967Y-71356967D01*
X90307421Y-71352024D01*
X90313332Y-71347640D01*
X90319645Y-71343856D01*
X90326299Y-71340709D01*
X90333229Y-71338229D01*
X90340368Y-71336441D01*
X90347649Y-71335361D01*
X90355000Y-71335000D01*
X90505000Y-71335000D01*
X90512351Y-71335361D01*
X90512351Y-71335361D01*
G37*
D25*
X90430000Y-72135000D03*
D23*
G36*
X91012351Y-71335361D02*
X91019632Y-71336441D01*
X91026771Y-71338229D01*
X91033701Y-71340709D01*
X91040355Y-71343856D01*
X91046668Y-71347640D01*
X91052579Y-71352024D01*
X91058033Y-71356967D01*
X91062976Y-71362421D01*
X91067360Y-71368332D01*
X91071144Y-71374645D01*
X91074291Y-71381299D01*
X91076771Y-71388229D01*
X91078559Y-71395368D01*
X91079639Y-71402649D01*
X91080000Y-71410000D01*
X91080000Y-72860000D01*
X91079639Y-72867351D01*
X91078559Y-72874632D01*
X91076771Y-72881771D01*
X91074291Y-72888701D01*
X91071144Y-72895355D01*
X91067360Y-72901668D01*
X91062976Y-72907579D01*
X91058033Y-72913033D01*
X91052579Y-72917976D01*
X91046668Y-72922360D01*
X91040355Y-72926144D01*
X91033701Y-72929291D01*
X91026771Y-72931771D01*
X91019632Y-72933559D01*
X91012351Y-72934639D01*
X91005000Y-72935000D01*
X90855000Y-72935000D01*
X90847649Y-72934639D01*
X90840368Y-72933559D01*
X90833229Y-72931771D01*
X90826299Y-72929291D01*
X90819645Y-72926144D01*
X90813332Y-72922360D01*
X90807421Y-72917976D01*
X90801967Y-72913033D01*
X90797024Y-72907579D01*
X90792640Y-72901668D01*
X90788856Y-72895355D01*
X90785709Y-72888701D01*
X90783229Y-72881771D01*
X90781441Y-72874632D01*
X90780361Y-72867351D01*
X90780000Y-72860000D01*
X90780000Y-71410000D01*
X90780361Y-71402649D01*
X90781441Y-71395368D01*
X90783229Y-71388229D01*
X90785709Y-71381299D01*
X90788856Y-71374645D01*
X90792640Y-71368332D01*
X90797024Y-71362421D01*
X90801967Y-71356967D01*
X90807421Y-71352024D01*
X90813332Y-71347640D01*
X90819645Y-71343856D01*
X90826299Y-71340709D01*
X90833229Y-71338229D01*
X90840368Y-71336441D01*
X90847649Y-71335361D01*
X90855000Y-71335000D01*
X91005000Y-71335000D01*
X91012351Y-71335361D01*
X91012351Y-71335361D01*
G37*
D25*
X90930000Y-72135000D03*
D23*
G36*
X91512351Y-71335361D02*
X91519632Y-71336441D01*
X91526771Y-71338229D01*
X91533701Y-71340709D01*
X91540355Y-71343856D01*
X91546668Y-71347640D01*
X91552579Y-71352024D01*
X91558033Y-71356967D01*
X91562976Y-71362421D01*
X91567360Y-71368332D01*
X91571144Y-71374645D01*
X91574291Y-71381299D01*
X91576771Y-71388229D01*
X91578559Y-71395368D01*
X91579639Y-71402649D01*
X91580000Y-71410000D01*
X91580000Y-72860000D01*
X91579639Y-72867351D01*
X91578559Y-72874632D01*
X91576771Y-72881771D01*
X91574291Y-72888701D01*
X91571144Y-72895355D01*
X91567360Y-72901668D01*
X91562976Y-72907579D01*
X91558033Y-72913033D01*
X91552579Y-72917976D01*
X91546668Y-72922360D01*
X91540355Y-72926144D01*
X91533701Y-72929291D01*
X91526771Y-72931771D01*
X91519632Y-72933559D01*
X91512351Y-72934639D01*
X91505000Y-72935000D01*
X91355000Y-72935000D01*
X91347649Y-72934639D01*
X91340368Y-72933559D01*
X91333229Y-72931771D01*
X91326299Y-72929291D01*
X91319645Y-72926144D01*
X91313332Y-72922360D01*
X91307421Y-72917976D01*
X91301967Y-72913033D01*
X91297024Y-72907579D01*
X91292640Y-72901668D01*
X91288856Y-72895355D01*
X91285709Y-72888701D01*
X91283229Y-72881771D01*
X91281441Y-72874632D01*
X91280361Y-72867351D01*
X91280000Y-72860000D01*
X91280000Y-71410000D01*
X91280361Y-71402649D01*
X91281441Y-71395368D01*
X91283229Y-71388229D01*
X91285709Y-71381299D01*
X91288856Y-71374645D01*
X91292640Y-71368332D01*
X91297024Y-71362421D01*
X91301967Y-71356967D01*
X91307421Y-71352024D01*
X91313332Y-71347640D01*
X91319645Y-71343856D01*
X91326299Y-71340709D01*
X91333229Y-71338229D01*
X91340368Y-71336441D01*
X91347649Y-71335361D01*
X91355000Y-71335000D01*
X91505000Y-71335000D01*
X91512351Y-71335361D01*
X91512351Y-71335361D01*
G37*
D25*
X91430000Y-72135000D03*
D23*
G36*
X93837351Y-70310361D02*
X93844632Y-70311441D01*
X93851771Y-70313229D01*
X93858701Y-70315709D01*
X93865355Y-70318856D01*
X93871668Y-70322640D01*
X93877579Y-70327024D01*
X93883033Y-70331967D01*
X93887976Y-70337421D01*
X93892360Y-70343332D01*
X93896144Y-70349645D01*
X93899291Y-70356299D01*
X93901771Y-70363229D01*
X93903559Y-70370368D01*
X93904639Y-70377649D01*
X93905000Y-70385000D01*
X93905000Y-70535000D01*
X93904639Y-70542351D01*
X93903559Y-70549632D01*
X93901771Y-70556771D01*
X93899291Y-70563701D01*
X93896144Y-70570355D01*
X93892360Y-70576668D01*
X93887976Y-70582579D01*
X93883033Y-70588033D01*
X93877579Y-70592976D01*
X93871668Y-70597360D01*
X93865355Y-70601144D01*
X93858701Y-70604291D01*
X93851771Y-70606771D01*
X93844632Y-70608559D01*
X93837351Y-70609639D01*
X93830000Y-70610000D01*
X92380000Y-70610000D01*
X92372649Y-70609639D01*
X92365368Y-70608559D01*
X92358229Y-70606771D01*
X92351299Y-70604291D01*
X92344645Y-70601144D01*
X92338332Y-70597360D01*
X92332421Y-70592976D01*
X92326967Y-70588033D01*
X92322024Y-70582579D01*
X92317640Y-70576668D01*
X92313856Y-70570355D01*
X92310709Y-70563701D01*
X92308229Y-70556771D01*
X92306441Y-70549632D01*
X92305361Y-70542351D01*
X92305000Y-70535000D01*
X92305000Y-70385000D01*
X92305361Y-70377649D01*
X92306441Y-70370368D01*
X92308229Y-70363229D01*
X92310709Y-70356299D01*
X92313856Y-70349645D01*
X92317640Y-70343332D01*
X92322024Y-70337421D01*
X92326967Y-70331967D01*
X92332421Y-70327024D01*
X92338332Y-70322640D01*
X92344645Y-70318856D01*
X92351299Y-70315709D01*
X92358229Y-70313229D01*
X92365368Y-70311441D01*
X92372649Y-70310361D01*
X92380000Y-70310000D01*
X93830000Y-70310000D01*
X93837351Y-70310361D01*
X93837351Y-70310361D01*
G37*
D25*
X93105000Y-70460000D03*
D23*
G36*
X93837351Y-69810361D02*
X93844632Y-69811441D01*
X93851771Y-69813229D01*
X93858701Y-69815709D01*
X93865355Y-69818856D01*
X93871668Y-69822640D01*
X93877579Y-69827024D01*
X93883033Y-69831967D01*
X93887976Y-69837421D01*
X93892360Y-69843332D01*
X93896144Y-69849645D01*
X93899291Y-69856299D01*
X93901771Y-69863229D01*
X93903559Y-69870368D01*
X93904639Y-69877649D01*
X93905000Y-69885000D01*
X93905000Y-70035000D01*
X93904639Y-70042351D01*
X93903559Y-70049632D01*
X93901771Y-70056771D01*
X93899291Y-70063701D01*
X93896144Y-70070355D01*
X93892360Y-70076668D01*
X93887976Y-70082579D01*
X93883033Y-70088033D01*
X93877579Y-70092976D01*
X93871668Y-70097360D01*
X93865355Y-70101144D01*
X93858701Y-70104291D01*
X93851771Y-70106771D01*
X93844632Y-70108559D01*
X93837351Y-70109639D01*
X93830000Y-70110000D01*
X92380000Y-70110000D01*
X92372649Y-70109639D01*
X92365368Y-70108559D01*
X92358229Y-70106771D01*
X92351299Y-70104291D01*
X92344645Y-70101144D01*
X92338332Y-70097360D01*
X92332421Y-70092976D01*
X92326967Y-70088033D01*
X92322024Y-70082579D01*
X92317640Y-70076668D01*
X92313856Y-70070355D01*
X92310709Y-70063701D01*
X92308229Y-70056771D01*
X92306441Y-70049632D01*
X92305361Y-70042351D01*
X92305000Y-70035000D01*
X92305000Y-69885000D01*
X92305361Y-69877649D01*
X92306441Y-69870368D01*
X92308229Y-69863229D01*
X92310709Y-69856299D01*
X92313856Y-69849645D01*
X92317640Y-69843332D01*
X92322024Y-69837421D01*
X92326967Y-69831967D01*
X92332421Y-69827024D01*
X92338332Y-69822640D01*
X92344645Y-69818856D01*
X92351299Y-69815709D01*
X92358229Y-69813229D01*
X92365368Y-69811441D01*
X92372649Y-69810361D01*
X92380000Y-69810000D01*
X93830000Y-69810000D01*
X93837351Y-69810361D01*
X93837351Y-69810361D01*
G37*
D25*
X93105000Y-69960000D03*
D23*
G36*
X93837351Y-69310361D02*
X93844632Y-69311441D01*
X93851771Y-69313229D01*
X93858701Y-69315709D01*
X93865355Y-69318856D01*
X93871668Y-69322640D01*
X93877579Y-69327024D01*
X93883033Y-69331967D01*
X93887976Y-69337421D01*
X93892360Y-69343332D01*
X93896144Y-69349645D01*
X93899291Y-69356299D01*
X93901771Y-69363229D01*
X93903559Y-69370368D01*
X93904639Y-69377649D01*
X93905000Y-69385000D01*
X93905000Y-69535000D01*
X93904639Y-69542351D01*
X93903559Y-69549632D01*
X93901771Y-69556771D01*
X93899291Y-69563701D01*
X93896144Y-69570355D01*
X93892360Y-69576668D01*
X93887976Y-69582579D01*
X93883033Y-69588033D01*
X93877579Y-69592976D01*
X93871668Y-69597360D01*
X93865355Y-69601144D01*
X93858701Y-69604291D01*
X93851771Y-69606771D01*
X93844632Y-69608559D01*
X93837351Y-69609639D01*
X93830000Y-69610000D01*
X92380000Y-69610000D01*
X92372649Y-69609639D01*
X92365368Y-69608559D01*
X92358229Y-69606771D01*
X92351299Y-69604291D01*
X92344645Y-69601144D01*
X92338332Y-69597360D01*
X92332421Y-69592976D01*
X92326967Y-69588033D01*
X92322024Y-69582579D01*
X92317640Y-69576668D01*
X92313856Y-69570355D01*
X92310709Y-69563701D01*
X92308229Y-69556771D01*
X92306441Y-69549632D01*
X92305361Y-69542351D01*
X92305000Y-69535000D01*
X92305000Y-69385000D01*
X92305361Y-69377649D01*
X92306441Y-69370368D01*
X92308229Y-69363229D01*
X92310709Y-69356299D01*
X92313856Y-69349645D01*
X92317640Y-69343332D01*
X92322024Y-69337421D01*
X92326967Y-69331967D01*
X92332421Y-69327024D01*
X92338332Y-69322640D01*
X92344645Y-69318856D01*
X92351299Y-69315709D01*
X92358229Y-69313229D01*
X92365368Y-69311441D01*
X92372649Y-69310361D01*
X92380000Y-69310000D01*
X93830000Y-69310000D01*
X93837351Y-69310361D01*
X93837351Y-69310361D01*
G37*
D25*
X93105000Y-69460000D03*
D23*
G36*
X93837351Y-68810361D02*
X93844632Y-68811441D01*
X93851771Y-68813229D01*
X93858701Y-68815709D01*
X93865355Y-68818856D01*
X93871668Y-68822640D01*
X93877579Y-68827024D01*
X93883033Y-68831967D01*
X93887976Y-68837421D01*
X93892360Y-68843332D01*
X93896144Y-68849645D01*
X93899291Y-68856299D01*
X93901771Y-68863229D01*
X93903559Y-68870368D01*
X93904639Y-68877649D01*
X93905000Y-68885000D01*
X93905000Y-69035000D01*
X93904639Y-69042351D01*
X93903559Y-69049632D01*
X93901771Y-69056771D01*
X93899291Y-69063701D01*
X93896144Y-69070355D01*
X93892360Y-69076668D01*
X93887976Y-69082579D01*
X93883033Y-69088033D01*
X93877579Y-69092976D01*
X93871668Y-69097360D01*
X93865355Y-69101144D01*
X93858701Y-69104291D01*
X93851771Y-69106771D01*
X93844632Y-69108559D01*
X93837351Y-69109639D01*
X93830000Y-69110000D01*
X92380000Y-69110000D01*
X92372649Y-69109639D01*
X92365368Y-69108559D01*
X92358229Y-69106771D01*
X92351299Y-69104291D01*
X92344645Y-69101144D01*
X92338332Y-69097360D01*
X92332421Y-69092976D01*
X92326967Y-69088033D01*
X92322024Y-69082579D01*
X92317640Y-69076668D01*
X92313856Y-69070355D01*
X92310709Y-69063701D01*
X92308229Y-69056771D01*
X92306441Y-69049632D01*
X92305361Y-69042351D01*
X92305000Y-69035000D01*
X92305000Y-68885000D01*
X92305361Y-68877649D01*
X92306441Y-68870368D01*
X92308229Y-68863229D01*
X92310709Y-68856299D01*
X92313856Y-68849645D01*
X92317640Y-68843332D01*
X92322024Y-68837421D01*
X92326967Y-68831967D01*
X92332421Y-68827024D01*
X92338332Y-68822640D01*
X92344645Y-68818856D01*
X92351299Y-68815709D01*
X92358229Y-68813229D01*
X92365368Y-68811441D01*
X92372649Y-68810361D01*
X92380000Y-68810000D01*
X93830000Y-68810000D01*
X93837351Y-68810361D01*
X93837351Y-68810361D01*
G37*
D25*
X93105000Y-68960000D03*
D23*
G36*
X93837351Y-68310361D02*
X93844632Y-68311441D01*
X93851771Y-68313229D01*
X93858701Y-68315709D01*
X93865355Y-68318856D01*
X93871668Y-68322640D01*
X93877579Y-68327024D01*
X93883033Y-68331967D01*
X93887976Y-68337421D01*
X93892360Y-68343332D01*
X93896144Y-68349645D01*
X93899291Y-68356299D01*
X93901771Y-68363229D01*
X93903559Y-68370368D01*
X93904639Y-68377649D01*
X93905000Y-68385000D01*
X93905000Y-68535000D01*
X93904639Y-68542351D01*
X93903559Y-68549632D01*
X93901771Y-68556771D01*
X93899291Y-68563701D01*
X93896144Y-68570355D01*
X93892360Y-68576668D01*
X93887976Y-68582579D01*
X93883033Y-68588033D01*
X93877579Y-68592976D01*
X93871668Y-68597360D01*
X93865355Y-68601144D01*
X93858701Y-68604291D01*
X93851771Y-68606771D01*
X93844632Y-68608559D01*
X93837351Y-68609639D01*
X93830000Y-68610000D01*
X92380000Y-68610000D01*
X92372649Y-68609639D01*
X92365368Y-68608559D01*
X92358229Y-68606771D01*
X92351299Y-68604291D01*
X92344645Y-68601144D01*
X92338332Y-68597360D01*
X92332421Y-68592976D01*
X92326967Y-68588033D01*
X92322024Y-68582579D01*
X92317640Y-68576668D01*
X92313856Y-68570355D01*
X92310709Y-68563701D01*
X92308229Y-68556771D01*
X92306441Y-68549632D01*
X92305361Y-68542351D01*
X92305000Y-68535000D01*
X92305000Y-68385000D01*
X92305361Y-68377649D01*
X92306441Y-68370368D01*
X92308229Y-68363229D01*
X92310709Y-68356299D01*
X92313856Y-68349645D01*
X92317640Y-68343332D01*
X92322024Y-68337421D01*
X92326967Y-68331967D01*
X92332421Y-68327024D01*
X92338332Y-68322640D01*
X92344645Y-68318856D01*
X92351299Y-68315709D01*
X92358229Y-68313229D01*
X92365368Y-68311441D01*
X92372649Y-68310361D01*
X92380000Y-68310000D01*
X93830000Y-68310000D01*
X93837351Y-68310361D01*
X93837351Y-68310361D01*
G37*
D25*
X93105000Y-68460000D03*
D23*
G36*
X93837351Y-67810361D02*
X93844632Y-67811441D01*
X93851771Y-67813229D01*
X93858701Y-67815709D01*
X93865355Y-67818856D01*
X93871668Y-67822640D01*
X93877579Y-67827024D01*
X93883033Y-67831967D01*
X93887976Y-67837421D01*
X93892360Y-67843332D01*
X93896144Y-67849645D01*
X93899291Y-67856299D01*
X93901771Y-67863229D01*
X93903559Y-67870368D01*
X93904639Y-67877649D01*
X93905000Y-67885000D01*
X93905000Y-68035000D01*
X93904639Y-68042351D01*
X93903559Y-68049632D01*
X93901771Y-68056771D01*
X93899291Y-68063701D01*
X93896144Y-68070355D01*
X93892360Y-68076668D01*
X93887976Y-68082579D01*
X93883033Y-68088033D01*
X93877579Y-68092976D01*
X93871668Y-68097360D01*
X93865355Y-68101144D01*
X93858701Y-68104291D01*
X93851771Y-68106771D01*
X93844632Y-68108559D01*
X93837351Y-68109639D01*
X93830000Y-68110000D01*
X92380000Y-68110000D01*
X92372649Y-68109639D01*
X92365368Y-68108559D01*
X92358229Y-68106771D01*
X92351299Y-68104291D01*
X92344645Y-68101144D01*
X92338332Y-68097360D01*
X92332421Y-68092976D01*
X92326967Y-68088033D01*
X92322024Y-68082579D01*
X92317640Y-68076668D01*
X92313856Y-68070355D01*
X92310709Y-68063701D01*
X92308229Y-68056771D01*
X92306441Y-68049632D01*
X92305361Y-68042351D01*
X92305000Y-68035000D01*
X92305000Y-67885000D01*
X92305361Y-67877649D01*
X92306441Y-67870368D01*
X92308229Y-67863229D01*
X92310709Y-67856299D01*
X92313856Y-67849645D01*
X92317640Y-67843332D01*
X92322024Y-67837421D01*
X92326967Y-67831967D01*
X92332421Y-67827024D01*
X92338332Y-67822640D01*
X92344645Y-67818856D01*
X92351299Y-67815709D01*
X92358229Y-67813229D01*
X92365368Y-67811441D01*
X92372649Y-67810361D01*
X92380000Y-67810000D01*
X93830000Y-67810000D01*
X93837351Y-67810361D01*
X93837351Y-67810361D01*
G37*
D25*
X93105000Y-67960000D03*
D23*
G36*
X93837351Y-67310361D02*
X93844632Y-67311441D01*
X93851771Y-67313229D01*
X93858701Y-67315709D01*
X93865355Y-67318856D01*
X93871668Y-67322640D01*
X93877579Y-67327024D01*
X93883033Y-67331967D01*
X93887976Y-67337421D01*
X93892360Y-67343332D01*
X93896144Y-67349645D01*
X93899291Y-67356299D01*
X93901771Y-67363229D01*
X93903559Y-67370368D01*
X93904639Y-67377649D01*
X93905000Y-67385000D01*
X93905000Y-67535000D01*
X93904639Y-67542351D01*
X93903559Y-67549632D01*
X93901771Y-67556771D01*
X93899291Y-67563701D01*
X93896144Y-67570355D01*
X93892360Y-67576668D01*
X93887976Y-67582579D01*
X93883033Y-67588033D01*
X93877579Y-67592976D01*
X93871668Y-67597360D01*
X93865355Y-67601144D01*
X93858701Y-67604291D01*
X93851771Y-67606771D01*
X93844632Y-67608559D01*
X93837351Y-67609639D01*
X93830000Y-67610000D01*
X92380000Y-67610000D01*
X92372649Y-67609639D01*
X92365368Y-67608559D01*
X92358229Y-67606771D01*
X92351299Y-67604291D01*
X92344645Y-67601144D01*
X92338332Y-67597360D01*
X92332421Y-67592976D01*
X92326967Y-67588033D01*
X92322024Y-67582579D01*
X92317640Y-67576668D01*
X92313856Y-67570355D01*
X92310709Y-67563701D01*
X92308229Y-67556771D01*
X92306441Y-67549632D01*
X92305361Y-67542351D01*
X92305000Y-67535000D01*
X92305000Y-67385000D01*
X92305361Y-67377649D01*
X92306441Y-67370368D01*
X92308229Y-67363229D01*
X92310709Y-67356299D01*
X92313856Y-67349645D01*
X92317640Y-67343332D01*
X92322024Y-67337421D01*
X92326967Y-67331967D01*
X92332421Y-67327024D01*
X92338332Y-67322640D01*
X92344645Y-67318856D01*
X92351299Y-67315709D01*
X92358229Y-67313229D01*
X92365368Y-67311441D01*
X92372649Y-67310361D01*
X92380000Y-67310000D01*
X93830000Y-67310000D01*
X93837351Y-67310361D01*
X93837351Y-67310361D01*
G37*
D25*
X93105000Y-67460000D03*
D23*
G36*
X93837351Y-66810361D02*
X93844632Y-66811441D01*
X93851771Y-66813229D01*
X93858701Y-66815709D01*
X93865355Y-66818856D01*
X93871668Y-66822640D01*
X93877579Y-66827024D01*
X93883033Y-66831967D01*
X93887976Y-66837421D01*
X93892360Y-66843332D01*
X93896144Y-66849645D01*
X93899291Y-66856299D01*
X93901771Y-66863229D01*
X93903559Y-66870368D01*
X93904639Y-66877649D01*
X93905000Y-66885000D01*
X93905000Y-67035000D01*
X93904639Y-67042351D01*
X93903559Y-67049632D01*
X93901771Y-67056771D01*
X93899291Y-67063701D01*
X93896144Y-67070355D01*
X93892360Y-67076668D01*
X93887976Y-67082579D01*
X93883033Y-67088033D01*
X93877579Y-67092976D01*
X93871668Y-67097360D01*
X93865355Y-67101144D01*
X93858701Y-67104291D01*
X93851771Y-67106771D01*
X93844632Y-67108559D01*
X93837351Y-67109639D01*
X93830000Y-67110000D01*
X92380000Y-67110000D01*
X92372649Y-67109639D01*
X92365368Y-67108559D01*
X92358229Y-67106771D01*
X92351299Y-67104291D01*
X92344645Y-67101144D01*
X92338332Y-67097360D01*
X92332421Y-67092976D01*
X92326967Y-67088033D01*
X92322024Y-67082579D01*
X92317640Y-67076668D01*
X92313856Y-67070355D01*
X92310709Y-67063701D01*
X92308229Y-67056771D01*
X92306441Y-67049632D01*
X92305361Y-67042351D01*
X92305000Y-67035000D01*
X92305000Y-66885000D01*
X92305361Y-66877649D01*
X92306441Y-66870368D01*
X92308229Y-66863229D01*
X92310709Y-66856299D01*
X92313856Y-66849645D01*
X92317640Y-66843332D01*
X92322024Y-66837421D01*
X92326967Y-66831967D01*
X92332421Y-66827024D01*
X92338332Y-66822640D01*
X92344645Y-66818856D01*
X92351299Y-66815709D01*
X92358229Y-66813229D01*
X92365368Y-66811441D01*
X92372649Y-66810361D01*
X92380000Y-66810000D01*
X93830000Y-66810000D01*
X93837351Y-66810361D01*
X93837351Y-66810361D01*
G37*
D25*
X93105000Y-66960000D03*
D23*
G36*
X93837351Y-66310361D02*
X93844632Y-66311441D01*
X93851771Y-66313229D01*
X93858701Y-66315709D01*
X93865355Y-66318856D01*
X93871668Y-66322640D01*
X93877579Y-66327024D01*
X93883033Y-66331967D01*
X93887976Y-66337421D01*
X93892360Y-66343332D01*
X93896144Y-66349645D01*
X93899291Y-66356299D01*
X93901771Y-66363229D01*
X93903559Y-66370368D01*
X93904639Y-66377649D01*
X93905000Y-66385000D01*
X93905000Y-66535000D01*
X93904639Y-66542351D01*
X93903559Y-66549632D01*
X93901771Y-66556771D01*
X93899291Y-66563701D01*
X93896144Y-66570355D01*
X93892360Y-66576668D01*
X93887976Y-66582579D01*
X93883033Y-66588033D01*
X93877579Y-66592976D01*
X93871668Y-66597360D01*
X93865355Y-66601144D01*
X93858701Y-66604291D01*
X93851771Y-66606771D01*
X93844632Y-66608559D01*
X93837351Y-66609639D01*
X93830000Y-66610000D01*
X92380000Y-66610000D01*
X92372649Y-66609639D01*
X92365368Y-66608559D01*
X92358229Y-66606771D01*
X92351299Y-66604291D01*
X92344645Y-66601144D01*
X92338332Y-66597360D01*
X92332421Y-66592976D01*
X92326967Y-66588033D01*
X92322024Y-66582579D01*
X92317640Y-66576668D01*
X92313856Y-66570355D01*
X92310709Y-66563701D01*
X92308229Y-66556771D01*
X92306441Y-66549632D01*
X92305361Y-66542351D01*
X92305000Y-66535000D01*
X92305000Y-66385000D01*
X92305361Y-66377649D01*
X92306441Y-66370368D01*
X92308229Y-66363229D01*
X92310709Y-66356299D01*
X92313856Y-66349645D01*
X92317640Y-66343332D01*
X92322024Y-66337421D01*
X92326967Y-66331967D01*
X92332421Y-66327024D01*
X92338332Y-66322640D01*
X92344645Y-66318856D01*
X92351299Y-66315709D01*
X92358229Y-66313229D01*
X92365368Y-66311441D01*
X92372649Y-66310361D01*
X92380000Y-66310000D01*
X93830000Y-66310000D01*
X93837351Y-66310361D01*
X93837351Y-66310361D01*
G37*
D25*
X93105000Y-66460000D03*
D23*
G36*
X93837351Y-65810361D02*
X93844632Y-65811441D01*
X93851771Y-65813229D01*
X93858701Y-65815709D01*
X93865355Y-65818856D01*
X93871668Y-65822640D01*
X93877579Y-65827024D01*
X93883033Y-65831967D01*
X93887976Y-65837421D01*
X93892360Y-65843332D01*
X93896144Y-65849645D01*
X93899291Y-65856299D01*
X93901771Y-65863229D01*
X93903559Y-65870368D01*
X93904639Y-65877649D01*
X93905000Y-65885000D01*
X93905000Y-66035000D01*
X93904639Y-66042351D01*
X93903559Y-66049632D01*
X93901771Y-66056771D01*
X93899291Y-66063701D01*
X93896144Y-66070355D01*
X93892360Y-66076668D01*
X93887976Y-66082579D01*
X93883033Y-66088033D01*
X93877579Y-66092976D01*
X93871668Y-66097360D01*
X93865355Y-66101144D01*
X93858701Y-66104291D01*
X93851771Y-66106771D01*
X93844632Y-66108559D01*
X93837351Y-66109639D01*
X93830000Y-66110000D01*
X92380000Y-66110000D01*
X92372649Y-66109639D01*
X92365368Y-66108559D01*
X92358229Y-66106771D01*
X92351299Y-66104291D01*
X92344645Y-66101144D01*
X92338332Y-66097360D01*
X92332421Y-66092976D01*
X92326967Y-66088033D01*
X92322024Y-66082579D01*
X92317640Y-66076668D01*
X92313856Y-66070355D01*
X92310709Y-66063701D01*
X92308229Y-66056771D01*
X92306441Y-66049632D01*
X92305361Y-66042351D01*
X92305000Y-66035000D01*
X92305000Y-65885000D01*
X92305361Y-65877649D01*
X92306441Y-65870368D01*
X92308229Y-65863229D01*
X92310709Y-65856299D01*
X92313856Y-65849645D01*
X92317640Y-65843332D01*
X92322024Y-65837421D01*
X92326967Y-65831967D01*
X92332421Y-65827024D01*
X92338332Y-65822640D01*
X92344645Y-65818856D01*
X92351299Y-65815709D01*
X92358229Y-65813229D01*
X92365368Y-65811441D01*
X92372649Y-65810361D01*
X92380000Y-65810000D01*
X93830000Y-65810000D01*
X93837351Y-65810361D01*
X93837351Y-65810361D01*
G37*
D25*
X93105000Y-65960000D03*
D23*
G36*
X93837351Y-65310361D02*
X93844632Y-65311441D01*
X93851771Y-65313229D01*
X93858701Y-65315709D01*
X93865355Y-65318856D01*
X93871668Y-65322640D01*
X93877579Y-65327024D01*
X93883033Y-65331967D01*
X93887976Y-65337421D01*
X93892360Y-65343332D01*
X93896144Y-65349645D01*
X93899291Y-65356299D01*
X93901771Y-65363229D01*
X93903559Y-65370368D01*
X93904639Y-65377649D01*
X93905000Y-65385000D01*
X93905000Y-65535000D01*
X93904639Y-65542351D01*
X93903559Y-65549632D01*
X93901771Y-65556771D01*
X93899291Y-65563701D01*
X93896144Y-65570355D01*
X93892360Y-65576668D01*
X93887976Y-65582579D01*
X93883033Y-65588033D01*
X93877579Y-65592976D01*
X93871668Y-65597360D01*
X93865355Y-65601144D01*
X93858701Y-65604291D01*
X93851771Y-65606771D01*
X93844632Y-65608559D01*
X93837351Y-65609639D01*
X93830000Y-65610000D01*
X92380000Y-65610000D01*
X92372649Y-65609639D01*
X92365368Y-65608559D01*
X92358229Y-65606771D01*
X92351299Y-65604291D01*
X92344645Y-65601144D01*
X92338332Y-65597360D01*
X92332421Y-65592976D01*
X92326967Y-65588033D01*
X92322024Y-65582579D01*
X92317640Y-65576668D01*
X92313856Y-65570355D01*
X92310709Y-65563701D01*
X92308229Y-65556771D01*
X92306441Y-65549632D01*
X92305361Y-65542351D01*
X92305000Y-65535000D01*
X92305000Y-65385000D01*
X92305361Y-65377649D01*
X92306441Y-65370368D01*
X92308229Y-65363229D01*
X92310709Y-65356299D01*
X92313856Y-65349645D01*
X92317640Y-65343332D01*
X92322024Y-65337421D01*
X92326967Y-65331967D01*
X92332421Y-65327024D01*
X92338332Y-65322640D01*
X92344645Y-65318856D01*
X92351299Y-65315709D01*
X92358229Y-65313229D01*
X92365368Y-65311441D01*
X92372649Y-65310361D01*
X92380000Y-65310000D01*
X93830000Y-65310000D01*
X93837351Y-65310361D01*
X93837351Y-65310361D01*
G37*
D25*
X93105000Y-65460000D03*
D23*
G36*
X93837351Y-64810361D02*
X93844632Y-64811441D01*
X93851771Y-64813229D01*
X93858701Y-64815709D01*
X93865355Y-64818856D01*
X93871668Y-64822640D01*
X93877579Y-64827024D01*
X93883033Y-64831967D01*
X93887976Y-64837421D01*
X93892360Y-64843332D01*
X93896144Y-64849645D01*
X93899291Y-64856299D01*
X93901771Y-64863229D01*
X93903559Y-64870368D01*
X93904639Y-64877649D01*
X93905000Y-64885000D01*
X93905000Y-65035000D01*
X93904639Y-65042351D01*
X93903559Y-65049632D01*
X93901771Y-65056771D01*
X93899291Y-65063701D01*
X93896144Y-65070355D01*
X93892360Y-65076668D01*
X93887976Y-65082579D01*
X93883033Y-65088033D01*
X93877579Y-65092976D01*
X93871668Y-65097360D01*
X93865355Y-65101144D01*
X93858701Y-65104291D01*
X93851771Y-65106771D01*
X93844632Y-65108559D01*
X93837351Y-65109639D01*
X93830000Y-65110000D01*
X92380000Y-65110000D01*
X92372649Y-65109639D01*
X92365368Y-65108559D01*
X92358229Y-65106771D01*
X92351299Y-65104291D01*
X92344645Y-65101144D01*
X92338332Y-65097360D01*
X92332421Y-65092976D01*
X92326967Y-65088033D01*
X92322024Y-65082579D01*
X92317640Y-65076668D01*
X92313856Y-65070355D01*
X92310709Y-65063701D01*
X92308229Y-65056771D01*
X92306441Y-65049632D01*
X92305361Y-65042351D01*
X92305000Y-65035000D01*
X92305000Y-64885000D01*
X92305361Y-64877649D01*
X92306441Y-64870368D01*
X92308229Y-64863229D01*
X92310709Y-64856299D01*
X92313856Y-64849645D01*
X92317640Y-64843332D01*
X92322024Y-64837421D01*
X92326967Y-64831967D01*
X92332421Y-64827024D01*
X92338332Y-64822640D01*
X92344645Y-64818856D01*
X92351299Y-64815709D01*
X92358229Y-64813229D01*
X92365368Y-64811441D01*
X92372649Y-64810361D01*
X92380000Y-64810000D01*
X93830000Y-64810000D01*
X93837351Y-64810361D01*
X93837351Y-64810361D01*
G37*
D25*
X93105000Y-64960000D03*
D23*
G36*
X93837351Y-64310361D02*
X93844632Y-64311441D01*
X93851771Y-64313229D01*
X93858701Y-64315709D01*
X93865355Y-64318856D01*
X93871668Y-64322640D01*
X93877579Y-64327024D01*
X93883033Y-64331967D01*
X93887976Y-64337421D01*
X93892360Y-64343332D01*
X93896144Y-64349645D01*
X93899291Y-64356299D01*
X93901771Y-64363229D01*
X93903559Y-64370368D01*
X93904639Y-64377649D01*
X93905000Y-64385000D01*
X93905000Y-64535000D01*
X93904639Y-64542351D01*
X93903559Y-64549632D01*
X93901771Y-64556771D01*
X93899291Y-64563701D01*
X93896144Y-64570355D01*
X93892360Y-64576668D01*
X93887976Y-64582579D01*
X93883033Y-64588033D01*
X93877579Y-64592976D01*
X93871668Y-64597360D01*
X93865355Y-64601144D01*
X93858701Y-64604291D01*
X93851771Y-64606771D01*
X93844632Y-64608559D01*
X93837351Y-64609639D01*
X93830000Y-64610000D01*
X92380000Y-64610000D01*
X92372649Y-64609639D01*
X92365368Y-64608559D01*
X92358229Y-64606771D01*
X92351299Y-64604291D01*
X92344645Y-64601144D01*
X92338332Y-64597360D01*
X92332421Y-64592976D01*
X92326967Y-64588033D01*
X92322024Y-64582579D01*
X92317640Y-64576668D01*
X92313856Y-64570355D01*
X92310709Y-64563701D01*
X92308229Y-64556771D01*
X92306441Y-64549632D01*
X92305361Y-64542351D01*
X92305000Y-64535000D01*
X92305000Y-64385000D01*
X92305361Y-64377649D01*
X92306441Y-64370368D01*
X92308229Y-64363229D01*
X92310709Y-64356299D01*
X92313856Y-64349645D01*
X92317640Y-64343332D01*
X92322024Y-64337421D01*
X92326967Y-64331967D01*
X92332421Y-64327024D01*
X92338332Y-64322640D01*
X92344645Y-64318856D01*
X92351299Y-64315709D01*
X92358229Y-64313229D01*
X92365368Y-64311441D01*
X92372649Y-64310361D01*
X92380000Y-64310000D01*
X93830000Y-64310000D01*
X93837351Y-64310361D01*
X93837351Y-64310361D01*
G37*
D25*
X93105000Y-64460000D03*
D23*
G36*
X93837351Y-63810361D02*
X93844632Y-63811441D01*
X93851771Y-63813229D01*
X93858701Y-63815709D01*
X93865355Y-63818856D01*
X93871668Y-63822640D01*
X93877579Y-63827024D01*
X93883033Y-63831967D01*
X93887976Y-63837421D01*
X93892360Y-63843332D01*
X93896144Y-63849645D01*
X93899291Y-63856299D01*
X93901771Y-63863229D01*
X93903559Y-63870368D01*
X93904639Y-63877649D01*
X93905000Y-63885000D01*
X93905000Y-64035000D01*
X93904639Y-64042351D01*
X93903559Y-64049632D01*
X93901771Y-64056771D01*
X93899291Y-64063701D01*
X93896144Y-64070355D01*
X93892360Y-64076668D01*
X93887976Y-64082579D01*
X93883033Y-64088033D01*
X93877579Y-64092976D01*
X93871668Y-64097360D01*
X93865355Y-64101144D01*
X93858701Y-64104291D01*
X93851771Y-64106771D01*
X93844632Y-64108559D01*
X93837351Y-64109639D01*
X93830000Y-64110000D01*
X92380000Y-64110000D01*
X92372649Y-64109639D01*
X92365368Y-64108559D01*
X92358229Y-64106771D01*
X92351299Y-64104291D01*
X92344645Y-64101144D01*
X92338332Y-64097360D01*
X92332421Y-64092976D01*
X92326967Y-64088033D01*
X92322024Y-64082579D01*
X92317640Y-64076668D01*
X92313856Y-64070355D01*
X92310709Y-64063701D01*
X92308229Y-64056771D01*
X92306441Y-64049632D01*
X92305361Y-64042351D01*
X92305000Y-64035000D01*
X92305000Y-63885000D01*
X92305361Y-63877649D01*
X92306441Y-63870368D01*
X92308229Y-63863229D01*
X92310709Y-63856299D01*
X92313856Y-63849645D01*
X92317640Y-63843332D01*
X92322024Y-63837421D01*
X92326967Y-63831967D01*
X92332421Y-63827024D01*
X92338332Y-63822640D01*
X92344645Y-63818856D01*
X92351299Y-63815709D01*
X92358229Y-63813229D01*
X92365368Y-63811441D01*
X92372649Y-63810361D01*
X92380000Y-63810000D01*
X93830000Y-63810000D01*
X93837351Y-63810361D01*
X93837351Y-63810361D01*
G37*
D25*
X93105000Y-63960000D03*
D23*
G36*
X93837351Y-63310361D02*
X93844632Y-63311441D01*
X93851771Y-63313229D01*
X93858701Y-63315709D01*
X93865355Y-63318856D01*
X93871668Y-63322640D01*
X93877579Y-63327024D01*
X93883033Y-63331967D01*
X93887976Y-63337421D01*
X93892360Y-63343332D01*
X93896144Y-63349645D01*
X93899291Y-63356299D01*
X93901771Y-63363229D01*
X93903559Y-63370368D01*
X93904639Y-63377649D01*
X93905000Y-63385000D01*
X93905000Y-63535000D01*
X93904639Y-63542351D01*
X93903559Y-63549632D01*
X93901771Y-63556771D01*
X93899291Y-63563701D01*
X93896144Y-63570355D01*
X93892360Y-63576668D01*
X93887976Y-63582579D01*
X93883033Y-63588033D01*
X93877579Y-63592976D01*
X93871668Y-63597360D01*
X93865355Y-63601144D01*
X93858701Y-63604291D01*
X93851771Y-63606771D01*
X93844632Y-63608559D01*
X93837351Y-63609639D01*
X93830000Y-63610000D01*
X92380000Y-63610000D01*
X92372649Y-63609639D01*
X92365368Y-63608559D01*
X92358229Y-63606771D01*
X92351299Y-63604291D01*
X92344645Y-63601144D01*
X92338332Y-63597360D01*
X92332421Y-63592976D01*
X92326967Y-63588033D01*
X92322024Y-63582579D01*
X92317640Y-63576668D01*
X92313856Y-63570355D01*
X92310709Y-63563701D01*
X92308229Y-63556771D01*
X92306441Y-63549632D01*
X92305361Y-63542351D01*
X92305000Y-63535000D01*
X92305000Y-63385000D01*
X92305361Y-63377649D01*
X92306441Y-63370368D01*
X92308229Y-63363229D01*
X92310709Y-63356299D01*
X92313856Y-63349645D01*
X92317640Y-63343332D01*
X92322024Y-63337421D01*
X92326967Y-63331967D01*
X92332421Y-63327024D01*
X92338332Y-63322640D01*
X92344645Y-63318856D01*
X92351299Y-63315709D01*
X92358229Y-63313229D01*
X92365368Y-63311441D01*
X92372649Y-63310361D01*
X92380000Y-63310000D01*
X93830000Y-63310000D01*
X93837351Y-63310361D01*
X93837351Y-63310361D01*
G37*
D25*
X93105000Y-63460000D03*
D23*
G36*
X93837351Y-62810361D02*
X93844632Y-62811441D01*
X93851771Y-62813229D01*
X93858701Y-62815709D01*
X93865355Y-62818856D01*
X93871668Y-62822640D01*
X93877579Y-62827024D01*
X93883033Y-62831967D01*
X93887976Y-62837421D01*
X93892360Y-62843332D01*
X93896144Y-62849645D01*
X93899291Y-62856299D01*
X93901771Y-62863229D01*
X93903559Y-62870368D01*
X93904639Y-62877649D01*
X93905000Y-62885000D01*
X93905000Y-63035000D01*
X93904639Y-63042351D01*
X93903559Y-63049632D01*
X93901771Y-63056771D01*
X93899291Y-63063701D01*
X93896144Y-63070355D01*
X93892360Y-63076668D01*
X93887976Y-63082579D01*
X93883033Y-63088033D01*
X93877579Y-63092976D01*
X93871668Y-63097360D01*
X93865355Y-63101144D01*
X93858701Y-63104291D01*
X93851771Y-63106771D01*
X93844632Y-63108559D01*
X93837351Y-63109639D01*
X93830000Y-63110000D01*
X92380000Y-63110000D01*
X92372649Y-63109639D01*
X92365368Y-63108559D01*
X92358229Y-63106771D01*
X92351299Y-63104291D01*
X92344645Y-63101144D01*
X92338332Y-63097360D01*
X92332421Y-63092976D01*
X92326967Y-63088033D01*
X92322024Y-63082579D01*
X92317640Y-63076668D01*
X92313856Y-63070355D01*
X92310709Y-63063701D01*
X92308229Y-63056771D01*
X92306441Y-63049632D01*
X92305361Y-63042351D01*
X92305000Y-63035000D01*
X92305000Y-62885000D01*
X92305361Y-62877649D01*
X92306441Y-62870368D01*
X92308229Y-62863229D01*
X92310709Y-62856299D01*
X92313856Y-62849645D01*
X92317640Y-62843332D01*
X92322024Y-62837421D01*
X92326967Y-62831967D01*
X92332421Y-62827024D01*
X92338332Y-62822640D01*
X92344645Y-62818856D01*
X92351299Y-62815709D01*
X92358229Y-62813229D01*
X92365368Y-62811441D01*
X92372649Y-62810361D01*
X92380000Y-62810000D01*
X93830000Y-62810000D01*
X93837351Y-62810361D01*
X93837351Y-62810361D01*
G37*
D25*
X93105000Y-62960000D03*
D23*
G36*
X93837351Y-62310361D02*
X93844632Y-62311441D01*
X93851771Y-62313229D01*
X93858701Y-62315709D01*
X93865355Y-62318856D01*
X93871668Y-62322640D01*
X93877579Y-62327024D01*
X93883033Y-62331967D01*
X93887976Y-62337421D01*
X93892360Y-62343332D01*
X93896144Y-62349645D01*
X93899291Y-62356299D01*
X93901771Y-62363229D01*
X93903559Y-62370368D01*
X93904639Y-62377649D01*
X93905000Y-62385000D01*
X93905000Y-62535000D01*
X93904639Y-62542351D01*
X93903559Y-62549632D01*
X93901771Y-62556771D01*
X93899291Y-62563701D01*
X93896144Y-62570355D01*
X93892360Y-62576668D01*
X93887976Y-62582579D01*
X93883033Y-62588033D01*
X93877579Y-62592976D01*
X93871668Y-62597360D01*
X93865355Y-62601144D01*
X93858701Y-62604291D01*
X93851771Y-62606771D01*
X93844632Y-62608559D01*
X93837351Y-62609639D01*
X93830000Y-62610000D01*
X92380000Y-62610000D01*
X92372649Y-62609639D01*
X92365368Y-62608559D01*
X92358229Y-62606771D01*
X92351299Y-62604291D01*
X92344645Y-62601144D01*
X92338332Y-62597360D01*
X92332421Y-62592976D01*
X92326967Y-62588033D01*
X92322024Y-62582579D01*
X92317640Y-62576668D01*
X92313856Y-62570355D01*
X92310709Y-62563701D01*
X92308229Y-62556771D01*
X92306441Y-62549632D01*
X92305361Y-62542351D01*
X92305000Y-62535000D01*
X92305000Y-62385000D01*
X92305361Y-62377649D01*
X92306441Y-62370368D01*
X92308229Y-62363229D01*
X92310709Y-62356299D01*
X92313856Y-62349645D01*
X92317640Y-62343332D01*
X92322024Y-62337421D01*
X92326967Y-62331967D01*
X92332421Y-62327024D01*
X92338332Y-62322640D01*
X92344645Y-62318856D01*
X92351299Y-62315709D01*
X92358229Y-62313229D01*
X92365368Y-62311441D01*
X92372649Y-62310361D01*
X92380000Y-62310000D01*
X93830000Y-62310000D01*
X93837351Y-62310361D01*
X93837351Y-62310361D01*
G37*
D25*
X93105000Y-62460000D03*
D23*
G36*
X93837351Y-61810361D02*
X93844632Y-61811441D01*
X93851771Y-61813229D01*
X93858701Y-61815709D01*
X93865355Y-61818856D01*
X93871668Y-61822640D01*
X93877579Y-61827024D01*
X93883033Y-61831967D01*
X93887976Y-61837421D01*
X93892360Y-61843332D01*
X93896144Y-61849645D01*
X93899291Y-61856299D01*
X93901771Y-61863229D01*
X93903559Y-61870368D01*
X93904639Y-61877649D01*
X93905000Y-61885000D01*
X93905000Y-62035000D01*
X93904639Y-62042351D01*
X93903559Y-62049632D01*
X93901771Y-62056771D01*
X93899291Y-62063701D01*
X93896144Y-62070355D01*
X93892360Y-62076668D01*
X93887976Y-62082579D01*
X93883033Y-62088033D01*
X93877579Y-62092976D01*
X93871668Y-62097360D01*
X93865355Y-62101144D01*
X93858701Y-62104291D01*
X93851771Y-62106771D01*
X93844632Y-62108559D01*
X93837351Y-62109639D01*
X93830000Y-62110000D01*
X92380000Y-62110000D01*
X92372649Y-62109639D01*
X92365368Y-62108559D01*
X92358229Y-62106771D01*
X92351299Y-62104291D01*
X92344645Y-62101144D01*
X92338332Y-62097360D01*
X92332421Y-62092976D01*
X92326967Y-62088033D01*
X92322024Y-62082579D01*
X92317640Y-62076668D01*
X92313856Y-62070355D01*
X92310709Y-62063701D01*
X92308229Y-62056771D01*
X92306441Y-62049632D01*
X92305361Y-62042351D01*
X92305000Y-62035000D01*
X92305000Y-61885000D01*
X92305361Y-61877649D01*
X92306441Y-61870368D01*
X92308229Y-61863229D01*
X92310709Y-61856299D01*
X92313856Y-61849645D01*
X92317640Y-61843332D01*
X92322024Y-61837421D01*
X92326967Y-61831967D01*
X92332421Y-61827024D01*
X92338332Y-61822640D01*
X92344645Y-61818856D01*
X92351299Y-61815709D01*
X92358229Y-61813229D01*
X92365368Y-61811441D01*
X92372649Y-61810361D01*
X92380000Y-61810000D01*
X93830000Y-61810000D01*
X93837351Y-61810361D01*
X93837351Y-61810361D01*
G37*
D25*
X93105000Y-61960000D03*
D23*
G36*
X93837351Y-61310361D02*
X93844632Y-61311441D01*
X93851771Y-61313229D01*
X93858701Y-61315709D01*
X93865355Y-61318856D01*
X93871668Y-61322640D01*
X93877579Y-61327024D01*
X93883033Y-61331967D01*
X93887976Y-61337421D01*
X93892360Y-61343332D01*
X93896144Y-61349645D01*
X93899291Y-61356299D01*
X93901771Y-61363229D01*
X93903559Y-61370368D01*
X93904639Y-61377649D01*
X93905000Y-61385000D01*
X93905000Y-61535000D01*
X93904639Y-61542351D01*
X93903559Y-61549632D01*
X93901771Y-61556771D01*
X93899291Y-61563701D01*
X93896144Y-61570355D01*
X93892360Y-61576668D01*
X93887976Y-61582579D01*
X93883033Y-61588033D01*
X93877579Y-61592976D01*
X93871668Y-61597360D01*
X93865355Y-61601144D01*
X93858701Y-61604291D01*
X93851771Y-61606771D01*
X93844632Y-61608559D01*
X93837351Y-61609639D01*
X93830000Y-61610000D01*
X92380000Y-61610000D01*
X92372649Y-61609639D01*
X92365368Y-61608559D01*
X92358229Y-61606771D01*
X92351299Y-61604291D01*
X92344645Y-61601144D01*
X92338332Y-61597360D01*
X92332421Y-61592976D01*
X92326967Y-61588033D01*
X92322024Y-61582579D01*
X92317640Y-61576668D01*
X92313856Y-61570355D01*
X92310709Y-61563701D01*
X92308229Y-61556771D01*
X92306441Y-61549632D01*
X92305361Y-61542351D01*
X92305000Y-61535000D01*
X92305000Y-61385000D01*
X92305361Y-61377649D01*
X92306441Y-61370368D01*
X92308229Y-61363229D01*
X92310709Y-61356299D01*
X92313856Y-61349645D01*
X92317640Y-61343332D01*
X92322024Y-61337421D01*
X92326967Y-61331967D01*
X92332421Y-61327024D01*
X92338332Y-61322640D01*
X92344645Y-61318856D01*
X92351299Y-61315709D01*
X92358229Y-61313229D01*
X92365368Y-61311441D01*
X92372649Y-61310361D01*
X92380000Y-61310000D01*
X93830000Y-61310000D01*
X93837351Y-61310361D01*
X93837351Y-61310361D01*
G37*
D25*
X93105000Y-61460000D03*
D23*
G36*
X93837351Y-60810361D02*
X93844632Y-60811441D01*
X93851771Y-60813229D01*
X93858701Y-60815709D01*
X93865355Y-60818856D01*
X93871668Y-60822640D01*
X93877579Y-60827024D01*
X93883033Y-60831967D01*
X93887976Y-60837421D01*
X93892360Y-60843332D01*
X93896144Y-60849645D01*
X93899291Y-60856299D01*
X93901771Y-60863229D01*
X93903559Y-60870368D01*
X93904639Y-60877649D01*
X93905000Y-60885000D01*
X93905000Y-61035000D01*
X93904639Y-61042351D01*
X93903559Y-61049632D01*
X93901771Y-61056771D01*
X93899291Y-61063701D01*
X93896144Y-61070355D01*
X93892360Y-61076668D01*
X93887976Y-61082579D01*
X93883033Y-61088033D01*
X93877579Y-61092976D01*
X93871668Y-61097360D01*
X93865355Y-61101144D01*
X93858701Y-61104291D01*
X93851771Y-61106771D01*
X93844632Y-61108559D01*
X93837351Y-61109639D01*
X93830000Y-61110000D01*
X92380000Y-61110000D01*
X92372649Y-61109639D01*
X92365368Y-61108559D01*
X92358229Y-61106771D01*
X92351299Y-61104291D01*
X92344645Y-61101144D01*
X92338332Y-61097360D01*
X92332421Y-61092976D01*
X92326967Y-61088033D01*
X92322024Y-61082579D01*
X92317640Y-61076668D01*
X92313856Y-61070355D01*
X92310709Y-61063701D01*
X92308229Y-61056771D01*
X92306441Y-61049632D01*
X92305361Y-61042351D01*
X92305000Y-61035000D01*
X92305000Y-60885000D01*
X92305361Y-60877649D01*
X92306441Y-60870368D01*
X92308229Y-60863229D01*
X92310709Y-60856299D01*
X92313856Y-60849645D01*
X92317640Y-60843332D01*
X92322024Y-60837421D01*
X92326967Y-60831967D01*
X92332421Y-60827024D01*
X92338332Y-60822640D01*
X92344645Y-60818856D01*
X92351299Y-60815709D01*
X92358229Y-60813229D01*
X92365368Y-60811441D01*
X92372649Y-60810361D01*
X92380000Y-60810000D01*
X93830000Y-60810000D01*
X93837351Y-60810361D01*
X93837351Y-60810361D01*
G37*
D25*
X93105000Y-60960000D03*
D23*
G36*
X93837351Y-60310361D02*
X93844632Y-60311441D01*
X93851771Y-60313229D01*
X93858701Y-60315709D01*
X93865355Y-60318856D01*
X93871668Y-60322640D01*
X93877579Y-60327024D01*
X93883033Y-60331967D01*
X93887976Y-60337421D01*
X93892360Y-60343332D01*
X93896144Y-60349645D01*
X93899291Y-60356299D01*
X93901771Y-60363229D01*
X93903559Y-60370368D01*
X93904639Y-60377649D01*
X93905000Y-60385000D01*
X93905000Y-60535000D01*
X93904639Y-60542351D01*
X93903559Y-60549632D01*
X93901771Y-60556771D01*
X93899291Y-60563701D01*
X93896144Y-60570355D01*
X93892360Y-60576668D01*
X93887976Y-60582579D01*
X93883033Y-60588033D01*
X93877579Y-60592976D01*
X93871668Y-60597360D01*
X93865355Y-60601144D01*
X93858701Y-60604291D01*
X93851771Y-60606771D01*
X93844632Y-60608559D01*
X93837351Y-60609639D01*
X93830000Y-60610000D01*
X92380000Y-60610000D01*
X92372649Y-60609639D01*
X92365368Y-60608559D01*
X92358229Y-60606771D01*
X92351299Y-60604291D01*
X92344645Y-60601144D01*
X92338332Y-60597360D01*
X92332421Y-60592976D01*
X92326967Y-60588033D01*
X92322024Y-60582579D01*
X92317640Y-60576668D01*
X92313856Y-60570355D01*
X92310709Y-60563701D01*
X92308229Y-60556771D01*
X92306441Y-60549632D01*
X92305361Y-60542351D01*
X92305000Y-60535000D01*
X92305000Y-60385000D01*
X92305361Y-60377649D01*
X92306441Y-60370368D01*
X92308229Y-60363229D01*
X92310709Y-60356299D01*
X92313856Y-60349645D01*
X92317640Y-60343332D01*
X92322024Y-60337421D01*
X92326967Y-60331967D01*
X92332421Y-60327024D01*
X92338332Y-60322640D01*
X92344645Y-60318856D01*
X92351299Y-60315709D01*
X92358229Y-60313229D01*
X92365368Y-60311441D01*
X92372649Y-60310361D01*
X92380000Y-60310000D01*
X93830000Y-60310000D01*
X93837351Y-60310361D01*
X93837351Y-60310361D01*
G37*
D25*
X93105000Y-60460000D03*
D23*
G36*
X93837351Y-59810361D02*
X93844632Y-59811441D01*
X93851771Y-59813229D01*
X93858701Y-59815709D01*
X93865355Y-59818856D01*
X93871668Y-59822640D01*
X93877579Y-59827024D01*
X93883033Y-59831967D01*
X93887976Y-59837421D01*
X93892360Y-59843332D01*
X93896144Y-59849645D01*
X93899291Y-59856299D01*
X93901771Y-59863229D01*
X93903559Y-59870368D01*
X93904639Y-59877649D01*
X93905000Y-59885000D01*
X93905000Y-60035000D01*
X93904639Y-60042351D01*
X93903559Y-60049632D01*
X93901771Y-60056771D01*
X93899291Y-60063701D01*
X93896144Y-60070355D01*
X93892360Y-60076668D01*
X93887976Y-60082579D01*
X93883033Y-60088033D01*
X93877579Y-60092976D01*
X93871668Y-60097360D01*
X93865355Y-60101144D01*
X93858701Y-60104291D01*
X93851771Y-60106771D01*
X93844632Y-60108559D01*
X93837351Y-60109639D01*
X93830000Y-60110000D01*
X92380000Y-60110000D01*
X92372649Y-60109639D01*
X92365368Y-60108559D01*
X92358229Y-60106771D01*
X92351299Y-60104291D01*
X92344645Y-60101144D01*
X92338332Y-60097360D01*
X92332421Y-60092976D01*
X92326967Y-60088033D01*
X92322024Y-60082579D01*
X92317640Y-60076668D01*
X92313856Y-60070355D01*
X92310709Y-60063701D01*
X92308229Y-60056771D01*
X92306441Y-60049632D01*
X92305361Y-60042351D01*
X92305000Y-60035000D01*
X92305000Y-59885000D01*
X92305361Y-59877649D01*
X92306441Y-59870368D01*
X92308229Y-59863229D01*
X92310709Y-59856299D01*
X92313856Y-59849645D01*
X92317640Y-59843332D01*
X92322024Y-59837421D01*
X92326967Y-59831967D01*
X92332421Y-59827024D01*
X92338332Y-59822640D01*
X92344645Y-59818856D01*
X92351299Y-59815709D01*
X92358229Y-59813229D01*
X92365368Y-59811441D01*
X92372649Y-59810361D01*
X92380000Y-59810000D01*
X93830000Y-59810000D01*
X93837351Y-59810361D01*
X93837351Y-59810361D01*
G37*
D25*
X93105000Y-59960000D03*
D23*
G36*
X93837351Y-59310361D02*
X93844632Y-59311441D01*
X93851771Y-59313229D01*
X93858701Y-59315709D01*
X93865355Y-59318856D01*
X93871668Y-59322640D01*
X93877579Y-59327024D01*
X93883033Y-59331967D01*
X93887976Y-59337421D01*
X93892360Y-59343332D01*
X93896144Y-59349645D01*
X93899291Y-59356299D01*
X93901771Y-59363229D01*
X93903559Y-59370368D01*
X93904639Y-59377649D01*
X93905000Y-59385000D01*
X93905000Y-59535000D01*
X93904639Y-59542351D01*
X93903559Y-59549632D01*
X93901771Y-59556771D01*
X93899291Y-59563701D01*
X93896144Y-59570355D01*
X93892360Y-59576668D01*
X93887976Y-59582579D01*
X93883033Y-59588033D01*
X93877579Y-59592976D01*
X93871668Y-59597360D01*
X93865355Y-59601144D01*
X93858701Y-59604291D01*
X93851771Y-59606771D01*
X93844632Y-59608559D01*
X93837351Y-59609639D01*
X93830000Y-59610000D01*
X92380000Y-59610000D01*
X92372649Y-59609639D01*
X92365368Y-59608559D01*
X92358229Y-59606771D01*
X92351299Y-59604291D01*
X92344645Y-59601144D01*
X92338332Y-59597360D01*
X92332421Y-59592976D01*
X92326967Y-59588033D01*
X92322024Y-59582579D01*
X92317640Y-59576668D01*
X92313856Y-59570355D01*
X92310709Y-59563701D01*
X92308229Y-59556771D01*
X92306441Y-59549632D01*
X92305361Y-59542351D01*
X92305000Y-59535000D01*
X92305000Y-59385000D01*
X92305361Y-59377649D01*
X92306441Y-59370368D01*
X92308229Y-59363229D01*
X92310709Y-59356299D01*
X92313856Y-59349645D01*
X92317640Y-59343332D01*
X92322024Y-59337421D01*
X92326967Y-59331967D01*
X92332421Y-59327024D01*
X92338332Y-59322640D01*
X92344645Y-59318856D01*
X92351299Y-59315709D01*
X92358229Y-59313229D01*
X92365368Y-59311441D01*
X92372649Y-59310361D01*
X92380000Y-59310000D01*
X93830000Y-59310000D01*
X93837351Y-59310361D01*
X93837351Y-59310361D01*
G37*
D25*
X93105000Y-59460000D03*
D23*
G36*
X93837351Y-58810361D02*
X93844632Y-58811441D01*
X93851771Y-58813229D01*
X93858701Y-58815709D01*
X93865355Y-58818856D01*
X93871668Y-58822640D01*
X93877579Y-58827024D01*
X93883033Y-58831967D01*
X93887976Y-58837421D01*
X93892360Y-58843332D01*
X93896144Y-58849645D01*
X93899291Y-58856299D01*
X93901771Y-58863229D01*
X93903559Y-58870368D01*
X93904639Y-58877649D01*
X93905000Y-58885000D01*
X93905000Y-59035000D01*
X93904639Y-59042351D01*
X93903559Y-59049632D01*
X93901771Y-59056771D01*
X93899291Y-59063701D01*
X93896144Y-59070355D01*
X93892360Y-59076668D01*
X93887976Y-59082579D01*
X93883033Y-59088033D01*
X93877579Y-59092976D01*
X93871668Y-59097360D01*
X93865355Y-59101144D01*
X93858701Y-59104291D01*
X93851771Y-59106771D01*
X93844632Y-59108559D01*
X93837351Y-59109639D01*
X93830000Y-59110000D01*
X92380000Y-59110000D01*
X92372649Y-59109639D01*
X92365368Y-59108559D01*
X92358229Y-59106771D01*
X92351299Y-59104291D01*
X92344645Y-59101144D01*
X92338332Y-59097360D01*
X92332421Y-59092976D01*
X92326967Y-59088033D01*
X92322024Y-59082579D01*
X92317640Y-59076668D01*
X92313856Y-59070355D01*
X92310709Y-59063701D01*
X92308229Y-59056771D01*
X92306441Y-59049632D01*
X92305361Y-59042351D01*
X92305000Y-59035000D01*
X92305000Y-58885000D01*
X92305361Y-58877649D01*
X92306441Y-58870368D01*
X92308229Y-58863229D01*
X92310709Y-58856299D01*
X92313856Y-58849645D01*
X92317640Y-58843332D01*
X92322024Y-58837421D01*
X92326967Y-58831967D01*
X92332421Y-58827024D01*
X92338332Y-58822640D01*
X92344645Y-58818856D01*
X92351299Y-58815709D01*
X92358229Y-58813229D01*
X92365368Y-58811441D01*
X92372649Y-58810361D01*
X92380000Y-58810000D01*
X93830000Y-58810000D01*
X93837351Y-58810361D01*
X93837351Y-58810361D01*
G37*
D25*
X93105000Y-58960000D03*
D23*
G36*
X93837351Y-58310361D02*
X93844632Y-58311441D01*
X93851771Y-58313229D01*
X93858701Y-58315709D01*
X93865355Y-58318856D01*
X93871668Y-58322640D01*
X93877579Y-58327024D01*
X93883033Y-58331967D01*
X93887976Y-58337421D01*
X93892360Y-58343332D01*
X93896144Y-58349645D01*
X93899291Y-58356299D01*
X93901771Y-58363229D01*
X93903559Y-58370368D01*
X93904639Y-58377649D01*
X93905000Y-58385000D01*
X93905000Y-58535000D01*
X93904639Y-58542351D01*
X93903559Y-58549632D01*
X93901771Y-58556771D01*
X93899291Y-58563701D01*
X93896144Y-58570355D01*
X93892360Y-58576668D01*
X93887976Y-58582579D01*
X93883033Y-58588033D01*
X93877579Y-58592976D01*
X93871668Y-58597360D01*
X93865355Y-58601144D01*
X93858701Y-58604291D01*
X93851771Y-58606771D01*
X93844632Y-58608559D01*
X93837351Y-58609639D01*
X93830000Y-58610000D01*
X92380000Y-58610000D01*
X92372649Y-58609639D01*
X92365368Y-58608559D01*
X92358229Y-58606771D01*
X92351299Y-58604291D01*
X92344645Y-58601144D01*
X92338332Y-58597360D01*
X92332421Y-58592976D01*
X92326967Y-58588033D01*
X92322024Y-58582579D01*
X92317640Y-58576668D01*
X92313856Y-58570355D01*
X92310709Y-58563701D01*
X92308229Y-58556771D01*
X92306441Y-58549632D01*
X92305361Y-58542351D01*
X92305000Y-58535000D01*
X92305000Y-58385000D01*
X92305361Y-58377649D01*
X92306441Y-58370368D01*
X92308229Y-58363229D01*
X92310709Y-58356299D01*
X92313856Y-58349645D01*
X92317640Y-58343332D01*
X92322024Y-58337421D01*
X92326967Y-58331967D01*
X92332421Y-58327024D01*
X92338332Y-58322640D01*
X92344645Y-58318856D01*
X92351299Y-58315709D01*
X92358229Y-58313229D01*
X92365368Y-58311441D01*
X92372649Y-58310361D01*
X92380000Y-58310000D01*
X93830000Y-58310000D01*
X93837351Y-58310361D01*
X93837351Y-58310361D01*
G37*
D25*
X93105000Y-58460000D03*
G04 #@! TD*
D26*
G04 #@! TO.C,U3*
X124970000Y-36120000D03*
X124020000Y-36120000D03*
X125920000Y-36120000D03*
X125920000Y-38820000D03*
X124970000Y-38820000D03*
X124020000Y-38820000D03*
G04 #@! TD*
D27*
G04 #@! TO.C,U4*
X109220000Y-32120000D03*
X109220000Y-33070000D03*
X109220000Y-34020000D03*
X112640000Y-34020000D03*
X112640000Y-32120000D03*
G04 #@! TD*
D28*
G04 #@! TO.C,U5*
X142570000Y-44410000D03*
X142570000Y-43460000D03*
X142570000Y-42510000D03*
X139870000Y-42510000D03*
X139870000Y-44410000D03*
X139870000Y-43460000D03*
G04 #@! TD*
D29*
G04 #@! TO.C,U6*
X137040000Y-37555000D03*
X137040000Y-38205000D03*
X137040000Y-38855000D03*
X137040000Y-39505000D03*
X142940000Y-39505000D03*
X142940000Y-38855000D03*
X142940000Y-38205000D03*
X142940000Y-37555000D03*
G04 #@! TD*
D30*
G04 #@! TO.C,Y1*
X84100000Y-49410000D03*
X80400000Y-49410000D03*
G04 #@! TD*
D31*
G04 #@! TO.C,Y2*
X86250500Y-49450000D03*
X88750500Y-49450000D03*
G04 #@! TD*
D13*
G04 #@! TO.C,Q1*
X144610000Y-76780000D03*
X142710000Y-76780000D03*
X143660000Y-78780000D03*
G04 #@! TD*
G04 #@! TO.C,Q2*
X93170000Y-84750000D03*
X91270000Y-84750000D03*
X92220000Y-86750000D03*
G04 #@! TD*
M02*
