M48
;DRILL file {KiCad 5.0.2+dfsg1-1~bpo9+1} date Tue 30 Jul 2019 05:00:06 PM +07
;FORMAT={3:3/ absolute / metric / suppress leading zeros}
FMAT,2
METRIC,TZ
T1C0.400
T2C0.550
T3C0.762
T4C1.000
T5C3.200
T6C3.500
%
G90
G05
T1
X63590Y-48220
X63770Y-56950
X63770Y-57950
X63770Y-58950
X63770Y-59950
X63770Y-60950
X63940Y-33400
X63940Y-34400
X63940Y-35400
X63940Y-36400
X63940Y-37400
X64770Y-56950
X64770Y-57950
X64770Y-58950
X64770Y-59950
X64770Y-60950
X64940Y-33400
X64940Y-34400
X64940Y-35400
X64940Y-36400
X64940Y-37400
X65770Y-56950
X65770Y-57950
X65770Y-58950
X65770Y-59950
X65770Y-60950
X65940Y-33400
X65940Y-34400
X65940Y-35400
X65940Y-36400
X65940Y-37400
X66770Y-56950
X66770Y-57950
X66770Y-58950
X66770Y-59950
X66770Y-60950
X66940Y-33400
X66940Y-34400
X66940Y-35400
X66940Y-36400
X66940Y-37400
X67080Y-44230
X67770Y-56950
X67770Y-57950
X67770Y-58950
X67770Y-59950
X67770Y-60950
X67940Y-33400
X67940Y-34400
X67940Y-35400
X67940Y-36400
X67940Y-37400
X70430Y-44870
X70520Y-46610
X72300Y-81260
X72420Y-49240
X72440Y-65230
X72470Y-51300
X72660Y-156340
X72670Y-175030
X72720Y-107090
X72730Y-118970
X72740Y-137680
X73300Y-81260
X74300Y-81260
X74470Y-63260
X74540Y-65240
X75050Y-31880
X75190Y-61160
X75300Y-81260
X76230Y-32010
X76300Y-81260
X77220Y-98340
X77490Y-75370
X77490Y-79070
X77630Y-41970
X79540Y-77980
X79610Y-60970
X80460Y-69240
X80500Y-61790
X81130Y-80150
X81480Y-61230
X81540Y-83670
X81980Y-64270
X82120Y-86390
X82130Y-80150
X82230Y-60140
X82280Y-66020
X82717Y-64970
X83130Y-67120
X83130Y-80150
X83410Y-68360
X83460Y-61780
X83520Y-52410
X83880Y-54040
X84130Y-80150
X84414Y-64217
X85030Y-84350
X85040Y-58960
X85115Y-60280
X85130Y-80150
X85192Y-65339
X85730Y-51250
X86560Y-85090
X87240Y-137690
X87240Y-156340
X87250Y-119040
X87670Y-67300
X87720Y-58790
X87890Y-65220
X88489Y-67873
X88950Y-77100
X89050Y-64490
X89610Y-105060
X89930Y-51330
X90390Y-53760
X90810Y-58710
X91240Y-38780
X91240Y-39780
X91240Y-40780
X91240Y-41780
X91240Y-42780
X92240Y-38780
X92240Y-39780
X92240Y-40780
X92240Y-41780
X92240Y-42780
X93240Y-38780
X93240Y-39780
X93240Y-40780
X93240Y-41780
X93240Y-42780
X94240Y-38780
X94240Y-39780
X94240Y-40780
X94240Y-41780
X94240Y-42780
X95030Y-53760
X95240Y-38780
X95240Y-39780
X95240Y-40780
X95240Y-41780
X95240Y-42780
X95670Y-79360
X95910Y-61430
X96120Y-86720
X96860Y-84050
X98040Y-82030
X99400Y-83160
X102640Y-67060
X102640Y-68060
X102640Y-69060
X102640Y-70060
X102640Y-71060
X102950Y-27140
X102950Y-28140
X102950Y-29140
X102950Y-30140
X102950Y-31140
X103640Y-67060
X103640Y-68060
X103640Y-69060
X103640Y-70060
X103640Y-71060
X103950Y-27140
X103950Y-28140
X103950Y-29140
X103950Y-30140
X103950Y-31140
X104640Y-67060
X104640Y-68060
X104640Y-69060
X104640Y-70060
X104640Y-71060
X104950Y-27140
X104950Y-28140
X104950Y-29140
X104950Y-30140
X104950Y-31140
X105640Y-67060
X105640Y-68060
X105640Y-69060
X105640Y-70060
X105640Y-71060
X105780Y-41280
X105810Y-42940
X105810Y-44540
X105830Y-137690
X105830Y-156350
X105840Y-119060
X105950Y-27140
X105950Y-28140
X105950Y-29140
X105950Y-30140
X105950Y-31140
X106540Y-102730
X106640Y-67060
X106640Y-68060
X106640Y-69060
X106640Y-70060
X106640Y-71060
X106950Y-27140
X106950Y-28140
X106950Y-29140
X106950Y-30140
X106950Y-31140
X107390Y-45060
X109190Y-30710
X110030Y-27760
X115620Y-33970
X123390Y-45440
X123990Y-46040
X124440Y-119050
X124440Y-137710
X124440Y-156350
X127220Y-40410
X127290Y-45900
X128290Y-45900
X129290Y-45900
X130470Y-61190
X131470Y-61190
X131850Y-36340
X132470Y-61190
X132850Y-36340
X133470Y-61190
X133850Y-36340
X134470Y-61190
X134610Y-85740
X134610Y-86740
X134610Y-87740
X134610Y-88740
X134610Y-89740
X135530Y-40000
X135610Y-85740
X135610Y-86740
X135610Y-87740
X135610Y-88740
X135610Y-89740
X136610Y-85740
X136610Y-86740
X136610Y-87740
X136610Y-88740
X136610Y-89740
X137610Y-85740
X137610Y-86740
X137610Y-87740
X137610Y-88740
X137610Y-89740
X138610Y-85740
X138610Y-86740
X138610Y-87740
X138610Y-88740
X138610Y-89740
X140170Y-48720
X140170Y-49830
X142610Y-45740
X143030Y-119040
X143050Y-156340
X143050Y-175020
X143060Y-137680
X144360Y-36570
X144360Y-37570
X144360Y-38570
X144360Y-39570
X144360Y-40570
X152120Y-41790
X152120Y-42790
X152120Y-43790
X152120Y-44790
X152120Y-45790
X152120Y-46890
X152120Y-47890
X152120Y-48890
X152120Y-49890
X152120Y-50890
T2
X73140Y-29620
X77140Y-29620
T3
X117930Y-102000
X120470Y-99460
X123010Y-102000
T4
X103350Y-51200
X105890Y-51200
X131610Y-104290
X134150Y-104290
X136690Y-104290
X139230Y-104290
X145770Y-30580
X145770Y-33120
X75300Y-93600
X77840Y-93600
X80380Y-93600
X82920Y-93600
X85460Y-93600
X88000Y-93600
X90540Y-93600
X93080Y-93600
X95620Y-93600
X98160Y-93600
X100700Y-93600
X103240Y-93600
X105780Y-93600
X108320Y-93600
X110860Y-93600
X113400Y-93600
X115940Y-93600
X118480Y-93600
X121020Y-93600
X123560Y-93600
X131510Y-98970
X134050Y-98970
X136590Y-98970
X139130Y-98970
T5
X63730Y-174640
X151730Y-174640
T6
X63740Y-28600
X63740Y-93600
X151740Y-28600
X151740Y-93600
T0
M30
